<svg width="16" height="17" viewBox="0 0 16 17" fill="none" xmlns="http://www.w3.org/2000/svg">
<path d="M11.375 2.86914H4.625C4.01562 2.86914 3.5 3.4082 3.5 3.99414V13.7441C3.5 14.3535 4.01562 14.8691 4.625 14.8691H11.375C11.9609 14.8691 12.5 14.3535 12.5 13.7441V3.99414C12.5 3.4082 11.9609 2.86914 11.375 2.86914ZM5 7.74414C5 7.55664 5.16406 7.36914 5.375 7.36914H6.125C6.3125 7.36914 6.5 7.55664 6.5 7.74414V8.49414C6.5 8.70508 6.3125 8.86914 6.125 8.86914H5.375C5.16406 8.86914 5 8.70508 5 8.49414V7.74414ZM5 9.99414C5 9.80664 5.16406 9.61914 5.375 9.61914H6.125C6.3125 9.61914 6.5 9.80664 6.5 9.99414V10.7441C6.5 10.9551 6.3125 11.1191 6.125 11.1191H5.375C5.16406 11.1191 5 10.9551 5 10.7441V9.99414ZM8.75 12.9941C8.75 13.2051 8.5625 13.3691 8.375 13.3691H5.375C5.16406 13.3691 5 13.2051 5 12.9941V12.2441C5 12.0566 5.16406 11.8691 5.375 11.8691H8.375C8.5625 11.8691 8.75 12.0566 8.75 12.2441V12.9941ZM8.75 10.7441C8.75 10.9551 8.5625 11.1191 8.375 11.1191H7.625C7.41406 11.1191 7.25 10.9551 7.25 10.7441V9.99414C7.25 9.80664 7.41406 9.61914 7.625 9.61914H8.375C8.5625 9.61914 8.75 9.80664 8.75 9.99414V10.7441ZM8.75 8.49414C8.75 8.70508 8.5625 8.86914 8.375 8.86914H7.625C7.41406 8.86914 7.25 8.70508 7.25 8.49414V7.74414C7.25 7.55664 7.41406 7.36914 7.625 7.36914H8.375C8.5625 7.36914 8.75 7.55664 8.75 7.74414V8.49414ZM11 12.9941C11 13.2051 10.8125 13.3691 10.625 13.3691H9.875C9.66406 13.3691 9.5 13.2051 9.5 12.9941V12.2441C9.5 12.0566 9.66406 11.8691 9.875 11.8691H10.625C10.8125 11.8691 11 12.0566 11 12.2441V12.9941ZM11 10.7441C11 10.9551 10.8125 11.1191 10.625 11.1191H9.875C9.66406 11.1191 9.5 10.9551 9.5 10.7441V9.99414C9.5 9.80664 9.66406 9.61914 9.875 9.61914H10.625C10.8125 9.61914 11 9.80664 11 9.99414V10.7441ZM11 8.49414C11 8.70508 10.8125 8.86914 10.625 8.86914H9.875C9.66406 8.86914 9.5 8.70508 9.5 8.49414V7.74414C9.5 7.55664 9.66406 7.36914 9.875 7.36914H10.625C10.8125 7.36914 11 7.55664 11 7.74414V8.49414ZM11 6.24414C11 6.45508 10.8125 6.61914 10.625 6.61914H5.375C5.16406 6.61914 5 6.45508 5 6.24414V4.74414C5 4.55664 5.16406 4.36914 5.375 4.36914H10.625C10.8125 4.36914 11 4.55664 11 4.74414V6.24414Z" fill="#0DB14B"/>
</svg>
