<svg width="33" height="32" viewBox="0 0 33 32" fill="none" xmlns="http://www.w3.org/2000/svg">
<path d="M21.5375 10.9375C22.1 10.375 23.0375 10.375 23.6 11C24.225 11.5625 24.225 12.5 23.6 13.0625L15.6 21.0625C15.35 21.375 14.975 21.5 14.6 21.5C14.1625 21.5 13.7875 21.375 13.475 21.0625L9.47498 17.0625C8.84998 16.5 8.84998 15.5625 9.47498 14.9375C10.0375 14.375 10.975 14.375 11.6 14.9375L14.6 17.9375L21.5375 10.9375ZM16.6 0C25.4125 0 32.6 7.1875 32.6 16C32.6 24.875 25.4125 32 16.6 32C7.72498 32 0.599976 24.875 0.599976 16C0.599976 7.1875 7.72498 0 16.6 0ZM16.6 29C23.725 29 29.6 23.1875 29.6 16C29.6 8.875 23.725 3 16.6 3C9.41248 3 3.59998 8.875 3.59998 16C3.59998 23.1875 9.41248 29 16.6 29Z" fill="#00B14F"/>
</svg>
