<svg width="32" height="33" viewBox="0 0 32 33" fill="none" xmlns="http://www.w3.org/2000/svg">
<g clip-path="url(#clip0_771_4305)">
<path d="M31.9839 9.83749V23.9013C31.9839 28.8452 27.9751 32.8541 23.0312 32.8541H8.96737C4.02354 32.8541 0.0146484 28.8452 0.0146484 23.9013V9.83749C0.0146484 4.89365 4.02354 0.884766 8.96737 0.884766H23.0312C27.9751 0.884766 31.9839 4.89365 31.9839 9.83749Z" fill="url(#paint0_linear_771_4305)"/>
<path d="M22.7235 12.386C22.7235 13.6248 23.7271 14.6284 24.9659 14.6284C26.2031 14.6284 27.2067 15.632 27.2075 16.87C27.2067 18.108 26.2031 19.1116 24.9659 19.1116C23.7271 19.1116 22.7235 18.108 22.7243 16.87C22.7235 15.632 21.7198 14.6284 20.4818 14.6276C19.2439 14.6284 18.2402 13.6248 18.2402 12.386C18.2402 11.1488 17.2366 10.1452 15.9986 10.1444C14.7606 10.1452 13.757 11.1488 13.7562 12.3868C13.757 13.6248 12.7534 14.6284 11.5146 14.6284C10.2774 14.6284 9.27376 13.6248 9.27295 12.3868C9.27376 11.1488 10.2774 10.1452 11.5146 10.1452C12.7534 10.1452 13.757 9.14154 13.757 7.90275C13.757 6.66558 14.7606 5.66194 15.9986 5.66113C17.2366 5.66194 18.2402 6.66558 18.2402 7.90275C18.2402 9.14154 19.2439 10.1452 20.4818 10.1444C21.7198 10.1452 22.7235 11.1488 22.7235 12.386Z" fill="white"/>
<path d="M20.4819 19.112C21.7199 19.1112 22.7235 20.1148 22.7235 21.3536C22.7235 22.5908 21.7199 23.5944 20.4819 23.5952C19.2439 23.5944 18.2403 22.5908 18.2403 21.3536C18.2403 20.1148 17.2367 19.1112 15.9979 19.1112C14.7607 19.1112 13.7571 20.1148 13.7563 21.3528C13.7571 22.5908 14.7607 23.5944 15.9987 23.5952C17.2367 23.5944 18.2403 24.598 18.2403 25.8368C18.2403 27.074 17.2367 28.0776 15.9987 28.0784C14.7607 28.0776 13.7571 27.074 13.7571 25.8368C13.7571 24.598 12.7534 23.5944 11.5146 23.5944C10.2775 23.5944 9.27384 22.5908 9.27303 21.3528C9.27384 20.1148 8.2702 19.1112 7.03141 19.1112C5.79424 19.1112 4.7906 18.1075 4.78979 16.8695C4.7906 15.6316 5.79424 14.6279 7.03141 14.6279C8.2702 14.6279 9.27384 15.6316 9.27303 16.8695C9.27384 18.1075 10.2775 19.1112 11.5146 19.1112C12.7534 19.1112 13.7571 18.1075 13.7563 16.8695C13.7571 15.6316 14.7607 14.6279 15.9979 14.6279C17.2367 14.6279 18.2403 15.6316 18.2395 16.8695C18.2411 18.1075 19.2439 19.1112 20.4819 19.112Z" fill="white"/>
<path d="M15.9994 13.2659C16.4854 13.2659 16.8794 12.8719 16.8794 12.3859C16.8794 11.8998 16.4854 11.5059 15.9994 11.5059C15.5134 11.5059 15.1194 11.8998 15.1194 12.3859C15.1194 12.8719 15.5134 13.2659 15.9994 13.2659Z" fill="white"/>
<path d="M15.9994 22.2327C16.4854 22.2327 16.8794 21.8387 16.8794 21.3527C16.8794 20.8666 16.4854 20.4727 15.9994 20.4727C15.5134 20.4727 15.1194 20.8666 15.1194 21.3527C15.1194 21.8387 15.5134 22.2327 15.9994 22.2327Z" fill="white"/>
<path d="M20.4828 17.7493C20.9688 17.7493 21.3628 17.3553 21.3628 16.8693C21.3628 16.3832 20.9688 15.9893 20.4828 15.9893C19.9968 15.9893 19.6028 16.3832 19.6028 16.8693C19.6028 17.3553 19.9968 17.7493 20.4828 17.7493Z" fill="white"/>
<path d="M11.5162 17.7493C12.0022 17.7493 12.3962 17.3553 12.3962 16.8693C12.3962 16.3832 12.0022 15.9893 11.5162 15.9893C11.0302 15.9893 10.6362 16.3832 10.6362 16.8693C10.6362 17.3553 11.0302 17.7493 11.5162 17.7493Z" fill="white"/>
</g>
<defs>
<linearGradient id="paint0_linear_771_4305" x1="2.68601" y1="30.2806" x2="29.3126" y2="3.45824" gradientUnits="userSpaceOnUse">
<stop stop-color="#FF9F0F"/>
<stop offset="1" stop-color="#FF7A0F"/>
</linearGradient>
<clipPath id="clip0_771_4305">
<rect width="32" height="32" fill="white" transform="translate(-0.000488281 0.869141)"/>
</clipPath>
</defs>
</svg>
