<svg width="120" height="145" viewBox="0 0 120 145" fill="none" xmlns="http://www.w3.org/2000/svg">
<g clip-path="url(#clip0_1715_21691)">
<g clip-path="url(#clip1_1715_21691)">
<path d="M120.083 0.837891H0.0825195V120.838H120.083V0.837891Z" fill="white"/>
<path d="M11.7825 8.33789H7.58252V12.5379H11.7825V8.33789Z" fill="black"/>
<path d="M15.9825 8.33789H11.7825V12.5379H15.9825V8.33789Z" fill="black"/>
<path d="M20.1825 8.33789H15.9825V12.5379H20.1825V8.33789Z" fill="black"/>
<path d="M24.3825 8.33789H20.1825V12.5379H24.3825V8.33789Z" fill="black"/>
<path d="M28.5825 8.33789H24.3825V12.5379H28.5825V8.33789Z" fill="black"/>
<path d="M32.7825 8.33789H28.5825V12.5379H32.7825V8.33789Z" fill="black"/>
<path d="M36.9825 8.33789H32.7825V12.5379H36.9825V8.33789Z" fill="black"/>
<path d="M45.3825 8.33789H41.1825V12.5379H45.3825V8.33789Z" fill="black"/>
<path d="M49.5825 8.33789H45.3825V12.5379H49.5825V8.33789Z" fill="black"/>
<path d="M53.7825 8.33789H49.5825V12.5379H53.7825V8.33789Z" fill="black"/>
<path d="M70.5825 8.33789H66.3825V12.5379H70.5825V8.33789Z" fill="black"/>
<path d="M78.9825 8.33789H74.7825V12.5379H78.9825V8.33789Z" fill="black"/>
<path d="M87.3825 8.33789H83.1825V12.5379H87.3825V8.33789Z" fill="black"/>
<path d="M91.5825 8.33789H87.3825V12.5379H91.5825V8.33789Z" fill="black"/>
<path d="M95.7825 8.33789H91.5825V12.5379H95.7825V8.33789Z" fill="black"/>
<path d="M99.9825 8.33789H95.7825V12.5379H99.9825V8.33789Z" fill="black"/>
<path d="M104.183 8.33789H99.9825V12.5379H104.183V8.33789Z" fill="black"/>
<path d="M108.383 8.33789H104.183V12.5379H108.383V8.33789Z" fill="black"/>
<path d="M112.583 8.33789H108.383V12.5379H112.583V8.33789Z" fill="black"/>
<path d="M11.7825 12.5379H7.58252V16.7379H11.7825V12.5379Z" fill="black"/>
<path d="M36.9825 12.5379H32.7825L32.7825 16.7379H36.9825V12.5379Z" fill="black"/>
<path d="M53.7825 12.5379H49.5825V16.7379H53.7825V12.5379Z" fill="black"/>
<path d="M74.7825 12.5379H70.5825L70.5825 16.7379H74.7825V12.5379Z" fill="black"/>
<path d="M78.9825 12.5379H74.7825V16.7379H78.9825V12.5379Z" fill="black"/>
<path d="M87.3825 12.5379H83.1825V16.7379H87.3825V12.5379Z" fill="black"/>
<path d="M112.583 12.5379H108.383V16.7379H112.583V12.5379Z" fill="black"/>
<path d="M11.7825 16.7379H7.58252V20.9379H11.7825V16.7379Z" fill="black"/>
<path d="M20.1825 16.7379H15.9825V20.9379H20.1825V16.7379Z" fill="black"/>
<path d="M24.3825 16.7379H20.1825V20.9379H24.3825V16.7379Z" fill="black"/>
<path d="M28.5825 16.7379H24.3825V20.9379H28.5825V16.7379Z" fill="black"/>
<path d="M36.9825 16.7379H32.7825V20.9379H36.9825V16.7379Z" fill="black"/>
<path d="M57.9825 16.7379H53.7825V20.9379H57.9825V16.7379Z" fill="black"/>
<path d="M74.7825 16.7379H70.5825V20.9379H74.7825V16.7379Z" fill="black"/>
<path d="M87.3825 16.7379H83.1825V20.9379H87.3825V16.7379Z" fill="black"/>
<path d="M95.7825 16.7379H91.5825V20.9379H95.7825V16.7379Z" fill="black"/>
<path d="M99.9825 16.7379H95.7825V20.9379H99.9825V16.7379Z" fill="black"/>
<path d="M104.183 16.7379H99.9825V20.9379H104.183V16.7379Z" fill="black"/>
<path d="M112.583 16.7379H108.383V20.9379H112.583V16.7379Z" fill="black"/>
<path d="M11.7825 20.9379H7.58252V25.1379H11.7825V20.9379Z" fill="black"/>
<path d="M20.1825 20.9379H15.9825V25.1379H20.1825V20.9379Z" fill="black"/>
<path d="M24.3825 20.9379H20.1825V25.1379H24.3825V20.9379Z" fill="black"/>
<path d="M28.5825 20.9379H24.3825V25.1379H28.5825V20.9379Z" fill="black"/>
<path d="M36.9825 20.9379H32.7825V25.1379H36.9825V20.9379Z" fill="black"/>
<path d="M45.3825 20.9379H41.1825V25.1379H45.3825V20.9379Z" fill="black"/>
<path d="M53.7825 20.9379H49.5825V25.1379H53.7825V20.9379Z" fill="black"/>
<path d="M62.1825 20.9379H57.9825V25.1379H62.1825V20.9379Z" fill="black"/>
<path d="M74.7825 20.9379H70.5825V25.1379H74.7825V20.9379Z" fill="black"/>
<path d="M87.3825 20.9379H83.1825V25.1379H87.3825V20.9379Z" fill="black"/>
<path d="M95.7825 20.9379H91.5825V25.1379H95.7825V20.9379Z" fill="black"/>
<path d="M99.9825 20.9379H95.7825V25.1379H99.9825V20.9379Z" fill="black"/>
<path d="M104.183 20.9379H99.9825V25.1379H104.183V20.9379Z" fill="black"/>
<path d="M112.583 20.9379H108.383V25.1379H112.583V20.9379Z" fill="black"/>
<path d="M11.7825 25.1379H7.58252V29.3379H11.7825V25.1379Z" fill="black"/>
<path d="M20.1825 25.1379H15.9825V29.3379H20.1825V25.1379Z" fill="black"/>
<path d="M24.3825 25.1379H20.1825V29.3379H24.3825V25.1379Z" fill="black"/>
<path d="M28.5825 25.1379H24.3825V29.3379H28.5825V25.1379Z" fill="black"/>
<path d="M36.9825 25.1379H32.7825V29.3379H36.9825V25.1379Z" fill="black"/>
<path d="M49.5825 25.1379H45.3825V29.3379H49.5825V25.1379Z" fill="black"/>
<path d="M62.1825 25.1379H57.9825V29.3379H62.1825V25.1379Z" fill="black"/>
<path d="M66.3825 25.1379H62.1825V29.3379H66.3825V25.1379Z" fill="black"/>
<path d="M70.5825 25.1379H66.3825V29.3379H70.5825L70.5825 25.1379Z" fill="black"/>
<path d="M78.9825 25.1379H74.7825V29.3379H78.9825V25.1379Z" fill="black"/>
<path d="M87.3825 25.1379H83.1825V29.3379H87.3825V25.1379Z" fill="black"/>
<path d="M95.7825 25.1379H91.5825V29.3379H95.7825V25.1379Z" fill="black"/>
<path d="M99.9825 25.1379H95.7825V29.3379H99.9825V25.1379Z" fill="black"/>
<path d="M104.183 25.1379H99.9825V29.3379H104.183V25.1379Z" fill="black"/>
<path d="M112.583 25.1379H108.383V29.3379H112.583V25.1379Z" fill="black"/>
<path d="M11.7825 29.3379H7.58252V33.5379H11.7825V29.3379Z" fill="black"/>
<path d="M36.9825 29.3379H32.7825V33.5379H36.9825V29.3379Z" fill="black"/>
<path d="M45.3825 29.3379H41.1825V33.5379H45.3825V29.3379Z" fill="black"/>
<path d="M53.7825 29.3379H49.5825V33.5379H53.7825V29.3379Z" fill="black"/>
<path d="M57.9825 29.3379H53.7825V33.5379H57.9825V29.3379Z" fill="black"/>
<path d="M62.1825 29.3379H57.9825V33.5379H62.1825V29.3379Z" fill="black"/>
<path d="M66.3825 29.3379H62.1825V33.5379H66.3825V29.3379Z" fill="black"/>
<path d="M74.7825 29.3379H70.5825L70.5825 33.5379H74.7825V29.3379Z" fill="black"/>
<path d="M78.9825 29.3379H74.7825V33.5379H78.9825V29.3379Z" fill="black"/>
<path d="M87.3825 29.3379H83.1825V33.5379H87.3825V29.3379Z" fill="black"/>
<path d="M112.583 29.3379H108.383V33.5379H112.583V29.3379Z" fill="black"/>
<path d="M11.7825 33.5379H7.58252V37.7379H11.7825V33.5379Z" fill="black"/>
<path d="M15.9825 33.5379L11.7825 33.5379V37.7379H15.9825V33.5379Z" fill="black"/>
<path d="M20.1825 33.5379H15.9825V37.7379H20.1825V33.5379Z" fill="black"/>
<path d="M24.3825 33.5379H20.1825V37.7379H24.3825V33.5379Z" fill="black"/>
<path d="M28.5825 33.5379H24.3825V37.7379H28.5825V33.5379Z" fill="black"/>
<path d="M32.7825 33.5379L28.5825 33.5379V37.7379H32.7825L32.7825 33.5379Z" fill="black"/>
<path d="M36.9825 33.5379H32.7825L32.7825 37.7379H36.9825V33.5379Z" fill="black"/>
<path d="M45.3825 33.5379H41.1825V37.7379H45.3825V33.5379Z" fill="black"/>
<path d="M53.7825 33.5379H49.5825V37.7379H53.7825V33.5379Z" fill="black"/>
<path d="M62.1825 33.5379H57.9825V37.7379H62.1825V33.5379Z" fill="black"/>
<path d="M70.5825 33.5379H66.3825V37.7379H70.5825L70.5825 33.5379Z" fill="black"/>
<path d="M78.9825 33.5379H74.7825V37.7379H78.9825V33.5379Z" fill="black"/>
<path d="M87.3825 33.5379H83.1825V37.7379H87.3825V33.5379Z" fill="black"/>
<path d="M91.5825 33.5379L87.3825 33.5379V37.7379H91.5825V33.5379Z" fill="black"/>
<path d="M95.7825 33.5379H91.5825V37.7379H95.7825V33.5379Z" fill="black"/>
<path d="M99.9825 33.5379H95.7825V37.7379H99.9825V33.5379Z" fill="black"/>
<path d="M104.183 33.5379H99.9825V37.7379H104.183V33.5379Z" fill="black"/>
<path d="M108.383 33.5379L104.183 33.5379V37.7379H108.383V33.5379Z" fill="black"/>
<path d="M112.583 33.5379H108.383V37.7379H112.583V33.5379Z" fill="black"/>
<path d="M49.5825 37.7379H45.3825V41.9379H49.5825V37.7379Z" fill="black"/>
<path d="M53.7825 37.7379H49.5825V41.9379H53.7825V37.7379Z" fill="black"/>
<path d="M57.9825 37.7379H53.7825V41.9379H57.9825V37.7379Z" fill="black"/>
<path d="M66.3825 37.7379H62.1825V41.9379H66.3825V37.7379Z" fill="black"/>
<path d="M78.9825 37.7379H74.7825V41.9379H78.9825V37.7379Z" fill="black"/>
<path d="M32.7825 41.9379H28.5825V46.1379H32.7825V41.9379Z" fill="black"/>
<path d="M36.9825 41.9379H32.7825V46.1379H36.9825V41.9379Z" fill="black"/>
<path d="M45.3825 41.9379H41.1825V46.1379H45.3825V41.9379Z" fill="black"/>
<path d="M49.5825 41.9379H45.3825V46.1379H49.5825V41.9379Z" fill="black"/>
<path d="M53.7825 41.9379H49.5825V46.1379H53.7825V41.9379Z" fill="black"/>
<path d="M74.7825 41.9379H70.5825V46.1379H74.7825V41.9379Z" fill="black"/>
<path d="M83.1825 41.9379H78.9825V46.1379H83.1825V41.9379Z" fill="black"/>
<path d="M91.5825 41.9379H87.3825V46.1379H91.5825V41.9379Z" fill="black"/>
<path d="M99.9825 41.9379H95.7825V46.1379H99.9825V41.9379Z" fill="black"/>
<path d="M112.583 41.9379H108.383V46.1379H112.583V41.9379Z" fill="black"/>
<path d="M20.1825 46.1379H15.9825V50.3379H20.1825V46.1379Z" fill="black"/>
<path d="M45.3825 46.1379H41.1825V50.3379H45.3825V46.1379Z" fill="black"/>
<path d="M49.5825 46.1379H45.3825V50.3379H49.5825V46.1379Z" fill="black"/>
<path d="M66.3825 46.1379H62.1825V50.3379H66.3825V46.1379Z" fill="black"/>
<path d="M74.7825 46.1379H70.5825V50.3379H74.7825V46.1379Z" fill="black"/>
<path d="M87.3825 46.1379H83.1825V50.3379H87.3825V46.1379Z" fill="black"/>
<path d="M91.5825 46.1379H87.3825V50.3379H91.5825V46.1379Z" fill="black"/>
<path d="M95.7825 46.1379H91.5825V50.3379H95.7825V46.1379Z" fill="black"/>
<path d="M99.9825 46.1379H95.7825V50.3379H99.9825V46.1379Z" fill="black"/>
<path d="M104.183 46.1379H99.9825V50.3379H104.183V46.1379Z" fill="black"/>
<path d="M108.383 46.1379H104.183V50.3379H108.383V46.1379Z" fill="black"/>
<path d="M112.583 46.1379H108.383V50.3379H112.583V46.1379Z" fill="black"/>
<path d="M15.9825 50.3379H11.7825V54.5379H15.9825V50.3379Z" fill="black"/>
<path d="M24.3825 50.3379H20.1825V54.5379H24.3825V50.3379Z" fill="black"/>
<path d="M36.9825 50.3379H32.7825V54.5379H36.9825V50.3379Z" fill="black"/>
<path d="M41.1825 50.3379H36.9825V54.5379H41.1825V50.3379Z" fill="black"/>
<path d="M49.5825 50.3379H45.3825V54.5379H49.5825V50.3379Z" fill="black"/>
<path d="M57.9825 50.3379H53.7825V54.5379H57.9825V50.3379Z" fill="black"/>
<path d="M62.1825 50.3379H57.9825V54.5379H62.1825V50.3379Z" fill="black"/>
<path d="M66.3825 50.3379H62.1825V54.5379H66.3825V50.3379Z" fill="black"/>
<path d="M91.5825 50.3379H87.3825V54.5379H91.5825V50.3379Z" fill="black"/>
<path d="M95.7825 50.3379H91.5825V54.5379H95.7825V50.3379Z" fill="black"/>
<path d="M11.7825 54.5379H7.58252V58.7379H11.7825V54.5379Z" fill="black"/>
<path d="M15.9825 54.5379H11.7825V58.7379H15.9825V54.5379Z" fill="black"/>
<path d="M24.3825 54.5379H20.1825V58.7379H24.3825V54.5379Z" fill="black"/>
<path d="M28.5825 54.5379H24.3825V58.7379H28.5825V54.5379Z" fill="black"/>
<path d="M32.7825 54.5379H28.5825V58.7379H32.7825L32.7825 54.5379Z" fill="black"/>
<path d="M41.1825 54.5379H36.9825V58.7379H41.1825V54.5379Z" fill="black"/>
<path d="M45.3825 54.5379H41.1825V58.7379H45.3825V54.5379Z" fill="black"/>
<path d="M57.9825 54.5379H53.7825V58.7379H57.9825V54.5379Z" fill="black"/>
<path d="M62.1825 54.5379H57.9825V58.7379H62.1825V54.5379Z" fill="black"/>
<path d="M66.3825 54.5379H62.1825V58.7379H66.3825V54.5379Z" fill="black"/>
<path d="M70.5825 54.5379H66.3825V58.7379H70.5825V54.5379Z" fill="black"/>
<path d="M74.7825 54.5379H70.5825V58.7379H74.7825V54.5379Z" fill="black"/>
<path d="M87.3825 54.5379H83.1825V58.7379H87.3825V54.5379Z" fill="black"/>
<path d="M99.9825 54.5379H95.7825V58.7379H99.9825V54.5379Z" fill="black"/>
<path d="M11.7825 58.7379H7.58252V62.9379H11.7825V58.7379Z" fill="black"/>
<path d="M15.9825 58.7379H11.7825V62.9379H15.9825V58.7379Z" fill="black"/>
<path d="M24.3825 58.7379H20.1825V62.9379H24.3825V58.7379Z" fill="black"/>
<path d="M28.5825 58.7379H24.3825V62.9379H28.5825V58.7379Z" fill="black"/>
<path d="M32.7825 58.7379H28.5825V62.9379H32.7825V58.7379Z" fill="black"/>
<path d="M36.9825 58.7379H32.7825V62.9379H36.9825V58.7379Z" fill="black"/>
<path d="M49.5825 58.7379H45.3825V62.9379H49.5825V58.7379Z" fill="black"/>
<path d="M78.9825 58.7379H74.7825V62.9379H78.9825V58.7379Z" fill="black"/>
<path d="M83.1825 58.7379H78.9825V62.9379H83.1825V58.7379Z" fill="black"/>
<path d="M87.3825 58.7379H83.1825V62.9379H87.3825V58.7379Z" fill="black"/>
<path d="M91.5825 58.7379H87.3825V62.9379H91.5825V58.7379Z" fill="black"/>
<path d="M112.583 58.7379H108.383V62.9379H112.583V58.7379Z" fill="black"/>
<path d="M24.3825 62.9379H20.1825V67.1379H24.3825V62.9379Z" fill="black"/>
<path d="M41.1825 62.9379H36.9825V67.1379H41.1825V62.9379Z" fill="black"/>
<path d="M49.5825 62.9379H45.3825V67.1379H49.5825V62.9379Z" fill="black"/>
<path d="M53.7825 62.9379H49.5825V67.1379H53.7825V62.9379Z" fill="black"/>
<path d="M57.9825 62.9379H53.7825V67.1379H57.9825V62.9379Z" fill="black"/>
<path d="M66.3825 62.9379H62.1825V67.1379H66.3825V62.9379Z" fill="black"/>
<path d="M70.5825 62.9379H66.3825V67.1379H70.5825V62.9379Z" fill="black"/>
<path d="M78.9825 62.9379H74.7825V67.1379H78.9825V62.9379Z" fill="black"/>
<path d="M83.1825 62.9379H78.9825V67.1379H83.1825V62.9379Z" fill="black"/>
<path d="M11.7825 67.1379H7.58252V71.3379H11.7825V67.1379Z" fill="black"/>
<path d="M20.1825 67.1379H15.9825V71.3379H20.1825V67.1379Z" fill="black"/>
<path d="M36.9825 67.1379H32.7825V71.3379H36.9825V67.1379Z" fill="black"/>
<path d="M45.3825 67.1379H41.1825V71.3379H45.3825V67.1379Z" fill="black"/>
<path d="M53.7825 67.1379H49.5825V71.3379H53.7825V67.1379Z" fill="black"/>
<path d="M62.1825 67.1379H57.9825V71.3379H62.1825V67.1379Z" fill="black"/>
<path d="M66.3825 67.1379H62.1825V71.3379H66.3825V67.1379Z" fill="black"/>
<path d="M70.5825 67.1379H66.3825V71.3379H70.5825V67.1379Z" fill="black"/>
<path d="M83.1825 67.1379H78.9825V71.3379H83.1825V67.1379Z" fill="black"/>
<path d="M87.3825 67.1379H83.1825V71.3379H87.3825V67.1379Z" fill="black"/>
<path d="M91.5825 67.1379H87.3825V71.3379H91.5825V67.1379Z" fill="black"/>
<path d="M99.9825 67.1379H95.7825V71.3379H99.9825V67.1379Z" fill="black"/>
<path d="M108.383 67.1379H104.183V71.3379H108.383V67.1379Z" fill="black"/>
<path d="M20.1825 71.3379H15.9825V75.5379H20.1825V71.3379Z" fill="black"/>
<path d="M32.7825 71.3379L28.5825 71.3379V75.5379H32.7825L32.7825 71.3379Z" fill="black"/>
<path d="M41.1825 71.3379H36.9825V75.5379H41.1825V71.3379Z" fill="black"/>
<path d="M49.5825 71.3379H45.3825V75.5379H49.5825V71.3379Z" fill="black"/>
<path d="M53.7825 71.3379H49.5825V75.5379H53.7825V71.3379Z" fill="black"/>
<path d="M62.1825 71.3379H57.9825V75.5379H62.1825V71.3379Z" fill="black"/>
<path d="M66.3825 71.3379H62.1825V75.5379H66.3825V71.3379Z" fill="black"/>
<path d="M74.7825 71.3379L70.5825 71.3379L70.5825 75.5379H74.7825V71.3379Z" fill="black"/>
<path d="M83.1825 71.3379H78.9825V75.5379H83.1825V71.3379Z" fill="black"/>
<path d="M95.7825 71.3379H91.5825V75.5379H95.7825V71.3379Z" fill="black"/>
<path d="M99.9825 71.3379H95.7825V75.5379H99.9825V71.3379Z" fill="black"/>
<path d="M104.183 71.3379H99.9825V75.5379H104.183V71.3379Z" fill="black"/>
<path d="M108.383 71.3379H104.183V75.5379H108.383V71.3379Z" fill="black"/>
<path d="M15.9825 75.5379H11.7825V79.7379H15.9825V75.5379Z" fill="black"/>
<path d="M24.3825 75.5379H20.1825V79.7379H24.3825V75.5379Z" fill="black"/>
<path d="M32.7825 75.5379H28.5825V79.7379H32.7825V75.5379Z" fill="black"/>
<path d="M36.9825 75.5379H32.7825V79.7379H36.9825V75.5379Z" fill="black"/>
<path d="M41.1825 75.5379H36.9825V79.7379H41.1825V75.5379Z" fill="black"/>
<path d="M45.3825 75.5379H41.1825V79.7379H45.3825V75.5379Z" fill="black"/>
<path d="M49.5825 75.5379H45.3825V79.7379H49.5825V75.5379Z" fill="black"/>
<path d="M57.9825 75.5379H53.7825V79.7379H57.9825V75.5379Z" fill="black"/>
<path d="M66.3825 75.5379H62.1825V79.7379H66.3825V75.5379Z" fill="black"/>
<path d="M78.9825 75.5379H74.7825V79.7379H78.9825V75.5379Z" fill="black"/>
<path d="M83.1825 75.5379H78.9825V79.7379H83.1825V75.5379Z" fill="black"/>
<path d="M87.3825 75.5379H83.1825V79.7379H87.3825V75.5379Z" fill="black"/>
<path d="M91.5825 75.5379H87.3825V79.7379H91.5825V75.5379Z" fill="black"/>
<path d="M95.7825 75.5379H91.5825V79.7379H95.7825V75.5379Z" fill="black"/>
<path d="M99.9825 75.5379H95.7825V79.7379H99.9825V75.5379Z" fill="black"/>
<path d="M104.183 75.5379H99.9825V79.7379H104.183V75.5379Z" fill="black"/>
<path d="M112.583 75.5379H108.383V79.7379H112.583V75.5379Z" fill="black"/>
<path d="M45.3825 79.7379H41.1825V83.9379H45.3825V79.7379Z" fill="black"/>
<path d="M49.5825 79.7379H45.3825V83.9379H49.5825V79.7379Z" fill="black"/>
<path d="M53.7825 79.7379H49.5825V83.9379H53.7825V79.7379Z" fill="black"/>
<path d="M62.1825 79.7379H57.9825V83.9379H62.1825V79.7379Z" fill="black"/>
<path d="M74.7825 79.7379H70.5825V83.9379H74.7825V79.7379Z" fill="black"/>
<path d="M78.9825 79.7379H74.7825V83.9379H78.9825V79.7379Z" fill="black"/>
<path d="M95.7825 79.7379H91.5825V83.9379H95.7825V79.7379Z" fill="black"/>
<path d="M108.383 79.7379H104.183V83.9379H108.383V79.7379Z" fill="black"/>
<path d="M11.7825 83.9379H7.58252V88.1379H11.7825V83.9379Z" fill="black"/>
<path d="M15.9825 83.9379H11.7825V88.1379H15.9825V83.9379Z" fill="black"/>
<path d="M20.1825 83.9379H15.9825V88.1379H20.1825V83.9379Z" fill="black"/>
<path d="M24.3825 83.9379H20.1825V88.1379H24.3825V83.9379Z" fill="black"/>
<path d="M28.5825 83.9379H24.3825V88.1379H28.5825V83.9379Z" fill="black"/>
<path d="M32.7825 83.9379H28.5825V88.1379H32.7825V83.9379Z" fill="black"/>
<path d="M36.9825 83.9379H32.7825V88.1379H36.9825V83.9379Z" fill="black"/>
<path d="M49.5825 83.9379H45.3825V88.1379H49.5825V83.9379Z" fill="black"/>
<path d="M57.9825 83.9379H53.7825V88.1379H57.9825V83.9379Z" fill="black"/>
<path d="M62.1825 83.9379H57.9825V88.1379H62.1825V83.9379Z" fill="black"/>
<path d="M66.3825 83.9379H62.1825V88.1379H66.3825V83.9379Z" fill="black"/>
<path d="M70.5825 83.9379H66.3825V88.1379H70.5825L70.5825 83.9379Z" fill="black"/>
<path d="M74.7825 83.9379H70.5825L70.5825 88.1379H74.7825V83.9379Z" fill="black"/>
<path d="M78.9825 83.9379H74.7825V88.1379H78.9825V83.9379Z" fill="black"/>
<path d="M87.3825 83.9379H83.1825V88.1379H87.3825V83.9379Z" fill="black"/>
<path d="M95.7825 83.9379H91.5825V88.1379H95.7825V83.9379Z" fill="black"/>
<path d="M108.383 83.9379H104.183V88.1379H108.383V83.9379Z" fill="black"/>
<path d="M11.7825 88.1379H7.58252V92.3379H11.7825V88.1379Z" fill="black"/>
<path d="M36.9825 88.1379H32.7825L32.7825 92.3379H36.9825V88.1379Z" fill="black"/>
<path d="M45.3825 88.1379H41.1825V92.3379H45.3825V88.1379Z" fill="black"/>
<path d="M49.5825 88.1379H45.3825V92.3379H49.5825V88.1379Z" fill="black"/>
<path d="M66.3825 88.1379H62.1825V92.3379H66.3825V88.1379Z" fill="black"/>
<path d="M70.5825 88.1379H66.3825V92.3379H70.5825V88.1379Z" fill="black"/>
<path d="M78.9825 88.1379H74.7825V92.3379H78.9825V88.1379Z" fill="black"/>
<path d="M95.7825 88.1379H91.5825V92.3379H95.7825V88.1379Z" fill="black"/>
<path d="M99.9825 88.1379H95.7825V92.3379H99.9825V88.1379Z" fill="black"/>
<path d="M11.7825 92.3379H7.58252V96.5379H11.7825V92.3379Z" fill="black"/>
<path d="M20.1825 92.3379H15.9825V96.5379H20.1825V92.3379Z" fill="black"/>
<path d="M24.3825 92.3379H20.1825V96.5379H24.3825V92.3379Z" fill="black"/>
<path d="M28.5825 92.3379H24.3825V96.5379H28.5825V92.3379Z" fill="black"/>
<path d="M36.9825 92.3379H32.7825V96.5379H36.9825V92.3379Z" fill="black"/>
<path d="M53.7825 92.3379H49.5825V96.5379H53.7825V92.3379Z" fill="black"/>
<path d="M70.5825 92.3379H66.3825V96.5379H70.5825V92.3379Z" fill="black"/>
<path d="M74.7825 92.3379H70.5825V96.5379H74.7825V92.3379Z" fill="black"/>
<path d="M78.9825 92.3379H74.7825V96.5379H78.9825V92.3379Z" fill="black"/>
<path d="M83.1825 92.3379H78.9825V96.5379H83.1825V92.3379Z" fill="black"/>
<path d="M87.3825 92.3379H83.1825V96.5379H87.3825V92.3379Z" fill="black"/>
<path d="M91.5825 92.3379H87.3825V96.5379H91.5825V92.3379Z" fill="black"/>
<path d="M95.7825 92.3379H91.5825V96.5379H95.7825V92.3379Z" fill="black"/>
<path d="M99.9825 92.3379H95.7825V96.5379H99.9825V92.3379Z" fill="black"/>
<path d="M104.183 92.3379H99.9825V96.5379H104.183V92.3379Z" fill="black"/>
<path d="M112.583 92.3379H108.383V96.5379H112.583V92.3379Z" fill="black"/>
<path d="M11.7825 96.5379H7.58252V100.738H11.7825V96.5379Z" fill="black"/>
<path d="M20.1825 96.5379H15.9825V100.738H20.1825V96.5379Z" fill="black"/>
<path d="M24.3825 96.5379H20.1825V100.738H24.3825V96.5379Z" fill="black"/>
<path d="M28.5825 96.5379H24.3825V100.738H28.5825V96.5379Z" fill="black"/>
<path d="M36.9825 96.5379H32.7825V100.738H36.9825V96.5379Z" fill="black"/>
<path d="M49.5825 96.5379H45.3825V100.738H49.5825V96.5379Z" fill="black"/>
<path d="M66.3825 96.5379H62.1825V100.738H66.3825V96.5379Z" fill="black"/>
<path d="M70.5825 96.5379H66.3825V100.738H70.5825V96.5379Z" fill="black"/>
<path d="M78.9825 96.5379H74.7825V100.738H78.9825V96.5379Z" fill="black"/>
<path d="M91.5825 96.5379H87.3825V100.738H91.5825V96.5379Z" fill="black"/>
<path d="M11.7825 100.738H7.58252V104.938H11.7825V100.738Z" fill="black"/>
<path d="M20.1825 100.738H15.9825V104.938H20.1825V100.738Z" fill="black"/>
<path d="M24.3825 100.738H20.1825V104.938H24.3825V100.738Z" fill="black"/>
<path d="M28.5825 100.738H24.3825V104.938H28.5825V100.738Z" fill="black"/>
<path d="M36.9825 100.738H32.7825V104.938H36.9825V100.738Z" fill="black"/>
<path d="M66.3825 100.738H62.1825V104.938H66.3825V100.738Z" fill="black"/>
<path d="M78.9825 100.738H74.7825V104.938H78.9825V100.738Z" fill="black"/>
<path d="M91.5825 100.738H87.3825V104.938H91.5825V100.738Z" fill="black"/>
<path d="M99.9825 100.738H95.7825V104.938H99.9825V100.738Z" fill="black"/>
<path d="M104.183 100.738H99.9825V104.938H104.183V100.738Z" fill="black"/>
<path d="M11.7825 104.938H7.58252V109.138H11.7825V104.938Z" fill="black"/>
<path d="M36.9825 104.938H32.7825V109.138H36.9825V104.938Z" fill="black"/>
<path d="M53.7825 104.938H49.5825V109.138H53.7825V104.938Z" fill="black"/>
<path d="M57.9825 104.938H53.7825V109.138H57.9825V104.938Z" fill="black"/>
<path d="M62.1825 104.938H57.9825V109.138H62.1825V104.938Z" fill="black"/>
<path d="M66.3825 104.938H62.1825V109.138H66.3825V104.938Z" fill="black"/>
<path d="M74.7825 104.938H70.5825V109.138H74.7825V104.938Z" fill="black"/>
<path d="M78.9825 104.938H74.7825V109.138H78.9825V104.938Z" fill="black"/>
<path d="M83.1825 104.938H78.9825V109.138H83.1825V104.938Z" fill="black"/>
<path d="M87.3825 104.938H83.1825V109.138H87.3825V104.938Z" fill="black"/>
<path d="M91.5825 104.938H87.3825V109.138H91.5825V104.938Z" fill="black"/>
<path d="M99.9825 104.938H95.7825V109.138H99.9825V104.938Z" fill="black"/>
<path d="M112.583 104.938H108.383V109.138H112.583V104.938Z" fill="black"/>
<path d="M11.7825 109.138H7.58252V113.338H11.7825V109.138Z" fill="black"/>
<path d="M15.9825 109.138H11.7825V113.338H15.9825V109.138Z" fill="black"/>
<path d="M20.1825 109.138H15.9825V113.338H20.1825V109.138Z" fill="black"/>
<path d="M24.3825 109.138H20.1825V113.338H24.3825V109.138Z" fill="black"/>
<path d="M28.5825 109.138H24.3825V113.338H28.5825V109.138Z" fill="black"/>
<path d="M32.7825 109.138H28.5825V113.338H32.7825L32.7825 109.138Z" fill="black"/>
<path d="M36.9825 109.138H32.7825L32.7825 113.338H36.9825V109.138Z" fill="black"/>
<path d="M49.5825 109.138H45.3825V113.338H49.5825V109.138Z" fill="black"/>
<path d="M53.7825 109.138H49.5825V113.338H53.7825V109.138Z" fill="black"/>
<path d="M57.9825 109.138H53.7825V113.338H57.9825V109.138Z" fill="black"/>
<path d="M66.3825 109.138H62.1825V113.338H66.3825V109.138Z" fill="black"/>
<path d="M70.5825 109.138H66.3825V113.338H70.5825L70.5825 109.138Z" fill="black"/>
<path d="M78.9825 109.138H74.7825V113.338H78.9825V109.138Z" fill="black"/>
<path d="M83.1825 109.138H78.9825V113.338H83.1825V109.138Z" fill="black"/>
<path d="M87.3825 109.138H83.1825V113.338H87.3825V109.138Z" fill="black"/>
<path d="M104.183 109.138H99.9825V113.338H104.183V109.138Z" fill="black"/>
<path d="M112.583 109.138H108.383V113.338H112.583V109.138Z" fill="black"/>
</g>
<g filter="url(#filter0_d_1715_21691)">
<rect x="44.9993" y="45.3691" width="30" height="30" rx="15" fill="white" shape-rendering="crispEdges"/>
<path d="M57.3862 59.6417C57.3747 60.5065 56.7486 61.1263 55.9062 61.1229C55.1238 61.1196 54.4298 60.4893 54.4649 59.5662C54.4909 58.8854 55.0292 58.1532 55.9621 58.1702C56.7698 58.1849 57.3862 58.8496 57.3862 59.6417ZM56.6907 59.6731C56.6898 59.3712 56.5649 59.1739 56.3632 59.0143C56.0887 58.7971 55.5656 58.8575 55.3326 59.1583C55.0428 59.519 55.1423 60.0019 55.4482 60.2548C55.701 60.4299 55.9709 60.4786 56.2457 60.3521C56.5282 60.2101 56.6706 59.9771 56.6907 59.6731Z" fill="#212F3F"/>
<path d="M64.5778 59.9963C64.6891 59.7038 64.793 59.4317 64.8963 59.1594C65.0072 58.8668 65.1637 58.4628 65.2718 58.1691C65.4862 58.1691 65.8825 58.1691 66.0947 58.1691C65.7439 59.0469 65.2643 60.2458 64.9153 61.1243C64.9153 61.1243 64.8586 61.1243 64.7463 61.1243C64.6098 61.1243 64.3802 61.1243 64.2395 61.1243C63.8977 60.2592 63.5197 59.2792 63.177 58.4145C63.1512 58.3495 63.0718 58.1689 63.0718 58.1689C63.0718 58.1689 63.2602 58.1689 63.3315 58.1689C63.5018 58.1689 63.7328 58.1689 63.8959 58.1689C63.8959 58.1689 63.8984 58.176 63.8959 58.1689C64.1022 58.7313 64.3611 59.4136 64.5778 59.9963Z" fill="#00B14F"/>
<path d="M60.4433 59.7471C60.4085 58.865 61.0332 58.2104 61.8363 58.1715C62.2801 58.1499 62.7191 58.3531 63.0122 58.7015L62.9353 58.7621C62.7883 58.8693 62.6553 58.9725 62.5117 59.0922C62.4666 59.1299 62.4614 59.1371 62.4614 59.1371C62.2893 58.9533 61.9828 58.845 61.7265 58.8988C61.401 58.9828 61.1525 59.3701 61.1891 59.7303C61.2309 60.1413 61.5064 60.4042 61.8695 60.422C62.0729 60.4319 62.3121 60.3283 62.4614 60.1857C62.4614 60.1857 62.4592 60.1857 62.5081 60.2259C62.6539 60.3454 62.851 60.5047 62.9984 60.6182C62.727 60.9202 62.3294 61.1066 61.9473 61.1229C61.3096 61.1551 60.4895 60.6396 60.4433 59.7471Z" fill="#00B14F"/>
<path d="M52.9993 58.8633C52.9993 58.4257 53.0023 57.9551 52.9996 57.5176V57.4562C53.2115 57.4365 53.6056 57.3968 53.8171 57.3691C53.8189 57.5967 53.8171 58.0108 53.8171 58.2384H53.8128C53.9123 58.2384 54.1471 58.2392 54.2385 58.2368C54.2364 58.4124 54.2348 58.7076 54.2378 58.883C54.1403 58.8807 53.9145 58.8858 53.817 58.883C53.8186 59.2466 53.817 59.689 53.817 60.0511C53.8209 60.377 54.0222 60.465 54.2724 60.4025C54.3316 60.3877 54.4276 60.3276 54.4768 60.2955C54.5216 60.4384 54.699 60.7042 54.8073 60.8047C54.4092 61.1324 53.9426 61.2311 53.4732 60.9858C53.1491 60.8165 52.9993 60.5206 52.9993 60.1576C52.9993 59.7257 52.9993 59.2946 52.9993 58.8633Z" fill="#212F3F"/>
<path d="M57.9076 63.3688C57.7142 63.1113 57.5066 62.8151 57.3167 62.5633C57.4525 61.6105 57.6004 60.5498 57.7368 59.597C57.6576 59.4589 57.4982 59.1918 57.4174 59.0546C57.5489 58.8929 57.7845 58.6176 57.9114 58.4521C58.0496 58.6234 58.2709 58.8865 58.4093 59.0546C58.3283 59.1871 58.1677 59.463 58.0874 59.597C58.2091 60.4493 58.3663 61.7141 58.5061 62.5633L58.5011 62.5703C58.379 62.7382 58.0394 63.1935 57.9076 63.3688Z" fill="#212F3F"/>
<path d="M58.2696 60.1585C58.3906 60.2878 58.518 60.376 58.6738 60.4073C58.9966 60.4721 59.294 60.3419 59.4517 60.0729C59.6265 59.7748 59.5958 59.3774 59.3784 59.1226C59.1809 58.8912 58.7919 58.7985 58.4747 58.9852C58.37 58.8453 58.0923 58.5105 57.9785 58.3779C58.8607 57.8568 60.1748 58.3484 60.2866 59.4777C60.3581 60.1984 59.9735 60.8687 59.3198 61.0754C59.0498 61.1609 58.6725 61.1185 58.3944 61.0668C58.361 60.8071 58.309 60.4421 58.2696 60.1585Z" fill="#212F3F"/>
<path d="M66.6938 58.7788C66.5281 58.7769 66.3923 58.6349 66.3966 58.4683C66.4009 58.3034 66.5355 58.1696 66.6972 58.1699C66.8633 58.1703 67.0003 58.309 66.9994 58.4765C66.9985 58.6425 66.8588 58.7808 66.6938 58.7788ZM66.9279 58.4725C66.9271 58.3389 66.8289 58.2391 66.6981 58.2393C66.5649 58.2393 66.4633 58.3448 66.4654 58.4805C66.4674 58.6097 66.5726 58.712 66.7011 58.7099C66.8321 58.7075 66.9284 58.6068 66.9279 58.4725Z" fill="#212F3F"/>
<path d="M66.7829 58.5112L66.8179 58.52C66.8105 58.5492 66.7973 58.5713 66.7783 58.5865C66.7593 58.6017 66.736 58.6093 66.7084 58.6093C66.6799 58.6093 66.6568 58.6035 66.6388 58.5918C66.6209 58.58 66.6073 58.563 66.598 58.5409C66.5886 58.5186 66.584 58.4947 66.584 58.4692C66.584 58.4413 66.5892 58.417 66.5998 58.3964C66.6103 58.3757 66.6252 58.36 66.6447 58.3491C66.6641 58.3384 66.6856 58.333 66.7089 58.333C66.7354 58.333 66.7577 58.3399 66.7756 58.3535C66.7937 58.367 66.8062 58.3862 66.8132 58.4109L66.7788 58.419C66.7727 58.3996 66.7638 58.3853 66.7521 58.3765C66.7405 58.3676 66.7258 58.3632 66.708 58.3632C66.6878 58.3632 66.6707 58.3681 66.6571 58.3781C66.6435 58.3879 66.6338 58.4011 66.6283 58.4177C66.6227 58.4344 66.62 58.4514 66.62 58.469C66.62 58.4918 66.6232 58.5115 66.6299 58.5286C66.6365 58.5456 66.6467 58.5583 66.6605 58.5666C66.6743 58.5749 66.6894 58.5791 66.7055 58.5791C66.725 58.5791 66.7417 58.5733 66.7553 58.5619C66.7688 58.5506 66.7781 58.5336 66.7829 58.5112Z" fill="#212F3F"/>
</g>
</g>
<path d="M16.58 137.017C16.58 137.418 16.65 137.694 16.79 137.843C16.93 137.983 17.126 138.053 17.378 138.053C17.546 138.053 17.7187 138.025 17.896 137.969C18.0827 137.913 18.2833 137.829 18.498 137.717L18.904 138.879C18.6147 139.056 18.316 139.196 18.008 139.299C17.7 139.392 17.3873 139.439 17.07 139.439C16.6967 139.439 16.3513 139.369 16.034 139.229C15.7167 139.08 15.46 138.846 15.264 138.529C15.0773 138.212 14.984 137.801 14.984 137.297V130.171H16.58V137.017ZM13.934 132.201H18.778V133.349H13.934V132.201ZM23.5011 131.879C24.2665 131.879 24.9385 132.038 25.5171 132.355C26.1051 132.672 26.5625 133.116 26.8891 133.685C27.2158 134.245 27.3791 134.898 27.3791 135.645C27.3791 136.392 27.2158 137.05 26.8891 137.619C26.5625 138.188 26.1051 138.632 25.5171 138.949C24.9385 139.266 24.2665 139.425 23.5011 139.425C22.7358 139.425 22.0591 139.266 21.4711 138.949C20.8831 138.632 20.4258 138.188 20.0991 137.619C19.7725 137.05 19.6091 136.392 19.6091 135.645C19.6091 134.898 19.7725 134.245 20.0991 133.685C20.4258 133.116 20.8831 132.672 21.4711 132.355C22.0591 132.038 22.7358 131.879 23.5011 131.879ZM23.5011 133.181C23.0531 133.181 22.6565 133.288 22.3111 133.503C21.9658 133.708 21.6951 133.998 21.4991 134.371C21.3125 134.744 21.2191 135.174 21.2191 135.659C21.2191 136.154 21.3125 136.588 21.4991 136.961C21.6951 137.334 21.9658 137.628 22.3111 137.843C22.6565 138.048 23.0531 138.151 23.5011 138.151C23.9491 138.151 24.3411 138.048 24.6771 137.843C25.0225 137.628 25.2885 137.334 25.4751 136.961C25.6711 136.588 25.7691 136.154 25.7691 135.659C25.7691 135.174 25.6711 134.744 25.4751 134.371C25.2885 133.998 25.0225 133.708 24.6771 133.503C24.3411 133.288 23.9491 133.181 23.5011 133.181ZM33.3431 131.879C34.0525 131.879 34.6731 132.038 35.2051 132.355C35.7371 132.672 36.1525 133.116 36.4511 133.685C36.7498 134.254 36.8991 134.917 36.8991 135.673C36.8991 136.41 36.7498 137.064 36.4511 137.633C36.1618 138.193 35.7511 138.632 35.2191 138.949C34.6965 139.266 34.0805 139.425 33.3711 139.425C32.6898 139.425 32.1065 139.276 31.6211 138.977C31.1451 138.678 30.7811 138.249 30.5291 137.689C30.2771 137.12 30.1511 136.448 30.1511 135.673C30.1511 134.87 30.2771 134.189 30.5291 133.629C30.7811 133.06 31.1451 132.626 31.6211 132.327C32.1065 132.028 32.6805 131.879 33.3431 131.879ZM33.0071 133.153C32.5685 133.153 32.1765 133.26 31.8311 133.475C31.4858 133.69 31.2151 133.984 31.0191 134.357C30.8325 134.721 30.7391 135.146 30.7391 135.631C30.7391 136.116 30.8325 136.55 31.0191 136.933C31.2151 137.306 31.4858 137.6 31.8311 137.815C32.1765 138.02 32.5685 138.123 33.0071 138.123C33.4551 138.123 33.8471 138.016 34.1831 137.801C34.5285 137.586 34.7945 137.292 34.9811 136.919C35.1771 136.546 35.2751 136.116 35.2751 135.631C35.2751 135.155 35.1771 134.73 34.9811 134.357C34.7945 133.984 34.5285 133.69 34.1831 133.475C33.8471 133.26 33.4551 133.153 33.0071 133.153ZM29.1291 131.935H30.7391V142.085H29.1291V131.935ZM43.8248 134.063C43.5634 133.792 43.2554 133.582 42.9008 133.433C42.5461 133.284 42.1448 133.209 41.6968 133.209C41.2674 133.209 40.8848 133.312 40.5488 133.517C40.2128 133.722 39.9514 134.012 39.7648 134.385C39.5781 134.749 39.4848 135.174 39.4848 135.659C39.4848 136.144 39.5781 136.574 39.7648 136.947C39.9514 137.311 40.2128 137.6 40.5488 137.815C40.8848 138.02 41.2674 138.123 41.6968 138.123C42.1634 138.123 42.5834 138.048 42.9568 137.899C43.3301 137.74 43.6428 137.512 43.8948 137.213L44.7908 138.095C44.4548 138.515 44.0161 138.842 43.4748 139.075C42.9428 139.308 42.3268 139.425 41.6268 139.425C40.8894 139.425 40.2361 139.266 39.6668 138.949C39.1068 138.632 38.6681 138.193 38.3508 137.633C38.0334 137.064 37.8748 136.406 37.8748 135.659C37.8748 134.912 38.0334 134.259 38.3508 133.699C38.6681 133.13 39.1068 132.686 39.6668 132.369C40.2361 132.042 40.8894 131.879 41.6268 131.879C42.2988 131.879 42.8914 131.982 43.4048 132.187C43.9274 132.383 44.3614 132.663 44.7068 133.027L43.8248 134.063ZM45.3011 131.935H46.9811L49.0531 137.885L51.0971 131.935H52.7071L49.8511 139.369H48.1851L45.3011 131.935ZM53.8678 137.717C54.1198 137.717 54.3298 137.801 54.4978 137.969C54.6658 138.128 54.7498 138.338 54.7498 138.599C54.7498 138.86 54.6658 139.075 54.4978 139.243C54.3298 139.411 54.1198 139.495 53.8678 139.495C53.6158 139.495 53.4058 139.411 53.2378 139.243C53.0698 139.075 52.9858 138.86 52.9858 138.599C52.9858 138.338 53.0698 138.128 53.2378 137.969C53.4058 137.801 53.6158 137.717 53.8678 137.717ZM61.8306 134.063C61.5693 133.792 61.2613 133.582 60.9066 133.433C60.552 133.284 60.1506 133.209 59.7026 133.209C59.2733 133.209 58.8906 133.312 58.5546 133.517C58.2186 133.722 57.9573 134.012 57.7706 134.385C57.584 134.749 57.4906 135.174 57.4906 135.659C57.4906 136.144 57.584 136.574 57.7706 136.947C57.9573 137.311 58.2186 137.6 58.5546 137.815C58.8906 138.02 59.2733 138.123 59.7026 138.123C60.1693 138.123 60.5893 138.048 60.9626 137.899C61.336 137.74 61.6486 137.512 61.9006 137.213L62.7966 138.095C62.4606 138.515 62.022 138.842 61.4806 139.075C60.9486 139.308 60.3326 139.425 59.6326 139.425C58.8953 139.425 58.242 139.266 57.6726 138.949C57.1126 138.632 56.674 138.193 56.3566 137.633C56.0393 137.064 55.8806 136.406 55.8806 135.659C55.8806 134.912 56.0393 134.259 56.3566 133.699C56.674 133.13 57.1126 132.686 57.6726 132.369C58.242 132.042 58.8953 131.879 59.6326 131.879C60.3046 131.879 60.8973 131.982 61.4106 132.187C61.9333 132.383 62.3673 132.663 62.7126 133.027L61.8306 134.063ZM67.3742 131.879C68.1395 131.879 68.8115 132.038 69.3902 132.355C69.9782 132.672 70.4355 133.116 70.7622 133.685C71.0889 134.245 71.2522 134.898 71.2522 135.645C71.2522 136.392 71.0889 137.05 70.7622 137.619C70.4355 138.188 69.9782 138.632 69.3902 138.949C68.8115 139.266 68.1395 139.425 67.3742 139.425C66.6089 139.425 65.9322 139.266 65.3442 138.949C64.7562 138.632 64.2989 138.188 63.9722 137.619C63.6455 137.05 63.4822 136.392 63.4822 135.645C63.4822 134.898 63.6455 134.245 63.9722 133.685C64.2989 133.116 64.7562 132.672 65.3442 132.355C65.9322 132.038 66.6089 131.879 67.3742 131.879ZM67.3742 133.181C66.9262 133.181 66.5295 133.288 66.1842 133.503C65.8389 133.708 65.5682 133.998 65.3722 134.371C65.1855 134.744 65.0922 135.174 65.0922 135.659C65.0922 136.154 65.1855 136.588 65.3722 136.961C65.5682 137.334 65.8389 137.628 66.1842 137.843C66.5295 138.048 66.9262 138.151 67.3742 138.151C67.8222 138.151 68.2142 138.048 68.5502 137.843C68.8955 137.628 69.1615 137.334 69.3482 136.961C69.5442 136.588 69.6422 136.154 69.6422 135.659C69.6422 135.174 69.5442 134.744 69.3482 134.371C69.1615 133.998 68.8955 133.708 68.5502 133.503C68.2142 133.288 67.8222 133.181 67.3742 133.181ZM78.3502 135.169C78.3502 134.581 78.1962 134.124 77.8882 133.797C77.5802 133.461 77.1509 133.293 76.6002 133.293C75.9562 133.312 75.4475 133.55 75.0742 134.007C74.7102 134.464 74.5282 135.029 74.5282 135.701H74.0802C74.0802 134.786 74.2062 134.049 74.4582 133.489C74.7195 132.929 75.0835 132.523 75.5502 132.271C76.0262 132.01 76.5862 131.879 77.2302 131.879C77.7995 131.879 78.2849 131.996 78.6862 132.229C79.0969 132.462 79.4095 132.794 79.6242 133.223C79.8482 133.643 79.9602 134.152 79.9602 134.749V139.369H78.3502V135.169ZM83.7682 135.169C83.7682 134.581 83.6095 134.124 83.2922 133.797C82.9842 133.461 82.5549 133.293 82.0042 133.293C81.3695 133.312 80.8702 133.55 80.5062 134.007C80.1422 134.464 79.9602 135.029 79.9602 135.701H79.4982C79.4982 134.786 79.6242 134.049 79.8762 133.489C80.1375 132.929 80.5015 132.523 80.9682 132.271C81.4442 132.01 82.0042 131.879 82.6482 131.879C83.2175 131.879 83.7029 131.996 84.1042 132.229C84.5149 132.462 84.8275 132.794 85.0422 133.223C85.2662 133.643 85.3782 134.152 85.3782 134.749V139.369H83.7682V135.169ZM72.9322 131.935H74.5282V139.369H72.9322V131.935ZM87.8698 137.717C88.1218 137.717 88.3318 137.801 88.4998 137.969C88.6678 138.128 88.7518 138.338 88.7518 138.599C88.7518 138.86 88.6678 139.075 88.4998 139.243C88.3318 139.411 88.1218 139.495 87.8698 139.495C87.6178 139.495 87.4078 139.411 87.2398 139.243C87.0718 139.075 86.9878 138.86 86.9878 138.599C86.9878 138.338 87.0718 138.128 87.2398 137.969C87.4078 137.801 87.6178 137.717 87.8698 137.717ZM89.4066 131.935H91.0866L93.1586 137.885L95.2026 131.935H96.8126L93.9566 139.369H92.2906L89.4066 131.935ZM103.536 135.169C103.536 134.59 103.377 134.138 103.06 133.811C102.743 133.475 102.304 133.307 101.744 133.307C101.081 133.316 100.559 133.55 100.176 134.007C99.8027 134.464 99.6161 135.034 99.6161 135.715H99.1681C99.1681 134.791 99.2987 134.049 99.5601 133.489C99.8214 132.929 100.19 132.523 100.666 132.271C101.151 132.01 101.721 131.879 102.374 131.879C102.953 131.879 103.447 131.996 103.858 132.229C104.278 132.462 104.595 132.794 104.81 133.223C105.034 133.643 105.146 134.152 105.146 134.749V139.369H103.536V135.169ZM98.0201 131.935H99.6301V139.369H98.0201V131.935Z" fill="#0DB14B"/>
<defs>
<filter id="filter0_d_1715_21691" x="40.9993" y="45.3691" width="38" height="38" filterUnits="userSpaceOnUse" color-interpolation-filters="sRGB">
<feFlood flood-opacity="0" result="BackgroundImageFix"/>
<feColorMatrix in="SourceAlpha" type="matrix" values="0 0 0 0 0 0 0 0 0 0 0 0 0 0 0 0 0 0 127 0" result="hardAlpha"/>
<feOffset dy="4"/>
<feGaussianBlur stdDeviation="2"/>
<feComposite in2="hardAlpha" operator="out"/>
<feColorMatrix type="matrix" values="0 0 0 0 0 0 0 0 0 0 0 0 0 0 0 0 0 0 0.25 0"/>
<feBlend mode="normal" in2="BackgroundImageFix" result="effect1_dropShadow_1715_21691"/>
<feBlend mode="normal" in="SourceGraphic" in2="effect1_dropShadow_1715_21691" result="shape"/>
</filter>
<clipPath id="clip0_1715_21691">
<rect width="120" height="120" fill="white" transform="translate(0 0.369141)"/>
</clipPath>
<clipPath id="clip1_1715_21691">
<rect width="120" height="120" fill="white" transform="translate(0.0825195 0.837891)"/>
</clipPath>
</defs>
</svg>
