<svg width="32" height="33" viewBox="0 0 32 33" fill="none" xmlns="http://www.w3.org/2000/svg">
<g clip-path="url(#clip0_771_4319)">
<path d="M23.6043 0.920898H8.41727C3.80103 0.920898 0.0588379 4.6631 0.0588379 9.27933V24.4634C0.0588379 29.0797 3.80103 32.8219 8.41727 32.8219H23.6043C28.2206 32.8219 31.9628 29.0797 31.9628 24.4634V9.27933C31.9628 4.6631 28.2206 0.920898 23.6043 0.920898Z" fill="#04B14E"/>
<path d="M14.4922 4.76367V13.6025L11.4622 11.6662V6.69993L14.4922 4.76367Z" fill="white"/>
<path d="M18.6972 27.0901L18.5125 27.3783L17.5296 28.0065L16.0146 28.9746L13.1915 27.1714L8.43212 24.134L5.4021 22.1977V18.5986L8.43212 20.5349L16.0146 25.3755L17.5296 26.3363L18.6972 27.0901Z" fill="white"/>
<path d="M20.5595 22.4785V26.0702L18.5124 27.3783L17.5295 28.0065L16.0145 28.9746L13.1914 27.1714L16.0145 25.3755L17.5295 24.4074L18.845 23.5723L20.5595 22.4785Z" fill="white"/>
<path d="M26.627 19.2118V22.2049L23.5896 24.1338V20.5421L24.4764 19.973L24.9494 19.6774L26.3462 18.7832L26.627 19.2118Z" fill="white"/>
<path d="M26.3093 17.5417L24.9495 19.6775L24.676 20.0988L24.4765 19.9732L23.5896 19.4041L17.5296 15.539L14.4922 13.6027L11.4622 11.6665V8.06738L14.4922 10.0036L17.5296 11.9399L23.5896 15.8124L26.3093 17.5417Z" fill="white"/>
<path d="M20.5597 21.0668V24.6659L18.8451 23.5721L17.5296 22.7296L17.0049 22.3971L16.8497 22.301L16.3472 21.9758L13.9675 20.4608L8.43218 16.9282L5.66821 15.162L7.30147 12.6123L8.43218 13.3292L13.9675 16.8617L17.0049 18.798L17.5296 19.1305L20.5597 21.0668Z" fill="white"/>
<path d="M17.0049 18.7977V22.3967L16.8497 22.3007L16.3471 21.9755L15.2903 21.303L13.9675 20.4605L8.43212 16.9279L5.66815 15.1616L5.4021 14.9917V11.3926L7.30141 12.612L8.43212 13.3288L13.9675 16.8614L17.0049 18.7977Z" fill="white"/>
<path d="M26.627 10.573V22.2053L23.5896 24.1342V8.63672L26.627 10.573Z" fill="white"/>
<path d="M20.5596 13.8757V17.4748L17.5295 15.5385V11.9395L20.5596 13.8757Z" fill="white"/>
<path d="M20.5596 21.0671V26.0704L18.5125 27.3784L17.5295 28.0066V19.1309L20.5596 21.0671Z" fill="white"/>
<path d="M8.43212 8.63672V16.9286L5.66815 15.1624L5.4021 14.9924V10.5656L8.43212 8.63672Z" fill="white"/>
<path d="M5.4021 18.5986L8.43212 20.5349V24.134L5.4021 22.1977V18.5986Z" fill="white"/>
</g>
<defs>
<clipPath id="clip0_771_4319">
<rect width="32" height="32" fill="white" transform="translate(-0.000244141 0.869141)"/>
</clipPath>
</defs>
</svg>
