<svg width="279" height="86" viewBox="0 0 279 86" fill="none" xmlns="http://www.w3.org/2000/svg">
<rect width="278.5" height="86" rx="8" fill="url(#paint0_linear_12630_18001)"/>
<path d="M38.0024 42.6113C37.941 46.9351 34.5869 50.0341 30.0738 50.0169C25.8824 50.0006 22.1643 46.8491 22.3526 42.2338C22.4918 38.8297 25.3754 35.1686 30.3734 35.2537C34.7002 35.327 38.0024 38.6505 38.0024 42.6113ZM34.2767 42.7679C34.2719 41.2587 33.6026 40.2719 32.5224 39.4743C31.0513 38.3879 28.2493 38.6903 27.001 40.194C25.4483 41.9975 25.9813 44.412 27.6204 45.6767C28.9743 46.5522 30.4204 46.7957 31.8925 46.1629C33.4058 45.4531 34.1692 44.2879 34.2767 42.7679Z" fill="white"/>
<path d="M76.5298 44.3839C77.1261 42.9218 77.683 41.5611 78.2361 40.1995C78.8305 38.7365 79.6688 36.7167 80.2478 35.2482C81.3962 35.2482 83.5193 35.2482 84.6562 35.2482C82.777 39.6373 80.2075 45.6315 78.3379 50.0241C78.3379 50.0241 78.0345 50.0241 77.4324 50.0241C76.7017 50.0241 75.4716 50.0241 74.7178 50.0241C72.8867 45.6985 70.8615 40.7988 69.0256 36.4749C68.8873 36.1499 68.4619 35.2473 68.4619 35.2473C68.4619 35.2473 69.4711 35.2473 69.8533 35.2473C70.7655 35.2473 72.0032 35.2473 72.8771 35.2473C72.8771 35.2473 72.8905 35.2826 72.8771 35.2473C73.9823 38.0593 75.3689 41.4706 76.5298 44.3839Z" fill="white"/>
<path d="M54.3805 43.1382C54.1942 38.7274 57.5406 35.4546 61.8434 35.26C64.2209 35.1523 66.5725 36.168 68.1425 37.9099L67.7306 38.2132C66.9432 38.7491 66.2307 39.2652 65.4615 39.8636C65.2196 40.0519 65.1917 40.0881 65.1917 40.0881C64.2699 39.1692 62.6279 38.6278 61.2548 38.8967C59.511 39.3168 58.1801 41.2533 58.376 43.054C58.5997 45.1091 60.0756 46.4236 62.021 46.5123C63.1109 46.5621 64.3918 46.0443 65.1917 45.3309C65.1917 45.3309 65.1802 45.3309 65.4423 45.5319C66.223 46.1294 67.2793 46.9261 68.0686 47.4937C66.6148 49.0038 64.485 49.9354 62.4378 50.0169C59.0213 50.178 54.6282 47.6006 54.3805 43.1382Z" fill="white"/>
<path d="M14.501 38.7208C14.501 36.5326 14.5173 34.1797 14.5029 31.9924V31.6855C15.6379 31.5868 17.7494 31.3885 18.8825 31.25C18.8921 32.388 18.8825 34.4585 18.8825 35.5965H18.8595C19.3924 35.5965 20.6503 35.6001 21.14 35.5883C21.1285 36.4665 21.1199 37.9422 21.1362 38.8195C20.6138 38.8077 19.4039 38.8331 18.8816 38.8195C18.8902 40.6374 18.8816 42.8491 18.8816 44.6598C18.9027 46.2894 19.981 46.7293 21.3215 46.417C21.6384 46.3428 22.1531 46.0422 22.4162 45.882C22.6562 46.5963 23.6069 47.9253 24.1868 48.4277C22.0542 50.0664 19.5547 50.5598 17.0398 49.3331C15.3037 48.4866 14.501 47.0073 14.501 45.1921C14.501 43.0329 14.501 40.8773 14.501 38.7208Z" fill="white"/>
<path d="M40.7958 61.2501C39.7597 59.9627 38.6477 58.4816 37.6299 57.2223C38.3577 52.4584 39.1499 47.155 39.8807 42.3912C39.4562 41.7004 38.6026 40.365 38.1695 39.6788C38.8743 38.8703 40.1361 37.4942 40.8159 36.6667C41.5563 37.5232 42.7422 38.8386 43.4835 39.6788C43.0494 40.3415 42.1891 41.7212 41.7589 42.3912C42.4109 46.6525 43.253 52.9763 44.002 57.2223L43.9751 57.2576C43.3212 58.0968 41.5015 60.3737 40.7958 61.2501Z" fill="white"/>
<path d="M42.7352 45.1952C43.3834 45.8416 44.0661 46.2825 44.9005 46.4392C46.6299 46.7633 48.2229 46.1123 49.0679 44.767C50.0042 43.2768 49.84 41.2896 48.6752 40.0158C47.617 38.8588 45.5333 38.3953 43.8337 39.3287C43.2729 38.6289 41.7855 36.9549 41.1758 36.2922C45.902 33.6867 52.9415 36.1446 53.5407 41.7912C53.9238 45.3944 51.8632 48.7459 48.3612 49.7798C46.9151 50.2071 44.8938 49.9953 43.4035 49.7364C43.2249 48.4381 42.9464 46.613 42.7352 45.1952Z" fill="white"/>
<path d="M87.8641 38.3002C86.9768 38.2903 86.249 37.5805 86.272 36.7476C86.2951 35.9228 87.0162 35.2538 87.8823 35.2556C88.7725 35.2574 89.5061 35.9509 89.5013 36.7883C89.4965 37.6185 88.7485 38.3102 87.8641 38.3002ZM89.1181 36.7684C89.1143 36.1003 88.5881 35.6015 87.8871 35.6024C87.1737 35.6024 86.6292 36.1302 86.6407 36.8083C86.6513 37.4547 87.215 37.9662 87.9034 37.9553C88.6054 37.9435 89.121 37.4402 89.1181 36.7684Z" fill="white"/>
<path d="M88.3412 36.9629L88.5285 37.0072C88.4891 37.153 88.4181 37.2634 88.3163 37.3395C88.2145 37.4155 88.0897 37.4536 87.9418 37.4536C87.7891 37.4536 87.6652 37.4246 87.5692 37.3657C87.4732 37.3069 87.4002 37.2218 87.3503 37.1113C87.3004 37 87.2754 36.8805 87.2754 36.7528C87.2754 36.6134 87.3032 36.4921 87.3599 36.3889C87.4165 36.2857 87.4962 36.2069 87.6009 36.1526C87.7046 36.0992 87.8198 36.072 87.9447 36.072C88.0868 36.072 88.2059 36.1064 88.3019 36.1743C88.3989 36.2422 88.4661 36.3382 88.5035 36.4613L88.3192 36.5021C88.2865 36.4052 88.2385 36.3337 88.1761 36.2893C88.1137 36.2449 88.0349 36.2232 87.9399 36.2232C87.8314 36.2232 87.7401 36.2477 87.6672 36.2974C87.5942 36.3463 87.5423 36.4124 87.5126 36.4957C87.4828 36.579 87.4684 36.6641 87.4684 36.7519C87.4684 36.866 87.4857 36.9647 87.5212 37.0498C87.5567 37.1349 87.6115 37.1983 87.6854 37.2399C87.7593 37.2815 87.84 37.3024 87.9264 37.3024C88.0311 37.3024 88.1204 37.2734 88.1934 37.2164C88.2654 37.1602 88.3153 37.0751 88.3412 36.9629Z" fill="white"/>
<path d="M109.588 20.984C109.516 21.08 109.36 21.344 109.3 21.5C108.82 22.688 107.908 24.368 106.912 25.472C105.568 26.972 103.852 28.4 101.956 29.264L101.188 28.46C103.132 27.716 104.896 26.276 106.132 24.908C106.948 23.984 107.824 22.556 108.136 21.56C107.704 21.56 103.864 21.56 103.456 21.56C103.024 21.56 102.376 21.608 102.244 21.62V20.54C102.4 20.564 103.084 20.612 103.456 20.612C103.924 20.612 107.632 20.612 108.088 20.612C108.472 20.612 108.796 20.576 108.988 20.516L109.588 20.984ZM107.068 24.848C108.364 25.928 109.96 27.608 110.776 28.604L109.948 29.336C109.084 28.196 107.68 26.66 106.384 25.52L107.068 24.848ZM122.905 21.392C122.785 21.524 122.677 21.656 122.605 21.764C121.705 23.24 120.049 25.352 117.925 26.888L117.181 26.216C119.101 24.884 120.649 22.94 121.285 21.8C120.205 21.8 114.913 21.8 114.229 21.8C113.749 21.8 113.233 21.836 113.005 21.86V20.792C113.329 20.84 113.809 20.876 114.229 20.876C114.841 20.876 120.181 20.876 121.381 20.876C121.705 20.876 121.981 20.852 122.149 20.792L122.905 21.392ZM117.253 27.092C116.533 26.372 115.153 25.184 114.517 24.728L115.285 24.104C115.837 24.5 117.229 25.64 118.093 26.48C118.849 27.236 119.785 28.22 120.301 28.844L119.425 29.54C118.981 28.928 118.021 27.872 117.253 27.092ZM125.113 23.804C125.485 23.84 126.109 23.876 126.793 23.876C127.669 23.876 132.481 23.876 133.369 23.876C133.969 23.876 134.389 23.828 134.665 23.804V24.98C134.413 24.968 133.909 24.932 133.381 24.932C132.469 24.932 127.681 24.932 126.793 24.932C126.133 24.932 125.497 24.956 125.113 24.98V23.804ZM140.065 27.944C140.065 27.272 140.065 21.968 140.065 20.972C140.065 20.624 140.041 20.096 139.981 19.712H141.157C141.109 20.084 141.073 20.6 141.073 20.972C141.073 22.832 141.085 27.38 141.085 27.944C141.085 28.328 141.109 28.976 141.157 29.372H139.993C140.053 28.988 140.065 28.388 140.065 27.944ZM140.857 22.868C142.441 23.324 144.865 24.248 146.197 24.896L145.777 25.916C144.409 25.184 142.165 24.332 140.857 23.924V22.868ZM158.569 19.1L159.193 19.808C157.525 20.3 154.885 20.576 152.725 20.696C152.689 20.492 152.569 20.168 152.473 19.964C154.597 19.832 157.177 19.532 158.569 19.1ZM152.641 21.368L153.373 21.164C153.781 21.86 154.165 22.796 154.285 23.396L153.505 23.648C153.397 23.036 153.049 22.088 152.641 21.368ZM155.077 21.008L155.845 20.852C156.157 21.572 156.409 22.484 156.457 23.072L155.641 23.252C155.605 22.676 155.377 21.728 155.077 21.008ZM158.713 20.696L159.553 21.02C159.061 22.028 158.401 23.228 157.873 23.984L157.177 23.684C157.693 22.904 158.353 21.608 158.713 20.696ZM152.521 24.848H159.529V25.652H152.521V24.848ZM155.581 23.516H156.445V29.9H155.581V23.516ZM155.209 25.292L155.929 25.544C155.185 27.08 153.817 28.496 152.437 29.228C152.305 29 152.029 28.688 151.825 28.532C153.169 27.908 154.525 26.624 155.209 25.292ZM156.817 25.328C157.465 26.588 158.713 27.884 159.901 28.52C159.697 28.676 159.433 28.988 159.289 29.192C158.089 28.448 156.805 27.008 156.109 25.58L156.817 25.328ZM148.489 25.148C149.425 24.884 150.829 24.452 152.197 24.008L152.317 24.836C151.069 25.268 149.749 25.7 148.729 26.024L148.489 25.148ZM148.657 21.344H152.305V22.184H148.657V21.344ZM150.169 18.932H151.009V28.916C151.009 29.42 150.889 29.66 150.589 29.804C150.313 29.948 149.845 29.972 149.089 29.972C149.053 29.756 148.945 29.384 148.825 29.132C149.353 29.144 149.809 29.144 149.953 29.132C150.097 29.132 150.169 29.096 150.169 28.916V18.932ZM162.637 19.772H170.401V20.636H162.637V19.772ZM162.637 22.568H170.389V23.42H162.637V22.568ZM162.577 25.436H170.413V26.288H162.577V25.436ZM162.133 19.772H163.021V24.128C163.021 25.952 162.805 28.436 161.377 30.032C161.233 29.852 160.873 29.552 160.681 29.432C162.001 27.944 162.133 25.808 162.133 24.116V19.772ZM170.041 19.772H170.929V28.736C170.929 29.324 170.785 29.6 170.389 29.756C169.981 29.9 169.285 29.912 168.145 29.9C168.109 29.66 167.965 29.264 167.833 29.024C168.685 29.06 169.501 29.048 169.729 29.048C169.957 29.036 170.041 28.964 170.041 28.736V19.772ZM165.901 20.096H166.813V29.852H165.901V20.096ZM174.997 20.132C175.345 20.168 175.693 20.192 176.089 20.192C176.785 20.192 180.277 20.192 180.949 20.192C181.285 20.192 181.717 20.168 182.065 20.132V21.128C181.705 21.104 181.285 21.08 180.949 21.08C180.277 21.08 176.785 21.08 176.101 21.08C175.705 21.08 175.309 21.104 174.997 21.128V20.132ZM173.569 23.144C173.893 23.18 174.241 23.192 174.613 23.192C175.309 23.192 181.825 23.192 182.461 23.192C182.713 23.192 183.109 23.18 183.409 23.144V24.128C183.133 24.116 182.761 24.104 182.461 24.104C181.825 24.104 175.309 24.104 174.613 24.104C174.253 24.104 173.893 24.116 173.569 24.14V23.144ZM179.221 23.624C179.221 25.136 179.029 26.384 178.489 27.392C178.057 28.196 177.145 29.048 176.137 29.576L175.249 28.928C176.173 28.532 177.037 27.848 177.505 27.08C178.105 26.132 178.201 24.956 178.213 23.636L179.221 23.624ZM195.013 21.5C194.917 21.668 194.797 21.944 194.737 22.136C194.413 23.348 193.681 24.968 192.613 26.276C191.521 27.608 190.081 28.7 187.837 29.54L186.961 28.748C189.169 28.1 190.657 27.02 191.761 25.736C192.685 24.644 193.429 23.084 193.669 21.992H189.229L189.613 21.128C190.093 21.128 193.057 21.128 193.429 21.128C193.753 21.128 194.029 21.092 194.221 21.02L195.013 21.5ZM190.993 19.688C190.801 20 190.585 20.408 190.465 20.624C189.757 21.956 188.509 23.672 186.577 24.944L185.737 24.332C187.813 23.096 188.989 21.344 189.517 20.276C189.637 20.06 189.817 19.628 189.889 19.316L190.993 19.688ZM205.59 20.372C205.458 20.696 205.314 21.128 205.206 21.428C204.75 22.724 204.03 24.488 203.01 25.784C201.93 27.164 200.214 28.496 198.486 29.204L197.646 28.34C199.446 27.716 201.102 26.504 202.194 25.148C203.298 23.756 204.114 21.788 204.45 20.072L205.59 20.372ZM209.862 20.78C210.33 20.804 210.642 20.804 210.93 20.804C211.566 20.804 216.786 20.804 217.374 20.804C217.626 20.804 218.058 20.804 218.43 20.792C218.406 21.08 218.406 21.416 218.406 21.716C218.406 22.28 218.406 27.176 218.406 27.632C218.406 28.016 218.418 28.952 218.43 29.084H217.386C217.398 28.952 217.41 28.268 217.41 27.764C217.41 27.32 217.41 21.752 217.41 21.752H210.858C210.858 21.752 210.858 27.272 210.858 27.764C210.858 28.16 210.87 28.928 210.87 29.084H209.85C209.85 28.928 209.874 28.052 209.874 27.632C209.874 27.14 209.874 22.184 209.874 21.716C209.874 21.44 209.874 21.08 209.862 20.78ZM217.806 27.464V28.4H210.378V27.464H217.806ZM228.834 20.048C229.134 20.492 229.674 21.344 229.95 21.92L229.266 22.232C228.966 21.596 228.558 20.876 228.162 20.336L228.834 20.048ZM230.394 19.472C230.718 19.892 231.258 20.756 231.546 21.308L230.862 21.62C230.55 20.996 230.13 20.3 229.734 19.772L230.394 19.472ZM223.698 19.868C224.406 20.264 225.786 21.188 226.314 21.572L225.738 22.388C225.174 21.956 223.866 21.08 223.158 20.684L223.698 19.868ZM221.898 28.448C223.218 28.22 224.706 27.752 225.93 27.056C227.922 25.916 229.494 24.356 230.466 22.664L231.054 23.648C230.01 25.256 228.354 26.816 226.434 27.932C225.222 28.64 223.566 29.204 222.462 29.432L221.898 28.448ZM221.898 22.568C222.606 22.952 224.01 23.816 224.526 24.188L223.974 25.028C223.386 24.608 222.09 23.768 221.358 23.396L221.898 22.568ZM233.586 23.804C233.958 23.84 234.582 23.876 235.266 23.876C236.142 23.876 240.954 23.876 241.842 23.876C242.442 23.876 242.862 23.828 243.138 23.804V24.98C242.886 24.968 242.382 24.932 241.854 24.932C240.942 24.932 236.154 24.932 235.266 24.932C234.606 24.932 233.97 24.956 233.586 24.98V23.804ZM253.451 20.384C253.451 20.828 253.799 21.176 254.243 21.176C254.675 21.176 255.035 20.828 255.035 20.384C255.035 19.952 254.675 19.592 254.243 19.592C253.799 19.592 253.451 19.952 253.451 20.384ZM252.899 20.384C252.899 19.64 253.499 19.04 254.243 19.04C254.987 19.04 255.587 19.64 255.587 20.384C255.587 21.128 254.987 21.728 254.243 21.728C253.499 21.728 252.899 21.128 252.899 20.384ZM253.943 21.188C253.859 21.356 253.811 21.56 253.763 21.788C253.499 23.048 252.923 24.992 251.963 26.216C250.871 27.632 249.443 28.736 247.247 29.432L246.431 28.532C248.759 27.944 250.103 26.924 251.111 25.64C251.963 24.56 252.515 22.88 252.683 21.728C251.987 21.728 247.235 21.728 246.539 21.728C246.059 21.728 245.651 21.752 245.351 21.776V20.708C245.675 20.744 246.155 20.792 246.551 20.792C247.235 20.792 252.023 20.792 252.563 20.792C252.755 20.792 252.983 20.78 253.211 20.72L253.943 21.188ZM102.772 38.072C103.084 38.108 103.456 38.132 103.84 38.132C104.488 38.132 107.86 38.132 108.568 38.132C108.94 38.132 109.36 38.108 109.648 38.072V39.068C109.372 39.044 108.952 39.032 108.544 39.032C107.872 39.032 104.5 39.032 103.84 39.032C103.48 39.032 103.096 39.044 102.772 39.068V38.072ZM110.536 41.228C110.476 41.348 110.392 41.492 110.368 41.588C110.056 42.764 109.516 44.012 108.616 44.996C107.368 46.376 105.856 47.072 104.332 47.504L103.588 46.652C105.28 46.304 106.78 45.524 107.812 44.444C108.532 43.688 109.012 42.668 109.228 41.792C108.64 41.792 103.588 41.792 102.868 41.792C102.58 41.792 102.124 41.804 101.692 41.84V40.832C102.124 40.868 102.532 40.904 102.868 40.904C103.456 40.904 108.568 40.904 109.18 40.904C109.456 40.904 109.72 40.868 109.852 40.808L110.536 41.228ZM117.928 40.1C118.132 40.58 118.72 42.164 118.864 42.68L117.976 43.004C117.844 42.452 117.292 40.928 117.04 40.4L117.928 40.1ZM122.272 40.772C122.188 41.012 122.128 41.204 122.08 41.36C121.768 42.68 121.24 43.976 120.388 45.056C119.272 46.46 117.808 47.396 116.476 47.9L115.684 47.096C117.064 46.688 118.6 45.776 119.584 44.552C120.436 43.508 121.048 41.972 121.24 40.436L122.272 40.772ZM115.132 40.7C115.372 41.204 116.008 42.776 116.224 43.412L115.324 43.748C115.132 43.124 114.484 41.456 114.244 41.036L115.132 40.7ZM128.296 45.944C128.296 45.272 128.296 39.968 128.296 38.972C128.296 38.624 128.272 38.096 128.212 37.712H129.388C129.34 38.084 129.304 38.6 129.304 38.972C129.304 40.832 129.316 45.38 129.316 45.944C129.316 46.328 129.34 46.976 129.388 47.372H128.224C128.284 46.988 128.296 46.388 128.296 45.944ZM129.088 40.868C130.672 41.324 133.096 42.248 134.428 42.896L134.008 43.916C132.64 43.184 130.396 42.332 129.088 41.924V40.868ZM146.728 39.032C146.644 39.2 146.596 39.392 146.548 39.632C146.284 40.892 145.708 42.824 144.748 44.06C143.656 45.464 142.228 46.58 140.032 47.264L139.216 46.364C141.544 45.788 142.888 44.768 143.896 43.484C144.748 42.392 145.3 40.724 145.468 39.572C144.772 39.572 140.02 39.572 139.324 39.572C138.844 39.572 138.436 39.596 138.136 39.608V38.54C138.46 38.588 138.94 38.624 139.336 38.624C140.02 38.624 144.808 38.624 145.348 38.624C145.528 38.624 145.768 38.612 145.996 38.564L146.728 39.032ZM156.34 39.668C156.292 39.92 156.292 40.208 156.292 40.484C156.316 41.54 156.376 45.188 156.4 46.928C156.4 47.444 156.016 47.744 155.488 47.744C155.02 47.744 154.228 47.708 153.76 47.684L153.7 46.796C154.192 46.868 154.816 46.916 155.164 46.916C155.392 46.916 155.5 46.784 155.5 46.556C155.5 45.14 155.44 41.54 155.392 40.484C155.392 40.244 155.368 39.932 155.32 39.668H156.34ZM150.928 41.396C151.216 41.444 151.54 41.456 151.828 41.456C152.332 41.456 157.54 41.456 158.032 41.456C158.284 41.456 158.668 41.432 158.836 41.396V42.344C158.632 42.332 158.296 42.32 158.068 42.32C157.636 42.32 152.272 42.32 151.84 42.32C151.528 42.32 151.216 42.332 150.928 42.356V41.396ZM150.616 45.992C152.548 45.068 154.516 43.304 155.212 42.044L155.704 42.056L155.716 42.776C155.08 43.952 153.112 45.764 151.276 46.724L150.616 45.992ZM161.872 41.804C162.244 41.84 162.868 41.876 163.552 41.876C164.428 41.876 169.24 41.876 170.128 41.876C170.728 41.876 171.148 41.828 171.424 41.804V42.98C171.172 42.968 170.668 42.932 170.14 42.932C169.228 42.932 164.44 42.932 163.552 42.932C162.892 42.932 162.256 42.956 161.872 42.98V41.804ZM178.693 38.06C178.573 38.348 178.441 38.66 178.273 39.176C177.889 40.4 176.497 44.708 175.981 45.92L174.901 45.956C175.501 44.576 176.893 40.232 177.253 38.96C177.409 38.408 177.457 38.132 177.493 37.808L178.693 38.06ZM180.973 42.08C181.813 43.304 183.133 45.728 183.625 46.964L182.629 47.408C182.149 46.112 180.925 43.616 180.061 42.476L180.973 42.08ZM174.433 45.668C176.161 45.584 180.457 45.104 182.005 44.876L182.269 45.812C180.601 46.028 176.185 46.508 174.493 46.676C174.193 46.7 173.833 46.748 173.497 46.796L173.305 45.692C173.665 45.704 174.085 45.692 174.433 45.668ZM100.528 57.4062V56.2727H107.283V57.4062H104.56V65H103.247V57.4062H100.528ZM110.613 65.1321C109.999 65.1321 109.464 64.9915 109.006 64.7102C108.549 64.429 108.194 64.0355 107.941 63.5298C107.688 63.0241 107.562 62.4332 107.562 61.7571C107.562 61.0781 107.688 60.4844 107.941 59.9759C108.194 59.4673 108.549 59.0724 109.006 58.7912C109.464 58.5099 109.999 58.3693 110.613 58.3693C111.226 58.3693 111.762 58.5099 112.219 58.7912C112.677 59.0724 113.032 59.4673 113.285 59.9759C113.538 60.4844 113.664 61.0781 113.664 61.7571C113.664 62.4332 113.538 63.0241 113.285 63.5298C113.032 64.0355 112.677 64.429 112.219 64.7102C111.762 64.9915 111.226 65.1321 110.613 65.1321ZM110.617 64.0625C111.015 64.0625 111.344 63.9574 111.606 63.7472C111.867 63.5369 112.06 63.2571 112.185 62.9077C112.313 62.5582 112.377 62.1733 112.377 61.7528C112.377 61.3352 112.313 60.9517 112.185 60.6023C112.06 60.25 111.867 59.9673 111.606 59.7543C111.344 59.5412 111.015 59.4347 110.617 59.4347C110.217 59.4347 109.884 59.5412 109.62 59.7543C109.359 59.9673 109.164 60.25 109.036 60.6023C108.911 60.9517 108.849 61.3352 108.849 61.7528C108.849 62.1733 108.911 62.5582 109.036 62.9077C109.164 63.2571 109.359 63.5369 109.62 63.7472C109.884 63.9574 110.217 64.0625 110.617 64.0625ZM115.218 67.4545V58.4545H116.463V59.5156H116.569C116.643 59.3793 116.749 59.2216 116.889 59.0426C117.028 58.8636 117.221 58.7074 117.468 58.5739C117.715 58.4375 118.042 58.3693 118.448 58.3693C118.977 58.3693 119.448 58.5028 119.863 58.7699C120.278 59.0369 120.603 59.4219 120.839 59.9247C121.078 60.4276 121.197 61.0327 121.197 61.7401C121.197 62.4474 121.079 63.054 120.843 63.5597C120.607 64.0625 120.284 64.4503 119.872 64.723C119.46 64.9929 118.989 65.1278 118.461 65.1278C118.063 65.1278 117.738 65.0611 117.485 64.9276C117.235 64.794 117.039 64.6378 116.897 64.4588C116.755 64.2798 116.646 64.1207 116.569 63.9815H116.492V67.4545H115.218ZM116.467 61.7273C116.467 62.1875 116.534 62.5909 116.667 62.9375C116.801 63.2841 116.994 63.5554 117.247 63.7514C117.499 63.9446 117.809 64.0412 118.176 64.0412C118.556 64.0412 118.874 63.9403 119.13 63.7386C119.386 63.5341 119.579 63.2571 119.71 62.9077C119.843 62.5582 119.91 62.1648 119.91 61.7273C119.91 61.2955 119.845 60.9077 119.714 60.5639C119.586 60.2202 119.393 59.9489 119.134 59.75C118.879 59.5511 118.559 59.4517 118.176 59.4517C117.806 59.4517 117.494 59.5469 117.238 59.7372C116.985 59.9276 116.793 60.1932 116.663 60.5341C116.532 60.875 116.467 61.2727 116.467 61.7273ZM130.107 59.1108H128.778C128.727 58.8267 128.631 58.5767 128.492 58.3608C128.353 58.1449 128.183 57.9616 127.981 57.8111C127.779 57.6605 127.553 57.5469 127.303 57.4702C127.056 57.3935 126.793 57.3551 126.515 57.3551C126.012 57.3551 125.562 57.4815 125.164 57.7344C124.769 57.9872 124.457 58.358 124.227 58.8466C123.999 59.3352 123.886 59.9318 123.886 60.6364C123.886 61.3466 123.999 61.946 124.227 62.4347C124.457 62.9233 124.771 63.2926 125.168 63.5426C125.566 63.7926 126.014 63.9176 126.511 63.9176C126.786 63.9176 127.048 63.8807 127.295 63.8068C127.545 63.7301 127.771 63.6179 127.972 63.4702C128.174 63.3224 128.345 63.142 128.484 62.929C128.626 62.7131 128.724 62.4659 128.778 62.1875L130.107 62.1918C130.036 62.6207 129.898 63.0156 129.694 63.3764C129.492 63.7344 129.232 64.044 128.914 64.3054C128.599 64.5639 128.238 64.7642 127.832 64.9062C127.425 65.0483 126.982 65.1193 126.502 65.1193C125.746 65.1193 125.073 64.9403 124.482 64.5824C123.891 64.2216 123.425 63.706 123.085 63.0355C122.746 62.3651 122.577 61.5653 122.577 60.6364C122.577 59.7045 122.748 58.9048 123.089 58.2372C123.43 57.5668 123.896 57.0526 124.487 56.6946C125.077 56.3338 125.749 56.1534 126.502 56.1534C126.965 56.1534 127.397 56.2202 127.798 56.3537C128.201 56.4844 128.563 56.6776 128.884 56.9332C129.205 57.1861 129.471 57.4957 129.681 57.8622C129.891 58.2259 130.033 58.642 130.107 59.1108ZM132.578 56.2727L135.007 63.3807H135.105L137.534 56.2727H138.957L135.816 65H134.295L131.154 56.2727H132.578ZM139.926 65.081C139.693 65.081 139.493 64.9986 139.325 64.8338C139.158 64.6662 139.074 64.4645 139.074 64.2287C139.074 63.9957 139.158 63.7969 139.325 63.6321C139.493 63.4645 139.693 63.3807 139.926 63.3807C140.159 63.3807 140.36 63.4645 140.527 63.6321C140.695 63.7969 140.779 63.9957 140.779 64.2287C140.779 64.3849 140.739 64.5284 140.659 64.6591C140.583 64.7869 140.48 64.8892 140.352 64.9659C140.225 65.0426 140.083 65.081 139.926 65.081ZM148.217 58.4545L145.843 65H144.479L142.102 58.4545H143.47L145.127 63.4915H145.195L146.849 58.4545H148.217ZM150.82 61.1136V65H149.546V58.4545H150.769V59.5199H150.85C151.001 59.1733 151.236 58.8949 151.558 58.6847C151.881 58.4744 152.289 58.3693 152.781 58.3693C153.227 58.3693 153.617 58.4631 153.952 58.6506C154.288 58.8352 154.548 59.1108 154.732 59.4773C154.917 59.8437 155.009 60.2969 155.009 60.8366V65H153.735V60.9901C153.735 60.5156 153.611 60.1449 153.364 59.8778C153.117 59.608 152.778 59.473 152.346 59.473C152.05 59.473 151.788 59.5369 151.558 59.6648C151.33 59.7926 151.15 59.9801 151.016 60.2273C150.886 60.4716 150.82 60.767 150.82 61.1136Z" fill="white"/>
<defs>
<linearGradient id="paint0_linear_12630_18001" x1="1.73506" y1="42.3248" x2="276.765" y2="42.3248" gradientUnits="userSpaceOnUse">
<stop stop-color="#213142"/>
<stop offset="1" stop-color="#0A9C4B"/>
</linearGradient>
</defs>
</svg>
