<svg width="75" height="35" viewBox="0 0 75 35" fill="none" xmlns="http://www.w3.org/2000/svg">
<path d="M23.5014 15.4802C23.44 19.804 20.0859 22.903 15.5728 22.8858C11.3814 22.8695 7.66337 19.718 7.85158 15.1027C7.99081 11.6986 10.8744 8.03745 15.8724 8.12255C20.1992 8.19588 23.5014 11.5194 23.5014 15.4802ZM19.7757 15.6368C19.7709 14.1276 19.1016 13.1408 18.0214 12.3432C16.5503 11.2568 13.7484 11.5592 12.5001 13.0629C10.9474 14.8664 11.4803 17.2809 13.1194 18.5456C14.4733 19.4211 15.9194 19.6646 17.3915 19.0318C18.9048 18.322 19.6682 17.1568 19.7757 15.6368Z" fill="#212F3F"/>
<path d="M62.0288 17.2528C62.6251 15.7907 63.182 14.43 63.7351 13.0684C64.3295 11.6054 65.1678 9.58556 65.7468 8.11712C66.8953 8.11712 69.0183 8.11712 70.1552 8.11712C68.2761 12.5062 65.7065 18.5004 63.8369 22.893C63.8369 22.893 63.5335 22.893 62.9314 22.893C62.2007 22.893 60.9706 22.893 60.2168 22.893C58.3857 18.5673 56.3606 13.6677 54.5246 9.34384C54.3863 9.01883 53.9609 8.11621 53.9609 8.11621C53.9609 8.11621 54.9701 8.11621 55.3523 8.11621C56.2645 8.11621 57.5023 8.11621 58.3761 8.11621C58.3761 8.11621 58.3895 8.15152 58.3761 8.11621C59.4813 10.9282 60.8679 14.3395 62.0288 17.2528Z" fill="#00B14F"/>
<path d="M39.8795 16.0071C39.6932 11.5963 43.0396 8.32353 47.3424 8.12889C49.7199 8.02115 52.0715 9.03693 53.6415 10.7788L53.2296 11.0821C52.4422 11.618 51.7297 12.1341 50.9606 12.7325C50.7186 12.9208 50.6907 12.957 50.6907 12.957C49.7689 12.0381 48.1269 11.4967 46.7538 11.7656C45.01 12.1857 43.6791 14.1222 43.875 15.9229C44.0987 17.978 45.5746 19.2925 47.52 19.3812C48.6099 19.431 49.8909 18.9132 50.6907 18.1998C50.6907 18.1998 50.6792 18.1998 50.9414 18.4008C51.722 18.9983 52.7783 19.795 53.5676 20.3626C52.1138 21.8727 49.984 22.8043 47.9368 22.8858C44.5203 23.0469 40.1272 20.4694 39.8795 16.0071Z" fill="#00B14F"/>
<path d="M0 11.5899C0 9.40174 0.0163239 7.04879 0.00192046 4.86151V4.5546C1.13691 4.45592 3.24846 4.25766 4.38154 4.11914C4.39114 5.25714 4.38154 7.32763 4.38154 8.46563H4.35849C4.89142 8.46563 6.14932 8.46925 6.63904 8.45749C6.62752 9.33566 6.61888 10.8113 6.6352 11.6886C6.11283 11.6768 4.90294 11.7022 4.38058 11.6886C4.38922 13.5065 4.38058 15.7182 4.38058 17.5289C4.4017 19.1585 5.48004 19.5985 6.82053 19.2861C7.1374 19.2119 7.65209 18.9113 7.91519 18.7511C8.15525 19.4654 9.10588 20.7944 9.68586 21.2969C7.55318 22.9355 5.0537 23.4289 2.53885 22.2022C0.802754 21.3557 0 19.8764 0 18.0612C0 15.902 0 13.7464 0 11.5899Z" fill="#212F3F"/>
<path d="M26.2948 34.1195C25.2587 32.8321 24.1468 31.351 23.1289 30.0917C23.8568 25.3278 24.649 20.0244 25.3797 15.2605C24.9553 14.5698 24.1016 13.2344 23.6686 12.5482C24.3734 11.7397 25.6351 10.3636 26.315 9.53613C27.0553 10.3926 28.2412 11.708 28.9825 12.5482C28.5485 13.2109 27.6881 14.5906 27.2579 15.2605C27.9099 19.5219 28.752 25.8457 29.501 30.0917L29.4741 30.127C28.8202 30.9662 27.0006 33.2431 26.2948 34.1195Z" fill="#212F3F"/>
<path d="M28.2342 18.0641C28.8824 18.7105 29.5651 19.1514 30.3995 19.3081C32.1289 19.6322 33.7219 18.9812 34.5669 17.6359C35.5032 16.1457 35.339 14.1585 34.1742 12.8847C33.116 11.7277 31.0323 11.2642 29.3327 12.1976C28.772 11.4978 27.2846 9.82381 26.6748 9.16111C31.4011 6.55556 38.4405 9.01354 39.0397 14.6601C39.4228 18.2633 37.3622 21.6148 33.8602 22.6487C32.4141 23.076 30.3928 22.8642 28.9025 22.6053C28.7239 21.307 28.4455 19.4819 28.2342 18.0641Z" fill="#212F3F"/>
<path d="M73.3636 11.1696C72.4763 11.1597 71.7485 10.4499 71.7715 9.61699C71.7946 8.79223 72.5157 8.12319 73.3818 8.125C74.272 8.12681 75.0056 8.8203 75.0008 9.65773C74.996 10.4879 74.248 11.1796 73.3636 11.1696ZM74.6177 9.63781C74.6138 8.96968 74.0876 8.47084 73.3866 8.47175C72.6732 8.47175 72.1287 8.99955 72.1403 9.67765C72.1508 10.3241 72.7145 10.8356 73.403 10.8247C74.1049 10.8129 74.6205 10.3096 74.6177 9.63781Z" fill="#212F3F"/>
<path d="M73.8408 9.83225L74.028 9.87661C73.9886 10.0224 73.9176 10.1328 73.8158 10.2089C73.714 10.2849 73.5892 10.3229 73.4413 10.3229C73.2886 10.3229 73.1648 10.294 73.0687 10.2351C72.9727 10.1763 72.8997 10.0912 72.8498 9.98073C72.7999 9.86937 72.7749 9.74987 72.7749 9.62221C72.7749 9.48279 72.8027 9.36148 72.8594 9.25827C72.9161 9.15506 72.9958 9.0763 73.1004 9.02198C73.2041 8.96857 73.3194 8.94141 73.4442 8.94141C73.5863 8.94141 73.7054 8.97581 73.8014 9.04371C73.8984 9.11161 73.9656 9.20757 74.003 9.3307L73.8187 9.37144C73.786 9.27457 73.738 9.20305 73.6756 9.15869C73.6132 9.11432 73.5344 9.0926 73.4394 9.0926C73.3309 9.0926 73.2397 9.11704 73.1667 9.16683C73.0937 9.21572 73.0418 9.28181 73.0121 9.3651C72.9823 9.44839 72.9679 9.53349 72.9679 9.62131C72.9679 9.73538 72.9852 9.83406 73.0207 9.91916C73.0562 10.0043 73.111 10.0676 73.1849 10.1093C73.2589 10.1509 73.3395 10.1718 73.4259 10.1718C73.5306 10.1718 73.6199 10.1428 73.6929 10.0857C73.7649 10.0296 73.8148 9.94451 73.8408 9.83225Z" fill="#212F3F"/>
</svg>
