<svg width="16" height="17" viewBox="0 0 16 17" fill="none" xmlns="http://www.w3.org/2000/svg">
<path d="M8 2.86914C5.49219 2.86914 3.5 4.88477 3.5 7.36914C3.5 9.19727 4.10938 9.71289 7.53125 14.6348C7.74219 14.9629 8.23438 14.9629 8.44531 14.6348C11.8672 9.68945 12.5 9.19727 12.5 7.36914C12.5 4.88477 10.4844 2.86914 8 2.86914ZM8 9.24414C6.94531 9.24414 6.125 8.40039 6.125 7.36914C6.125 6.31445 6.94531 5.49414 8 5.49414C9.03125 5.49414 9.875 6.31445 9.875 7.36914C9.875 8.40039 9.03125 9.24414 8 9.24414Z" fill="#0DB14B"/>
</svg>
