<svg width="279" height="86" viewBox="0 0 279 86" fill="none" xmlns="http://www.w3.org/2000/svg">
<rect x="0.5" width="278.5" height="86" rx="8" fill="url(#paint0_linear_12630_18031)"/>
<g clip-path="url(#clip0_12630_18031)">
<path d="M60.483 35.0892V50.911C60.483 56.4728 55.973 60.9828 50.4112 60.9828H34.5894C29.0276 60.9828 24.5176 56.4728 24.5176 50.911V35.0892C24.5176 29.5273 29.0276 25.0173 34.5894 25.0173H50.4112C55.973 25.0173 60.483 29.5273 60.483 35.0892Z" fill="white"/>
<path d="M50.0644 37.9563C50.0644 39.35 51.1935 40.479 52.5872 40.479C53.979 40.479 55.1081 41.6081 55.109 43.0009C55.1081 44.3936 53.979 45.5227 52.5872 45.5227C51.1935 45.5227 50.0644 44.3936 50.0653 43.0009C50.0644 41.6081 48.9353 40.4791 47.5426 40.4781C46.1499 40.4791 45.0208 39.35 45.0208 37.9563C45.0208 36.5645 43.8917 35.4354 42.499 35.4345C41.1063 35.4354 39.9772 36.5645 39.9763 37.9572C39.9772 39.35 38.8481 40.479 37.4544 40.479C36.0626 40.479 34.9335 39.35 34.9326 37.9572C34.9335 36.5645 36.0626 35.4354 37.4544 35.4354C38.8481 35.4354 39.9772 34.3063 39.9772 32.9127C39.9772 31.5209 41.1063 30.3918 42.499 30.3909C43.8917 30.3918 45.0208 31.5209 45.0208 32.9127C45.0208 34.3063 46.1499 35.4354 47.5426 35.4345C48.9353 35.4354 50.0644 36.5645 50.0644 37.9563Z" fill="white"/>
<path d="M50.0644 37.9563C50.0644 39.35 51.1935 40.479 52.5872 40.479C53.979 40.479 55.1081 41.6081 55.109 43.0009C55.1081 44.3936 53.979 45.5227 52.5872 45.5227C51.1935 45.5227 50.0644 44.3936 50.0653 43.0009C50.0644 41.6081 48.9353 40.4791 47.5426 40.4781C46.1499 40.4791 45.0208 39.35 45.0208 37.9563C45.0208 36.5645 43.8917 35.4354 42.499 35.4345C41.1063 35.4354 39.9772 36.5645 39.9763 37.9572C39.9772 39.35 38.8481 40.479 37.4544 40.479C36.0626 40.479 34.9335 39.35 34.9326 37.9572C34.9335 36.5645 36.0626 35.4354 37.4544 35.4354C38.8481 35.4354 39.9772 34.3063 39.9772 32.9127C39.9772 31.5209 41.1063 30.3918 42.499 30.3909C43.8917 30.3918 45.0208 31.5209 45.0208 32.9127C45.0208 34.3063 46.1499 35.4354 47.5426 35.4345C48.9353 35.4354 50.0644 36.5645 50.0644 37.9563Z" fill="url(#paint1_linear_12630_18031)"/>
<path d="M47.5423 45.5226C48.935 45.5217 50.0641 46.6508 50.0641 48.0444C50.0641 49.4362 48.935 50.5653 47.5423 50.5662C46.1496 50.5653 45.0205 49.4362 45.0205 48.0444C45.0205 46.6508 43.8914 45.5217 42.4978 45.5217C41.1059 45.5217 39.9769 46.6508 39.9759 48.0435C39.9769 49.4362 41.1059 50.5653 42.4987 50.5662C43.8914 50.5653 45.0205 51.6944 45.0205 53.088C45.0205 54.4798 43.8914 55.6089 42.4987 55.6098C41.1059 55.6089 39.9769 54.4798 39.9769 53.088C39.9769 51.6944 38.8478 50.5653 37.4541 50.5653C36.0623 50.5653 34.9332 49.4362 34.9323 48.0435C34.9332 46.6508 33.8041 45.5217 32.4105 45.5217C31.0187 45.5217 29.8896 44.3926 29.8887 42.9998C29.8896 41.6071 31.0187 40.478 32.4105 40.478C33.8041 40.478 34.9332 41.6071 34.9323 42.9998C34.9332 44.3926 36.0623 45.5217 37.4541 45.5217C38.8478 45.5217 39.9769 44.3926 39.9759 42.9998C39.9769 41.6071 41.1059 40.478 42.4978 40.478C43.8914 40.478 45.0205 41.6071 45.0196 42.9998C45.0214 44.3926 46.1496 45.5217 47.5423 45.5226Z" fill="white"/>
<path d="M47.5423 45.5226C48.935 45.5217 50.0641 46.6508 50.0641 48.0444C50.0641 49.4362 48.935 50.5653 47.5423 50.5662C46.1496 50.5653 45.0205 49.4362 45.0205 48.0444C45.0205 46.6508 43.8914 45.5217 42.4978 45.5217C41.1059 45.5217 39.9769 46.6508 39.9759 48.0435C39.9769 49.4362 41.1059 50.5653 42.4987 50.5662C43.8914 50.5653 45.0205 51.6944 45.0205 53.088C45.0205 54.4798 43.8914 55.6089 42.4987 55.6098C41.1059 55.6089 39.9769 54.4798 39.9769 53.088C39.9769 51.6944 38.8478 50.5653 37.4541 50.5653C36.0623 50.5653 34.9332 49.4362 34.9323 48.0435C34.9332 46.6508 33.8041 45.5217 32.4105 45.5217C31.0187 45.5217 29.8896 44.3926 29.8887 42.9998C29.8896 41.6071 31.0187 40.478 32.4105 40.478C33.8041 40.478 34.9332 41.6071 34.9323 42.9998C34.9332 44.3926 36.0623 45.5217 37.4541 45.5217C38.8478 45.5217 39.9769 44.3926 39.9759 42.9998C39.9769 41.6071 41.1059 40.478 42.4978 40.478C43.8914 40.478 45.0205 41.6071 45.0196 42.9998C45.0214 44.3926 46.1496 45.5217 47.5423 45.5226Z" fill="url(#paint2_linear_12630_18031)"/>
<path d="M42.4998 38.9463C43.0465 38.9463 43.4898 38.5031 43.4898 37.9563C43.4898 37.4095 43.0465 36.9663 42.4998 36.9663C41.953 36.9663 41.5098 37.4095 41.5098 37.9563C41.5098 38.5031 41.953 38.9463 42.4998 38.9463Z" fill="white"/>
<path d="M42.4998 38.9463C43.0465 38.9463 43.4898 38.5031 43.4898 37.9563C43.4898 37.4095 43.0465 36.9663 42.4998 36.9663C41.953 36.9663 41.5098 37.4095 41.5098 37.9563C41.5098 38.5031 41.953 38.9463 42.4998 38.9463Z" fill="url(#paint3_linear_12630_18031)"/>
<path d="M42.4998 49.0337C43.0465 49.0337 43.4898 48.5905 43.4898 48.0437C43.4898 47.497 43.0465 47.0537 42.4998 47.0537C41.953 47.0537 41.5098 47.497 41.5098 48.0437C41.5098 48.5905 41.953 49.0337 42.4998 49.0337Z" fill="white"/>
<path d="M42.4998 49.0337C43.0465 49.0337 43.4898 48.5905 43.4898 48.0437C43.4898 47.497 43.0465 47.0537 42.4998 47.0537C41.953 47.0537 41.5098 47.497 41.5098 48.0437C41.5098 48.5905 41.953 49.0337 42.4998 49.0337Z" fill="url(#paint4_linear_12630_18031)"/>
<path d="M47.5427 43.99C48.0895 43.99 48.5327 43.5468 48.5327 43C48.5327 42.4532 48.0895 42.01 47.5427 42.01C46.996 42.01 46.5527 42.4532 46.5527 43C46.5527 43.5468 46.996 43.99 47.5427 43.99Z" fill="white"/>
<path d="M47.5427 43.99C48.0895 43.99 48.5327 43.5468 48.5327 43C48.5327 42.4532 48.0895 42.01 47.5427 42.01C46.996 42.01 46.5527 42.4532 46.5527 43C46.5527 43.5468 46.996 43.99 47.5427 43.99Z" fill="url(#paint5_linear_12630_18031)"/>
<path d="M37.4558 43.99C38.0026 43.99 38.4458 43.5468 38.4458 43C38.4458 42.4532 38.0026 42.01 37.4558 42.01C36.9091 42.01 36.4658 42.4532 36.4658 43C36.4658 43.5468 36.9091 43.99 37.4558 43.99Z" fill="white"/>
<path d="M37.4558 43.99C38.0026 43.99 38.4458 43.5468 38.4458 43C38.4458 42.4532 38.0026 42.01 37.4558 42.01C36.9091 42.01 36.4658 42.4532 36.4658 43C36.4658 43.5468 36.9091 43.99 37.4558 43.99Z" fill="url(#paint6_linear_12630_18031)"/>
</g>
<path d="M85.6 19.316L86.344 19.016C86.824 19.748 87.364 20.744 87.616 21.38L86.824 21.764C86.596 21.104 86.056 20.072 85.6 19.316ZM90.34 18.92L91.216 19.244C90.82 20.096 90.352 21.056 89.956 21.716L89.176 21.404C89.572 20.744 90.076 19.676 90.34 18.92ZM84.916 21.68H91.816V22.544H84.916V21.68ZM88.336 24.92H91.48V25.76H88.336V24.92ZM86.02 25.952C86.656 28.376 88.012 28.892 89.86 28.892C90.124 28.904 91.732 28.892 92.104 28.892C91.972 29.096 91.852 29.504 91.816 29.744H89.788C87.58 29.744 86.104 29.084 85.324 26.228L86.02 25.952ZM87.916 21.968H88.804V29.264L87.916 28.856V21.968ZM85.48 24.08L86.38 24.152C86.176 26.732 85.696 28.7 84.448 30.008C84.304 29.852 83.944 29.54 83.74 29.396C84.928 28.256 85.336 26.396 85.48 24.08ZM83.704 21.368L84.52 21.668C83.692 23.108 82.432 24.56 81.256 25.52C81.172 25.328 80.908 24.908 80.74 24.716C81.856 23.9 82.996 22.64 83.704 21.368ZM83.428 18.932L84.232 19.244C83.536 20.252 82.408 21.38 81.388 22.1C81.268 21.92 81.04 21.608 80.884 21.44C81.82 20.804 82.9 19.784 83.428 18.932ZM82.624 23.6L83.356 22.868L83.476 22.928V30.008H82.624V23.6ZM93.388 26.336H103.9V27.092H93.388V26.336ZM93.436 21.068H103.852V21.836H93.436V21.068ZM93.916 23.12H103.42V23.864H93.916V23.12ZM94.528 24.74H102.832V25.436H94.528V24.74ZM98.164 23.468H99.052V29.972H98.164V23.468ZM97.06 18.92H97.912V21.428H97.06V18.92ZM99.328 18.92H100.192V21.392H99.328V18.92ZM97.876 26.636L98.596 26.972C97.48 28.22 95.452 29.264 93.664 29.768C93.532 29.54 93.268 29.192 93.076 29C94.852 28.604 96.856 27.68 97.876 26.636ZM99.34 26.612C100.36 27.692 102.376 28.616 104.2 29C103.996 29.192 103.72 29.552 103.588 29.804C101.764 29.3 99.76 28.208 98.632 26.912L99.34 26.612ZM102.112 19.064L103.036 19.316C102.688 19.976 102.256 20.684 101.92 21.152L101.188 20.912C101.512 20.408 101.908 19.616 102.112 19.064ZM100.504 21.608L101.44 21.836C101.14 22.376 100.828 22.928 100.564 23.312L99.808 23.084C100.048 22.664 100.36 22.04 100.504 21.608ZM94.408 19.316L95.176 19.04C95.584 19.58 96.028 20.336 96.196 20.828L95.392 21.128C95.224 20.648 94.792 19.88 94.408 19.316ZM95.968 21.92L96.82 21.752C97.096 22.148 97.372 22.688 97.48 23.048L96.592 23.24C96.496 22.88 96.232 22.316 95.968 21.92ZM107.932 20.12V21.356H113.632V20.12H107.932ZM107.032 19.388H114.58V22.1H107.032V19.388ZM107.416 24.944V25.796H114.136V24.944H107.416ZM107.416 26.432V27.296H114.136V26.432H107.416ZM107.416 23.468V24.308H114.136V23.468H107.416ZM106.516 22.796H115.06V27.956H106.516V22.796ZM108.808 27.944L109.648 28.496C108.688 29.084 107.128 29.66 105.892 29.972C105.736 29.78 105.436 29.492 105.22 29.312C106.48 29.012 108.052 28.436 108.808 27.944ZM111.736 28.568L112.516 27.98C113.764 28.352 115.372 28.94 116.308 29.336L115.528 29.984C114.64 29.564 113.008 28.94 111.736 28.568ZM118.636 20.984C118.948 21.02 119.392 21.044 119.644 21.044H126.232C126.604 21.044 126.976 21.02 127.264 20.984V22.028C126.964 22.004 126.58 21.98 126.232 21.98H119.644C119.404 21.98 118.936 22.004 118.636 22.028V20.984ZM122.344 28.028V21.584H123.364V28.028H122.344ZM117.904 27.44C118.252 27.488 118.624 27.512 118.96 27.512H126.892C127.252 27.512 127.576 27.464 127.876 27.44V28.52C127.564 28.484 127.12 28.484 126.892 28.484H118.96C118.636 28.484 118.264 28.496 117.904 28.52V27.44ZM139.48 21.5C139.384 21.668 139.264 21.944 139.204 22.136C138.88 23.348 138.148 24.968 137.08 26.276C135.988 27.608 134.548 28.7 132.304 29.54L131.428 28.748C133.636 28.1 135.124 27.02 136.228 25.736C137.152 24.644 137.896 23.084 138.136 21.992H133.696L134.08 21.128C134.56 21.128 137.524 21.128 137.896 21.128C138.22 21.128 138.496 21.092 138.688 21.02L139.48 21.5ZM135.46 19.688C135.268 20 135.052 20.408 134.932 20.624C134.224 21.956 132.976 23.672 131.044 24.944L130.204 24.332C132.28 23.096 133.456 21.344 133.984 20.276C134.104 20.06 134.284 19.628 134.356 19.316L135.46 19.688ZM150.385 20.984C150.313 21.08 150.157 21.344 150.097 21.5C149.617 22.688 148.705 24.368 147.709 25.472C146.365 26.972 144.649 28.4 142.753 29.264L141.985 28.46C143.929 27.716 145.693 26.276 146.929 24.908C147.745 23.984 148.621 22.556 148.933 21.56C148.501 21.56 144.661 21.56 144.253 21.56C143.821 21.56 143.173 21.608 143.041 21.62V20.54C143.197 20.564 143.881 20.612 144.253 20.612C144.721 20.612 148.429 20.612 148.885 20.612C149.269 20.612 149.593 20.576 149.785 20.516L150.385 20.984ZM147.865 24.848C149.161 25.928 150.757 27.608 151.573 28.604L150.745 29.336C149.881 28.196 148.477 26.66 147.181 25.52L147.865 24.848ZM160.533 21.8C160.533 22.292 160.929 22.688 161.409 22.688C161.901 22.688 162.285 22.292 162.285 21.8C162.285 21.32 161.901 20.924 161.409 20.924C160.929 20.924 160.533 21.32 160.533 21.8ZM159.957 21.8C159.957 20.996 160.605 20.348 161.409 20.348C162.213 20.348 162.873 20.996 162.873 21.8C162.873 22.604 162.213 23.264 161.409 23.264C160.605 23.264 159.957 22.604 159.957 21.8ZM152.721 25.844C153.021 25.58 153.249 25.364 153.561 25.052C154.137 24.476 155.181 23.144 155.937 22.244C156.573 21.488 157.137 21.356 157.953 22.136C158.685 22.82 159.717 23.9 160.413 24.644C161.229 25.508 162.429 26.804 163.353 27.8L162.525 28.676C161.673 27.644 160.617 26.408 159.837 25.532C159.141 24.752 158.037 23.564 157.533 23.06C157.065 22.616 156.837 22.652 156.429 23.156C155.853 23.852 154.845 25.172 154.305 25.832C154.053 26.144 153.801 26.516 153.609 26.756L152.721 25.844ZM173.517 19.904C173.493 20.192 173.481 20.54 173.481 20.948C173.481 21.416 173.481 22.436 173.481 22.88C173.481 25.772 173.097 26.72 172.221 27.74C171.453 28.676 170.253 29.204 169.377 29.504L168.585 28.676C169.689 28.388 170.709 27.92 171.453 27.068C172.305 26.084 172.461 25.1 172.461 22.844C172.461 22.376 172.461 21.368 172.461 20.948C172.461 20.54 172.425 20.192 172.389 19.904H173.517ZM167.949 20C167.925 20.228 167.913 20.576 167.913 20.852C167.913 21.212 167.913 24.356 167.913 24.86C167.913 25.172 167.925 25.568 167.949 25.784H166.857C166.881 25.592 166.905 25.208 166.905 24.86C166.905 24.344 166.905 21.212 166.905 20.852C166.905 20.648 166.893 20.228 166.857 20H167.949ZM178.089 20.984C178.401 21.02 178.845 21.044 179.097 21.044H185.685C186.057 21.044 186.429 21.02 186.717 20.984V22.028C186.417 22.004 186.033 21.98 185.685 21.98H179.097C178.857 21.98 178.389 22.004 178.089 22.028V20.984ZM181.797 28.028V21.584H182.817V28.028H181.797ZM177.357 27.44C177.705 27.488 178.077 27.512 178.413 27.512H186.345C186.705 27.512 187.029 27.464 187.329 27.44V28.52C187.017 28.484 186.573 28.484 186.345 28.484H178.413C178.089 28.484 177.717 28.496 177.357 28.52V27.44ZM191.205 20.216C192.045 20.78 193.593 22.028 194.253 22.688L193.509 23.456C192.897 22.832 191.409 21.536 190.509 20.948L191.205 20.216ZM190.173 28.256C192.261 27.944 193.821 27.212 194.961 26.504C196.821 25.34 198.273 23.564 198.969 22.076L199.545 23.108C198.729 24.596 197.337 26.228 195.525 27.368C194.313 28.124 192.801 28.868 190.797 29.24L190.173 28.256ZM209.967 20.984C209.895 21.08 209.739 21.344 209.679 21.5C209.199 22.688 208.287 24.368 207.291 25.472C205.947 26.972 204.231 28.4 202.335 29.264L201.567 28.46C203.511 27.716 205.275 26.276 206.511 24.908C207.327 23.984 208.203 22.556 208.515 21.56C208.083 21.56 204.243 21.56 203.835 21.56C203.403 21.56 202.755 21.608 202.623 21.62V20.54C202.779 20.564 203.463 20.612 203.835 20.612C204.303 20.612 208.011 20.612 208.467 20.612C208.851 20.612 209.175 20.576 209.367 20.516L209.967 20.984ZM207.447 24.848C208.743 25.928 210.339 27.608 211.155 28.604L210.327 29.336C209.463 28.196 208.059 26.66 206.763 25.52L207.447 24.848ZM219.267 20.816C219.111 22.064 218.871 23.468 218.499 24.752C217.767 27.212 216.807 28.484 215.703 28.484C214.623 28.484 213.555 27.26 213.555 25.268C213.555 22.664 215.871 20.396 218.811 20.396C221.619 20.396 223.407 22.376 223.407 24.812C223.407 27.32 221.751 29 218.895 29.372L218.343 28.484C218.727 28.448 219.087 28.4 219.375 28.34C220.911 27.992 222.423 26.84 222.423 24.764C222.423 22.844 221.091 21.26 218.787 21.26C216.147 21.26 214.503 23.432 214.503 25.196C214.503 26.708 215.187 27.38 215.727 27.38C216.291 27.38 216.939 26.564 217.551 24.536C217.899 23.396 218.151 22.04 218.271 20.792L219.267 20.816ZM225.819 20.996H234.951V21.884H226.707V29.96H225.819V20.996ZM234.615 20.996H235.515V28.772C235.515 29.36 235.383 29.66 234.963 29.804C234.531 29.948 233.775 29.972 232.683 29.972C232.635 29.708 232.503 29.288 232.359 29.036C233.235 29.072 234.063 29.072 234.315 29.06C234.555 29.048 234.615 28.988 234.615 28.76V20.996ZM229.899 18.896L231.015 19.088C230.643 19.94 230.187 20.912 229.827 21.548L228.963 21.344C229.299 20.672 229.695 19.628 229.899 18.896ZM228.291 23.468H229.119V28.304H228.291V23.468ZM228.675 23.468H232.995V27.44H228.675V26.636H232.155V24.284H228.675V23.468ZM242.415 22.808H247.347V23.708H242.415V22.808ZM237.387 28.496H248.163V29.396H237.387V28.496ZM241.899 19.1H242.847V28.976H241.899V19.1ZM258.663 21.848C258.399 22.004 258.099 22.172 257.739 22.352C256.935 22.772 255.267 23.564 254.091 24.332C252.975 25.064 252.303 25.856 252.303 26.756C252.303 27.752 253.263 28.376 255.159 28.376C256.455 28.376 258.063 28.208 258.999 27.968L258.987 29.048C258.087 29.204 256.695 29.336 255.195 29.336C252.939 29.336 251.307 28.664 251.307 26.864C251.307 25.568 252.183 24.548 253.599 23.612C254.823 22.796 256.503 21.992 257.283 21.548C257.631 21.344 257.895 21.188 258.147 20.984L258.663 21.848ZM252.591 19.664C253.143 21.2 253.887 22.7 254.439 23.672L253.623 24.164C253.011 23.18 252.291 21.56 251.643 20.072L252.591 19.664ZM83.74 46.868H90.088V47.564H83.74V46.868ZM86.032 39.356H86.908V40.688H86.032V39.356ZM81.472 40.292H91.612V42.548H90.724V41.012H82.336V42.548H81.472V40.292ZM83.692 41.756H89.848V44.168H83.692V43.472H88.96V42.44H83.692V41.756ZM83.728 44.996H90.616V47.948H89.728V45.704H83.728V44.996ZM83.212 41.756H84.076V47.972H83.212V41.756ZM82.456 37.844H86.332V38.588H82.456V37.844ZM87.136 37.844H91.984V38.588H87.136V37.844ZM82.684 36.872L83.536 37.088C83.092 38.144 82.384 39.188 81.688 39.872C81.52 39.74 81.16 39.488 80.944 39.38C81.664 38.756 82.312 37.808 82.684 36.872ZM87.412 36.872L88.264 37.076C87.832 38.12 87.076 39.092 86.32 39.716C86.14 39.584 85.768 39.368 85.54 39.26C86.332 38.684 87.028 37.796 87.412 36.872ZM83.128 38.408L83.908 38.204C84.184 38.624 84.496 39.212 84.616 39.584L83.8 39.824C83.692 39.452 83.404 38.852 83.128 38.408ZM88.216 38.42L89.008 38.18C89.38 38.6 89.812 39.188 89.992 39.584L89.176 39.848C89.008 39.464 88.6 38.852 88.216 38.42ZM98.332 40.532V42.08H102.796V40.532H98.332ZM98.332 38.264V39.788H102.796V38.264H98.332ZM97.516 37.484H103.66V42.86H97.516V37.484ZM97.36 44.264H103.828V45.092H97.36V44.264ZM96.436 46.748H104.224V47.564H96.436V46.748ZM93.172 37.736H96.916V38.588H93.172V37.736ZM93.304 41.204H96.748V42.056H93.304V41.204ZM93.052 45.8C94.024 45.536 95.464 45.068 96.856 44.6L97.012 45.464C95.704 45.908 94.336 46.364 93.268 46.724L93.052 45.8ZM94.672 38.072H95.536V45.512L94.672 45.68V38.072ZM100.168 37.856H100.96V42.476H101.02V47.12H100.108V42.476H100.168V37.856ZM114.424 38.384C114.424 38.828 114.772 39.176 115.216 39.176C115.648 39.176 116.008 38.828 116.008 38.384C116.008 37.952 115.648 37.592 115.216 37.592C114.772 37.592 114.424 37.952 114.424 38.384ZM113.872 38.384C113.872 37.64 114.472 37.04 115.216 37.04C115.96 37.04 116.56 37.64 116.56 38.384C116.56 39.128 115.96 39.728 115.216 39.728C114.472 39.728 113.872 39.128 113.872 38.384ZM114.916 39.188C114.832 39.356 114.784 39.56 114.736 39.788C114.472 41.048 113.896 42.992 112.936 44.216C111.844 45.632 110.416 46.736 108.22 47.432L107.404 46.532C109.732 45.944 111.076 44.924 112.084 43.64C112.936 42.56 113.488 40.88 113.656 39.728C112.96 39.728 108.208 39.728 107.512 39.728C107.032 39.728 106.624 39.752 106.324 39.776V38.708C106.648 38.744 107.128 38.792 107.524 38.792C108.208 38.792 112.996 38.792 113.536 38.792C113.728 38.792 113.956 38.78 114.184 38.72L114.916 39.188ZM119.668 38.072C119.98 38.108 120.352 38.132 120.736 38.132C121.384 38.132 124.756 38.132 125.464 38.132C125.836 38.132 126.256 38.108 126.544 38.072V39.068C126.268 39.044 125.848 39.032 125.44 39.032C124.768 39.032 121.396 39.032 120.736 39.032C120.376 39.032 119.992 39.044 119.668 39.068V38.072ZM127.432 41.228C127.372 41.348 127.288 41.492 127.264 41.588C126.952 42.764 126.412 44.012 125.512 44.996C124.264 46.376 122.752 47.072 121.228 47.504L120.484 46.652C122.176 46.304 123.676 45.524 124.708 44.444C125.428 43.688 125.908 42.668 126.124 41.792C125.536 41.792 120.484 41.792 119.764 41.792C119.476 41.792 119.02 41.804 118.588 41.84V40.832C119.02 40.868 119.428 40.904 119.764 40.904C120.352 40.904 125.464 40.904 126.076 40.904C126.352 40.904 126.616 40.868 126.748 40.808L127.432 41.228ZM134.824 40.1C135.028 40.58 135.616 42.164 135.76 42.68L134.872 43.004C134.74 42.452 134.188 40.928 133.936 40.4L134.824 40.1ZM139.168 40.772C139.084 41.012 139.024 41.204 138.976 41.36C138.664 42.68 138.136 43.976 137.284 45.056C136.168 46.46 134.704 47.396 133.372 47.9L132.58 47.096C133.96 46.688 135.496 45.776 136.48 44.552C137.332 43.508 137.944 41.972 138.136 40.436L139.168 40.772ZM132.028 40.7C132.268 41.204 132.904 42.776 133.12 43.412L132.22 43.748C132.028 43.124 131.38 41.456 131.14 41.036L132.028 40.7ZM145.192 45.944C145.192 45.272 145.192 39.968 145.192 38.972C145.192 38.624 145.168 38.096 145.108 37.712H146.284C146.236 38.084 146.2 38.6 146.2 38.972C146.2 40.832 146.212 45.38 146.212 45.944C146.212 46.328 146.236 46.976 146.284 47.372H145.12C145.18 46.988 145.192 46.388 145.192 45.944ZM145.984 40.868C147.568 41.324 149.992 42.248 151.324 42.896L150.904 43.916C149.536 43.184 147.292 42.332 145.984 41.924V40.868ZM163.624 39.032C163.54 39.2 163.492 39.392 163.444 39.632C163.18 40.892 162.604 42.824 161.644 44.06C160.552 45.464 159.124 46.58 156.928 47.264L156.112 46.364C158.44 45.788 159.784 44.768 160.792 43.484C161.644 42.392 162.196 40.724 162.364 39.572C161.668 39.572 156.916 39.572 156.22 39.572C155.74 39.572 155.332 39.596 155.032 39.608V38.54C155.356 38.588 155.836 38.624 156.232 38.624C156.916 38.624 161.704 38.624 162.244 38.624C162.424 38.624 162.664 38.612 162.892 38.564L163.624 39.032ZM173.236 39.668C173.188 39.92 173.188 40.208 173.188 40.484C173.212 41.54 173.272 45.188 173.296 46.928C173.296 47.444 172.912 47.744 172.384 47.744C171.916 47.744 171.124 47.708 170.656 47.684L170.596 46.796C171.088 46.868 171.712 46.916 172.06 46.916C172.288 46.916 172.396 46.784 172.396 46.556C172.396 45.14 172.336 41.54 172.288 40.484C172.288 40.244 172.264 39.932 172.216 39.668H173.236ZM167.824 41.396C168.112 41.444 168.436 41.456 168.724 41.456C169.228 41.456 174.436 41.456 174.928 41.456C175.18 41.456 175.564 41.432 175.732 41.396V42.344C175.528 42.332 175.192 42.32 174.964 42.32C174.532 42.32 169.168 42.32 168.736 42.32C168.424 42.32 168.112 42.332 167.824 42.356V41.396ZM167.512 45.992C169.444 45.068 171.412 43.304 172.108 42.044L172.6 42.056L172.612 42.776C171.976 43.952 170.008 45.764 168.172 46.724L167.512 45.992ZM178.768 41.804C179.14 41.84 179.764 41.876 180.448 41.876C181.324 41.876 186.136 41.876 187.024 41.876C187.624 41.876 188.044 41.828 188.32 41.804V42.98C188.068 42.968 187.564 42.932 187.036 42.932C186.124 42.932 181.336 42.932 180.448 42.932C179.788 42.932 179.152 42.956 178.768 42.98V41.804ZM195.589 38.06C195.469 38.348 195.337 38.66 195.169 39.176C194.785 40.4 193.393 44.708 192.877 45.92L191.797 45.956C192.397 44.576 193.789 40.232 194.149 38.96C194.305 38.408 194.353 38.132 194.389 37.808L195.589 38.06ZM197.869 42.08C198.709 43.304 200.029 45.728 200.521 46.964L199.525 47.408C199.045 46.112 197.821 43.616 196.957 42.476L197.869 42.08ZM191.329 45.668C193.057 45.584 197.353 45.104 198.901 44.876L199.165 45.812C197.497 46.028 193.081 46.508 191.389 46.676C191.089 46.7 190.729 46.748 190.393 46.796L190.201 45.692C190.561 45.704 190.981 45.692 191.329 45.668ZM81.4588 65V56.2727H82.7756V60.0653H87.1264V56.2727H88.4474V65H87.1264V61.1946H82.7756V65H81.4588ZM92.2996 65.1449C91.8848 65.1449 91.5098 65.0682 91.1746 64.9148C90.8394 64.7585 90.5738 64.5327 90.3777 64.2372C90.1846 63.9418 90.088 63.5795 90.088 63.1506C90.088 62.7812 90.159 62.4773 90.301 62.2386C90.4431 62 90.6348 61.8111 90.8763 61.6719C91.1178 61.5327 91.3877 61.4276 91.686 61.3565C91.9843 61.2855 92.2883 61.2315 92.5979 61.1946C92.99 61.1491 93.3081 61.1122 93.5525 61.0838C93.7968 61.0526 93.9743 61.0028 94.0851 60.9347C94.1959 60.8665 94.2513 60.7557 94.2513 60.6023V60.5724C94.2513 60.2003 94.1462 59.9119 93.936 59.7074C93.7286 59.5028 93.4189 59.4006 93.007 59.4006C92.578 59.4006 92.24 59.4957 91.9928 59.6861C91.7485 59.8736 91.5794 60.0824 91.4857 60.3125L90.2882 60.0398C90.4303 59.642 90.6377 59.321 90.9104 59.0767C91.186 58.8295 91.5027 58.6506 91.8607 58.5398C92.2186 58.4261 92.5951 58.3693 92.99 58.3693C93.2513 58.3693 93.5283 58.4006 93.8209 58.4631C94.1164 58.5227 94.3919 58.6335 94.6476 58.7955C94.9061 58.9574 95.1178 59.1889 95.2826 59.4901C95.4473 59.7884 95.5297 60.1761 95.5297 60.6534V65H94.2854V64.1051H94.2343C94.1519 64.2699 94.0283 64.4318 93.8635 64.5909C93.6988 64.75 93.4871 64.8821 93.2286 64.9872C92.9701 65.0923 92.6604 65.1449 92.2996 65.1449ZM92.5766 64.1222C92.9289 64.1222 93.23 64.0526 93.48 63.9134C93.7329 63.7741 93.9246 63.5923 94.0553 63.3679C94.1888 63.1406 94.2556 62.8977 94.2556 62.6392V61.7955C94.2101 61.8409 94.1221 61.8835 93.9914 61.9233C93.8635 61.9602 93.7172 61.9929 93.5525 62.0213C93.3877 62.0469 93.2272 62.071 93.0709 62.0938C92.9147 62.1136 92.784 62.1307 92.6789 62.1449C92.4317 62.1761 92.2059 62.2287 92.0013 62.3026C91.7996 62.3764 91.6377 62.483 91.5155 62.6222C91.3962 62.7585 91.3365 62.9403 91.3365 63.1676C91.3365 63.483 91.453 63.7216 91.686 63.8835C91.9189 64.0426 92.2158 64.1222 92.5766 64.1222ZM97.3588 67.4545V58.4545H98.6031V59.5156H98.7097C98.7835 59.3793 98.8901 59.2216 99.0293 59.0426C99.1685 58.8636 99.3617 58.7074 99.6088 58.5739C99.856 58.4375 100.183 58.3693 100.589 58.3693C101.117 58.3693 101.589 58.5028 102.004 58.7699C102.418 59.0369 102.744 59.4219 102.98 59.9247C103.218 60.4276 103.338 61.0327 103.338 61.7401C103.338 62.4474 103.22 63.054 102.984 63.5597C102.748 64.0625 102.424 64.4503 102.012 64.723C101.6 64.9929 101.13 65.1278 100.602 65.1278C100.204 65.1278 99.8787 65.0611 99.6259 64.9276C99.3759 64.794 99.1798 64.6378 99.0378 64.4588C98.8957 64.2798 98.7864 64.1207 98.7097 63.9815H98.633V67.4545H97.3588ZM98.6074 61.7273C98.6074 62.1875 98.6742 62.5909 98.8077 62.9375C98.9412 63.2841 99.1344 63.5554 99.3872 63.7514C99.6401 63.9446 99.9497 64.0412 100.316 64.0412C100.697 64.0412 101.015 63.9403 101.271 63.7386C101.526 63.5341 101.72 63.2571 101.85 62.9077C101.984 62.5582 102.051 62.1648 102.051 61.7273C102.051 61.2955 101.985 60.9077 101.855 60.5639C101.727 60.2202 101.534 59.9489 101.275 59.75C101.019 59.5511 100.7 59.4517 100.316 59.4517C99.9469 59.4517 99.6344 59.5469 99.3787 59.7372C99.1259 59.9276 98.9341 60.1932 98.8034 60.5341C98.6727 60.875 98.6074 61.2727 98.6074 61.7273ZM104.897 67.4545V58.4545H106.141V59.5156H106.248C106.322 59.3793 106.428 59.2216 106.568 59.0426C106.707 58.8636 106.9 58.7074 107.147 58.5739C107.394 58.4375 107.721 58.3693 108.127 58.3693C108.656 58.3693 109.127 58.5028 109.542 58.7699C109.957 59.0369 110.282 59.4219 110.518 59.9247C110.756 60.4276 110.876 61.0327 110.876 61.7401C110.876 62.4474 110.758 63.054 110.522 63.5597C110.286 64.0625 109.962 64.4503 109.55 64.723C109.139 64.9929 108.668 65.1278 108.14 65.1278C107.742 65.1278 107.417 65.0611 107.164 64.9276C106.914 64.794 106.718 64.6378 106.576 64.4588C106.434 64.2798 106.325 64.1207 106.248 63.9815H106.171V67.4545H104.897ZM106.146 61.7273C106.146 62.1875 106.212 62.5909 106.346 62.9375C106.479 63.2841 106.673 63.5554 106.925 63.7514C107.178 63.9446 107.488 64.0412 107.854 64.0412C108.235 64.0412 108.553 63.9403 108.809 63.7386C109.065 63.5341 109.258 63.2571 109.389 62.9077C109.522 62.5582 109.589 62.1648 109.589 61.7273C109.589 61.2955 109.523 60.9077 109.393 60.5639C109.265 60.2202 109.072 59.9489 108.813 59.75C108.558 59.5511 108.238 59.4517 107.854 59.4517C107.485 59.4517 107.173 59.5469 106.917 59.7372C106.664 59.9276 106.472 60.1932 106.342 60.5341C106.211 60.875 106.146 61.2727 106.146 61.7273ZM113.018 67.4545C112.828 67.4545 112.654 67.4389 112.498 67.4077C112.342 67.3793 112.225 67.348 112.149 67.3139L112.456 66.2699C112.689 66.3324 112.896 66.3594 113.078 66.3509C113.26 66.3423 113.42 66.2741 113.559 66.1463C113.701 66.0185 113.826 65.8097 113.934 65.5199L114.092 65.0852L111.697 58.4545H113.061L114.718 63.5341H114.787L116.444 58.4545H117.812L115.115 65.8736C114.99 66.2145 114.831 66.5028 114.637 66.7386C114.444 66.9773 114.214 67.1563 113.947 67.2756C113.68 67.3949 113.37 67.4545 113.018 67.4545ZM118.403 57.4062V56.2727H125.158V57.4062H122.435V65H121.122V57.4062H118.403ZM126.68 65V58.4545H127.954V65H126.68ZM127.323 57.4446C127.102 57.4446 126.911 57.3707 126.752 57.223C126.596 57.0724 126.518 56.8935 126.518 56.6861C126.518 56.4759 126.596 56.2969 126.752 56.1491C126.911 55.9986 127.102 55.9233 127.323 55.9233C127.545 55.9233 127.734 55.9986 127.89 56.1491C128.049 56.2969 128.129 56.4759 128.129 56.6861C128.129 56.8935 128.049 57.0724 127.89 57.223C127.734 57.3707 127.545 57.4446 127.323 57.4446ZM129.8 65V58.4545H131.023V59.5199H131.104C131.24 59.1591 131.463 58.8778 131.773 58.6761C132.083 58.4716 132.453 58.3693 132.885 58.3693C133.323 58.3693 133.689 58.4716 133.985 58.6761C134.283 58.8807 134.503 59.1619 134.645 59.5199H134.713C134.87 59.1705 135.118 58.892 135.459 58.6847C135.8 58.4744 136.206 58.3693 136.678 58.3693C137.272 58.3693 137.756 58.5554 138.131 58.9276C138.509 59.2997 138.698 59.8608 138.698 60.6108V65H137.424V60.7301C137.424 60.2869 137.303 59.9659 137.061 59.767C136.82 59.5682 136.532 59.4688 136.196 59.4688C135.782 59.4688 135.459 59.5966 135.229 59.8523C134.999 60.1051 134.884 60.4304 134.884 60.8281V65H133.614V60.6491C133.614 60.294 133.503 60.0085 133.282 59.7926C133.06 59.5767 132.772 59.4688 132.417 59.4688C132.175 59.4688 131.952 59.5327 131.748 59.6605C131.546 59.7855 131.382 59.9602 131.257 60.1847C131.135 60.4091 131.074 60.669 131.074 60.9645V65H129.8ZM143.359 65.1321C142.714 65.1321 142.158 64.9943 141.692 64.7188C141.229 64.4403 140.871 64.0497 140.618 63.5469C140.368 63.0412 140.243 62.4489 140.243 61.7699C140.243 61.0994 140.368 60.5085 140.618 59.9972C140.871 59.4858 141.224 59.0866 141.675 58.7997C142.13 58.5128 142.661 58.3693 143.269 58.3693C143.638 58.3693 143.996 58.4304 144.343 58.5526C144.69 58.6747 145.001 58.8665 145.276 59.1278C145.552 59.3892 145.769 59.7287 145.928 60.1463C146.087 60.5611 146.167 61.0653 146.167 61.6591V62.1108H140.964V61.1562H144.918C144.918 60.821 144.85 60.5241 144.714 60.2656C144.577 60.0043 144.386 59.7983 144.138 59.6477C143.894 59.4972 143.607 59.4219 143.278 59.4219C142.92 59.4219 142.607 59.5099 142.34 59.6861C142.076 59.8594 141.871 60.0866 141.726 60.3679C141.584 60.6463 141.513 60.9489 141.513 61.2756V62.0213C141.513 62.4588 141.59 62.831 141.743 63.1378C141.9 63.4446 142.117 63.679 142.395 63.8409C142.674 64 142.999 64.0795 143.371 64.0795C143.613 64.0795 143.833 64.0455 144.032 63.9773C144.231 63.9062 144.403 63.8011 144.547 63.6619C144.692 63.5227 144.803 63.3509 144.88 63.1463L146.086 63.3636C145.989 63.7187 145.816 64.0298 145.566 64.2969C145.319 64.5611 145.008 64.767 144.633 64.9148C144.261 65.0597 143.836 65.1321 143.359 65.1321ZM148.552 65.081C148.319 65.081 148.119 64.9986 147.951 64.8338C147.784 64.6662 147.7 64.4645 147.7 64.2287C147.7 63.9957 147.784 63.7969 147.951 63.6321C148.119 63.4645 148.319 63.3807 148.552 63.3807C148.785 63.3807 148.985 63.4645 149.153 63.6321C149.32 63.7969 149.404 63.9957 149.404 64.2287C149.404 64.3849 149.364 64.5284 149.285 64.6591C149.208 64.7869 149.106 64.8892 148.978 64.9659C148.85 65.0426 148.708 65.081 148.552 65.081ZM156.842 58.4545L154.469 65H153.105L150.727 58.4545H152.095L153.753 63.4915H153.821L155.474 58.4545H156.842ZM159.446 61.1136V65H158.172V58.4545H159.395V59.5199H159.476C159.626 59.1733 159.862 58.8949 160.183 58.6847C160.507 58.4744 160.915 58.3693 161.406 58.3693C161.852 58.3693 162.243 58.4631 162.578 58.6506C162.913 58.8352 163.173 59.1108 163.358 59.4773C163.543 59.8437 163.635 60.2969 163.635 60.8366V65H162.361V60.9901C162.361 60.5156 162.237 60.1449 161.99 59.8778C161.743 59.608 161.403 59.473 160.972 59.473C160.676 59.473 160.413 59.5369 160.183 59.6648C159.956 59.7926 159.776 59.9801 159.642 60.2273C159.511 60.4716 159.446 60.767 159.446 61.1136Z" fill="white"/>
<defs>
<linearGradient id="paint0_linear_12630_18031" x1="0.500002" y1="42.5657" x2="279" y2="42.5657" gradientUnits="userSpaceOnUse">
<stop stop-color="#EE7004"/>
<stop offset="1" stop-color="#FF9438"/>
</linearGradient>
<linearGradient id="paint1_linear_12630_18031" x1="36.6186" y1="44.3046" x2="48.6926" y2="28.0871" gradientUnits="userSpaceOnUse">
<stop stop-color="#FF9F0F"/>
<stop offset="1" stop-color="#FF7A0F"/>
</linearGradient>
<linearGradient id="paint2_linear_12630_18031" x1="31.5745" y1="54.3918" x2="43.6487" y2="38.1748" gradientUnits="userSpaceOnUse">
<stop stop-color="#FF9F0F"/>
<stop offset="1" stop-color="#FF7A0F"/>
</linearGradient>
<linearGradient id="paint3_linear_12630_18031" x1="41.6752" y1="38.7869" x2="43.3243" y2="37.1257" gradientUnits="userSpaceOnUse">
<stop stop-color="#FF9F0F"/>
<stop offset="1" stop-color="#FF7A0F"/>
</linearGradient>
<linearGradient id="paint4_linear_12630_18031" x1="41.6752" y1="48.8743" x2="43.3243" y2="47.2131" gradientUnits="userSpaceOnUse">
<stop stop-color="#FF9F0F"/>
<stop offset="1" stop-color="#FF7A0F"/>
</linearGradient>
<linearGradient id="paint5_linear_12630_18031" x1="46.7182" y1="43.8306" x2="48.3673" y2="42.1694" gradientUnits="userSpaceOnUse">
<stop stop-color="#FF9F0F"/>
<stop offset="1" stop-color="#FF7A0F"/>
</linearGradient>
<linearGradient id="paint6_linear_12630_18031" x1="36.6313" y1="43.8306" x2="38.2804" y2="42.1694" gradientUnits="userSpaceOnUse">
<stop stop-color="#FF9F0F"/>
<stop offset="1" stop-color="#FF7A0F"/>
</linearGradient>
<clipPath id="clip0_12630_18031">
<rect width="36" height="36" fill="white" transform="translate(24.5 25)"/>
</clipPath>
</defs>
</svg>
