<svg width="279" height="86" viewBox="0 0 279 86" fill="none" xmlns="http://www.w3.org/2000/svg">
<rect x="0.5" width="278.5" height="86" rx="8" fill="url(#paint0_linear_12630_17974)"/>
<g clip-path="url(#clip0_12630_17974)">
<path d="M60.483 35.0892V50.911C60.483 56.4728 55.973 60.9828 50.4112 60.9828H34.5894C29.0276 60.9828 24.5176 56.4728 24.5176 50.911V35.0892C24.5176 29.5273 29.0276 25.0173 34.5894 25.0173H50.4112C55.973 25.0173 60.483 29.5273 60.483 35.0892Z" fill="white"/>
<path d="M50.0644 37.9563C50.0644 39.35 51.1935 40.479 52.5872 40.479C53.979 40.479 55.1081 41.6081 55.109 43.0009C55.1081 44.3936 53.979 45.5227 52.5872 45.5227C51.1935 45.5227 50.0644 44.3936 50.0653 43.0009C50.0644 41.6081 48.9353 40.4791 47.5426 40.4781C46.1499 40.4791 45.0208 39.35 45.0208 37.9563C45.0208 36.5645 43.8917 35.4354 42.499 35.4345C41.1063 35.4354 39.9772 36.5645 39.9763 37.9572C39.9772 39.35 38.8481 40.479 37.4544 40.479C36.0626 40.479 34.9335 39.35 34.9326 37.9572C34.9335 36.5645 36.0626 35.4354 37.4544 35.4354C38.8481 35.4354 39.9772 34.3063 39.9772 32.9127C39.9772 31.5209 41.1063 30.3918 42.499 30.3909C43.8917 30.3918 45.0208 31.5209 45.0208 32.9127C45.0208 34.3063 46.1499 35.4354 47.5426 35.4345C48.9353 35.4354 50.0644 36.5645 50.0644 37.9563Z" fill="white"/>
<path d="M50.0644 37.9563C50.0644 39.35 51.1935 40.479 52.5872 40.479C53.979 40.479 55.1081 41.6081 55.109 43.0009C55.1081 44.3936 53.979 45.5227 52.5872 45.5227C51.1935 45.5227 50.0644 44.3936 50.0653 43.0009C50.0644 41.6081 48.9353 40.4791 47.5426 40.4781C46.1499 40.4791 45.0208 39.35 45.0208 37.9563C45.0208 36.5645 43.8917 35.4354 42.499 35.4345C41.1063 35.4354 39.9772 36.5645 39.9763 37.9572C39.9772 39.35 38.8481 40.479 37.4544 40.479C36.0626 40.479 34.9335 39.35 34.9326 37.9572C34.9335 36.5645 36.0626 35.4354 37.4544 35.4354C38.8481 35.4354 39.9772 34.3063 39.9772 32.9127C39.9772 31.5209 41.1063 30.3918 42.499 30.3909C43.8917 30.3918 45.0208 31.5209 45.0208 32.9127C45.0208 34.3063 46.1499 35.4354 47.5426 35.4345C48.9353 35.4354 50.0644 36.5645 50.0644 37.9563Z" fill="url(#paint1_linear_12630_17974)"/>
<path d="M47.5423 45.5226C48.935 45.5217 50.0641 46.6508 50.0641 48.0444C50.0641 49.4362 48.935 50.5653 47.5423 50.5662C46.1496 50.5653 45.0205 49.4362 45.0205 48.0444C45.0205 46.6508 43.8914 45.5217 42.4978 45.5217C41.1059 45.5217 39.9769 46.6508 39.9759 48.0435C39.9769 49.4362 41.1059 50.5653 42.4987 50.5662C43.8914 50.5653 45.0205 51.6944 45.0205 53.088C45.0205 54.4798 43.8914 55.6089 42.4987 55.6098C41.1059 55.6089 39.9769 54.4798 39.9769 53.088C39.9769 51.6944 38.8478 50.5653 37.4541 50.5653C36.0623 50.5653 34.9332 49.4362 34.9323 48.0435C34.9332 46.6508 33.8041 45.5217 32.4105 45.5217C31.0187 45.5217 29.8896 44.3926 29.8887 42.9998C29.8896 41.6071 31.0187 40.478 32.4105 40.478C33.8041 40.478 34.9332 41.6071 34.9323 42.9998C34.9332 44.3926 36.0623 45.5217 37.4541 45.5217C38.8478 45.5217 39.9769 44.3926 39.9759 42.9998C39.9769 41.6071 41.1059 40.478 42.4978 40.478C43.8914 40.478 45.0205 41.6071 45.0196 42.9998C45.0214 44.3926 46.1496 45.5217 47.5423 45.5226Z" fill="white"/>
<path d="M47.5423 45.5226C48.935 45.5217 50.0641 46.6508 50.0641 48.0444C50.0641 49.4362 48.935 50.5653 47.5423 50.5662C46.1496 50.5653 45.0205 49.4362 45.0205 48.0444C45.0205 46.6508 43.8914 45.5217 42.4978 45.5217C41.1059 45.5217 39.9769 46.6508 39.9759 48.0435C39.9769 49.4362 41.1059 50.5653 42.4987 50.5662C43.8914 50.5653 45.0205 51.6944 45.0205 53.088C45.0205 54.4798 43.8914 55.6089 42.4987 55.6098C41.1059 55.6089 39.9769 54.4798 39.9769 53.088C39.9769 51.6944 38.8478 50.5653 37.4541 50.5653C36.0623 50.5653 34.9332 49.4362 34.9323 48.0435C34.9332 46.6508 33.8041 45.5217 32.4105 45.5217C31.0187 45.5217 29.8896 44.3926 29.8887 42.9998C29.8896 41.6071 31.0187 40.478 32.4105 40.478C33.8041 40.478 34.9332 41.6071 34.9323 42.9998C34.9332 44.3926 36.0623 45.5217 37.4541 45.5217C38.8478 45.5217 39.9769 44.3926 39.9759 42.9998C39.9769 41.6071 41.1059 40.478 42.4978 40.478C43.8914 40.478 45.0205 41.6071 45.0196 42.9998C45.0214 44.3926 46.1496 45.5217 47.5423 45.5226Z" fill="url(#paint2_linear_12630_17974)"/>
<path d="M42.4998 38.9463C43.0465 38.9463 43.4898 38.5031 43.4898 37.9563C43.4898 37.4095 43.0465 36.9663 42.4998 36.9663C41.953 36.9663 41.5098 37.4095 41.5098 37.9563C41.5098 38.5031 41.953 38.9463 42.4998 38.9463Z" fill="white"/>
<path d="M42.4998 38.9463C43.0465 38.9463 43.4898 38.5031 43.4898 37.9563C43.4898 37.4095 43.0465 36.9663 42.4998 36.9663C41.953 36.9663 41.5098 37.4095 41.5098 37.9563C41.5098 38.5031 41.953 38.9463 42.4998 38.9463Z" fill="url(#paint3_linear_12630_17974)"/>
<path d="M42.4998 49.0337C43.0465 49.0337 43.4898 48.5905 43.4898 48.0437C43.4898 47.497 43.0465 47.0537 42.4998 47.0537C41.953 47.0537 41.5098 47.497 41.5098 48.0437C41.5098 48.5905 41.953 49.0337 42.4998 49.0337Z" fill="white"/>
<path d="M42.4998 49.0337C43.0465 49.0337 43.4898 48.5905 43.4898 48.0437C43.4898 47.497 43.0465 47.0537 42.4998 47.0537C41.953 47.0537 41.5098 47.497 41.5098 48.0437C41.5098 48.5905 41.953 49.0337 42.4998 49.0337Z" fill="url(#paint4_linear_12630_17974)"/>
<path d="M47.5427 43.99C48.0895 43.99 48.5327 43.5468 48.5327 43C48.5327 42.4532 48.0895 42.01 47.5427 42.01C46.996 42.01 46.5527 42.4532 46.5527 43C46.5527 43.5468 46.996 43.99 47.5427 43.99Z" fill="white"/>
<path d="M47.5427 43.99C48.0895 43.99 48.5327 43.5468 48.5327 43C48.5327 42.4532 48.0895 42.01 47.5427 42.01C46.996 42.01 46.5527 42.4532 46.5527 43C46.5527 43.5468 46.996 43.99 47.5427 43.99Z" fill="url(#paint5_linear_12630_17974)"/>
<path d="M37.4558 43.99C38.0026 43.99 38.4458 43.5468 38.4458 43C38.4458 42.4532 38.0026 42.01 37.4558 42.01C36.9091 42.01 36.4658 42.4532 36.4658 43C36.4658 43.5468 36.9091 43.99 37.4558 43.99Z" fill="white"/>
<path d="M37.4558 43.99C38.0026 43.99 38.4458 43.5468 38.4458 43C38.4458 42.4532 38.0026 42.01 37.4558 42.01C36.9091 42.01 36.4658 42.4532 36.4658 43C36.4658 43.5468 36.9091 43.99 37.4558 43.99Z" fill="url(#paint6_linear_12630_17974)"/>
</g>
<path d="M88.5028 20.2727V29H87.2926L82.8565 22.5994H82.7756V29H81.4588V20.2727H82.6776L87.1179 26.6818H87.1989V20.2727H88.5028ZM93.2744 29.1321C92.6295 29.1321 92.0741 28.9943 91.6082 28.7188C91.1451 28.4403 90.7872 28.0497 90.5343 27.5469C90.2843 27.0412 90.1593 26.4489 90.1593 25.7699C90.1593 25.0994 90.2843 24.5085 90.5343 23.9972C90.7872 23.4858 91.1395 23.0866 91.5912 22.7997C92.0457 22.5128 92.577 22.3693 93.1849 22.3693C93.5542 22.3693 93.9122 22.4304 94.2588 22.5526C94.6054 22.6747 94.9164 22.8665 95.192 23.1278C95.4676 23.3892 95.6849 23.7287 95.844 24.1463C96.0031 24.5611 96.0826 25.0653 96.0826 25.6591V26.1108H90.8795V25.1562H94.8341C94.8341 24.821 94.7659 24.5241 94.6295 24.2656C94.4932 24.0043 94.3014 23.7983 94.0542 23.6477C93.8099 23.4972 93.523 23.4219 93.1934 23.4219C92.8355 23.4219 92.523 23.5099 92.2559 23.6861C91.9917 23.8594 91.7872 24.0866 91.6423 24.3679C91.5003 24.6463 91.4292 24.9489 91.4292 25.2756V26.0213C91.4292 26.4588 91.5059 26.831 91.6593 27.1378C91.8156 27.4446 92.0329 27.679 92.3113 27.8409C92.5897 28 92.915 28.0795 93.2872 28.0795C93.5287 28.0795 93.7488 28.0455 93.9477 27.9773C94.1466 27.9062 94.3184 27.8011 94.4633 27.6619C94.6082 27.5227 94.719 27.3509 94.7957 27.1463L96.0017 27.3636C95.9051 27.7187 95.7318 28.0298 95.4818 28.2969C95.2346 28.5611 94.9235 28.767 94.5485 28.9148C94.1764 29.0597 93.7517 29.1321 93.2744 29.1321ZM93.6025 20.2131L95.3412 21.6918H94.0841L93.138 20.848L92.1878 21.6918H90.9349L92.6522 20.2131H93.6025ZM90.5003 19.1818L91.3781 20.7457H90.4619L89.192 19.1818H90.5003ZM98.9025 25.1136V29H97.6283V22.4545H98.8514V23.5199H98.9323C99.0829 23.1733 99.3187 22.8949 99.6397 22.6847C99.9636 22.4744 100.371 22.3693 100.863 22.3693C101.309 22.3693 101.699 22.4631 102.035 22.6506C102.37 22.8352 102.63 23.1108 102.814 23.4773C102.999 23.8437 103.091 24.2969 103.091 24.8366V29H101.817V24.9901C101.817 24.5156 101.694 24.1449 101.447 23.8778C101.199 23.608 100.86 23.473 100.428 23.473C100.133 23.473 99.8698 23.5369 99.6397 23.6648C99.4124 23.7926 99.232 23.9801 99.0985 24.2273C98.9678 24.4716 98.9025 24.767 98.9025 25.1136ZM111.295 22.4545V23.4773H107.72V22.4545H111.295ZM108.679 20.8864H109.953V27.0781C109.953 27.3253 109.99 27.5114 110.064 27.6364C110.138 27.7585 110.233 27.8423 110.349 27.8878C110.469 27.9304 110.598 27.9517 110.737 27.9517C110.839 27.9517 110.929 27.9446 111.006 27.9304C111.082 27.9162 111.142 27.9048 111.185 27.8963L111.415 28.9489C111.341 28.9773 111.236 29.0057 111.099 29.0341C110.963 29.0653 110.793 29.0824 110.588 29.0852C110.253 29.0909 109.94 29.0312 109.651 28.9062C109.361 28.7812 109.126 28.5881 108.947 28.3267C108.768 28.0653 108.679 27.7372 108.679 27.3423V20.8864ZM114.742 29.1449C114.327 29.1449 113.952 29.0682 113.617 28.9148C113.281 28.7585 113.016 28.5327 112.82 28.2372C112.627 27.9418 112.53 27.5795 112.53 27.1506C112.53 26.7812 112.601 26.4773 112.743 26.2386C112.885 26 113.077 25.8111 113.318 25.6719C113.56 25.5327 113.83 25.4276 114.128 25.3565C114.426 25.2855 114.73 25.2315 115.04 25.1946C115.432 25.1491 115.75 25.1122 115.995 25.0838C116.239 25.0526 116.416 25.0028 116.527 24.9347C116.638 24.8665 116.693 24.7557 116.693 24.6023V24.5724C116.693 24.2003 116.588 23.9119 116.378 23.7074C116.171 23.5028 115.861 23.4006 115.449 23.4006C115.02 23.4006 114.682 23.4957 114.435 23.6861C114.191 23.8736 114.022 24.0824 113.928 24.3125L112.73 24.0398C112.872 23.642 113.08 23.321 113.352 23.0767C113.628 22.8295 113.945 22.6506 114.303 22.5398C114.661 22.4261 115.037 22.3693 115.432 22.3693C115.693 22.3693 115.97 22.4006 116.263 22.4631C116.558 22.5227 116.834 22.6335 117.09 22.7955C117.348 22.9574 117.56 23.1889 117.725 23.4901C117.889 23.7884 117.972 24.1761 117.972 24.6534V29H116.727V28.1051H116.676C116.594 28.2699 116.47 28.4318 116.306 28.5909C116.141 28.75 115.929 28.8821 115.671 28.9872C115.412 29.0923 115.102 29.1449 114.742 29.1449ZM115.019 28.1222C115.371 28.1222 115.672 28.0526 115.922 27.9134C116.175 27.7741 116.367 27.5923 116.497 27.3679C116.631 27.1406 116.698 26.8977 116.698 26.6392V25.7955C116.652 25.8409 116.564 25.8835 116.433 25.9233C116.306 25.9602 116.159 25.9929 115.995 26.0213C115.83 26.0469 115.669 26.071 115.513 26.0938C115.357 26.1136 115.226 26.1307 115.121 26.1449C114.874 26.1761 114.648 26.2287 114.443 26.3026C114.242 26.3764 114.08 26.483 113.958 26.6222C113.838 26.7585 113.779 26.9403 113.779 27.1676C113.779 27.483 113.895 27.7216 114.128 27.8835C114.361 28.0426 114.658 28.1222 115.019 28.1222ZM116.02 21.5511H115.014L114.98 20.6818C115.281 20.6676 115.495 20.6278 115.62 20.5625C115.745 20.4943 115.806 20.3963 115.803 20.2685C115.806 20.1151 115.719 20.0057 115.543 19.9403C115.37 19.875 115.158 19.8423 114.908 19.8423L114.946 19.1392C115.591 19.1392 116.08 19.2415 116.412 19.446C116.747 19.6506 116.914 19.9261 116.911 20.2727C116.914 20.554 116.821 20.7614 116.634 20.8949C116.449 21.0256 116.245 21.108 116.02 21.142V21.5511ZM121.075 25.1136V29H119.801V22.4545H121.024V23.5199H121.105C121.255 23.1733 121.491 22.8949 121.812 22.6847C122.136 22.4744 122.544 22.3693 123.035 22.3693C123.481 22.3693 123.872 22.4631 124.207 22.6506C124.542 22.8352 124.802 23.1108 124.987 23.4773C125.172 23.8437 125.264 24.2969 125.264 24.8366V29H123.99V24.9901C123.99 24.5156 123.866 24.1449 123.619 23.8778C123.372 23.608 123.032 23.473 122.601 23.473C122.305 23.473 122.042 23.5369 121.812 23.6648C121.585 23.7926 121.405 23.9801 121.271 24.2273C121.14 24.4716 121.075 24.767 121.075 25.1136ZM129.849 31.5909C129.329 31.5909 128.882 31.5227 128.507 31.3864C128.135 31.25 127.831 31.0696 127.595 30.8452C127.359 30.6207 127.183 30.375 127.066 30.108L128.162 29.6562C128.238 29.7812 128.341 29.9134 128.468 30.0526C128.599 30.1946 128.775 30.3153 128.997 30.4148C129.221 30.5142 129.51 30.5639 129.862 30.5639C130.345 30.5639 130.744 30.446 131.059 30.2102C131.375 29.9773 131.532 29.6051 131.532 29.0938V27.8068H131.451C131.375 27.946 131.264 28.1009 131.119 28.2713C130.977 28.4418 130.781 28.5895 130.531 28.7145C130.281 28.8395 129.956 28.902 129.555 28.902C129.038 28.902 128.572 28.7812 128.157 28.5398C127.745 28.2955 127.419 27.9361 127.177 27.4616C126.939 26.9844 126.819 26.3977 126.819 25.7017C126.819 25.0057 126.937 24.4091 127.173 23.9119C127.412 23.4148 127.738 23.0341 128.153 22.7699C128.568 22.5028 129.038 22.3693 129.564 22.3693C129.97 22.3693 130.298 22.4375 130.548 22.5739C130.798 22.7074 130.993 22.8636 131.132 23.0426C131.274 23.2216 131.383 23.3793 131.46 23.5156H131.554V22.4545H132.802V29.1449C132.802 29.7074 132.672 30.169 132.41 30.5298C132.149 30.8906 131.795 31.1577 131.349 31.331C130.906 31.5043 130.406 31.5909 129.849 31.5909ZM129.836 27.8452C130.203 27.8452 130.512 27.7599 130.765 27.5895C131.021 27.4162 131.214 27.169 131.345 26.848C131.478 26.5241 131.545 26.1364 131.545 25.6847C131.545 25.2443 131.48 24.8565 131.349 24.5213C131.218 24.1861 131.027 23.9247 130.774 23.7372C130.521 23.5469 130.208 23.4517 129.836 23.4517C129.453 23.4517 129.133 23.5511 128.877 23.75C128.622 23.946 128.429 24.2131 128.298 24.5511C128.17 24.8892 128.106 25.267 128.106 25.6847C128.106 26.1136 128.172 26.4901 128.302 26.8139C128.433 27.1378 128.626 27.3906 128.882 27.5724C129.14 27.7543 129.458 27.8452 129.836 27.8452ZM142.37 31.4545V27.9815H142.293C142.216 28.1207 142.106 28.2798 141.961 28.4588C141.819 28.6378 141.623 28.794 141.373 28.9276C141.123 29.0611 140.799 29.1278 140.401 29.1278C139.873 29.1278 139.401 28.9929 138.986 28.723C138.574 28.4503 138.25 28.0625 138.015 27.5597C137.782 27.054 137.665 26.4474 137.665 25.7401C137.665 25.0327 137.783 24.4276 138.019 23.9247C138.258 23.4219 138.584 23.0369 138.999 22.7699C139.414 22.5028 139.884 22.3693 140.41 22.3693C140.816 22.3693 141.143 22.4375 141.39 22.5739C141.64 22.7074 141.833 22.8636 141.969 23.0426C142.108 23.2216 142.216 23.3793 142.293 23.5156H142.4V22.4545H143.644V31.4545H142.37ZM140.682 28.0412C141.049 28.0412 141.358 27.9446 141.611 27.7514C141.867 27.5554 142.06 27.2841 142.191 26.9375C142.324 26.5909 142.391 26.1875 142.391 25.7273C142.391 25.2727 142.326 24.875 142.195 24.5341C142.064 24.1932 141.873 23.9276 141.62 23.7372C141.367 23.5469 141.054 23.4517 140.682 23.4517C140.299 23.4517 139.979 23.5511 139.724 23.75C139.468 23.9489 139.275 24.2202 139.144 24.5639C139.016 24.9077 138.952 25.2955 138.952 25.7273C138.952 26.1648 139.018 26.5582 139.148 26.9077C139.279 27.2571 139.472 27.5341 139.728 27.7386C139.986 27.9403 140.304 28.0412 140.682 28.0412ZM149.635 26.2855V22.4545H150.914V29H149.661V27.8665H149.593C149.442 28.2159 149.201 28.5071 148.868 28.7401C148.539 28.9702 148.128 29.0852 147.637 29.0852C147.216 29.0852 146.844 28.9929 146.52 28.8082C146.199 28.6207 145.946 28.3438 145.762 27.9773C145.58 27.6108 145.489 27.1577 145.489 26.6179V22.4545H146.763V26.4645C146.763 26.9105 146.887 27.2656 147.134 27.5298C147.381 27.794 147.702 27.9261 148.097 27.9261C148.336 27.9261 148.573 27.8665 148.809 27.7472C149.047 27.6278 149.245 27.4474 149.401 27.206C149.56 26.9645 149.638 26.6577 149.635 26.2855ZM154.663 29.1449C154.248 29.1449 153.873 29.0682 153.538 28.9148C153.202 28.7585 152.937 28.5327 152.741 28.2372C152.548 27.9418 152.451 27.5795 152.451 27.1506C152.451 26.7812 152.522 26.4773 152.664 26.2386C152.806 26 152.998 25.8111 153.239 25.6719C153.481 25.5327 153.751 25.4276 154.049 25.3565C154.347 25.2855 154.651 25.2315 154.961 25.1946C155.353 25.1491 155.671 25.1122 155.915 25.0838C156.16 25.0526 156.337 25.0028 156.448 24.9347C156.559 24.8665 156.614 24.7557 156.614 24.6023V24.5724C156.614 24.2003 156.509 23.9119 156.299 23.7074C156.092 23.5028 155.782 23.4006 155.37 23.4006C154.941 23.4006 154.603 23.4957 154.356 23.6861C154.111 23.8736 153.942 24.0824 153.849 24.3125L152.651 24.0398C152.793 23.642 153.001 23.321 153.273 23.0767C153.549 22.8295 153.866 22.6506 154.224 22.5398C154.582 22.4261 154.958 22.3693 155.353 22.3693C155.614 22.3693 155.891 22.4006 156.184 22.4631C156.479 22.5227 156.755 22.6335 157.011 22.7955C157.269 22.9574 157.481 23.1889 157.646 23.4901C157.81 23.7884 157.893 24.1761 157.893 24.6534V29H156.648V28.1051H156.597C156.515 28.2699 156.391 28.4318 156.227 28.5909C156.062 28.75 155.85 28.8821 155.592 28.9872C155.333 29.0923 155.023 29.1449 154.663 29.1449ZM154.94 28.1222C155.292 28.1222 155.593 28.0526 155.843 27.9134C156.096 27.7741 156.288 27.5923 156.418 27.3679C156.552 27.1406 156.619 26.8977 156.619 26.6392V25.7955C156.573 25.8409 156.485 25.8835 156.354 25.9233C156.227 25.9602 156.08 25.9929 155.915 26.0213C155.751 26.0469 155.59 26.071 155.434 26.0938C155.278 26.1136 155.147 26.1307 155.042 26.1449C154.795 26.1761 154.569 26.2287 154.364 26.3026C154.163 26.3764 154.001 26.483 153.878 26.6222C153.759 26.7585 153.7 26.9403 153.7 27.1676C153.7 27.483 153.816 27.7216 154.049 27.8835C154.282 28.0426 154.579 28.1222 154.94 28.1222ZM155.941 21.5511H154.935L154.901 20.6818C155.202 20.6676 155.415 20.6278 155.54 20.5625C155.665 20.4943 155.727 20.3963 155.724 20.2685C155.727 20.1151 155.64 20.0057 155.464 19.9403C155.29 19.875 155.079 19.8423 154.829 19.8423L154.867 19.1392C155.512 19.1392 156.001 19.2415 156.333 19.446C156.668 19.6506 156.834 19.9261 156.832 20.2727C156.834 20.554 156.742 20.7614 156.555 20.8949C156.37 21.0256 156.165 21.108 155.941 21.142V21.5511ZM160.996 25.1136V29H159.722V22.4545H160.945V23.5199H161.026C161.176 23.1733 161.412 22.8949 161.733 22.6847C162.057 22.4744 162.465 22.3693 162.956 22.3693C163.402 22.3693 163.793 22.4631 164.128 22.6506C164.463 22.8352 164.723 23.1108 164.908 23.4773C165.093 23.8437 165.185 24.2969 165.185 24.8366V29H163.911V24.9901C163.911 24.5156 163.787 24.1449 163.54 23.8778C163.293 23.608 162.953 23.473 162.521 23.473C162.226 23.473 161.963 23.5369 161.733 23.6648C161.506 23.7926 161.325 23.9801 161.192 24.2273C161.061 24.4716 160.996 24.767 160.996 25.1136ZM171.608 20.2727V29H170.333V20.2727H171.608ZM174.259 31.4545C174.069 31.4545 173.895 31.4389 173.739 31.4077C173.583 31.3793 173.467 31.348 173.39 31.3139L173.697 30.2699C173.93 30.3324 174.137 30.3594 174.319 30.3509C174.501 30.3423 174.661 30.2741 174.8 30.1463C174.942 30.0185 175.067 29.8097 175.175 29.5199L175.333 29.0852L172.938 22.4545H174.302L175.959 27.5341H176.028L177.685 22.4545H179.053L176.356 29.8736C176.231 30.2145 176.072 30.5028 175.878 30.7386C175.685 30.9773 175.455 31.1563 175.188 31.2756C174.921 31.3949 174.611 31.4545 174.259 31.4545ZM175.465 21.581L176.462 19.6165H177.805L176.484 21.581H175.465ZM189.29 22.4545L186.916 29H185.553L183.175 22.4545H184.543L186.2 27.4915H186.269L187.922 22.4545H189.29ZM192.337 29.1449C191.922 29.1449 191.547 29.0682 191.212 28.9148C190.876 28.7585 190.611 28.5327 190.415 28.2372C190.222 27.9418 190.125 27.5795 190.125 27.1506C190.125 26.7812 190.196 26.4773 190.338 26.2386C190.48 26 190.672 25.8111 190.913 25.6719C191.155 25.5327 191.425 25.4276 191.723 25.3565C192.021 25.2855 192.325 25.2315 192.635 25.1946C193.027 25.1491 193.345 25.1122 193.589 25.0838C193.834 25.0526 194.011 25.0028 194.122 24.9347C194.233 24.8665 194.288 24.7557 194.288 24.6023V24.5724C194.288 24.2003 194.183 23.9119 193.973 23.7074C193.766 23.5028 193.456 23.4006 193.044 23.4006C192.615 23.4006 192.277 23.4957 192.03 23.6861C191.785 23.8736 191.616 24.0824 191.523 24.3125L190.325 24.0398C190.467 23.642 190.675 23.321 190.947 23.0767C191.223 22.8295 191.54 22.6506 191.898 22.5398C192.256 22.4261 192.632 22.3693 193.027 22.3693C193.288 22.3693 193.565 22.4006 193.858 22.4631C194.153 22.5227 194.429 22.6335 194.685 22.7955C194.943 22.9574 195.155 23.1889 195.32 23.4901C195.484 23.7884 195.567 24.1761 195.567 24.6534V29H194.322V28.1051H194.271C194.189 28.2699 194.065 28.4318 193.901 28.5909C193.736 28.75 193.524 28.8821 193.266 28.9872C193.007 29.0923 192.697 29.1449 192.337 29.1449ZM192.614 28.1222C192.966 28.1222 193.267 28.0526 193.517 27.9134C193.77 27.7741 193.962 27.5923 194.092 27.3679C194.226 27.1406 194.293 26.8977 194.293 26.6392V25.7955C194.247 25.8409 194.159 25.8835 194.028 25.9233C193.901 25.9602 193.754 25.9929 193.589 26.0213C193.425 26.0469 193.264 26.071 193.108 26.0938C192.952 26.1136 192.821 26.1307 192.716 26.1449C192.469 26.1761 192.243 26.2287 192.038 26.3026C191.837 26.3764 191.675 26.483 191.552 26.6222C191.433 26.7585 191.374 26.9403 191.374 27.1676C191.374 27.483 191.49 27.7216 191.723 27.8835C191.956 28.0426 192.253 28.1222 192.614 28.1222ZM192.597 21.581L191.28 19.6165H192.622L193.615 21.581H192.597ZM203.448 31.5909C202.928 31.5909 202.481 31.5227 202.106 31.3864C201.733 31.25 201.429 31.0696 201.194 30.8452C200.958 30.6207 200.782 30.375 200.665 30.108L201.76 29.6562C201.837 29.7812 201.939 29.9134 202.067 30.0526C202.198 30.1946 202.374 30.3153 202.596 30.4148C202.82 30.5142 203.108 30.5639 203.461 30.5639C203.944 30.5639 204.343 30.446 204.658 30.2102C204.973 29.9773 205.131 29.6051 205.131 29.0938V27.8068H205.05C204.973 27.946 204.863 28.1009 204.718 28.2713C204.576 28.4418 204.38 28.5895 204.13 28.7145C203.88 28.8395 203.554 28.902 203.154 28.902C202.637 28.902 202.171 28.7812 201.756 28.5398C201.344 28.2955 201.017 27.9361 200.776 27.4616C200.537 26.9844 200.418 26.3977 200.418 25.7017C200.418 25.0057 200.536 24.4091 200.772 23.9119C201.01 23.4148 201.337 23.0341 201.752 22.7699C202.167 22.5028 202.637 22.3693 203.162 22.3693C203.569 22.3693 203.897 22.4375 204.147 22.5739C204.397 22.7074 204.591 22.8636 204.731 23.0426C204.873 23.2216 204.982 23.3793 205.059 23.5156H205.152V22.4545H206.401V29.1449C206.401 29.7074 206.27 30.169 206.009 30.5298C205.748 30.8906 205.394 31.1577 204.948 31.331C204.505 31.5043 204.005 31.5909 203.448 31.5909ZM203.435 27.8452C203.802 27.8452 204.111 27.7599 204.364 27.5895C204.62 27.4162 204.813 27.169 204.944 26.848C205.077 26.5241 205.144 26.1364 205.144 25.6847C205.144 25.2443 205.079 24.8565 204.948 24.5213C204.817 24.1861 204.625 23.9247 204.373 23.7372C204.12 23.5469 203.807 23.4517 203.435 23.4517C203.052 23.4517 202.732 23.5511 202.476 23.75C202.221 23.946 202.027 24.2131 201.897 24.5511C201.769 24.8892 201.705 25.267 201.705 25.6847C201.705 26.1136 201.77 26.4901 201.901 26.8139C202.032 27.1378 202.225 27.3906 202.481 27.5724C202.739 27.7543 203.057 27.8452 203.435 27.8452ZM208.242 29V22.4545H209.516V29H208.242ZM208.885 21.4446C208.664 21.4446 208.473 21.3707 208.314 21.223C208.158 21.0724 208.08 20.8935 208.08 20.6861C208.08 20.4759 208.158 20.2969 208.314 20.1491C208.473 19.9986 208.664 19.9233 208.885 19.9233C209.107 19.9233 209.296 19.9986 209.452 20.1491C209.611 20.2969 209.691 20.4759 209.691 20.6861C209.691 20.8935 209.611 21.0724 209.452 21.223C209.296 21.3707 209.107 21.4446 208.885 21.4446ZM213.267 29.1449C212.852 29.1449 212.477 29.0682 212.142 28.9148C211.807 28.7585 211.541 28.5327 211.345 28.2372C211.152 27.9418 211.055 27.5795 211.055 27.1506C211.055 26.7812 211.126 26.4773 211.268 26.2386C211.41 26 211.602 25.8111 211.844 25.6719C212.085 25.5327 212.355 25.4276 212.653 25.3565C212.952 25.2855 213.256 25.2315 213.565 25.1946C213.957 25.1491 214.275 25.1122 214.52 25.0838C214.764 25.0526 214.942 25.0028 215.052 24.9347C215.163 24.8665 215.219 24.7557 215.219 24.6023V24.5724C215.219 24.2003 215.114 23.9119 214.903 23.7074C214.696 23.5028 214.386 23.4006 213.974 23.4006C213.545 23.4006 213.207 23.4957 212.96 23.6861C212.716 23.8736 212.547 24.0824 212.453 24.3125L211.256 24.0398C211.398 23.642 211.605 23.321 211.878 23.0767C212.153 22.8295 212.47 22.6506 212.828 22.5398C213.186 22.4261 213.562 22.3693 213.957 22.3693C214.219 22.3693 214.496 22.4006 214.788 22.4631C215.084 22.5227 215.359 22.6335 215.615 22.7955C215.873 22.9574 216.085 23.1889 216.25 23.4901C216.415 23.7884 216.497 24.1761 216.497 24.6534V29H215.253V28.1051H215.202C215.119 28.2699 214.996 28.4318 214.831 28.5909C214.666 28.75 214.454 28.8821 214.196 28.9872C213.937 29.0923 213.628 29.1449 213.267 29.1449ZM213.544 28.1222C213.896 28.1222 214.197 28.0526 214.447 27.9134C214.7 27.7741 214.892 27.5923 215.023 27.3679C215.156 27.1406 215.223 26.8977 215.223 26.6392V25.7955C215.177 25.8409 215.089 25.8835 214.959 25.9233C214.831 25.9602 214.685 25.9929 214.52 26.0213C214.355 26.0469 214.194 26.071 214.038 26.0938C213.882 26.1136 213.751 26.1307 213.646 26.1449C213.399 26.1761 213.173 26.2287 212.969 26.3026C212.767 26.3764 212.605 26.483 212.483 26.6222C212.364 26.7585 212.304 26.9403 212.304 27.1676C212.304 27.483 212.42 27.7216 212.653 27.8835C212.886 28.0426 213.183 28.1222 213.544 28.1222ZM224.689 22.4545V23.4773H221.114V22.4545H224.689ZM222.073 20.8864H223.347V27.0781C223.347 27.3253 223.384 27.5114 223.458 27.6364C223.532 27.7585 223.627 27.8423 223.743 27.8878C223.863 27.9304 223.992 27.9517 224.131 27.9517C224.233 27.9517 224.323 27.9446 224.4 27.9304C224.476 27.9162 224.536 27.9048 224.579 27.8963L224.809 28.9489C224.735 28.9773 224.63 29.0057 224.493 29.0341C224.357 29.0653 224.186 29.0824 223.982 29.0852C223.647 29.0909 223.334 29.0312 223.044 28.9062C222.755 28.7812 222.52 28.5881 222.341 28.3267C222.162 28.0653 222.073 27.7372 222.073 27.3423V20.8864ZM228.136 29.1449C227.721 29.1449 227.346 29.0682 227.011 28.9148C226.675 28.7585 226.41 28.5327 226.214 28.2372C226.021 27.9418 225.924 27.5795 225.924 27.1506C225.924 26.7812 225.995 26.4773 226.137 26.2386C226.279 26 226.471 25.8111 226.712 25.6719C226.954 25.5327 227.224 25.4276 227.522 25.3565C227.82 25.2855 228.124 25.2315 228.434 25.1946C228.826 25.1491 229.144 25.1122 229.388 25.0838C229.633 25.0526 229.81 25.0028 229.921 24.9347C230.032 24.8665 230.087 24.7557 230.087 24.6023V24.5724C230.087 24.2003 229.982 23.9119 229.772 23.7074C229.565 23.5028 229.255 23.4006 228.843 23.4006C228.414 23.4006 228.076 23.4957 227.829 23.6861C227.584 23.8736 227.415 24.0824 227.322 24.3125L226.124 24.0398C226.266 23.642 226.474 23.321 226.746 23.0767C227.022 22.8295 227.339 22.6506 227.697 22.5398C228.055 22.4261 228.431 22.3693 228.826 22.3693C229.087 22.3693 229.364 22.4006 229.657 22.4631C229.952 22.5227 230.228 22.6335 230.484 22.7955C230.742 22.9574 230.954 23.1889 231.119 23.4901C231.283 23.7884 231.366 24.1761 231.366 24.6534V29H230.121V28.1051H230.07C229.988 28.2699 229.864 28.4318 229.7 28.5909C229.535 28.75 229.323 28.8821 229.065 28.9872C228.806 29.0923 228.496 29.1449 228.136 29.1449ZM228.413 28.1222C228.765 28.1222 229.066 28.0526 229.316 27.9134C229.569 27.7741 229.761 27.5923 229.891 27.3679C230.025 27.1406 230.092 26.8977 230.092 26.6392V25.7955C230.046 25.8409 229.958 25.8835 229.827 25.9233C229.7 25.9602 229.553 25.9929 229.388 26.0213C229.224 26.0469 229.063 26.071 228.907 26.0938C228.751 26.1136 228.62 26.1307 228.515 26.1449C228.268 26.1761 228.042 26.2287 227.837 26.3026C227.636 26.3764 227.474 26.483 227.351 26.6222C227.232 26.7585 227.173 26.9403 227.173 27.1676C227.173 27.483 227.289 27.7216 227.522 27.8835C227.755 28.0426 228.052 28.1222 228.413 28.1222ZM229.729 20.2386H230.778C230.778 20.7187 230.607 21.1094 230.266 21.4105C229.928 21.7088 229.471 21.858 228.894 21.858C228.32 21.858 227.864 21.7088 227.526 21.4105C227.188 21.1094 227.019 20.7187 227.019 20.2386H228.063C228.063 20.4517 228.126 20.6406 228.251 20.8054C228.376 20.9673 228.59 21.0483 228.894 21.0483C229.192 21.0483 229.405 20.9673 229.533 20.8054C229.664 20.6435 229.729 20.4545 229.729 20.2386ZM234.469 25.1136V29H233.195V22.4545H234.418V23.5199H234.499C234.649 23.1733 234.885 22.8949 235.206 22.6847C235.53 22.4744 235.938 22.3693 236.429 22.3693C236.875 22.3693 237.266 22.4631 237.601 22.6506C237.936 22.8352 238.196 23.1108 238.381 23.4773C238.566 23.8437 238.658 24.2969 238.658 24.8366V29H237.384V24.9901C237.384 24.5156 237.26 24.1449 237.013 23.8778C236.766 23.608 236.426 23.473 235.995 23.473C235.699 23.473 235.436 23.5369 235.206 23.6648C234.979 23.7926 234.798 23.9801 234.665 24.2273C234.534 24.4716 234.469 24.767 234.469 25.1136ZM243.243 31.5909C242.723 31.5909 242.276 31.5227 241.901 31.3864C241.528 31.25 241.225 31.0696 240.989 30.8452C240.753 30.6207 240.577 30.375 240.46 30.108L241.555 29.6562C241.632 29.7812 241.734 29.9134 241.862 30.0526C241.993 30.1946 242.169 30.3153 242.391 30.4148C242.615 30.5142 242.903 30.5639 243.256 30.5639C243.739 30.5639 244.138 30.446 244.453 30.2102C244.769 29.9773 244.926 29.6051 244.926 29.0938V27.8068H244.845C244.769 27.946 244.658 28.1009 244.513 28.2713C244.371 28.4418 244.175 28.5895 243.925 28.7145C243.675 28.8395 243.35 28.902 242.949 28.902C242.432 28.902 241.966 28.7812 241.551 28.5398C241.139 28.2955 240.813 27.9361 240.571 27.4616C240.332 26.9844 240.213 26.3977 240.213 25.7017C240.213 25.0057 240.331 24.4091 240.567 23.9119C240.805 23.4148 241.132 23.0341 241.547 22.7699C241.962 22.5028 242.432 22.3693 242.957 22.3693C243.364 22.3693 243.692 22.4375 243.942 22.5739C244.192 22.7074 244.386 22.8636 244.526 23.0426C244.668 23.2216 244.777 23.3793 244.854 23.5156H244.948V22.4545H246.196V29.1449C246.196 29.7074 246.065 30.169 245.804 30.5298C245.543 30.8906 245.189 31.1577 244.743 31.331C244.3 31.5043 243.8 31.5909 243.243 31.5909ZM243.23 27.8452C243.597 27.8452 243.906 27.7599 244.159 27.5895C244.415 27.4162 244.608 27.169 244.739 26.848C244.872 26.5241 244.939 26.1364 244.939 25.6847C244.939 25.2443 244.874 24.8565 244.743 24.5213C244.612 24.1861 244.421 23.9247 244.168 23.7372C243.915 23.5469 243.602 23.4517 243.23 23.4517C242.847 23.4517 242.527 23.5511 242.271 23.75C242.016 23.946 241.823 24.2131 241.692 24.5511C241.564 24.8892 241.5 25.267 241.5 25.6847C241.5 26.1136 241.565 26.4901 241.696 26.8139C241.827 27.1378 242.02 27.3906 242.276 27.5724C242.534 27.7543 242.852 27.8452 243.23 27.8452ZM84.4119 40.4545V41.4773H80.8366V40.4545H84.4119ZM81.7955 38.8864H83.0696V45.0781C83.0696 45.3253 83.1065 45.5114 83.1804 45.6364C83.2543 45.7585 83.3494 45.8423 83.4659 45.8878C83.5852 45.9304 83.7145 45.9517 83.8537 45.9517C83.956 45.9517 84.0455 45.9446 84.1222 45.9304C84.1989 45.9162 84.2585 45.9048 84.3011 45.8963L84.5312 46.9489C84.4574 46.9773 84.3523 47.0057 84.2159 47.0341C84.0795 47.0653 83.9091 47.0824 83.7045 47.0852C83.3693 47.0909 83.0568 47.0312 82.767 46.9062C82.4773 46.7812 82.2429 46.5881 82.0639 46.3267C81.8849 46.0653 81.7955 45.7372 81.7955 45.3423V38.8864ZM85.9534 47V40.4545H87.1849V41.4943H87.2531C87.3724 41.142 87.5826 40.8651 87.8838 40.6634C88.1878 40.4588 88.5315 40.3565 88.915 40.3565C88.9946 40.3565 89.0883 40.3594 89.1963 40.3651C89.3071 40.3707 89.3937 40.3778 89.4562 40.3864V41.6051C89.4051 41.5909 89.3142 41.5753 89.1835 41.5582C89.0528 41.5384 88.9221 41.5284 88.7914 41.5284C88.4903 41.5284 88.2218 41.5923 87.986 41.7202C87.7531 41.8452 87.5684 42.0199 87.4321 42.2443C87.2957 42.4659 87.2275 42.7187 87.2275 43.0028V47H85.9534ZM92.5371 47.1449C92.1223 47.1449 91.7473 47.0682 91.4121 46.9148C91.0769 46.7585 90.8112 46.5327 90.6152 46.2372C90.422 45.9418 90.3254 45.5795 90.3254 45.1506C90.3254 44.7812 90.3965 44.4773 90.5385 44.2386C90.6805 44 90.8723 43.8111 91.1138 43.6719C91.3553 43.5327 91.6252 43.4276 91.9234 43.3565C92.2217 43.2855 92.5257 43.2315 92.8354 43.1946C93.2274 43.1491 93.5456 43.1122 93.7899 43.0838C94.0342 43.0526 94.2118 43.0028 94.3226 42.9347C94.4334 42.8665 94.4888 42.7557 94.4888 42.6023V42.5724C94.4888 42.2003 94.3837 41.9119 94.1734 41.7074C93.9661 41.5028 93.6564 41.4006 93.2445 41.4006C92.8155 41.4006 92.4774 41.4957 92.2303 41.6861C91.9859 41.8736 91.8169 42.0824 91.7232 42.3125L90.5257 42.0398C90.6678 41.642 90.8752 41.321 91.1479 41.0767C91.4234 40.8295 91.7402 40.6506 92.0982 40.5398C92.4561 40.4261 92.8325 40.3693 93.2274 40.3693C93.4888 40.3693 93.7658 40.4006 94.0584 40.4631C94.3538 40.5227 94.6294 40.6335 94.8851 40.7955C95.1436 40.9574 95.3553 41.1889 95.52 41.4901C95.6848 41.7884 95.7672 42.1761 95.7672 42.6534V47H94.5229V46.1051H94.4717C94.3894 46.2699 94.2658 46.4318 94.101 46.5909C93.9362 46.75 93.7246 46.8821 93.4661 46.9872C93.2075 47.0923 92.8979 47.1449 92.5371 47.1449ZM92.8141 46.1222C93.1663 46.1222 93.4675 46.0526 93.7175 45.9134C93.9703 45.7741 94.1621 45.5923 94.2928 45.3679C94.4263 45.1406 94.493 44.8977 94.493 44.6392V43.7955C94.4476 43.8409 94.3595 43.8835 94.2288 43.9233C94.101 43.9602 93.9547 43.9929 93.7899 44.0213C93.6252 44.0469 93.4646 44.071 93.3084 44.0938C93.1521 44.1136 93.0215 44.1307 92.9163 44.1449C92.6692 44.1761 92.4433 44.2287 92.2388 44.3026C92.0371 44.3764 91.8752 44.483 91.753 44.6222C91.6337 44.7585 91.574 44.9403 91.574 45.1676C91.574 45.483 91.6905 45.7216 91.9234 45.8835C92.1564 46.0426 92.4533 46.1222 92.8141 46.1222ZM93.8155 39.5511H92.8098L92.7757 38.6818C93.0769 38.6676 93.2899 38.6278 93.4149 38.5625C93.5399 38.4943 93.601 38.3963 93.5982 38.2685C93.601 38.1151 93.5144 38.0057 93.3382 37.9403C93.1649 37.875 92.9533 37.8423 92.7033 37.8423L92.7416 37.1392C93.3865 37.1392 93.8752 37.2415 94.2075 37.446C94.5428 37.6506 94.709 37.9261 94.7061 38.2727C94.709 38.554 94.6166 38.7614 94.4291 38.8949C94.2445 39.0256 94.0399 39.108 93.8155 39.142V39.5511ZM97.5963 47V40.4545H98.8704V47H97.5963ZM98.2397 39.4446C98.0182 39.4446 97.8278 39.3707 97.6687 39.223C97.5125 39.0724 97.4344 38.8935 97.4344 38.6861C97.4344 38.4759 97.5125 38.2969 97.6687 38.1491C97.8278 37.9986 98.0182 37.9233 98.2397 37.9233C98.4613 37.9233 98.6503 37.9986 98.8065 38.1491C98.9656 38.2969 99.0451 38.4759 99.0451 38.6861C99.0451 38.8935 98.9656 39.0724 98.8065 39.223C98.6503 39.3707 98.4613 39.4446 98.2397 39.4446ZM105.298 43.1136V47H104.024V40.4545H105.247V41.5199H105.328C105.479 41.1733 105.715 40.8949 106.036 40.6847C106.36 40.4744 106.767 40.3693 107.259 40.3693C107.705 40.3693 108.095 40.4631 108.431 40.6506C108.766 40.8352 109.026 41.1108 109.21 41.4773C109.395 41.8437 109.487 42.2969 109.487 42.8366V47H108.213V42.9901C108.213 42.5156 108.09 42.1449 107.843 41.8778C107.595 41.608 107.256 41.473 106.824 41.473C106.529 41.473 106.266 41.5369 106.036 41.6648C105.808 41.7926 105.628 41.9801 105.495 42.2273C105.364 42.4716 105.298 42.767 105.298 43.1136ZM114.073 49.5909C113.553 49.5909 113.105 49.5227 112.73 49.3864C112.358 49.25 112.054 49.0696 111.818 48.8452C111.582 48.6207 111.406 48.375 111.29 48.108L112.385 47.6562C112.462 47.7812 112.564 47.9134 112.692 48.0526C112.823 48.1946 112.999 48.3153 113.22 48.4148C113.445 48.5142 113.733 48.5639 114.085 48.5639C114.568 48.5639 114.967 48.446 115.283 48.2102C115.598 47.9773 115.756 47.6051 115.756 47.0938V45.8068H115.675C115.598 45.946 115.487 46.1009 115.342 46.2713C115.2 46.4418 115.004 46.5895 114.754 46.7145C114.504 46.8395 114.179 46.902 113.779 46.902C113.261 46.902 112.796 46.7812 112.381 46.5398C111.969 46.2955 111.642 45.9361 111.401 45.4616C111.162 44.9844 111.043 44.3977 111.043 43.7017C111.043 43.0057 111.161 42.4091 111.396 41.9119C111.635 41.4148 111.962 41.0341 112.377 40.7699C112.791 40.5028 113.261 40.3693 113.787 40.3693C114.193 40.3693 114.521 40.4375 114.771 40.5739C115.021 40.7074 115.216 40.8636 115.355 41.0426C115.497 41.2216 115.607 41.3793 115.683 41.5156H115.777V40.4545H117.026V47.1449C117.026 47.7074 116.895 48.169 116.634 48.5298C116.372 48.8906 116.019 49.1577 115.573 49.331C115.129 49.5043 114.629 49.5909 114.073 49.5909ZM114.06 45.8452C114.426 45.8452 114.736 45.7599 114.989 45.5895C115.244 45.4162 115.438 45.169 115.568 44.848C115.702 44.5241 115.769 44.1364 115.769 43.6847C115.769 43.2443 115.703 42.8565 115.573 42.5213C115.442 42.1861 115.25 41.9247 114.997 41.7372C114.744 41.5469 114.432 41.4517 114.06 41.4517C113.676 41.4517 113.357 41.5511 113.101 41.75C112.845 41.946 112.652 42.2131 112.521 42.5511C112.394 42.8892 112.33 43.267 112.33 43.6847C112.33 44.1136 112.395 44.4901 112.526 44.8139C112.656 45.1378 112.85 45.3906 113.105 45.5724C113.364 45.7543 113.682 45.8452 114.06 45.8452ZM120.141 43.1136V47H118.866V38.2727H120.124V41.5199H120.205C120.358 41.1676 120.592 40.8878 120.908 40.6804C121.223 40.473 121.635 40.3693 122.143 40.3693C122.592 40.3693 122.984 40.4616 123.32 40.6463C123.658 40.831 123.919 41.1065 124.104 41.473C124.291 41.8366 124.385 42.2912 124.385 42.8366V47H123.111V42.9901C123.111 42.5099 122.987 42.1378 122.74 41.8736C122.493 41.6065 122.149 41.473 121.709 41.473C121.408 41.473 121.138 41.5369 120.899 41.6648C120.663 41.7926 120.477 41.9801 120.341 42.2273C120.207 42.4716 120.141 42.767 120.141 43.1136ZM126.217 47V40.4545H127.491V47H126.217ZM126.861 39.4446C126.639 39.4446 126.449 39.3707 126.29 39.223C126.133 39.0724 126.055 38.8935 126.055 38.6861C126.055 38.4759 126.133 38.2969 126.29 38.1491C126.449 37.9986 126.639 37.9233 126.861 37.9233C127.082 37.9233 127.271 37.9986 127.427 38.1491C127.587 38.2969 127.666 38.4759 127.666 38.6861C127.666 38.8935 127.587 39.0724 127.427 39.223C127.271 39.3707 127.082 39.4446 126.861 39.4446ZM132.159 47.1321C131.514 47.1321 130.958 46.9943 130.492 46.7188C130.029 46.4403 129.671 46.0497 129.418 45.5469C129.168 45.0412 129.043 44.4489 129.043 43.7699C129.043 43.0994 129.168 42.5085 129.418 41.9972C129.671 41.4858 130.024 41.0866 130.475 40.7997C130.93 40.5128 131.461 40.3693 132.069 40.3693C132.438 40.3693 132.796 40.4304 133.143 40.5526C133.489 40.6747 133.801 40.8665 134.076 41.1278C134.352 41.3892 134.569 41.7287 134.728 42.1463C134.887 42.5611 134.967 43.0653 134.967 43.6591V44.1108H129.764V43.1562H133.718C133.718 42.821 133.65 42.5241 133.514 42.2656C133.377 42.0043 133.186 41.7983 132.938 41.6477C132.694 41.4972 132.407 41.4219 132.078 41.4219C131.72 41.4219 131.407 41.5099 131.14 41.6861C130.876 41.8594 130.671 42.0866 130.526 42.3679C130.384 42.6463 130.313 42.9489 130.313 43.2756V44.0213C130.313 44.4588 130.39 44.831 130.543 45.1378C130.7 45.4446 130.917 45.679 131.195 45.8409C131.474 46 131.799 46.0795 132.171 46.0795C132.413 46.0795 132.633 46.0455 132.832 45.9773C133.031 45.9062 133.203 45.8011 133.347 45.6619C133.492 45.5227 133.603 45.3509 133.68 45.1463L134.886 45.3636C134.789 45.7187 134.616 46.0298 134.366 46.2969C134.119 46.5611 133.808 46.767 133.433 46.9148C133.061 47.0597 132.636 47.1321 132.159 47.1321ZM132.896 39.6705L132.022 38.5284L131.144 39.6705H129.994V39.6065L131.489 37.7997H132.551L134.051 39.6065V39.6705H132.896ZM132.018 49.2585C131.799 49.2585 131.61 49.1847 131.451 49.0369C131.292 48.8892 131.213 48.7102 131.213 48.5C131.213 48.2898 131.292 48.1108 131.451 47.9631C131.61 47.8153 131.799 47.7415 132.018 47.7415C132.239 47.7415 132.428 47.8153 132.585 47.9631C132.744 48.1108 132.823 48.2898 132.823 48.5C132.823 48.7102 132.744 48.8892 132.585 49.0369C132.428 49.1847 132.239 49.2585 132.018 49.2585ZM136.512 47V40.4545H137.735V41.5199H137.816C137.953 41.1591 138.176 40.8778 138.485 40.6761C138.795 40.4716 139.166 40.3693 139.598 40.3693C140.035 40.3693 140.402 40.4716 140.697 40.6761C140.995 40.8807 141.216 41.1619 141.358 41.5199H141.426C141.582 41.1705 141.831 40.892 142.172 40.6847C142.512 40.4744 142.919 40.3693 143.39 40.3693C143.984 40.3693 144.468 40.5554 144.843 40.9276C145.221 41.2997 145.41 41.8608 145.41 42.6108V47H144.136V42.7301C144.136 42.2869 144.015 41.9659 143.774 41.767C143.532 41.5682 143.244 41.4688 142.909 41.4688C142.494 41.4688 142.172 41.5966 141.941 41.8523C141.711 42.1051 141.596 42.4304 141.596 42.8281V47H140.326V42.6491C140.326 42.294 140.216 42.0085 139.994 41.7926C139.772 41.5767 139.484 41.4688 139.129 41.4688C138.887 41.4688 138.664 41.5327 138.46 41.6605C138.258 41.7855 138.095 41.9602 137.97 42.1847C137.848 42.4091 137.787 42.669 137.787 42.9645V47H136.512ZM151.832 43.1136V47H150.558V40.4545H151.781V41.5199H151.862C152.012 41.1733 152.248 40.8949 152.569 40.6847C152.893 40.4744 153.301 40.3693 153.792 40.3693C154.238 40.3693 154.629 40.4631 154.964 40.6506C155.299 40.8352 155.559 41.1108 155.744 41.4773C155.928 41.8437 156.021 42.2969 156.021 42.8366V47H154.747V42.9901C154.747 42.5156 154.623 42.1449 154.376 41.8778C154.129 41.608 153.789 41.473 153.357 41.473C153.062 41.473 152.799 41.5369 152.569 41.6648C152.342 41.7926 152.161 41.9801 152.028 42.2273C151.897 42.4716 151.832 42.767 151.832 43.1136ZM159.136 43.1136V47H157.862V38.2727H159.119V41.5199H159.2C159.353 41.1676 159.587 40.8878 159.903 40.6804C160.218 40.473 160.63 40.3693 161.139 40.3693C161.587 40.3693 161.979 40.4616 162.315 40.6463C162.653 40.831 162.914 41.1065 163.099 41.473C163.286 41.8366 163.38 42.2912 163.38 42.8366V47H162.106V42.9901C162.106 42.5099 161.982 42.1378 161.735 41.8736C161.488 41.6065 161.144 41.473 160.704 41.473C160.403 41.473 160.133 41.5369 159.894 41.6648C159.658 41.7926 159.472 41.9801 159.336 42.2273C159.203 42.4716 159.136 42.767 159.136 43.1136ZM167.117 47.1449C166.702 47.1449 166.327 47.0682 165.992 46.9148C165.657 46.7585 165.391 46.5327 165.195 46.2372C165.002 45.9418 164.906 45.5795 164.906 45.1506C164.906 44.7812 164.977 44.4773 165.119 44.2386C165.261 44 165.452 43.8111 165.694 43.6719C165.935 43.5327 166.205 43.4276 166.504 43.3565C166.802 43.2855 167.106 43.2315 167.415 43.1946C167.808 43.1491 168.126 43.1122 168.37 43.0838C168.614 43.0526 168.792 43.0028 168.903 42.9347C169.013 42.8665 169.069 42.7557 169.069 42.6023V42.5724C169.069 42.2003 168.964 41.9119 168.754 41.7074C168.546 41.5028 168.236 41.4006 167.825 41.4006C167.396 41.4006 167.058 41.4957 166.81 41.6861C166.566 41.8736 166.397 42.0824 166.303 42.3125L165.106 42.0398C165.248 41.642 165.455 41.321 165.728 41.0767C166.004 40.8295 166.32 40.6506 166.678 40.5398C167.036 40.4261 167.413 40.3693 167.808 40.3693C168.069 40.3693 168.346 40.4006 168.638 40.4631C168.934 40.5227 169.21 40.6335 169.465 40.7955C169.724 40.9574 169.935 41.1889 170.1 41.4901C170.265 41.7884 170.347 42.1761 170.347 42.6534V47H169.103V46.1051H169.052C168.969 46.2699 168.846 46.4318 168.681 46.5909C168.516 46.75 168.305 46.8821 168.046 46.9872C167.788 47.0923 167.478 47.1449 167.117 47.1449ZM167.394 46.1222C167.746 46.1222 168.048 46.0526 168.298 45.9134C168.55 45.7741 168.742 45.5923 168.873 45.3679C169.006 45.1406 169.073 44.8977 169.073 44.6392V43.7955C169.028 43.8409 168.94 43.8835 168.809 43.9233C168.681 43.9602 168.535 43.9929 168.37 44.0213C168.205 44.0469 168.045 44.071 167.888 44.0938C167.732 44.1136 167.602 44.1307 167.496 44.1449C167.249 44.1761 167.023 44.2287 166.819 44.3026C166.617 44.3764 166.455 44.483 166.333 44.6222C166.214 44.7585 166.154 44.9403 166.154 45.1676C166.154 45.483 166.271 45.7216 166.504 45.8835C166.736 46.0426 167.033 46.1222 167.394 46.1222ZM168.749 39.6705L167.876 38.5284L166.998 39.6705H165.847V39.6065L167.343 37.7997H168.404L169.904 39.6065V39.6705H168.749ZM173.451 43.1136V47H172.176V40.4545H173.399V41.5199H173.48C173.631 41.1733 173.867 40.8949 174.188 40.6847C174.512 40.4744 174.919 40.3693 175.411 40.3693C175.857 40.3693 176.247 40.4631 176.583 40.6506C176.918 40.8352 177.178 41.1108 177.362 41.4773C177.547 41.8437 177.639 42.2969 177.639 42.8366V47H176.365V42.9901C176.365 42.5156 176.242 42.1449 175.995 41.8778C175.747 41.608 175.408 41.473 174.976 41.473C174.681 41.473 174.418 41.5369 174.188 41.6648C173.96 41.7926 173.78 41.9801 173.647 42.2273C173.516 42.4716 173.451 42.767 173.451 43.1136ZM188.387 40.4545L186.014 47H184.65L182.272 40.4545H183.64L185.298 45.4915H185.366L187.02 40.4545H188.387ZM189.717 47V40.4545H190.991V47H189.717ZM190.36 39.4446C190.139 39.4446 189.948 39.3707 189.789 39.223C189.633 39.0724 189.555 38.8935 189.555 38.6861C189.555 38.4759 189.633 38.2969 189.789 38.1491C189.948 37.9986 190.139 37.9233 190.36 37.9233C190.582 37.9233 190.771 37.9986 190.927 38.1491C191.086 38.2969 191.166 38.4759 191.166 38.6861C191.166 38.8935 191.086 39.0724 190.927 39.223C190.771 39.3707 190.582 39.4446 190.36 39.4446ZM195.658 47.1321C195.013 47.1321 194.458 46.9943 193.992 46.7188C193.529 46.4403 193.171 46.0497 192.918 45.5469C192.668 45.0412 192.543 44.4489 192.543 43.7699C192.543 43.0994 192.668 42.5085 192.918 41.9972C193.171 41.4858 193.523 41.0866 193.975 40.7997C194.43 40.5128 194.961 40.3693 195.569 40.3693C195.938 40.3693 196.296 40.4304 196.643 40.5526C196.989 40.6747 197.3 40.8665 197.576 41.1278C197.851 41.3892 198.069 41.7287 198.228 42.1463C198.387 42.5611 198.466 43.0653 198.466 43.6591V44.1108H193.263V43.1562H197.218C197.218 42.821 197.15 42.5241 197.013 42.2656C196.877 42.0043 196.685 41.7983 196.438 41.6477C196.194 41.4972 195.907 41.4219 195.577 41.4219C195.219 41.4219 194.907 41.5099 194.64 41.6861C194.376 41.8594 194.171 42.0866 194.026 42.3679C193.884 42.6463 193.813 42.9489 193.813 43.2756V44.0213C193.813 44.4588 193.89 44.831 194.043 45.1378C194.199 45.4446 194.417 45.679 194.695 45.8409C194.974 46 195.299 46.0795 195.671 46.0795C195.912 46.0795 196.133 46.0455 196.332 45.9773C196.53 45.9062 196.702 45.8011 196.847 45.6619C196.992 45.5227 197.103 45.3509 197.18 45.1463L198.385 45.3636C198.289 45.7187 198.116 46.0298 197.866 46.2969C197.618 46.5611 197.307 46.767 196.932 46.9148C196.56 47.0597 196.135 47.1321 195.658 47.1321ZM196.395 39.6705L195.522 38.5284L194.644 39.6705H193.493V39.6065L194.989 37.7997H196.05L197.55 39.6065V39.6705H196.395ZM201.286 43.1136V47H200.012V40.4545H201.235V41.5199H201.316C201.467 41.1733 201.702 40.8949 202.024 40.6847C202.347 40.4744 202.755 40.3693 203.247 40.3693C203.693 40.3693 204.083 40.4631 204.418 40.6506C204.754 40.8352 205.014 41.1108 205.198 41.4773C205.383 41.8437 205.475 42.2969 205.475 42.8366V47H204.201V42.9901C204.201 42.5156 204.077 42.1449 203.83 41.8778C203.583 41.608 203.244 41.473 202.812 41.473C202.516 41.473 202.254 41.5369 202.024 41.6648C201.796 41.7926 201.616 41.9801 201.482 42.2273C201.352 42.4716 201.286 42.767 201.286 43.1136ZM81.4588 65V56.2727H82.7756V60.0653H87.1264V56.2727H88.4474V65H87.1264V61.1946H82.7756V65H81.4588ZM92.2996 65.1449C91.8848 65.1449 91.5098 65.0682 91.1746 64.9148C90.8394 64.7585 90.5738 64.5327 90.3777 64.2372C90.1846 63.9418 90.088 63.5795 90.088 63.1506C90.088 62.7812 90.159 62.4773 90.301 62.2386C90.4431 62 90.6348 61.8111 90.8763 61.6719C91.1178 61.5327 91.3877 61.4276 91.686 61.3565C91.9843 61.2855 92.2883 61.2315 92.5979 61.1946C92.99 61.1491 93.3081 61.1122 93.5525 61.0838C93.7968 61.0526 93.9743 61.0028 94.0851 60.9347C94.1959 60.8665 94.2513 60.7557 94.2513 60.6023V60.5724C94.2513 60.2003 94.1462 59.9119 93.936 59.7074C93.7286 59.5028 93.4189 59.4006 93.007 59.4006C92.578 59.4006 92.24 59.4957 91.9928 59.6861C91.7485 59.8736 91.5794 60.0824 91.4857 60.3125L90.2882 60.0398C90.4303 59.642 90.6377 59.321 90.9104 59.0767C91.186 58.8295 91.5027 58.6506 91.8607 58.5398C92.2186 58.4261 92.5951 58.3693 92.99 58.3693C93.2513 58.3693 93.5283 58.4006 93.8209 58.4631C94.1164 58.5227 94.3919 58.6335 94.6476 58.7955C94.9061 58.9574 95.1178 59.1889 95.2826 59.4901C95.4473 59.7884 95.5297 60.1761 95.5297 60.6534V65H94.2854V64.1051H94.2343C94.1519 64.2699 94.0283 64.4318 93.8635 64.5909C93.6988 64.75 93.4871 64.8821 93.2286 64.9872C92.9701 65.0923 92.6604 65.1449 92.2996 65.1449ZM92.5766 64.1222C92.9289 64.1222 93.23 64.0526 93.48 63.9134C93.7329 63.7741 93.9246 63.5923 94.0553 63.3679C94.1888 63.1406 94.2556 62.8977 94.2556 62.6392V61.7955C94.2101 61.8409 94.1221 61.8835 93.9914 61.9233C93.8635 61.9602 93.7172 61.9929 93.5525 62.0213C93.3877 62.0469 93.2272 62.071 93.0709 62.0938C92.9147 62.1136 92.784 62.1307 92.6789 62.1449C92.4317 62.1761 92.2059 62.2287 92.0013 62.3026C91.7996 62.3764 91.6377 62.483 91.5155 62.6222C91.3962 62.7585 91.3365 62.9403 91.3365 63.1676C91.3365 63.483 91.453 63.7216 91.686 63.8835C91.9189 64.0426 92.2158 64.1222 92.5766 64.1222ZM97.3588 67.4545V58.4545H98.6031V59.5156H98.7097C98.7835 59.3793 98.8901 59.2216 99.0293 59.0426C99.1685 58.8636 99.3617 58.7074 99.6088 58.5739C99.856 58.4375 100.183 58.3693 100.589 58.3693C101.117 58.3693 101.589 58.5028 102.004 58.7699C102.418 59.0369 102.744 59.4219 102.98 59.9247C103.218 60.4276 103.338 61.0327 103.338 61.7401C103.338 62.4474 103.22 63.054 102.984 63.5597C102.748 64.0625 102.424 64.4503 102.012 64.723C101.6 64.9929 101.13 65.1278 100.602 65.1278C100.204 65.1278 99.8787 65.0611 99.6259 64.9276C99.3759 64.794 99.1798 64.6378 99.0378 64.4588C98.8957 64.2798 98.7864 64.1207 98.7097 63.9815H98.633V67.4545H97.3588ZM98.6074 61.7273C98.6074 62.1875 98.6742 62.5909 98.8077 62.9375C98.9412 63.2841 99.1344 63.5554 99.3872 63.7514C99.6401 63.9446 99.9497 64.0412 100.316 64.0412C100.697 64.0412 101.015 63.9403 101.271 63.7386C101.526 63.5341 101.72 63.2571 101.85 62.9077C101.984 62.5582 102.051 62.1648 102.051 61.7273C102.051 61.2955 101.985 60.9077 101.855 60.5639C101.727 60.2202 101.534 59.9489 101.275 59.75C101.019 59.5511 100.7 59.4517 100.316 59.4517C99.9469 59.4517 99.6344 59.5469 99.3787 59.7372C99.1259 59.9276 98.9341 60.1932 98.8034 60.5341C98.6727 60.875 98.6074 61.2727 98.6074 61.7273ZM104.897 67.4545V58.4545H106.141V59.5156H106.248C106.322 59.3793 106.428 59.2216 106.568 59.0426C106.707 58.8636 106.9 58.7074 107.147 58.5739C107.394 58.4375 107.721 58.3693 108.127 58.3693C108.656 58.3693 109.127 58.5028 109.542 58.7699C109.957 59.0369 110.282 59.4219 110.518 59.9247C110.756 60.4276 110.876 61.0327 110.876 61.7401C110.876 62.4474 110.758 63.054 110.522 63.5597C110.286 64.0625 109.962 64.4503 109.55 64.723C109.139 64.9929 108.668 65.1278 108.14 65.1278C107.742 65.1278 107.417 65.0611 107.164 64.9276C106.914 64.794 106.718 64.6378 106.576 64.4588C106.434 64.2798 106.325 64.1207 106.248 63.9815H106.171V67.4545H104.897ZM106.146 61.7273C106.146 62.1875 106.212 62.5909 106.346 62.9375C106.479 63.2841 106.673 63.5554 106.925 63.7514C107.178 63.9446 107.488 64.0412 107.854 64.0412C108.235 64.0412 108.553 63.9403 108.809 63.7386C109.065 63.5341 109.258 63.2571 109.389 62.9077C109.522 62.5582 109.589 62.1648 109.589 61.7273C109.589 61.2955 109.523 60.9077 109.393 60.5639C109.265 60.2202 109.072 59.9489 108.813 59.75C108.558 59.5511 108.238 59.4517 107.854 59.4517C107.485 59.4517 107.173 59.5469 106.917 59.7372C106.664 59.9276 106.472 60.1932 106.342 60.5341C106.211 60.875 106.146 61.2727 106.146 61.7273ZM113.018 67.4545C112.828 67.4545 112.654 67.4389 112.498 67.4077C112.342 67.3793 112.225 67.348 112.149 67.3139L112.456 66.2699C112.689 66.3324 112.896 66.3594 113.078 66.3509C113.26 66.3423 113.42 66.2741 113.559 66.1463C113.701 66.0185 113.826 65.8097 113.934 65.5199L114.092 65.0852L111.697 58.4545H113.061L114.718 63.5341H114.787L116.444 58.4545H117.812L115.115 65.8736C114.99 66.2145 114.831 66.5028 114.637 66.7386C114.444 66.9773 114.214 67.1563 113.947 67.2756C113.68 67.3949 113.37 67.4545 113.018 67.4545ZM118.403 57.4062V56.2727H125.158V57.4062H122.435V65H121.122V57.4062H118.403ZM126.68 65V58.4545H127.954V65H126.68ZM127.323 57.4446C127.102 57.4446 126.911 57.3707 126.752 57.223C126.596 57.0724 126.518 56.8935 126.518 56.6861C126.518 56.4759 126.596 56.2969 126.752 56.1491C126.911 55.9986 127.102 55.9233 127.323 55.9233C127.545 55.9233 127.734 55.9986 127.89 56.1491C128.049 56.2969 128.129 56.4759 128.129 56.6861C128.129 56.8935 128.049 57.0724 127.89 57.223C127.734 57.3707 127.545 57.4446 127.323 57.4446ZM129.8 65V58.4545H131.023V59.5199H131.104C131.24 59.1591 131.463 58.8778 131.773 58.6761C132.083 58.4716 132.453 58.3693 132.885 58.3693C133.323 58.3693 133.689 58.4716 133.985 58.6761C134.283 58.8807 134.503 59.1619 134.645 59.5199H134.713C134.87 59.1705 135.118 58.892 135.459 58.6847C135.8 58.4744 136.206 58.3693 136.678 58.3693C137.272 58.3693 137.756 58.5554 138.131 58.9276C138.509 59.2997 138.698 59.8608 138.698 60.6108V65H137.424V60.7301C137.424 60.2869 137.303 59.9659 137.061 59.767C136.82 59.5682 136.532 59.4688 136.196 59.4688C135.782 59.4688 135.459 59.5966 135.229 59.8523C134.999 60.1051 134.884 60.4304 134.884 60.8281V65H133.614V60.6491C133.614 60.294 133.503 60.0085 133.282 59.7926C133.06 59.5767 132.772 59.4688 132.417 59.4688C132.175 59.4688 131.952 59.5327 131.748 59.6605C131.546 59.7855 131.382 59.9602 131.257 60.1847C131.135 60.4091 131.074 60.669 131.074 60.9645V65H129.8ZM143.359 65.1321C142.714 65.1321 142.158 64.9943 141.692 64.7188C141.229 64.4403 140.871 64.0497 140.618 63.5469C140.368 63.0412 140.243 62.4489 140.243 61.7699C140.243 61.0994 140.368 60.5085 140.618 59.9972C140.871 59.4858 141.224 59.0866 141.675 58.7997C142.13 58.5128 142.661 58.3693 143.269 58.3693C143.638 58.3693 143.996 58.4304 144.343 58.5526C144.69 58.6747 145.001 58.8665 145.276 59.1278C145.552 59.3892 145.769 59.7287 145.928 60.1463C146.087 60.5611 146.167 61.0653 146.167 61.6591V62.1108H140.964V61.1562H144.918C144.918 60.821 144.85 60.5241 144.714 60.2656C144.577 60.0043 144.386 59.7983 144.138 59.6477C143.894 59.4972 143.607 59.4219 143.278 59.4219C142.92 59.4219 142.607 59.5099 142.34 59.6861C142.076 59.8594 141.871 60.0866 141.726 60.3679C141.584 60.6463 141.513 60.9489 141.513 61.2756V62.0213C141.513 62.4588 141.59 62.831 141.743 63.1378C141.9 63.4446 142.117 63.679 142.395 63.8409C142.674 64 142.999 64.0795 143.371 64.0795C143.613 64.0795 143.833 64.0455 144.032 63.9773C144.231 63.9062 144.403 63.8011 144.547 63.6619C144.692 63.5227 144.803 63.3509 144.88 63.1463L146.086 63.3636C145.989 63.7187 145.816 64.0298 145.566 64.2969C145.319 64.5611 145.008 64.767 144.633 64.9148C144.261 65.0597 143.836 65.1321 143.359 65.1321ZM148.552 65.081C148.319 65.081 148.119 64.9986 147.951 64.8338C147.784 64.6662 147.7 64.4645 147.7 64.2287C147.7 63.9957 147.784 63.7969 147.951 63.6321C148.119 63.4645 148.319 63.3807 148.552 63.3807C148.785 63.3807 148.985 63.4645 149.153 63.6321C149.32 63.7969 149.404 63.9957 149.404 64.2287C149.404 64.3849 149.364 64.5284 149.285 64.6591C149.208 64.7869 149.106 64.8892 148.978 64.9659C148.85 65.0426 148.708 65.081 148.552 65.081ZM156.842 58.4545L154.469 65H153.105L150.727 58.4545H152.095L153.753 63.4915H153.821L155.474 58.4545H156.842ZM159.446 61.1136V65H158.172V58.4545H159.395V59.5199H159.476C159.626 59.1733 159.862 58.8949 160.183 58.6847C160.507 58.4744 160.915 58.3693 161.406 58.3693C161.852 58.3693 162.243 58.4631 162.578 58.6506C162.913 58.8352 163.173 59.1108 163.358 59.4773C163.543 59.8437 163.635 60.2969 163.635 60.8366V65H162.361V60.9901C162.361 60.5156 162.237 60.1449 161.99 59.8778C161.743 59.608 161.403 59.473 160.972 59.473C160.676 59.473 160.413 59.5369 160.183 59.6648C159.956 59.7926 159.776 59.9801 159.642 60.2273C159.511 60.4716 159.446 60.767 159.446 61.1136Z" fill="white"/>
<defs>
<linearGradient id="paint0_linear_12630_17974" x1="0.500002" y1="42.5657" x2="279" y2="42.5657" gradientUnits="userSpaceOnUse">
<stop stop-color="#EE7004"/>
<stop offset="1" stop-color="#FF9438"/>
</linearGradient>
<linearGradient id="paint1_linear_12630_17974" x1="36.6186" y1="44.3046" x2="48.6926" y2="28.0871" gradientUnits="userSpaceOnUse">
<stop stop-color="#FF9F0F"/>
<stop offset="1" stop-color="#FF7A0F"/>
</linearGradient>
<linearGradient id="paint2_linear_12630_17974" x1="31.5745" y1="54.3918" x2="43.6487" y2="38.1748" gradientUnits="userSpaceOnUse">
<stop stop-color="#FF9F0F"/>
<stop offset="1" stop-color="#FF7A0F"/>
</linearGradient>
<linearGradient id="paint3_linear_12630_17974" x1="41.6752" y1="38.7869" x2="43.3243" y2="37.1257" gradientUnits="userSpaceOnUse">
<stop stop-color="#FF9F0F"/>
<stop offset="1" stop-color="#FF7A0F"/>
</linearGradient>
<linearGradient id="paint4_linear_12630_17974" x1="41.6752" y1="48.8743" x2="43.3243" y2="47.2131" gradientUnits="userSpaceOnUse">
<stop stop-color="#FF9F0F"/>
<stop offset="1" stop-color="#FF7A0F"/>
</linearGradient>
<linearGradient id="paint5_linear_12630_17974" x1="46.7182" y1="43.8306" x2="48.3673" y2="42.1694" gradientUnits="userSpaceOnUse">
<stop stop-color="#FF9F0F"/>
<stop offset="1" stop-color="#FF7A0F"/>
</linearGradient>
<linearGradient id="paint6_linear_12630_17974" x1="36.6313" y1="43.8306" x2="38.2804" y2="42.1694" gradientUnits="userSpaceOnUse">
<stop stop-color="#FF9F0F"/>
<stop offset="1" stop-color="#FF7A0F"/>
</linearGradient>
<clipPath id="clip0_12630_17974">
<rect width="36" height="36" fill="white" transform="translate(24.5 25)"/>
</clipPath>
</defs>
</svg>
