<svg width="279" height="86" viewBox="0 0 279 86" fill="none" xmlns="http://www.w3.org/2000/svg">
<rect x="0.5" width="278.5" height="86" rx="8" fill="url(#paint0_linear_12630_18045)"/>
<g clip-path="url(#clip0_12630_18045)">
<path d="M60.483 35.0892V50.911C60.483 56.4728 55.973 60.9828 50.4112 60.9828H34.5894C29.0276 60.9828 24.5176 56.4728 24.5176 50.911V35.0892C24.5176 29.5273 29.0276 25.0173 34.5894 25.0173H50.4112C55.973 25.0173 60.483 29.5273 60.483 35.0892Z" fill="white"/>
<path d="M50.0644 37.9563C50.0644 39.35 51.1935 40.479 52.5872 40.479C53.979 40.479 55.1081 41.6081 55.109 43.0009C55.1081 44.3936 53.979 45.5227 52.5872 45.5227C51.1935 45.5227 50.0644 44.3936 50.0653 43.0009C50.0644 41.6081 48.9353 40.4791 47.5426 40.4781C46.1499 40.4791 45.0208 39.35 45.0208 37.9563C45.0208 36.5645 43.8917 35.4354 42.499 35.4345C41.1063 35.4354 39.9772 36.5645 39.9763 37.9572C39.9772 39.35 38.8481 40.479 37.4544 40.479C36.0626 40.479 34.9335 39.35 34.9326 37.9572C34.9335 36.5645 36.0626 35.4354 37.4544 35.4354C38.8481 35.4354 39.9772 34.3063 39.9772 32.9127C39.9772 31.5209 41.1063 30.3918 42.499 30.3909C43.8917 30.3918 45.0208 31.5209 45.0208 32.9127C45.0208 34.3063 46.1499 35.4354 47.5426 35.4345C48.9353 35.4354 50.0644 36.5645 50.0644 37.9563Z" fill="white"/>
<path d="M50.0644 37.9563C50.0644 39.35 51.1935 40.479 52.5872 40.479C53.979 40.479 55.1081 41.6081 55.109 43.0009C55.1081 44.3936 53.979 45.5227 52.5872 45.5227C51.1935 45.5227 50.0644 44.3936 50.0653 43.0009C50.0644 41.6081 48.9353 40.4791 47.5426 40.4781C46.1499 40.4791 45.0208 39.35 45.0208 37.9563C45.0208 36.5645 43.8917 35.4354 42.499 35.4345C41.1063 35.4354 39.9772 36.5645 39.9763 37.9572C39.9772 39.35 38.8481 40.479 37.4544 40.479C36.0626 40.479 34.9335 39.35 34.9326 37.9572C34.9335 36.5645 36.0626 35.4354 37.4544 35.4354C38.8481 35.4354 39.9772 34.3063 39.9772 32.9127C39.9772 31.5209 41.1063 30.3918 42.499 30.3909C43.8917 30.3918 45.0208 31.5209 45.0208 32.9127C45.0208 34.3063 46.1499 35.4354 47.5426 35.4345C48.9353 35.4354 50.0644 36.5645 50.0644 37.9563Z" fill="url(#paint1_linear_12630_18045)"/>
<path d="M47.5423 45.5226C48.935 45.5217 50.0641 46.6508 50.0641 48.0444C50.0641 49.4362 48.935 50.5653 47.5423 50.5662C46.1496 50.5653 45.0205 49.4362 45.0205 48.0444C45.0205 46.6508 43.8914 45.5217 42.4978 45.5217C41.1059 45.5217 39.9769 46.6508 39.9759 48.0435C39.9769 49.4362 41.1059 50.5653 42.4987 50.5662C43.8914 50.5653 45.0205 51.6944 45.0205 53.088C45.0205 54.4798 43.8914 55.6089 42.4987 55.6098C41.1059 55.6089 39.9769 54.4798 39.9769 53.088C39.9769 51.6944 38.8478 50.5653 37.4541 50.5653C36.0623 50.5653 34.9332 49.4362 34.9323 48.0435C34.9332 46.6508 33.8041 45.5217 32.4105 45.5217C31.0187 45.5217 29.8896 44.3926 29.8887 42.9998C29.8896 41.6071 31.0187 40.478 32.4105 40.478C33.8041 40.478 34.9332 41.6071 34.9323 42.9998C34.9332 44.3926 36.0623 45.5217 37.4541 45.5217C38.8478 45.5217 39.9769 44.3926 39.9759 42.9998C39.9769 41.6071 41.1059 40.478 42.4978 40.478C43.8914 40.478 45.0205 41.6071 45.0196 42.9998C45.0214 44.3926 46.1496 45.5217 47.5423 45.5226Z" fill="white"/>
<path d="M47.5423 45.5226C48.935 45.5217 50.0641 46.6508 50.0641 48.0444C50.0641 49.4362 48.935 50.5653 47.5423 50.5662C46.1496 50.5653 45.0205 49.4362 45.0205 48.0444C45.0205 46.6508 43.8914 45.5217 42.4978 45.5217C41.1059 45.5217 39.9769 46.6508 39.9759 48.0435C39.9769 49.4362 41.1059 50.5653 42.4987 50.5662C43.8914 50.5653 45.0205 51.6944 45.0205 53.088C45.0205 54.4798 43.8914 55.6089 42.4987 55.6098C41.1059 55.6089 39.9769 54.4798 39.9769 53.088C39.9769 51.6944 38.8478 50.5653 37.4541 50.5653C36.0623 50.5653 34.9332 49.4362 34.9323 48.0435C34.9332 46.6508 33.8041 45.5217 32.4105 45.5217C31.0187 45.5217 29.8896 44.3926 29.8887 42.9998C29.8896 41.6071 31.0187 40.478 32.4105 40.478C33.8041 40.478 34.9332 41.6071 34.9323 42.9998C34.9332 44.3926 36.0623 45.5217 37.4541 45.5217C38.8478 45.5217 39.9769 44.3926 39.9759 42.9998C39.9769 41.6071 41.1059 40.478 42.4978 40.478C43.8914 40.478 45.0205 41.6071 45.0196 42.9998C45.0214 44.3926 46.1496 45.5217 47.5423 45.5226Z" fill="url(#paint2_linear_12630_18045)"/>
<path d="M42.4998 38.9463C43.0465 38.9463 43.4898 38.5031 43.4898 37.9563C43.4898 37.4095 43.0465 36.9663 42.4998 36.9663C41.953 36.9663 41.5098 37.4095 41.5098 37.9563C41.5098 38.5031 41.953 38.9463 42.4998 38.9463Z" fill="white"/>
<path d="M42.4998 38.9463C43.0465 38.9463 43.4898 38.5031 43.4898 37.9563C43.4898 37.4095 43.0465 36.9663 42.4998 36.9663C41.953 36.9663 41.5098 37.4095 41.5098 37.9563C41.5098 38.5031 41.953 38.9463 42.4998 38.9463Z" fill="url(#paint3_linear_12630_18045)"/>
<path d="M42.4998 49.0337C43.0465 49.0337 43.4898 48.5905 43.4898 48.0437C43.4898 47.497 43.0465 47.0537 42.4998 47.0537C41.953 47.0537 41.5098 47.497 41.5098 48.0437C41.5098 48.5905 41.953 49.0337 42.4998 49.0337Z" fill="white"/>
<path d="M42.4998 49.0337C43.0465 49.0337 43.4898 48.5905 43.4898 48.0437C43.4898 47.497 43.0465 47.0537 42.4998 47.0537C41.953 47.0537 41.5098 47.497 41.5098 48.0437C41.5098 48.5905 41.953 49.0337 42.4998 49.0337Z" fill="url(#paint4_linear_12630_18045)"/>
<path d="M47.5427 43.99C48.0895 43.99 48.5327 43.5468 48.5327 43C48.5327 42.4532 48.0895 42.01 47.5427 42.01C46.996 42.01 46.5527 42.4532 46.5527 43C46.5527 43.5468 46.996 43.99 47.5427 43.99Z" fill="white"/>
<path d="M47.5427 43.99C48.0895 43.99 48.5327 43.5468 48.5327 43C48.5327 42.4532 48.0895 42.01 47.5427 42.01C46.996 42.01 46.5527 42.4532 46.5527 43C46.5527 43.5468 46.996 43.99 47.5427 43.99Z" fill="url(#paint5_linear_12630_18045)"/>
<path d="M37.4558 43.99C38.0026 43.99 38.4458 43.5468 38.4458 43C38.4458 42.4532 38.0026 42.01 37.4558 42.01C36.9091 42.01 36.4658 42.4532 36.4658 43C36.4658 43.5468 36.9091 43.99 37.4558 43.99Z" fill="white"/>
<path d="M37.4558 43.99C38.0026 43.99 38.4458 43.5468 38.4458 43C38.4458 42.4532 38.0026 42.01 37.4558 42.01C36.9091 42.01 36.4658 42.4532 36.4658 43C36.4658 43.5468 36.9091 43.99 37.4558 43.99Z" fill="url(#paint6_linear_12630_18045)"/>
</g>
<path d="M81.4588 29V20.2727H84.5696C85.2486 20.2727 85.8111 20.3963 86.2571 20.6435C86.7031 20.8906 87.0369 21.2287 87.2585 21.6577C87.4801 22.0838 87.5909 22.5639 87.5909 23.098C87.5909 23.6349 87.4787 24.1179 87.2543 24.5469C87.0327 24.973 86.6974 25.3111 86.2486 25.5611C85.8026 25.8082 85.2415 25.9318 84.5653 25.9318H82.4261V24.8153H84.446C84.875 24.8153 85.223 24.7415 85.4901 24.5938C85.7571 24.4432 85.9531 24.2386 86.0781 23.9801C86.2031 23.7216 86.2656 23.4276 86.2656 23.098C86.2656 22.7685 86.2031 22.4759 86.0781 22.2202C85.9531 21.9645 85.7557 21.7642 85.4858 21.6193C85.2188 21.4744 84.8665 21.402 84.429 21.402H82.7756V29H81.4588ZM90.4385 20.2727V29H89.1643V20.2727H90.4385ZM94.1894 29.1449C93.7747 29.1449 93.3997 29.0682 93.0644 28.9148C92.7292 28.7585 92.4636 28.5327 92.2676 28.2372C92.0744 27.9418 91.9778 27.5795 91.9778 27.1506C91.9778 26.7812 92.0488 26.4773 92.1908 26.2386C92.3329 26 92.5247 25.8111 92.7661 25.6719C93.0076 25.5327 93.2775 25.4276 93.5758 25.3565C93.8741 25.2855 94.1781 25.2315 94.4877 25.1946C94.8798 25.1491 95.1979 25.1122 95.4423 25.0838C95.6866 25.0526 95.8641 25.0028 95.9749 24.9347C96.0857 24.8665 96.1411 24.7557 96.1411 24.6023V24.5724C96.1411 24.2003 96.036 23.9119 95.8258 23.7074C95.6184 23.5028 95.3087 23.4006 94.8968 23.4006C94.4678 23.4006 94.1298 23.4957 93.8826 23.6861C93.6383 23.8736 93.4693 24.0824 93.3755 24.3125L92.1781 24.0398C92.3201 23.642 92.5275 23.321 92.8002 23.0767C93.0758 22.8295 93.3926 22.6506 93.7505 22.5398C94.1085 22.4261 94.4849 22.3693 94.8798 22.3693C95.1411 22.3693 95.4181 22.4006 95.7107 22.4631C96.0062 22.5227 96.2818 22.6335 96.5374 22.7955C96.796 22.9574 97.0076 23.1889 97.1724 23.4901C97.3372 23.7884 97.4195 24.1761 97.4195 24.6534V29H96.1752V28.1051H96.1241C96.0417 28.2699 95.9181 28.4318 95.7533 28.5909C95.5886 28.75 95.3769 28.8821 95.1184 28.9872C94.8599 29.0923 94.5502 29.1449 94.1894 29.1449ZM94.4664 28.1222C94.8187 28.1222 95.1198 28.0526 95.3698 27.9134C95.6227 27.7741 95.8144 27.5923 95.9451 27.3679C96.0786 27.1406 96.1454 26.8977 96.1454 26.6392V25.7955C96.0999 25.8409 96.0119 25.8835 95.8812 25.9233C95.7533 25.9602 95.607 25.9929 95.4423 26.0213C95.2775 26.0469 95.117 26.071 94.9607 26.0938C94.8045 26.1136 94.6738 26.1307 94.5687 26.1449C94.3215 26.1761 94.0957 26.2287 93.8911 26.3026C93.6894 26.3764 93.5275 26.483 93.4053 26.6222C93.286 26.7585 93.2264 26.9403 93.2264 27.1676C93.2264 27.483 93.3428 27.7216 93.5758 27.8835C93.8087 28.0426 94.1056 28.1222 94.4664 28.1222ZM102.304 22.4545V23.4773H98.7287V22.4545H102.304ZM99.6875 20.8864H100.962V27.0781C100.962 27.3253 100.999 27.5114 101.072 27.6364C101.146 27.7585 101.242 27.8423 101.358 27.8878C101.477 27.9304 101.607 27.9517 101.746 27.9517C101.848 27.9517 101.938 27.9446 102.014 27.9304C102.091 27.9162 102.151 27.9048 102.193 27.8963L102.423 28.9489C102.349 28.9773 102.244 29.0057 102.108 29.0341C101.972 29.0653 101.801 29.0824 101.597 29.0852C101.261 29.0909 100.949 29.0312 100.659 28.9062C100.369 28.7812 100.135 28.5881 99.956 28.3267C99.777 28.0653 99.6875 27.7372 99.6875 27.3423V20.8864ZM106.961 22.4545V23.4773H103.262V22.4545H106.961ZM104.276 29V21.696C104.276 21.2869 104.365 20.9474 104.544 20.6776C104.723 20.4048 104.961 20.2017 105.256 20.0682C105.551 19.9318 105.872 19.8636 106.219 19.8636C106.475 19.8636 106.693 19.8849 106.875 19.9276C107.057 19.9673 107.192 20.0043 107.28 20.0384L106.982 21.0696C106.922 21.0526 106.845 21.0327 106.752 21.0099C106.658 20.9844 106.544 20.9716 106.411 20.9716C106.101 20.9716 105.88 21.0483 105.746 21.2017C105.615 21.3551 105.55 21.5767 105.55 21.8665V29H104.276ZM110.906 29.1321C110.293 29.1321 109.757 28.9915 109.3 28.7102C108.843 28.429 108.487 28.0355 108.235 27.5298C107.982 27.0241 107.855 26.4332 107.855 25.7571C107.855 25.0781 107.982 24.4844 108.235 23.9759C108.487 23.4673 108.843 23.0724 109.3 22.7912C109.757 22.5099 110.293 22.3693 110.906 22.3693C111.52 22.3693 112.056 22.5099 112.513 22.7912C112.97 23.0724 113.325 23.4673 113.578 23.9759C113.831 24.4844 113.958 25.0781 113.958 25.7571C113.958 26.4332 113.831 27.0241 113.578 27.5298C113.325 28.0355 112.97 28.429 112.513 28.7102C112.056 28.9915 111.52 29.1321 110.906 29.1321ZM110.911 28.0625C111.308 28.0625 111.638 27.9574 111.899 27.7472C112.161 27.5369 112.354 27.2571 112.479 26.9077C112.607 26.5582 112.671 26.1733 112.671 25.7528C112.671 25.3352 112.607 24.9517 112.479 24.6023C112.354 24.25 112.161 23.9673 111.899 23.7543C111.638 23.5412 111.308 23.4347 110.911 23.4347C110.51 23.4347 110.178 23.5412 109.914 23.7543C109.652 23.9673 109.458 24.25 109.33 24.6023C109.205 24.9517 109.142 25.3352 109.142 25.7528C109.142 26.1733 109.205 26.5582 109.33 26.9077C109.458 27.2571 109.652 27.5369 109.914 27.7472C110.178 27.9574 110.51 28.0625 110.911 28.0625ZM115.512 29V22.4545H116.743V23.4943H116.812C116.931 23.142 117.141 22.8651 117.442 22.6634C117.746 22.4588 118.09 22.3565 118.473 22.3565C118.553 22.3565 118.647 22.3594 118.755 22.3651C118.866 22.3707 118.952 22.3778 119.015 22.3864V23.6051C118.964 23.5909 118.873 23.5753 118.742 23.5582C118.611 23.5384 118.481 23.5284 118.35 23.5284C118.049 23.5284 117.78 23.5923 117.544 23.7202C117.312 23.8452 117.127 24.0199 116.991 24.2443C116.854 24.4659 116.786 24.7187 116.786 25.0028V29H115.512ZM120.249 29V22.4545H121.472V23.5199H121.553C121.69 23.1591 121.913 22.8778 122.222 22.6761C122.532 22.4716 122.903 22.3693 123.335 22.3693C123.772 22.3693 124.138 22.4716 124.434 22.6761C124.732 22.8807 124.952 23.1619 125.094 23.5199H125.163C125.319 23.1705 125.567 22.892 125.908 22.6847C126.249 22.4744 126.656 22.3693 127.127 22.3693C127.721 22.3693 128.205 22.5554 128.58 22.9276C128.958 23.2997 129.147 23.8608 129.147 24.6108V29H127.873V24.7301C127.873 24.2869 127.752 23.9659 127.511 23.767C127.269 23.5682 126.981 23.4688 126.646 23.4688C126.231 23.4688 125.908 23.5966 125.678 23.8523C125.448 24.1051 125.333 24.4304 125.333 24.8281V29H124.063V24.6491C124.063 24.294 123.952 24.0085 123.731 23.7926C123.509 23.5767 123.221 23.4688 122.866 23.4688C122.624 23.4688 122.401 23.5327 122.197 23.6605C121.995 23.7855 121.832 23.9602 121.707 24.1847C121.585 24.4091 121.523 24.669 121.523 24.9645V29H120.249ZM137.41 22.4545V23.4773H133.711V22.4545H137.41ZM134.725 29V21.696C134.725 21.2869 134.814 20.9474 134.993 20.6776C135.172 20.4048 135.41 20.2017 135.705 20.0682C136 19.9318 136.322 19.8636 136.668 19.8636C136.924 19.8636 137.143 19.8849 137.324 19.9276C137.506 19.9673 137.641 20.0043 137.729 20.0384L137.431 21.0696C137.371 21.0526 137.295 21.0327 137.201 21.0099C137.107 20.9844 136.993 20.9716 136.86 20.9716C136.55 20.9716 136.329 21.0483 136.195 21.2017C136.064 21.3551 135.999 21.5767 135.999 21.8665V29H134.725ZM141.356 29.1321C140.742 29.1321 140.206 28.9915 139.749 28.7102C139.292 28.429 138.936 28.0355 138.684 27.5298C138.431 27.0241 138.304 26.4332 138.304 25.7571C138.304 25.0781 138.431 24.4844 138.684 23.9759C138.936 23.4673 139.292 23.0724 139.749 22.7912C140.206 22.5099 140.742 22.3693 141.356 22.3693C141.969 22.3693 142.505 22.5099 142.962 22.7912C143.419 23.0724 143.775 23.4673 144.027 23.9759C144.28 24.4844 144.407 25.0781 144.407 25.7571C144.407 26.4332 144.28 27.0241 144.027 27.5298C143.775 28.0355 143.419 28.429 142.962 28.7102C142.505 28.9915 141.969 29.1321 141.356 29.1321ZM141.36 28.0625C141.757 28.0625 142.087 27.9574 142.348 27.7472C142.61 27.5369 142.803 27.2571 142.928 26.9077C143.056 26.5582 143.12 26.1733 143.12 25.7528C143.12 25.3352 143.056 24.9517 142.928 24.6023C142.803 24.25 142.61 23.9673 142.348 23.7543C142.087 23.5412 141.757 23.4347 141.36 23.4347C140.959 23.4347 140.627 23.5412 140.363 23.7543C140.101 23.9673 139.907 24.25 139.779 24.6023C139.654 24.9517 139.591 25.3352 139.591 25.7528C139.591 26.1733 139.654 26.5582 139.779 26.9077C139.907 27.2571 140.101 27.5369 140.363 27.7472C140.627 27.9574 140.959 28.0625 141.36 28.0625ZM145.961 29V22.4545H147.192V23.4943H147.261C147.38 23.142 147.59 22.8651 147.891 22.6634C148.195 22.4588 148.539 22.3565 148.923 22.3565C149.002 22.3565 149.096 22.3594 149.204 22.3651C149.315 22.3707 149.401 22.3778 149.464 22.3864V23.6051C149.413 23.5909 149.322 23.5753 149.191 23.5582C149.06 23.5384 148.93 23.5284 148.799 23.5284C148.498 23.5284 148.229 23.5923 147.994 23.7202C147.761 23.8452 147.576 24.0199 147.44 24.2443C147.303 24.4659 147.235 24.7187 147.235 25.0028V29H145.961ZM154.006 29V22.4545H155.229V23.5199H155.31C155.446 23.1591 155.669 22.8778 155.979 22.6761C156.289 22.4716 156.66 22.3693 157.091 22.3693C157.529 22.3693 157.895 22.4716 158.191 22.6761C158.489 22.8807 158.709 23.1619 158.851 23.5199H158.919C159.076 23.1705 159.324 22.892 159.665 22.6847C160.006 22.4744 160.412 22.3693 160.884 22.3693C161.478 22.3693 161.962 22.5554 162.337 22.9276C162.715 23.2997 162.904 23.8608 162.904 24.6108V29H161.63V24.7301C161.63 24.2869 161.509 23.9659 161.267 23.767C161.026 23.5682 160.738 23.4688 160.402 23.4688C159.988 23.4688 159.665 23.5966 159.435 23.8523C159.205 24.1051 159.09 24.4304 159.09 24.8281V29H157.82V24.6491C157.82 24.294 157.709 24.0085 157.488 23.7926C157.266 23.5767 156.978 23.4688 156.623 23.4688C156.381 23.4688 156.158 23.5327 155.954 23.6605C155.752 23.7855 155.589 23.9602 155.464 24.1847C155.341 24.4091 155.28 24.669 155.28 24.9645V29H154.006ZM166.648 29.1449C166.234 29.1449 165.859 29.0682 165.523 28.9148C165.188 28.7585 164.923 28.5327 164.727 28.2372C164.533 27.9418 164.437 27.5795 164.437 27.1506C164.437 26.7812 164.508 26.4773 164.65 26.2386C164.792 26 164.984 25.8111 165.225 25.6719C165.467 25.5327 165.736 25.4276 166.035 25.3565C166.333 25.2855 166.637 25.2315 166.947 25.1946C167.339 25.1491 167.657 25.1122 167.901 25.0838C168.146 25.0526 168.323 25.0028 168.434 24.9347C168.545 24.8665 168.6 24.7557 168.6 24.6023V24.5724C168.6 24.2003 168.495 23.9119 168.285 23.7074C168.077 23.5028 167.768 23.4006 167.356 23.4006C166.927 23.4006 166.589 23.4957 166.342 23.6861C166.097 23.8736 165.928 24.0824 165.835 24.3125L164.637 24.0398C164.779 23.642 164.986 23.321 165.259 23.0767C165.535 22.8295 165.852 22.6506 166.21 22.5398C166.567 22.4261 166.944 22.3693 167.339 22.3693C167.6 22.3693 167.877 22.4006 168.17 22.4631C168.465 22.5227 168.741 22.6335 168.996 22.7955C169.255 22.9574 169.467 23.1889 169.631 23.4901C169.796 23.7884 169.879 24.1761 169.879 24.6534V29H168.634V28.1051H168.583C168.501 28.2699 168.377 28.4318 168.212 28.5909C168.048 28.75 167.836 28.8821 167.577 28.9872C167.319 29.0923 167.009 29.1449 166.648 29.1449ZM166.925 28.1222C167.278 28.1222 167.579 28.0526 167.829 27.9134C168.082 27.7741 168.273 27.5923 168.404 27.3679C168.538 27.1406 168.604 26.8977 168.604 26.6392V25.7955C168.559 25.8409 168.471 25.8835 168.34 25.9233C168.212 25.9602 168.066 25.9929 167.901 26.0213C167.736 26.0469 167.576 26.071 167.42 26.0938C167.263 26.1136 167.133 26.1307 167.028 26.1449C166.781 26.1761 166.555 26.2287 166.35 26.3026C166.148 26.3764 165.986 26.483 165.864 26.6222C165.745 26.7585 165.685 26.9403 165.685 27.1676C165.685 27.483 165.802 27.7216 166.035 27.8835C166.268 28.0426 166.565 28.1222 166.925 28.1222ZM172.982 25.1136V29H171.708V22.4545H172.931V23.5199H173.012C173.162 23.1733 173.398 22.8949 173.719 22.6847C174.043 22.4744 174.451 22.3693 174.942 22.3693C175.388 22.3693 175.779 22.4631 176.114 22.6506C176.449 22.8352 176.709 23.1108 176.894 23.4773C177.078 23.8437 177.171 24.2969 177.171 24.8366V29H175.897V24.9901C175.897 24.5156 175.773 24.1449 175.526 23.8778C175.279 23.608 174.939 23.473 174.507 23.473C174.212 23.473 173.949 23.5369 173.719 23.6648C173.492 23.7926 173.311 23.9801 173.178 24.2273C173.047 24.4716 172.982 24.767 172.982 25.1136ZM180.916 29.1449C180.502 29.1449 180.127 29.0682 179.791 28.9148C179.456 28.7585 179.19 28.5327 178.994 28.2372C178.801 27.9418 178.705 27.5795 178.705 27.1506C178.705 26.7812 178.776 26.4773 178.918 26.2386C179.06 26 179.252 25.8111 179.493 25.6719C179.735 25.5327 180.004 25.4276 180.303 25.3565C180.601 25.2855 180.905 25.2315 181.215 25.1946C181.607 25.1491 181.925 25.1122 182.169 25.0838C182.413 25.0526 182.591 25.0028 182.702 24.9347C182.813 24.8665 182.868 24.7557 182.868 24.6023V24.5724C182.868 24.2003 182.763 23.9119 182.553 23.7074C182.345 23.5028 182.036 23.4006 181.624 23.4006C181.195 23.4006 180.857 23.4957 180.61 23.6861C180.365 23.8736 180.196 24.0824 180.102 24.3125L178.905 24.0398C179.047 23.642 179.254 23.321 179.527 23.0767C179.803 22.8295 180.119 22.6506 180.477 22.5398C180.835 22.4261 181.212 22.3693 181.607 22.3693C181.868 22.3693 182.145 22.4006 182.438 22.4631C182.733 22.5227 183.009 22.6335 183.264 22.7955C183.523 22.9574 183.735 23.1889 183.899 23.4901C184.064 23.7884 184.146 24.1761 184.146 24.6534V29H182.902V28.1051H182.851C182.769 28.2699 182.645 28.4318 182.48 28.5909C182.315 28.75 182.104 28.8821 181.845 28.9872C181.587 29.0923 181.277 29.1449 180.916 29.1449ZM181.193 28.1222C181.546 28.1222 181.847 28.0526 182.097 27.9134C182.35 27.7741 182.541 27.5923 182.672 27.3679C182.806 27.1406 182.872 26.8977 182.872 26.6392V25.7955C182.827 25.8409 182.739 25.8835 182.608 25.9233C182.48 25.9602 182.334 25.9929 182.169 26.0213C182.004 26.0469 181.844 26.071 181.688 26.0938C181.531 26.1136 181.401 26.1307 181.296 26.1449C181.048 26.1761 180.823 26.2287 180.618 26.3026C180.416 26.3764 180.254 26.483 180.132 26.6222C180.013 26.7585 179.953 26.9403 179.953 27.1676C179.953 27.483 180.07 27.7216 180.303 27.8835C180.536 28.0426 180.833 28.1222 181.193 28.1222ZM188.72 31.5909C188.2 31.5909 187.753 31.5227 187.378 31.3864C187.005 31.25 186.701 31.0696 186.466 30.8452C186.23 30.6207 186.054 30.375 185.937 30.108L187.032 29.6562C187.109 29.7812 187.211 29.9134 187.339 30.0526C187.47 30.1946 187.646 30.3153 187.868 30.4148C188.092 30.5142 188.38 30.5639 188.733 30.5639C189.216 30.5639 189.615 30.446 189.93 30.2102C190.245 29.9773 190.403 29.6051 190.403 29.0938V27.8068H190.322C190.245 27.946 190.135 28.1009 189.99 28.2713C189.848 28.4418 189.652 28.5895 189.402 28.7145C189.152 28.8395 188.826 28.902 188.426 28.902C187.909 28.902 187.443 28.7812 187.028 28.5398C186.616 28.2955 186.289 27.9361 186.048 27.4616C185.809 26.9844 185.69 26.3977 185.69 25.7017C185.69 25.0057 185.808 24.4091 186.044 23.9119C186.282 23.4148 186.609 23.0341 187.024 22.7699C187.439 22.5028 187.909 22.3693 188.434 22.3693C188.841 22.3693 189.169 22.4375 189.419 22.5739C189.669 22.7074 189.863 22.8636 190.003 23.0426C190.145 23.2216 190.254 23.3793 190.331 23.5156H190.424V22.4545H191.673V29.1449C191.673 29.7074 191.542 30.169 191.281 30.5298C191.02 30.8906 190.666 31.1577 190.22 31.331C189.777 31.5043 189.277 31.5909 188.72 31.5909ZM188.707 27.8452C189.074 27.8452 189.383 27.7599 189.636 27.5895C189.892 27.4162 190.085 27.169 190.216 26.848C190.349 26.5241 190.416 26.1364 190.416 25.6847C190.416 25.2443 190.351 24.8565 190.22 24.5213C190.089 24.1861 189.897 23.9247 189.645 23.7372C189.392 23.5469 189.079 23.4517 188.707 23.4517C188.324 23.4517 188.004 23.5511 187.748 23.75C187.493 23.946 187.299 24.2131 187.169 24.5511C187.041 24.8892 186.977 25.267 186.977 25.6847C186.977 26.1136 187.042 26.4901 187.173 26.8139C187.304 27.1378 187.497 27.3906 187.753 27.5724C188.011 27.7543 188.329 27.8452 188.707 27.8452ZM196.335 29.1321C195.69 29.1321 195.135 28.9943 194.669 28.7188C194.206 28.4403 193.848 28.0497 193.595 27.5469C193.345 27.0412 193.22 26.4489 193.22 25.7699C193.22 25.0994 193.345 24.5085 193.595 23.9972C193.848 23.4858 194.2 23.0866 194.652 22.7997C195.106 22.5128 195.637 22.3693 196.245 22.3693C196.615 22.3693 196.973 22.4304 197.319 22.5526C197.666 22.6747 197.977 22.8665 198.252 23.1278C198.528 23.3892 198.745 23.7287 198.904 24.1463C199.063 24.5611 199.143 25.0653 199.143 25.6591V26.1108H193.94V25.1562H197.894C197.894 24.821 197.826 24.5241 197.69 24.2656C197.554 24.0043 197.362 23.7983 197.115 23.6477C196.87 23.4972 196.583 23.4219 196.254 23.4219C195.896 23.4219 195.583 23.5099 195.316 23.6861C195.052 23.8594 194.848 24.0866 194.703 24.3679C194.561 24.6463 194.49 24.9489 194.49 25.2756V26.0213C194.49 26.4588 194.566 26.831 194.72 27.1378C194.876 27.4446 195.093 27.679 195.372 27.8409C195.65 28 195.975 28.0795 196.348 28.0795C196.589 28.0795 196.809 28.0455 197.008 27.9773C197.207 27.9062 197.379 27.8011 197.524 27.6619C197.669 27.5227 197.779 27.3509 197.856 27.1463L199.062 27.3636C198.965 27.7187 198.792 28.0298 198.542 28.2969C198.295 28.5611 197.984 28.767 197.609 28.9148C197.237 29.0597 196.812 29.1321 196.335 29.1321ZM200.689 29V22.4545H201.912V23.5199H201.993C202.129 23.1591 202.352 22.8778 202.662 22.6761C202.971 22.4716 203.342 22.3693 203.774 22.3693C204.211 22.3693 204.578 22.4716 204.873 22.6761C205.172 22.8807 205.392 23.1619 205.534 23.5199H205.602C205.758 23.1705 206.007 22.892 206.348 22.6847C206.689 22.4744 207.095 22.3693 207.567 22.3693C208.16 22.3693 208.645 22.5554 209.02 22.9276C209.398 23.2997 209.586 23.8608 209.586 24.6108V29H208.312V24.7301C208.312 24.2869 208.192 23.9659 207.95 23.767C207.709 23.5682 207.42 23.4688 207.085 23.4688C206.67 23.4688 206.348 23.5966 206.118 23.8523C205.888 24.1051 205.773 24.4304 205.773 24.8281V29H204.503V24.6491C204.503 24.294 204.392 24.0085 204.17 23.7926C203.949 23.5767 203.66 23.4688 203.305 23.4688C203.064 23.4688 202.841 23.5327 202.636 23.6605C202.434 23.7855 202.271 23.9602 202.146 24.1847C202.024 24.4091 201.963 24.669 201.963 24.9645V29H200.689ZM214.247 29.1321C213.602 29.1321 213.047 28.9943 212.581 28.7188C212.118 28.4403 211.76 28.0497 211.507 27.5469C211.257 27.0412 211.132 26.4489 211.132 25.7699C211.132 25.0994 211.257 24.5085 211.507 23.9972C211.76 23.4858 212.112 23.0866 212.564 22.7997C213.019 22.5128 213.55 22.3693 214.158 22.3693C214.527 22.3693 214.885 22.4304 215.232 22.5526C215.578 22.6747 215.889 22.8665 216.165 23.1278C216.44 23.3892 216.658 23.7287 216.817 24.1463C216.976 24.5611 217.055 25.0653 217.055 25.6591V26.1108H211.852V25.1562H215.807C215.807 24.821 215.739 24.5241 215.602 24.2656C215.466 24.0043 215.274 23.7983 215.027 23.6477C214.783 23.4972 214.496 23.4219 214.166 23.4219C213.808 23.4219 213.496 23.5099 213.229 23.6861C212.965 23.8594 212.76 24.0866 212.615 24.3679C212.473 24.6463 212.402 24.9489 212.402 25.2756V26.0213C212.402 26.4588 212.479 26.831 212.632 27.1378C212.788 27.4446 213.006 27.679 213.284 27.8409C213.563 28 213.888 28.0795 214.26 28.0795C214.502 28.0795 214.722 28.0455 214.921 27.9773C215.119 27.9062 215.291 27.8011 215.436 27.6619C215.581 27.5227 215.692 27.3509 215.769 27.1463L216.975 27.3636C216.878 27.7187 216.705 28.0298 216.455 28.2969C216.207 28.5611 215.896 28.767 215.521 28.9148C215.149 29.0597 214.725 29.1321 214.247 29.1321ZM219.875 25.1136V29H218.601V22.4545H219.824V23.5199H219.905C220.056 23.1733 220.292 22.8949 220.613 22.6847C220.936 22.4744 221.344 22.3693 221.836 22.3693C222.282 22.3693 222.672 22.4631 223.007 22.6506C223.343 22.8352 223.603 23.1108 223.787 23.4773C223.972 23.8437 224.064 24.2969 224.064 24.8366V29H222.79V24.9901C222.79 24.5156 222.667 24.1449 222.419 23.8778C222.172 23.608 221.833 23.473 221.401 23.473C221.105 23.473 220.843 23.5369 220.613 23.6648C220.385 23.7926 220.205 23.9801 220.071 24.2273C219.941 24.4716 219.875 24.767 219.875 25.1136ZM228.96 22.4545V23.4773H225.385V22.4545H228.96ZM226.344 20.8864H227.618V27.0781C227.618 27.3253 227.655 27.5114 227.729 27.6364C227.803 27.7585 227.898 27.8423 228.014 27.8878C228.134 27.9304 228.263 27.9517 228.402 27.9517C228.505 27.9517 228.594 27.9446 228.671 27.9304C228.747 27.9162 228.807 27.9048 228.85 27.8963L229.08 28.9489C229.006 28.9773 228.901 29.0057 228.764 29.0341C228.628 29.0653 228.458 29.0824 228.253 29.0852C227.918 29.0909 227.605 29.0312 227.316 28.9062C227.026 28.7812 226.791 28.5881 226.612 28.3267C226.433 28.0653 226.344 27.7372 226.344 27.3423V20.8864ZM235.715 29.1449C235.3 29.1449 234.925 29.0682 234.59 28.9148C234.254 28.7585 233.989 28.5327 233.793 28.2372C233.599 27.9418 233.503 27.5795 233.503 27.1506C233.503 26.7812 233.574 26.4773 233.716 26.2386C233.858 26 234.05 25.8111 234.291 25.6719C234.533 25.5327 234.803 25.4276 235.101 25.3565C235.399 25.2855 235.703 25.2315 236.013 25.1946C236.405 25.1491 236.723 25.1122 236.967 25.0838C237.212 25.0526 237.389 25.0028 237.5 24.9347C237.611 24.8665 237.666 24.7557 237.666 24.6023V24.5724C237.666 24.2003 237.561 23.9119 237.351 23.7074C237.143 23.5028 236.834 23.4006 236.422 23.4006C235.993 23.4006 235.655 23.4957 235.408 23.6861C235.163 23.8736 234.994 24.0824 234.901 24.3125L233.703 24.0398C233.845 23.642 234.053 23.321 234.325 23.0767C234.601 22.8295 234.918 22.6506 235.276 22.5398C235.634 22.4261 236.01 22.3693 236.405 22.3693C236.666 22.3693 236.943 22.4006 237.236 22.4631C237.531 22.5227 237.807 22.6335 238.063 22.7955C238.321 22.9574 238.533 23.1889 238.697 23.4901C238.862 23.7884 238.945 24.1761 238.945 24.6534V29H237.7V28.1051H237.649C237.567 28.2699 237.443 28.4318 237.278 28.5909C237.114 28.75 236.902 28.8821 236.643 28.9872C236.385 29.0923 236.075 29.1449 235.715 29.1449ZM235.992 28.1222C236.344 28.1222 236.645 28.0526 236.895 27.9134C237.148 27.7741 237.34 27.5923 237.47 27.3679C237.604 27.1406 237.67 26.8977 237.67 26.6392V25.7955C237.625 25.8409 237.537 25.8835 237.406 25.9233C237.278 25.9602 237.132 25.9929 236.967 26.0213C236.803 26.0469 236.642 26.071 236.486 26.0938C236.33 26.1136 236.199 26.1307 236.094 26.1449C235.847 26.1761 235.621 26.2287 235.416 26.3026C235.215 26.3764 235.053 26.483 234.93 26.6222C234.811 26.7585 234.751 26.9403 234.751 27.1676C234.751 27.483 234.868 27.7216 235.101 27.8835C235.334 28.0426 235.631 28.1222 235.992 28.1222ZM242.048 25.1136V29H240.774V22.4545H241.997V23.5199H242.078C242.228 23.1733 242.464 22.8949 242.785 22.6847C243.109 22.4744 243.517 22.3693 244.008 22.3693C244.454 22.3693 244.845 22.4631 245.18 22.6506C245.515 22.8352 245.775 23.1108 245.96 23.4773C246.144 23.8437 246.237 24.2969 246.237 24.8366V29H244.963V24.9901C244.963 24.5156 244.839 24.1449 244.592 23.8778C244.345 23.608 244.005 23.473 243.573 23.473C243.278 23.473 243.015 23.5369 242.785 23.6648C242.558 23.7926 242.377 23.9801 242.244 24.2273C242.113 24.4716 242.048 24.767 242.048 25.1136ZM250.528 29.1278C249.999 29.1278 249.528 28.9929 249.113 28.723C248.701 28.4503 248.377 28.0625 248.142 27.5597C247.909 27.054 247.792 26.4474 247.792 25.7401C247.792 25.0327 247.91 24.4276 248.146 23.9247C248.384 23.4219 248.711 23.0369 249.126 22.7699C249.541 22.5028 250.011 22.3693 250.536 22.3693C250.943 22.3693 251.269 22.4375 251.517 22.5739C251.767 22.7074 251.96 22.8636 252.096 23.0426C252.235 23.2216 252.343 23.3793 252.42 23.5156H252.497V20.2727H253.771V29H252.526V27.9815H252.42C252.343 28.1207 252.232 28.2798 252.088 28.4588C251.946 28.6378 251.749 28.794 251.499 28.9276C251.249 29.0611 250.926 29.1278 250.528 29.1278ZM250.809 28.0412C251.176 28.0412 251.485 27.9446 251.738 27.7514C251.994 27.5554 252.187 27.2841 252.318 26.9375C252.451 26.5909 252.518 26.1875 252.518 25.7273C252.518 25.2727 252.453 24.875 252.322 24.5341C252.191 24.1932 251.999 23.9276 251.747 23.7372C251.494 23.5469 251.181 23.4517 250.809 23.4517C250.426 23.4517 250.106 23.5511 249.85 23.75C249.595 23.9489 249.401 24.2202 249.271 24.5639C249.143 24.9077 249.079 25.2955 249.079 25.7273C249.079 26.1648 249.144 26.5582 249.275 26.9077C249.406 27.2571 249.599 27.5341 249.855 27.7386C250.113 27.9403 250.431 28.0412 250.809 28.0412ZM81.3565 47V40.4545H82.6307V47H81.3565ZM82 39.4446C81.7784 39.4446 81.5881 39.3707 81.429 39.223C81.2727 39.0724 81.1946 38.8935 81.1946 38.6861C81.1946 38.4759 81.2727 38.2969 81.429 38.1491C81.5881 37.9986 81.7784 37.9233 82 37.9233C82.2216 37.9233 82.4105 37.9986 82.5668 38.1491C82.7259 38.2969 82.8054 38.4759 82.8054 38.6861C82.8054 38.8935 82.7259 39.0724 82.5668 39.223C82.4105 39.3707 82.2216 39.4446 82 39.4446ZM85.751 43.1136V47H84.4768V40.4545H85.6998V41.5199H85.7808C85.9314 41.1733 86.1672 40.8949 86.4882 40.6847C86.812 40.4744 87.2197 40.3693 87.7112 40.3693C88.1572 40.3693 88.5478 40.4631 88.8831 40.6506C89.2183 40.8352 89.4782 41.1108 89.6629 41.4773C89.8476 41.8437 89.9399 42.2969 89.9399 42.8366V47H88.6657V42.9901C88.6657 42.5156 88.5422 42.1449 88.295 41.8778C88.0478 41.608 87.7083 41.473 87.2765 41.473C86.9811 41.473 86.7183 41.5369 86.4882 41.6648C86.2609 41.7926 86.0805 41.9801 85.947 42.2273C85.8163 42.4716 85.751 42.767 85.751 43.1136ZM94.5378 47.1321C93.9043 47.1321 93.3588 46.9886 92.9014 46.7017C92.4469 46.4119 92.0975 46.0128 91.8531 45.5043C91.6088 44.9957 91.4867 44.4134 91.4867 43.7571C91.4867 43.0923 91.6117 42.5057 91.8617 41.9972C92.1117 41.4858 92.4639 41.0866 92.9185 40.7997C93.373 40.5128 93.9085 40.3693 94.525 40.3693C95.0222 40.3693 95.4653 40.4616 95.8546 40.6463C96.2438 40.8281 96.5577 41.0838 96.7963 41.4134C97.0378 41.7429 97.1813 42.1278 97.2267 42.5682H95.9867C95.9185 42.2614 95.7622 41.9972 95.5179 41.7756C95.2764 41.554 94.9526 41.4432 94.5463 41.4432C94.1912 41.4432 93.8801 41.5369 93.6131 41.7244C93.3489 41.9091 93.1429 42.1733 92.9952 42.517C92.8475 42.858 92.7736 43.2614 92.7736 43.7273C92.7736 44.2045 92.846 44.6165 92.9909 44.9631C93.1358 45.3097 93.3403 45.5781 93.6046 45.7685C93.8716 45.9588 94.1855 46.054 94.5463 46.054C94.7878 46.054 95.0065 46.0099 95.2026 45.9219C95.4014 45.831 95.5676 45.7017 95.7011 45.5341C95.8375 45.3665 95.9327 45.1648 95.9867 44.929H97.2267C97.1813 45.3523 97.0435 45.7301 96.8134 46.0625C96.5832 46.3949 96.275 46.6562 95.8886 46.8466C95.5051 47.0369 95.0548 47.1321 94.5378 47.1321ZM98.7213 47V40.4545H99.9528V41.4943H100.021C100.14 41.142 100.351 40.8651 100.652 40.6634C100.956 40.4588 101.299 40.3565 101.683 40.3565C101.762 40.3565 101.856 40.3594 101.964 40.3651C102.075 40.3707 102.162 40.3778 102.224 40.3864V41.6051C102.173 41.5909 102.082 41.5753 101.951 41.5582C101.821 41.5384 101.69 41.5284 101.559 41.5284C101.258 41.5284 100.99 41.5923 100.754 41.7202C100.521 41.8452 100.336 42.0199 100.2 42.2443C100.064 42.4659 99.9954 42.7187 99.9954 43.0028V47H98.7213ZM106.045 47.1321C105.401 47.1321 104.845 46.9943 104.379 46.7188C103.916 46.4403 103.558 46.0497 103.305 45.5469C103.055 45.0412 102.93 44.4489 102.93 43.7699C102.93 43.0994 103.055 42.5085 103.305 41.9972C103.558 41.4858 103.91 41.0866 104.362 40.7997C104.817 40.5128 105.348 40.3693 105.956 40.3693C106.325 40.3693 106.683 40.4304 107.03 40.5526C107.376 40.6747 107.687 40.8665 107.963 41.1278C108.239 41.3892 108.456 41.7287 108.615 42.1463C108.774 42.5611 108.854 43.0653 108.854 43.6591V44.1108H103.651V43.1562H107.605C107.605 42.821 107.537 42.5241 107.401 42.2656C107.264 42.0043 107.072 41.7983 106.825 41.6477C106.581 41.4972 106.294 41.4219 105.964 41.4219C105.606 41.4219 105.294 41.5099 105.027 41.6861C104.763 41.8594 104.558 42.0866 104.413 42.3679C104.271 42.6463 104.2 42.9489 104.2 43.2756V44.0213C104.2 44.4588 104.277 44.831 104.43 45.1378C104.587 45.4446 104.804 45.679 105.082 45.8409C105.361 46 105.686 46.0795 106.058 46.0795C106.3 46.0795 106.52 46.0455 106.719 45.9773C106.918 45.9062 107.089 45.8011 107.234 45.6619C107.379 45.5227 107.49 45.3509 107.567 45.1463L108.773 45.3636C108.676 45.7187 108.503 46.0298 108.253 46.2969C108.006 46.5611 107.695 46.767 107.32 46.9148C106.947 47.0597 106.523 47.1321 106.045 47.1321ZM112.304 47.1449C111.889 47.1449 111.514 47.0682 111.179 46.9148C110.844 46.7585 110.578 46.5327 110.382 46.2372C110.189 45.9418 110.093 45.5795 110.093 45.1506C110.093 44.7812 110.164 44.4773 110.306 44.2386C110.448 44 110.639 43.8111 110.881 43.6719C111.122 43.5327 111.392 43.4276 111.691 43.3565C111.989 43.2855 112.293 43.2315 112.602 43.1946C112.995 43.1491 113.313 43.1122 113.557 43.0838C113.801 43.0526 113.979 43.0028 114.09 42.9347C114.2 42.8665 114.256 42.7557 114.256 42.6023V42.5724C114.256 42.2003 114.151 41.9119 113.941 41.7074C113.733 41.5028 113.423 41.4006 113.012 41.4006C112.583 41.4006 112.245 41.4957 111.997 41.6861C111.753 41.8736 111.584 42.0824 111.49 42.3125L110.293 42.0398C110.435 41.642 110.642 41.321 110.915 41.0767C111.191 40.8295 111.507 40.6506 111.865 40.5398C112.223 40.4261 112.6 40.3693 112.995 40.3693C113.256 40.3693 113.533 40.4006 113.825 40.4631C114.121 40.5227 114.397 40.6335 114.652 40.7955C114.911 40.9574 115.122 41.1889 115.287 41.4901C115.452 41.7884 115.534 42.1761 115.534 42.6534V47H114.29V46.1051H114.239C114.156 46.2699 114.033 46.4318 113.868 46.5909C113.703 46.75 113.492 46.8821 113.233 46.9872C112.975 47.0923 112.665 47.1449 112.304 47.1449ZM112.581 46.1222C112.933 46.1222 113.235 46.0526 113.485 45.9134C113.737 45.7741 113.929 45.5923 114.06 45.3679C114.193 45.1406 114.26 44.8977 114.26 44.6392V43.7955C114.215 43.8409 114.127 43.8835 113.996 43.9233C113.868 43.9602 113.722 43.9929 113.557 44.0213C113.392 44.0469 113.232 44.071 113.075 44.0938C112.919 44.1136 112.789 44.1307 112.683 44.1449C112.436 44.1761 112.21 44.2287 112.006 44.3026C111.804 44.3764 111.642 44.483 111.52 44.6222C111.401 44.7585 111.341 44.9403 111.341 45.1676C111.341 45.483 111.458 45.7216 111.691 45.8835C111.923 46.0426 112.22 46.1222 112.581 46.1222ZM122.268 42.0526L121.113 42.2571C121.065 42.1094 120.988 41.9687 120.883 41.8352C120.781 41.7017 120.642 41.5923 120.466 41.5071C120.29 41.4219 120.069 41.3793 119.805 41.3793C119.444 41.3793 119.143 41.4602 118.902 41.6222C118.66 41.7812 118.54 41.9872 118.54 42.2401C118.54 42.4588 118.62 42.6349 118.782 42.7685C118.944 42.902 119.206 43.0114 119.567 43.0966L120.606 43.3352C121.209 43.4744 121.657 43.6889 121.953 43.9787C122.248 44.2685 122.396 44.6449 122.396 45.108C122.396 45.5 122.282 45.8494 122.055 46.1562C121.831 46.4602 121.517 46.6989 121.113 46.8722C120.713 47.0455 120.248 47.1321 119.72 47.1321C118.987 47.1321 118.389 46.9759 117.926 46.6634C117.463 46.348 117.179 45.9006 117.074 45.321L118.305 45.1335C118.382 45.4545 118.54 45.6974 118.778 45.8622C119.017 46.0241 119.328 46.1051 119.711 46.1051C120.129 46.1051 120.463 46.0185 120.713 45.8452C120.963 45.669 121.088 45.4545 121.088 45.2017C121.088 44.9972 121.011 44.8253 120.858 44.6861C120.707 44.5469 120.476 44.4418 120.163 44.3707L119.055 44.1278C118.444 43.9886 117.993 43.767 117.7 43.4631C117.41 43.1591 117.265 42.7741 117.265 42.3082C117.265 41.9219 117.373 41.5838 117.589 41.294C117.805 41.0043 118.103 40.7784 118.484 40.6165C118.865 40.4517 119.301 40.3693 119.792 40.3693C120.5 40.3693 121.057 40.5227 121.463 40.8295C121.869 41.1335 122.138 41.5412 122.268 42.0526ZM123.929 47V40.4545H125.203V47H123.929ZM124.572 39.4446C124.351 39.4446 124.161 39.3707 124.001 39.223C123.845 39.0724 123.767 38.8935 123.767 38.6861C123.767 38.4759 123.845 38.2969 124.001 38.1491C124.161 37.9986 124.351 37.9233 124.572 37.9233C124.794 37.9233 124.983 37.9986 125.139 38.1491C125.298 38.2969 125.378 38.4759 125.378 38.6861C125.378 38.8935 125.298 39.0724 125.139 39.223C124.983 39.3707 124.794 39.4446 124.572 39.4446ZM128.323 43.1136V47H127.049V40.4545H128.272V41.5199H128.353C128.504 41.1733 128.74 40.8949 129.061 40.6847C129.384 40.4744 129.792 40.3693 130.284 40.3693C130.73 40.3693 131.12 40.4631 131.456 40.6506C131.791 40.8352 132.051 41.1108 132.235 41.4773C132.42 41.8437 132.512 42.2969 132.512 42.8366V47H131.238V42.9901C131.238 42.5156 131.115 42.1449 130.867 41.8778C130.62 41.608 130.281 41.473 129.849 41.473C129.554 41.473 129.291 41.5369 129.061 41.6648C128.833 41.7926 128.653 41.9801 128.519 42.2273C128.389 42.4716 128.323 42.767 128.323 43.1136ZM137.097 49.5909C136.578 49.5909 136.13 49.5227 135.755 49.3864C135.383 49.25 135.079 49.0696 134.843 48.8452C134.607 48.6207 134.431 48.375 134.315 48.108L135.41 47.6562C135.487 47.7812 135.589 47.9134 135.717 48.0526C135.847 48.1946 136.024 48.3153 136.245 48.4148C136.47 48.5142 136.758 48.5639 137.11 48.5639C137.593 48.5639 137.992 48.446 138.308 48.2102C138.623 47.9773 138.781 47.6051 138.781 47.0938V45.8068H138.7C138.623 45.946 138.512 46.1009 138.367 46.2713C138.225 46.4418 138.029 46.5895 137.779 46.7145C137.529 46.8395 137.204 46.902 136.803 46.902C136.286 46.902 135.82 46.7812 135.406 46.5398C134.994 46.2955 134.667 45.9361 134.426 45.4616C134.187 44.9844 134.068 44.3977 134.068 43.7017C134.068 43.0057 134.186 42.4091 134.421 41.9119C134.66 41.4148 134.987 41.0341 135.401 40.7699C135.816 40.5028 136.286 40.3693 136.812 40.3693C137.218 40.3693 137.546 40.4375 137.796 40.5739C138.046 40.7074 138.241 40.8636 138.38 41.0426C138.522 41.2216 138.632 41.3793 138.708 41.5156H138.802V40.4545H140.051V47.1449C140.051 47.7074 139.92 48.169 139.659 48.5298C139.397 48.8906 139.043 49.1577 138.597 49.331C138.154 49.5043 137.654 49.5909 137.097 49.5909ZM137.085 45.8452C137.451 45.8452 137.761 45.7599 138.014 45.5895C138.269 45.4162 138.463 45.169 138.593 44.848C138.727 44.5241 138.793 44.1364 138.793 43.6847C138.793 43.2443 138.728 42.8565 138.597 42.5213C138.467 42.1861 138.275 41.9247 138.022 41.7372C137.769 41.5469 137.457 41.4517 137.085 41.4517C136.701 41.4517 136.382 41.5511 136.126 41.75C135.87 41.946 135.677 42.2131 135.546 42.5511C135.418 42.8892 135.355 43.267 135.355 43.6847C135.355 44.1136 135.42 44.4901 135.551 44.8139C135.681 45.1378 135.874 45.3906 136.13 45.5724C136.389 45.7543 136.707 45.8452 137.085 45.8452ZM148.02 47.1321C147.375 47.1321 146.82 46.9943 146.354 46.7188C145.891 46.4403 145.533 46.0497 145.28 45.5469C145.03 45.0412 144.905 44.4489 144.905 43.7699C144.905 43.0994 145.03 42.5085 145.28 41.9972C145.533 41.4858 145.885 41.0866 146.337 40.7997C146.791 40.5128 147.323 40.3693 147.931 40.3693C148.3 40.3693 148.658 40.4304 149.005 40.5526C149.351 40.6747 149.662 40.8665 149.938 41.1278C150.213 41.3892 150.431 41.7287 150.59 42.1463C150.749 42.5611 150.828 43.0653 150.828 43.6591V44.1108H145.625V43.1562H149.58C149.58 42.821 149.512 42.5241 149.375 42.2656C149.239 42.0043 149.047 41.7983 148.8 41.6477C148.556 41.4972 148.269 41.4219 147.939 41.4219C147.581 41.4219 147.269 41.5099 147.002 41.6861C146.738 41.8594 146.533 42.0866 146.388 42.3679C146.246 42.6463 146.175 42.9489 146.175 43.2756V44.0213C146.175 44.4588 146.252 44.831 146.405 45.1378C146.561 45.4446 146.779 45.679 147.057 45.8409C147.336 46 147.661 46.0795 148.033 46.0795C148.274 46.0795 148.495 46.0455 148.693 45.9773C148.892 45.9062 149.064 45.8011 149.209 45.6619C149.354 45.5227 149.465 45.3509 149.541 45.1463L150.747 45.3636C150.651 45.7187 150.478 46.0298 150.228 46.2969C149.98 46.5611 149.669 46.767 149.294 46.9148C148.922 47.0597 148.497 47.1321 148.02 47.1321ZM153.227 40.4545L154.672 43.0028L156.129 40.4545H157.523L155.482 43.7273L157.54 47H156.146L154.672 44.554L153.202 47H151.804L153.841 43.7273L151.83 40.4545H153.227ZM158.963 49.4545V40.4545H160.207V41.5156H160.314C160.388 41.3793 160.494 41.2216 160.634 41.0426C160.773 40.8636 160.966 40.7074 161.213 40.5739C161.46 40.4375 161.787 40.3693 162.193 40.3693C162.722 40.3693 163.193 40.5028 163.608 40.7699C164.023 41.0369 164.348 41.4219 164.584 41.9247C164.823 42.4276 164.942 43.0327 164.942 43.7401C164.942 44.4474 164.824 45.054 164.588 45.5597C164.352 46.0625 164.029 46.4503 163.617 46.723C163.205 46.9929 162.734 47.1278 162.206 47.1278C161.808 47.1278 161.483 47.0611 161.23 46.9276C160.98 46.794 160.784 46.6378 160.642 46.4588C160.5 46.2798 160.391 46.1207 160.314 45.9815H160.237V49.4545H158.963ZM160.212 43.7273C160.212 44.1875 160.279 44.5909 160.412 44.9375C160.546 45.2841 160.739 45.5554 160.992 45.7514C161.244 45.9446 161.554 46.0412 161.921 46.0412C162.301 46.0412 162.619 45.9403 162.875 45.7386C163.131 45.5341 163.324 45.2571 163.455 44.9077C163.588 44.5582 163.655 44.1648 163.655 43.7273C163.655 43.2955 163.59 42.9077 163.459 42.5639C163.331 42.2202 163.138 41.9489 162.879 41.75C162.624 41.5511 162.304 41.4517 161.921 41.4517C161.551 41.4517 161.239 41.5469 160.983 41.7372C160.73 41.9276 160.538 42.1932 160.408 42.5341C160.277 42.875 160.212 43.2727 160.212 43.7273ZM169.322 47.1321C168.678 47.1321 168.122 46.9943 167.656 46.7188C167.193 46.4403 166.835 46.0497 166.582 45.5469C166.332 45.0412 166.207 44.4489 166.207 43.7699C166.207 43.0994 166.332 42.5085 166.582 41.9972C166.835 41.4858 167.187 41.0866 167.639 40.7997C168.094 40.5128 168.625 40.3693 169.233 40.3693C169.602 40.3693 169.96 40.4304 170.307 40.5526C170.653 40.6747 170.964 40.8665 171.24 41.1278C171.516 41.3892 171.733 41.7287 171.892 42.1463C172.051 42.5611 172.131 43.0653 172.131 43.6591V44.1108H166.928V43.1562H170.882C170.882 42.821 170.814 42.5241 170.678 42.2656C170.541 42.0043 170.349 41.7983 170.102 41.6477C169.858 41.4972 169.571 41.4219 169.241 41.4219C168.884 41.4219 168.571 41.5099 168.304 41.6861C168.04 41.8594 167.835 42.0866 167.69 42.3679C167.548 42.6463 167.477 42.9489 167.477 43.2756V44.0213C167.477 44.4588 167.554 44.831 167.707 45.1378C167.864 45.4446 168.081 45.679 168.359 45.8409C168.638 46 168.963 46.0795 169.335 46.0795C169.577 46.0795 169.797 46.0455 169.996 45.9773C170.195 45.9062 170.366 45.8011 170.511 45.6619C170.656 45.5227 170.767 45.3509 170.844 45.1463L172.05 45.3636C171.953 45.7187 171.78 46.0298 171.53 46.2969C171.283 46.5611 170.972 46.767 170.597 46.9148C170.224 47.0597 169.8 47.1321 169.322 47.1321ZM173.676 47V40.4545H174.908V41.4943H174.976C175.095 41.142 175.306 40.8651 175.607 40.6634C175.911 40.4588 176.255 40.3565 176.638 40.3565C176.718 40.3565 176.811 40.3594 176.919 40.3651C177.03 40.3707 177.117 40.3778 177.179 40.3864V41.6051C177.128 41.5909 177.037 41.5753 176.906 41.5582C176.776 41.5384 176.645 41.5284 176.514 41.5284C176.213 41.5284 175.945 41.5923 175.709 41.7202C175.476 41.8452 175.291 42.0199 175.155 42.2443C175.019 42.4659 174.951 42.7187 174.951 43.0028V47H173.676ZM178.414 47V40.4545H179.688V47H178.414ZM179.057 39.4446C178.836 39.4446 178.645 39.3707 178.486 39.223C178.33 39.0724 178.252 38.8935 178.252 38.6861C178.252 38.4759 178.33 38.2969 178.486 38.1491C178.645 37.9986 178.836 37.9233 179.057 37.9233C179.279 37.9233 179.468 37.9986 179.624 38.1491C179.783 38.2969 179.863 38.4759 179.863 38.6861C179.863 38.8935 179.783 39.0724 179.624 39.223C179.468 39.3707 179.279 39.4446 179.057 39.4446ZM184.355 47.1321C183.71 47.1321 183.155 46.9943 182.689 46.7188C182.226 46.4403 181.868 46.0497 181.615 45.5469C181.365 45.0412 181.24 44.4489 181.24 43.7699C181.24 43.0994 181.365 42.5085 181.615 41.9972C181.868 41.4858 182.22 41.0866 182.672 40.7997C183.126 40.5128 183.658 40.3693 184.266 40.3693C184.635 40.3693 184.993 40.4304 185.34 40.5526C185.686 40.6747 185.997 40.8665 186.273 41.1278C186.548 41.3892 186.766 41.7287 186.925 42.1463C187.084 42.5611 187.163 43.0653 187.163 43.6591V44.1108H181.96V43.1562H185.915C185.915 42.821 185.847 42.5241 185.71 42.2656C185.574 42.0043 185.382 41.7983 185.135 41.6477C184.891 41.4972 184.604 41.4219 184.274 41.4219C183.916 41.4219 183.604 41.5099 183.337 41.6861C183.072 41.8594 182.868 42.0866 182.723 42.3679C182.581 42.6463 182.51 42.9489 182.51 43.2756V44.0213C182.51 44.4588 182.587 44.831 182.74 45.1378C182.896 45.4446 183.114 45.679 183.392 45.8409C183.67 46 183.996 46.0795 184.368 46.0795C184.609 46.0795 184.83 46.0455 185.028 45.9773C185.227 45.9062 185.399 45.8011 185.544 45.6619C185.689 45.5227 185.8 45.3509 185.876 45.1463L187.082 45.3636C186.986 45.7187 186.813 46.0298 186.563 46.2969C186.315 46.5611 186.004 46.767 185.629 46.9148C185.257 47.0597 184.832 47.1321 184.355 47.1321ZM189.983 43.1136V47H188.709V40.4545H189.932V41.5199H190.013C190.164 41.1733 190.399 40.8949 190.72 40.6847C191.044 40.4744 191.452 40.3693 191.943 40.3693C192.389 40.3693 192.78 40.4631 193.115 40.6506C193.451 40.8352 193.711 41.1108 193.895 41.4773C194.08 41.8437 194.172 42.2969 194.172 42.8366V47H192.898V42.9901C192.898 42.5156 192.774 42.1449 192.527 41.8778C192.28 41.608 191.941 41.473 191.509 41.473C191.213 41.473 190.951 41.5369 190.72 41.6648C190.493 41.7926 190.313 41.9801 190.179 42.2273C190.049 42.4716 189.983 42.767 189.983 43.1136ZM198.77 47.1321C198.137 47.1321 197.591 46.9886 197.134 46.7017C196.679 46.4119 196.33 46.0128 196.085 45.5043C195.841 44.9957 195.719 44.4134 195.719 43.7571C195.719 43.0923 195.844 42.5057 196.094 41.9972C196.344 41.4858 196.696 41.0866 197.151 40.7997C197.605 40.5128 198.141 40.3693 198.757 40.3693C199.254 40.3693 199.698 40.4616 200.087 40.6463C200.476 40.8281 200.79 41.0838 201.029 41.4134C201.27 41.7429 201.414 42.1278 201.459 42.5682H200.219C200.151 42.2614 199.995 41.9972 199.75 41.7756C199.509 41.554 199.185 41.4432 198.779 41.4432C198.423 41.4432 198.112 41.5369 197.845 41.7244C197.581 41.9091 197.375 42.1733 197.227 42.517C197.08 42.858 197.006 43.2614 197.006 43.7273C197.006 44.2045 197.078 44.6165 197.223 44.9631C197.368 45.3097 197.573 45.5781 197.837 45.7685C198.104 45.9588 198.418 46.054 198.779 46.054C199.02 46.054 199.239 46.0099 199.435 45.9219C199.634 45.831 199.8 45.7017 199.933 45.5341C200.07 45.3665 200.165 45.1648 200.219 44.929H201.459C201.414 45.3523 201.276 45.7301 201.046 46.0625C200.816 46.3949 200.507 46.6562 200.121 46.8466C199.737 47.0369 199.287 47.1321 198.77 47.1321ZM205.775 47.1321C205.13 47.1321 204.574 46.9943 204.108 46.7188C203.645 46.4403 203.287 46.0497 203.035 45.5469C202.785 45.0412 202.66 44.4489 202.66 43.7699C202.66 43.0994 202.785 42.5085 203.035 41.9972C203.287 41.4858 203.64 41.0866 204.091 40.7997C204.546 40.5128 205.077 40.3693 205.685 40.3693C206.054 40.3693 206.412 40.4304 206.759 40.5526C207.106 40.6747 207.417 40.8665 207.692 41.1278C207.968 41.3892 208.185 41.7287 208.344 42.1463C208.503 42.5611 208.583 43.0653 208.583 43.6591V44.1108H203.38V43.1562H207.334C207.334 42.821 207.266 42.5241 207.13 42.2656C206.993 42.0043 206.802 41.7983 206.554 41.6477C206.31 41.4972 206.023 41.4219 205.694 41.4219C205.336 41.4219 205.023 41.5099 204.756 41.6861C204.492 41.8594 204.287 42.0866 204.142 42.3679C204 42.6463 203.929 42.9489 203.929 43.2756V44.0213C203.929 44.4588 204.006 44.831 204.16 45.1378C204.316 45.4446 204.533 45.679 204.812 45.8409C205.09 46 205.415 46.0795 205.787 46.0795C206.029 46.0795 206.249 46.0455 206.448 45.9773C206.647 45.9062 206.819 45.8011 206.964 45.6619C207.108 45.5227 207.219 45.3509 207.296 45.1463L208.502 45.3636C208.405 45.7187 208.232 46.0298 207.982 46.2969C207.735 46.5611 207.424 46.767 207.049 46.9148C206.677 47.0597 206.252 47.1321 205.775 47.1321ZM216.193 47.1321C215.58 47.1321 215.044 46.9915 214.587 46.7102C214.13 46.429 213.774 46.0355 213.522 45.5298C213.269 45.0241 213.142 44.4332 213.142 43.7571C213.142 43.0781 213.269 42.4844 213.522 41.9759C213.774 41.4673 214.13 41.0724 214.587 40.7912C215.044 40.5099 215.58 40.3693 216.193 40.3693C216.807 40.3693 217.343 40.5099 217.8 40.7912C218.257 41.0724 218.612 41.4673 218.865 41.9759C219.118 42.4844 219.245 43.0781 219.245 43.7571C219.245 44.4332 219.118 45.0241 218.865 45.5298C218.612 46.0355 218.257 46.429 217.8 46.7102C217.343 46.9915 216.807 47.1321 216.193 47.1321ZM216.198 46.0625C216.595 46.0625 216.925 45.9574 217.186 45.7472C217.448 45.5369 217.641 45.2571 217.766 44.9077C217.894 44.5582 217.958 44.1733 217.958 43.7528C217.958 43.3352 217.894 42.9517 217.766 42.6023C217.641 42.25 217.448 41.9673 217.186 41.7543C216.925 41.5412 216.595 41.4347 216.198 41.4347C215.797 41.4347 215.465 41.5412 215.201 41.7543C214.939 41.9673 214.745 42.25 214.617 42.6023C214.492 42.9517 214.429 43.3352 214.429 43.7528C214.429 44.1733 214.492 44.5582 214.617 44.9077C214.745 45.2571 214.939 45.5369 215.201 45.7472C215.465 45.9574 215.797 46.0625 216.198 46.0625ZM223.914 40.4545V41.4773H220.215V40.4545H223.914ZM221.229 47V39.696C221.229 39.2869 221.319 38.9474 221.498 38.6776C221.677 38.4048 221.914 38.2017 222.209 38.0682C222.505 37.9318 222.826 37.8636 223.172 37.8636C223.428 37.8636 223.647 37.8849 223.829 37.9276C224.01 37.9673 224.145 38.0043 224.233 38.0384L223.935 39.0696C223.875 39.0526 223.799 39.0327 223.705 39.0099C223.611 38.9844 223.498 38.9716 223.364 38.9716C223.054 38.9716 222.833 39.0483 222.699 39.2017C222.569 39.3551 222.503 39.5767 222.503 39.8665V47H221.229ZM84.1776 65.1321C83.5327 65.1321 82.9773 64.9943 82.5114 64.7188C82.0483 64.4403 81.6903 64.0497 81.4375 63.5469C81.1875 63.0412 81.0625 62.4489 81.0625 61.7699C81.0625 61.0994 81.1875 60.5085 81.4375 59.9972C81.6903 59.4858 82.0426 59.0866 82.4943 58.7997C82.9489 58.5128 83.4801 58.3693 84.0881 58.3693C84.4574 58.3693 84.8153 58.4304 85.1619 58.5526C85.5085 58.6747 85.8196 58.8665 86.0952 59.1278C86.3707 59.3892 86.5881 59.7287 86.7472 60.1463C86.9063 60.5611 86.9858 61.0653 86.9858 61.6591V62.1108H81.7827V61.1562H85.7372C85.7372 60.821 85.669 60.5241 85.5327 60.2656C85.3963 60.0043 85.2045 59.7983 84.9574 59.6477C84.7131 59.4972 84.4261 59.4219 84.0966 59.4219C83.7386 59.4219 83.4261 59.5099 83.1591 59.6861C82.8949 59.8594 82.6903 60.0866 82.5455 60.3679C82.4034 60.6463 82.3324 60.9489 82.3324 61.2756V62.0213C82.3324 62.4588 82.4091 62.831 82.5625 63.1378C82.7188 63.4446 82.9361 63.679 83.2145 63.8409C83.4929 64 83.8182 64.0795 84.1903 64.0795C84.4318 64.0795 84.652 64.0455 84.8509 63.9773C85.0497 63.9062 85.2216 63.8011 85.3665 63.6619C85.5114 63.5227 85.6222 63.3509 85.6989 63.1463L86.9048 63.3636C86.8082 63.7187 86.6349 64.0298 86.3849 64.2969C86.1378 64.5611 85.8267 64.767 85.4517 64.9148C85.0795 65.0597 84.6548 65.1321 84.1776 65.1321ZM88.5315 65V58.4545H89.7545V59.5199H89.8355C89.9718 59.1591 90.1949 58.8778 90.5045 58.6761C90.8142 58.4716 91.1849 58.3693 91.6167 58.3693C92.0542 58.3693 92.4207 58.4716 92.7162 58.6761C93.0145 58.8807 93.2346 59.1619 93.3767 59.5199H93.4449C93.6011 59.1705 93.8497 58.892 94.1906 58.6847C94.5315 58.4744 94.9378 58.3693 95.4093 58.3693C96.0031 58.3693 96.4875 58.5554 96.8625 58.9276C97.2403 59.2997 97.4292 59.8608 97.4292 60.6108V65H96.1551V60.7301C96.1551 60.2869 96.0343 59.9659 95.7929 59.767C95.5514 59.5682 95.263 59.4688 94.9278 59.4688C94.513 59.4688 94.1906 59.5966 93.9605 59.8523C93.7304 60.1051 93.6153 60.4304 93.6153 60.8281V65H92.3454V60.6491C92.3454 60.294 92.2346 60.0085 92.013 59.7926C91.7914 59.5767 91.5031 59.4688 91.148 59.4688C90.9065 59.4688 90.6835 59.5327 90.4789 59.6605C90.2772 59.7855 90.1139 59.9602 89.9889 60.1847C89.8667 60.4091 89.8057 60.669 89.8057 60.9645V65H88.5315ZM99.269 67.4545V58.4545H100.513V59.5156H100.62C100.694 59.3793 100.8 59.2216 100.939 59.0426C101.079 58.8636 101.272 58.7074 101.519 58.5739C101.766 58.4375 102.093 58.3693 102.499 58.3693C103.027 58.3693 103.499 58.5028 103.914 58.7699C104.329 59.0369 104.654 59.4219 104.89 59.9247C105.128 60.4276 105.248 61.0327 105.248 61.7401C105.248 62.4474 105.13 63.054 104.894 63.5597C104.658 64.0625 104.334 64.4503 103.922 64.723C103.51 64.9929 103.04 65.1278 102.512 65.1278C102.114 65.1278 101.789 65.0611 101.536 64.9276C101.286 64.794 101.09 64.6378 100.948 64.4588C100.806 64.2798 100.697 64.1207 100.62 63.9815H100.543V67.4545H99.269ZM100.518 61.7273C100.518 62.1875 100.584 62.5909 100.718 62.9375C100.851 63.2841 101.045 63.5554 101.297 63.7514C101.55 63.9446 101.86 64.0412 102.226 64.0412C102.607 64.0412 102.925 63.9403 103.181 63.7386C103.437 63.5341 103.63 63.2571 103.76 62.9077C103.894 62.5582 103.961 62.1648 103.961 61.7273C103.961 61.2955 103.895 60.9077 103.765 60.5639C103.637 60.2202 103.444 59.9489 103.185 59.75C102.929 59.5511 102.61 59.4517 102.226 59.4517C101.857 59.4517 101.545 59.5469 101.289 59.7372C101.036 59.9276 100.844 60.1932 100.714 60.5341C100.583 60.875 100.518 61.2727 100.518 61.7273ZM108.081 56.2727V65H106.807V56.2727H108.081ZM112.685 65.1321C112.071 65.1321 111.535 64.9915 111.078 64.7102C110.621 64.429 110.266 64.0355 110.013 63.5298C109.76 63.0241 109.633 62.4332 109.633 61.7571C109.633 61.0781 109.76 60.4844 110.013 59.9759C110.266 59.4673 110.621 59.0724 111.078 58.7912C111.535 58.5099 112.071 58.3693 112.685 58.3693C113.298 58.3693 113.834 58.5099 114.291 58.7912C114.749 59.0724 115.104 59.4673 115.356 59.9759C115.609 60.4844 115.736 61.0781 115.736 61.7571C115.736 62.4332 115.609 63.0241 115.356 63.5298C115.104 64.0355 114.749 64.429 114.291 64.7102C113.834 64.9915 113.298 65.1321 112.685 65.1321ZM112.689 64.0625C113.087 64.0625 113.416 63.9574 113.678 63.7472C113.939 63.5369 114.132 63.2571 114.257 62.9077C114.385 62.5582 114.449 62.1733 114.449 61.7528C114.449 61.3352 114.385 60.9517 114.257 60.6023C114.132 60.25 113.939 59.9673 113.678 59.7543C113.416 59.5412 113.087 59.4347 112.689 59.4347C112.288 59.4347 111.956 59.5412 111.692 59.7543C111.43 59.9673 111.236 60.25 111.108 60.6023C110.983 60.9517 110.92 61.3352 110.92 61.7528C110.92 62.1733 110.983 62.5582 111.108 62.9077C111.236 63.2571 111.43 63.5369 111.692 63.7472C111.956 63.9574 112.288 64.0625 112.689 64.0625ZM117.873 67.4545C117.682 67.4545 117.509 67.4389 117.353 67.4077C117.197 67.3793 117.08 67.348 117.003 67.3139L117.31 66.2699C117.543 66.3324 117.751 66.3594 117.932 66.3509C118.114 66.3423 118.275 66.2741 118.414 66.1463C118.556 66.0185 118.681 65.8097 118.789 65.5199L118.947 65.0852L116.552 58.4545H117.915L119.573 63.5341H119.641L121.299 58.4545H122.667L119.969 65.8736C119.844 66.2145 119.685 66.5028 119.492 66.7386C119.299 66.9773 119.069 67.1563 118.802 67.2756C118.535 67.3949 118.225 67.4545 117.873 67.4545ZM126.595 65.1321C125.95 65.1321 125.394 64.9943 124.928 64.7188C124.465 64.4403 124.107 64.0497 123.854 63.5469C123.604 63.0412 123.479 62.4489 123.479 61.7699C123.479 61.0994 123.604 60.5085 123.854 59.9972C124.107 59.4858 124.46 59.0866 124.911 58.7997C125.366 58.5128 125.897 58.3693 126.505 58.3693C126.874 58.3693 127.232 58.4304 127.579 58.5526C127.926 58.6747 128.237 58.8665 128.512 59.1278C128.788 59.3892 129.005 59.7287 129.164 60.1463C129.323 60.5611 129.403 61.0653 129.403 61.6591V62.1108H124.2V61.1562H128.154C128.154 60.821 128.086 60.5241 127.95 60.2656C127.813 60.0043 127.622 59.7983 127.374 59.6477C127.13 59.4972 126.843 59.4219 126.514 59.4219C126.156 59.4219 125.843 59.5099 125.576 59.6861C125.312 59.8594 125.107 60.0866 124.962 60.3679C124.82 60.6463 124.749 60.9489 124.749 61.2756V62.0213C124.749 62.4588 124.826 62.831 124.979 63.1378C125.136 63.4446 125.353 63.679 125.631 63.8409C125.91 64 126.235 64.0795 126.607 64.0795C126.849 64.0795 127.069 64.0455 127.268 63.9773C127.467 63.9062 127.639 63.8011 127.783 63.6619C127.928 63.5227 128.039 63.3509 128.116 63.1463L129.322 63.3636C129.225 63.7187 129.052 64.0298 128.802 64.2969C128.555 64.5611 128.244 64.767 127.869 64.9148C127.497 65.0597 127.072 65.1321 126.595 65.1321ZM133.77 65.1321C133.125 65.1321 132.569 64.9943 132.103 64.7188C131.64 64.4403 131.282 64.0497 131.029 63.5469C130.779 63.0412 130.654 62.4489 130.654 61.7699C130.654 61.0994 130.779 60.5085 131.029 59.9972C131.282 59.4858 131.635 59.0866 132.086 58.7997C132.541 58.5128 133.072 58.3693 133.68 58.3693C134.049 58.3693 134.407 58.4304 134.754 58.5526C135.1 58.6747 135.412 58.8665 135.687 59.1278C135.963 59.3892 136.18 59.7287 136.339 60.1463C136.498 60.5611 136.578 61.0653 136.578 61.6591V62.1108H131.375V61.1562H135.329C135.329 60.821 135.261 60.5241 135.125 60.2656C134.988 60.0043 134.797 59.7983 134.549 59.6477C134.305 59.4972 134.018 59.4219 133.689 59.4219C133.331 59.4219 133.018 59.5099 132.751 59.6861C132.487 59.8594 132.282 60.0866 132.137 60.3679C131.995 60.6463 131.924 60.9489 131.924 61.2756V62.0213C131.924 62.4588 132.001 62.831 132.154 63.1378C132.311 63.4446 132.528 63.679 132.806 63.8409C133.085 64 133.41 64.0795 133.782 64.0795C134.024 64.0795 134.244 64.0455 134.443 63.9773C134.642 63.9062 134.814 63.8011 134.958 63.6619C135.103 63.5227 135.214 63.3509 135.291 63.1463L136.497 63.3636C136.4 63.7187 136.227 64.0298 135.977 64.2969C135.73 64.5611 135.419 64.767 135.044 64.9148C134.672 65.0597 134.247 65.1321 133.77 65.1321ZM141.534 65V56.2727H142.85V60.0653H147.201V56.2727H148.522V65H147.201V61.1946H142.85V65H141.534ZM152.374 65.1449C151.96 65.1449 151.585 65.0682 151.249 64.9148C150.914 64.7585 150.648 64.5327 150.452 64.2372C150.259 63.9418 150.163 63.5795 150.163 63.1506C150.163 62.7812 150.234 62.4773 150.376 62.2386C150.518 62 150.71 61.8111 150.951 61.6719C151.193 61.5327 151.462 61.4276 151.761 61.3565C152.059 61.2855 152.363 61.2315 152.673 61.1946C153.065 61.1491 153.383 61.1122 153.627 61.0838C153.871 61.0526 154.049 61.0028 154.16 60.9347C154.271 60.8665 154.326 60.7557 154.326 60.6023V60.5724C154.326 60.2003 154.221 59.9119 154.011 59.7074C153.803 59.5028 153.494 59.4006 153.082 59.4006C152.653 59.4006 152.315 59.4957 152.068 59.6861C151.823 59.8736 151.654 60.0824 151.56 60.3125L150.363 60.0398C150.505 59.642 150.712 59.321 150.985 59.0767C151.261 58.8295 151.577 58.6506 151.935 58.5398C152.293 58.4261 152.67 58.3693 153.065 58.3693C153.326 58.3693 153.603 58.4006 153.896 58.4631C154.191 58.5227 154.467 58.6335 154.722 58.7955C154.981 58.9574 155.193 59.1889 155.357 59.4901C155.522 59.7884 155.604 60.1761 155.604 60.6534V65H154.36V64.1051H154.309C154.227 64.2699 154.103 64.4318 153.938 64.5909C153.773 64.75 153.562 64.8821 153.303 64.9872C153.045 65.0923 152.735 65.1449 152.374 65.1449ZM152.651 64.1222C153.004 64.1222 153.305 64.0526 153.555 63.9134C153.808 63.7741 153.999 63.5923 154.13 63.3679C154.264 63.1406 154.33 62.8977 154.33 62.6392V61.7955C154.285 61.8409 154.197 61.8835 154.066 61.9233C153.938 61.9602 153.792 61.9929 153.627 62.0213C153.462 62.0469 153.302 62.071 153.146 62.0938C152.989 62.1136 152.859 62.1307 152.754 62.1449C152.506 62.1761 152.281 62.2287 152.076 62.3026C151.874 62.3764 151.712 62.483 151.59 62.6222C151.471 62.7585 151.411 62.9403 151.411 63.1676C151.411 63.483 151.528 63.7216 151.761 63.8835C151.994 64.0426 152.291 64.1222 152.651 64.1222ZM157.434 67.4545V58.4545H158.678V59.5156H158.784C158.858 59.3793 158.965 59.2216 159.104 59.0426C159.243 58.8636 159.436 58.7074 159.684 58.5739C159.931 58.4375 160.257 58.3693 160.664 58.3693C161.192 58.3693 161.664 58.5028 162.078 58.7699C162.493 59.0369 162.818 59.4219 163.054 59.9247C163.293 60.4276 163.412 61.0327 163.412 61.7401C163.412 62.4474 163.294 63.054 163.059 63.5597C162.823 64.0625 162.499 64.4503 162.087 64.723C161.675 64.9929 161.205 65.1278 160.676 65.1278C160.279 65.1278 159.953 65.0611 159.701 64.9276C159.451 64.794 159.255 64.6378 159.113 64.4588C158.97 64.2798 158.861 64.1207 158.784 63.9815H158.708V67.4545H157.434ZM158.682 61.7273C158.682 62.1875 158.749 62.5909 158.882 62.9375C159.016 63.2841 159.209 63.5554 159.462 63.7514C159.715 63.9446 160.024 64.0412 160.391 64.0412C160.772 64.0412 161.09 63.9403 161.345 63.7386C161.601 63.5341 161.794 63.2571 161.925 62.9077C162.059 62.5582 162.125 62.1648 162.125 61.7273C162.125 61.2955 162.06 60.9077 161.929 60.5639C161.801 60.2202 161.608 59.9489 161.35 59.75C161.094 59.5511 160.774 59.4517 160.391 59.4517C160.022 59.4517 159.709 59.5469 159.453 59.7372C159.201 59.9276 159.009 60.1932 158.878 60.5341C158.747 60.875 158.682 61.2727 158.682 61.7273ZM164.972 67.4545V58.4545H166.216V59.5156H166.323C166.396 59.3793 166.503 59.2216 166.642 59.0426C166.781 58.8636 166.975 58.7074 167.222 58.5739C167.469 58.4375 167.796 58.3693 168.202 58.3693C168.73 58.3693 169.202 58.5028 169.617 58.7699C170.031 59.0369 170.357 59.4219 170.593 59.9247C170.831 60.4276 170.95 61.0327 170.95 61.7401C170.95 62.4474 170.833 63.054 170.597 63.5597C170.361 64.0625 170.037 64.4503 169.625 64.723C169.213 64.9929 168.743 65.1278 168.215 65.1278C167.817 65.1278 167.492 65.0611 167.239 64.9276C166.989 64.794 166.793 64.6378 166.651 64.4588C166.509 64.2798 166.399 64.1207 166.323 63.9815H166.246V67.4545H164.972ZM166.22 61.7273C166.22 62.1875 166.287 62.5909 166.421 62.9375C166.554 63.2841 166.747 63.5554 167 63.7514C167.253 63.9446 167.563 64.0412 167.929 64.0412C168.31 64.0412 168.628 63.9403 168.884 63.7386C169.139 63.5341 169.333 63.2571 169.463 62.9077C169.597 62.5582 169.664 62.1648 169.664 61.7273C169.664 61.2955 169.598 60.9077 169.468 60.5639C169.34 60.2202 169.146 59.9489 168.888 59.75C168.632 59.5511 168.313 59.4517 167.929 59.4517C167.56 59.4517 167.247 59.5469 166.992 59.7372C166.739 59.9276 166.547 60.1932 166.416 60.5341C166.286 60.875 166.22 61.2727 166.22 61.7273ZM173.093 67.4545C172.902 67.4545 172.729 67.4389 172.573 67.4077C172.417 67.3793 172.3 67.348 172.223 67.3139L172.53 66.2699C172.763 66.3324 172.971 66.3594 173.152 66.3509C173.334 66.3423 173.495 66.2741 173.634 66.1463C173.776 66.0185 173.901 65.8097 174.009 65.5199L174.167 65.0852L171.772 58.4545H173.135L174.793 63.5341H174.861L176.519 58.4545H177.887L175.189 65.8736C175.064 66.2145 174.905 66.5028 174.712 66.7386C174.519 66.9773 174.289 67.1563 174.022 67.2756C173.755 67.3949 173.445 67.4545 173.093 67.4545ZM178.478 57.4062V56.2727H185.232V57.4062H182.509V65H181.197V57.4062H178.478ZM186.755 65V58.4545H188.029V65H186.755ZM187.398 57.4446C187.176 57.4446 186.986 57.3707 186.827 57.223C186.671 57.0724 186.593 56.8935 186.593 56.6861C186.593 56.4759 186.671 56.2969 186.827 56.1491C186.986 55.9986 187.176 55.9233 187.398 55.9233C187.62 55.9233 187.808 55.9986 187.965 56.1491C188.124 56.2969 188.203 56.4759 188.203 56.6861C188.203 56.8935 188.124 57.0724 187.965 57.223C187.808 57.3707 187.62 57.4446 187.398 57.4446ZM189.875 65V58.4545H191.098V59.5199H191.179C191.315 59.1591 191.538 58.8778 191.848 58.6761C192.157 58.4716 192.528 58.3693 192.96 58.3693C193.398 58.3693 193.764 58.4716 194.059 58.6761C194.358 58.8807 194.578 59.1619 194.72 59.5199H194.788C194.944 59.1705 195.193 58.892 195.534 58.6847C195.875 58.4744 196.281 58.3693 196.753 58.3693C197.346 58.3693 197.831 58.5554 198.206 58.9276C198.584 59.2997 198.773 59.8608 198.773 60.6108V65H197.498V60.7301C197.498 60.2869 197.378 59.9659 197.136 59.767C196.895 59.5682 196.606 59.4688 196.271 59.4688C195.856 59.4688 195.534 59.5966 195.304 59.8523C195.074 60.1051 194.959 60.4304 194.959 60.8281V65H193.689V60.6491C193.689 60.294 193.578 60.0085 193.356 59.7926C193.135 59.5767 192.846 59.4688 192.491 59.4688C192.25 59.4688 192.027 59.5327 191.822 59.6605C191.621 59.7855 191.457 59.9602 191.332 60.1847C191.21 60.4091 191.149 60.669 191.149 60.9645V65H189.875ZM203.433 65.1321C202.788 65.1321 202.233 64.9943 201.767 64.7188C201.304 64.4403 200.946 64.0497 200.693 63.5469C200.443 63.0412 200.318 62.4489 200.318 61.7699C200.318 61.0994 200.443 60.5085 200.693 59.9972C200.946 59.4858 201.298 59.0866 201.75 58.7997C202.205 58.5128 202.736 58.3693 203.344 58.3693C203.713 58.3693 204.071 58.4304 204.418 58.5526C204.764 58.6747 205.075 58.8665 205.351 59.1278C205.626 59.3892 205.844 59.7287 206.003 60.1463C206.162 60.5611 206.242 61.0653 206.242 61.6591V62.1108H201.038V61.1562H204.993C204.993 60.821 204.925 60.5241 204.788 60.2656C204.652 60.0043 204.46 59.7983 204.213 59.6477C203.969 59.4972 203.682 59.4219 203.352 59.4219C202.994 59.4219 202.682 59.5099 202.415 59.6861C202.151 59.8594 201.946 60.0866 201.801 60.3679C201.659 60.6463 201.588 60.9489 201.588 61.2756V62.0213C201.588 62.4588 201.665 62.831 201.818 63.1378C201.974 63.4446 202.192 63.679 202.47 63.8409C202.749 64 203.074 64.0795 203.446 64.0795C203.688 64.0795 203.908 64.0455 204.107 63.9773C204.305 63.9062 204.477 63.8011 204.622 63.6619C204.767 63.5227 204.878 63.3509 204.955 63.1463L206.161 63.3636C206.064 63.7187 205.891 64.0298 205.641 64.2969C205.394 64.5611 205.082 64.767 204.707 64.9148C204.335 65.0597 203.911 65.1321 203.433 65.1321ZM208.627 65.081C208.394 65.081 208.193 64.9986 208.026 64.8338C207.858 64.6662 207.774 64.4645 207.774 64.2287C207.774 63.9957 207.858 63.7969 208.026 63.6321C208.193 63.4645 208.394 63.3807 208.627 63.3807C208.86 63.3807 209.06 63.4645 209.228 63.6321C209.395 63.7969 209.479 63.9957 209.479 64.2287C209.479 64.3849 209.439 64.5284 209.36 64.6591C209.283 64.7869 209.181 64.8892 209.053 64.9659C208.925 65.0426 208.783 65.081 208.627 65.081ZM216.917 58.4545L214.544 65H213.18L210.802 58.4545H212.17L213.828 63.4915H213.896L215.549 58.4545H216.917ZM219.521 61.1136V65H218.247V58.4545H219.47V59.5199H219.551C219.701 59.1733 219.937 58.8949 220.258 58.6847C220.582 58.4744 220.989 58.3693 221.481 58.3693C221.927 58.3693 222.318 58.4631 222.653 58.6506C222.988 58.8352 223.248 59.1108 223.433 59.4773C223.617 59.8437 223.71 60.2969 223.71 60.8366V65H222.435V60.9901C222.435 60.5156 222.312 60.1449 222.065 59.8778C221.818 59.608 221.478 59.473 221.046 59.473C220.751 59.473 220.488 59.5369 220.258 59.6648C220.031 59.7926 219.85 59.9801 219.717 60.2273C219.586 60.4716 219.521 60.767 219.521 61.1136Z" fill="white"/>
<defs>
<linearGradient id="paint0_linear_12630_18045" x1="0.500002" y1="42.5657" x2="279" y2="42.5657" gradientUnits="userSpaceOnUse">
<stop stop-color="#EE7004"/>
<stop offset="1" stop-color="#FF9438"/>
</linearGradient>
<linearGradient id="paint1_linear_12630_18045" x1="36.6186" y1="44.3046" x2="48.6926" y2="28.0871" gradientUnits="userSpaceOnUse">
<stop stop-color="#FF9F0F"/>
<stop offset="1" stop-color="#FF7A0F"/>
</linearGradient>
<linearGradient id="paint2_linear_12630_18045" x1="31.5745" y1="54.3918" x2="43.6487" y2="38.1748" gradientUnits="userSpaceOnUse">
<stop stop-color="#FF9F0F"/>
<stop offset="1" stop-color="#FF7A0F"/>
</linearGradient>
<linearGradient id="paint3_linear_12630_18045" x1="41.6752" y1="38.7869" x2="43.3243" y2="37.1257" gradientUnits="userSpaceOnUse">
<stop stop-color="#FF9F0F"/>
<stop offset="1" stop-color="#FF7A0F"/>
</linearGradient>
<linearGradient id="paint4_linear_12630_18045" x1="41.6752" y1="48.8743" x2="43.3243" y2="47.2131" gradientUnits="userSpaceOnUse">
<stop stop-color="#FF9F0F"/>
<stop offset="1" stop-color="#FF7A0F"/>
</linearGradient>
<linearGradient id="paint5_linear_12630_18045" x1="46.7182" y1="43.8306" x2="48.3673" y2="42.1694" gradientUnits="userSpaceOnUse">
<stop stop-color="#FF9F0F"/>
<stop offset="1" stop-color="#FF7A0F"/>
</linearGradient>
<linearGradient id="paint6_linear_12630_18045" x1="36.6313" y1="43.8306" x2="38.2804" y2="42.1694" gradientUnits="userSpaceOnUse">
<stop stop-color="#FF9F0F"/>
<stop offset="1" stop-color="#FF7A0F"/>
</linearGradient>
<clipPath id="clip0_12630_18045">
<rect width="36" height="36" fill="white" transform="translate(24.5 25)"/>
</clipPath>
</defs>
</svg>
