<svg width="279" height="86" viewBox="0 0 279 86" fill="none" xmlns="http://www.w3.org/2000/svg">
<rect x="0.5" width="278.5" height="86" rx="8" fill="url(#paint0_linear_12630_18078)"/>
<g clip-path="url(#clip0_12630_18078)">
<path d="M61.0551 25.0581H43.9696C38.7764 25.0581 34.5664 29.2681 34.5664 34.4613V51.5435C34.5664 56.7367 38.7764 60.9467 43.9696 60.9467H61.0551C66.2484 60.9467 70.4583 56.7367 70.4583 51.5435V34.4613C70.4583 29.2681 66.2484 25.0581 61.0551 25.0581Z" fill="white"/>
<path d="M64.456 45.6356V49.0028L61.0389 51.1728V47.1322L62.0366 46.492L62.5687 46.1594L64.1401 45.1534L64.456 45.6356Z" fill="#04B14E"/>
<path d="M50.8043 29.3816V39.3252L47.3955 37.147V31.5599L50.8043 29.3816Z" fill="#04B14E"/>
<path d="M64.0985 43.7566L62.5687 46.1594L62.2611 46.6333L62.0366 46.492L61.0389 45.8518L50.8043 39.3252L47.3955 37.147V33.098L50.8043 35.2763L54.2214 37.4546L61.0389 41.8112L64.0985 43.7566Z" fill="#04B14E"/>
<path d="M64.456 35.9165V49.0028L61.0389 51.1728V33.7382L64.456 35.9165Z" fill="#04B14E"/>
<path d="M57.6301 39.6329V43.6818L54.2214 41.5035V37.4546L57.6301 39.6329Z" fill="#04B14E"/>
<path d="M57.6293 47.7223V51.7713L55.7005 50.5408L54.2206 49.593L53.6303 49.2189L53.4557 49.1108L52.8903 48.745L50.2132 47.0406L43.9859 43.0664L40.8765 41.0794L42.7139 38.211L43.9859 39.0175L53.6303 45.1699L54.2206 45.544L57.6293 47.7223Z" fill="#04B14E"/>
<path d="M55.5342 54.4983L55.3263 54.8226L54.2206 55.5293L52.5162 56.6184L49.3402 54.5898L40.5771 48.9944V44.9454L52.5162 52.5694L54.2206 53.6503L55.5342 54.4983Z" fill="#04B14E"/>
<path d="M57.6293 49.3103V53.351L55.3263 54.8226L54.2206 55.5293L52.5162 56.6184L49.3402 54.5898L52.5162 52.5694L54.2206 51.4803L55.7005 50.5408L57.6293 49.3103Z" fill="#04B14E"/>
<path d="M53.6303 45.1699V49.2189L53.4557 49.1108L52.8903 48.745L43.9859 43.0664L40.5771 40.8882V36.8392L42.7139 38.211L43.9859 39.0175L53.6303 45.1699Z" fill="#04B14E"/>
<path d="M57.6293 47.7223L57.6293 53.351L55.3263 54.8226L54.2206 55.5293V45.544L57.6293 47.7223Z" fill="#04B14E"/>
<path d="M43.9859 33.738L43.9859 43.0664L40.5771 40.8882V35.908L43.9859 33.738Z" fill="#04B14E"/>
<path d="M40.5771 44.9454L43.9859 47.1237V51.1727L40.5771 48.9944V44.9454Z" fill="#04B14E"/>
</g>
<path d="M106.219 22.5653C106.173 22.1619 105.986 21.8494 105.656 21.6278C105.327 21.4034 104.912 21.2912 104.412 21.2912C104.054 21.2912 103.744 21.348 103.483 21.4616C103.222 21.5724 103.018 21.7259 102.874 21.9219C102.732 22.1151 102.661 22.3352 102.661 22.5824C102.661 22.7898 102.709 22.9687 102.805 23.1193C102.905 23.2699 103.034 23.3963 103.193 23.4986C103.355 23.598 103.528 23.6818 103.713 23.75C103.898 23.8153 104.075 23.8693 104.246 23.9119L105.098 24.1335C105.376 24.2017 105.662 24.294 105.955 24.4105C106.247 24.527 106.518 24.6804 106.768 24.8707C107.018 25.0611 107.22 25.2969 107.374 25.5781C107.53 25.8594 107.608 26.196 107.608 26.5881C107.608 27.0824 107.48 27.5213 107.224 27.9048C106.972 28.2884 106.604 28.5909 106.121 28.8125C105.641 29.0341 105.06 29.1449 104.378 29.1449C103.724 29.1449 103.159 29.0412 102.682 28.8338C102.205 28.6264 101.831 28.3324 101.561 27.9517C101.291 27.5682 101.142 27.1136 101.114 26.5881H102.435C102.46 26.9034 102.563 27.1662 102.741 27.3764C102.923 27.5838 103.155 27.7386 103.436 27.8409C103.72 27.9403 104.031 27.9901 104.369 27.9901C104.741 27.9901 105.072 27.9318 105.362 27.8153C105.655 27.696 105.885 27.5312 106.053 27.321C106.22 27.108 106.304 26.8594 106.304 26.5753C106.304 26.3168 106.23 26.1051 106.082 25.9403C105.938 25.7756 105.74 25.6392 105.49 25.5312C105.243 25.4233 104.963 25.3281 104.651 25.2457L103.619 24.9645C102.92 24.7741 102.366 24.4943 101.957 24.125C101.551 23.7557 101.348 23.267 101.348 22.6591C101.348 22.1562 101.484 21.7173 101.757 21.3423C102.03 20.9673 102.399 20.6761 102.865 20.4688C103.331 20.2585 103.857 20.1534 104.442 20.1534C105.033 20.1534 105.554 20.2571 106.006 20.4645C106.46 20.6719 106.818 20.9574 107.08 21.321C107.341 21.6818 107.477 22.0966 107.489 22.5653H106.219ZM111.968 29.1321C111.355 29.1321 110.819 28.9915 110.362 28.7102C109.904 28.429 109.549 28.0355 109.296 27.5298C109.044 27.0241 108.917 26.4332 108.917 25.7571C108.917 25.0781 109.044 24.4844 109.296 23.9759C109.549 23.4673 109.904 23.0724 110.362 22.7912C110.819 22.5099 111.355 22.3693 111.968 22.3693C112.582 22.3693 113.117 22.5099 113.575 22.7912C114.032 23.0724 114.387 23.4673 114.64 23.9759C114.893 24.4844 115.019 25.0781 115.019 25.7571C115.019 26.4332 114.893 27.0241 114.64 27.5298C114.387 28.0355 114.032 28.429 113.575 28.7102C113.117 28.9915 112.582 29.1321 111.968 29.1321ZM111.973 28.0625C112.37 28.0625 112.7 27.9574 112.961 27.7472C113.223 27.5369 113.416 27.2571 113.541 26.9077C113.669 26.5582 113.732 26.1733 113.732 25.7528C113.732 25.3352 113.669 24.9517 113.541 24.6023C113.416 24.25 113.223 23.9673 112.961 23.7543C112.7 23.5412 112.37 23.4347 111.973 23.4347C111.572 23.4347 111.24 23.5412 110.975 23.7543C110.714 23.9673 110.519 24.25 110.392 24.6023C110.267 24.9517 110.204 25.3352 110.204 25.7528C110.204 26.1733 110.267 26.5582 110.392 26.9077C110.519 27.2571 110.714 27.5369 110.975 27.7472C111.24 27.9574 111.572 28.0625 111.973 28.0625ZM117.848 20.2727V29H116.574V20.2727H117.848ZM123.84 26.2855V22.4545H125.119V29H123.866V27.8665H123.798C123.647 28.2159 123.406 28.5071 123.073 28.7401C122.744 28.9702 122.333 29.0852 121.842 29.0852C121.421 29.0852 121.049 28.9929 120.725 28.8082C120.404 28.6207 120.151 28.3438 119.967 27.9773C119.785 27.6108 119.694 27.1577 119.694 26.6179V22.4545H120.968V26.4645C120.968 26.9105 121.092 27.2656 121.339 27.5298C121.586 27.794 121.907 27.9261 122.302 27.9261C122.541 27.9261 122.778 27.8665 123.014 27.7472C123.252 27.6278 123.45 27.4474 123.606 27.206C123.765 26.9645 123.843 26.6577 123.84 26.2855ZM130.018 22.4545V23.4773H126.443V22.4545H130.018ZM127.402 20.8864H128.676V27.0781C128.676 27.3253 128.713 27.5114 128.787 27.6364C128.86 27.7585 128.956 27.8423 129.072 27.8878C129.191 27.9304 129.321 27.9517 129.46 27.9517C129.562 27.9517 129.652 27.9446 129.728 27.9304C129.805 27.9162 129.865 27.9048 129.907 27.8963L130.137 28.9489C130.064 28.9773 129.958 29.0057 129.822 29.0341C129.686 29.0653 129.515 29.0824 129.311 29.0852C128.975 29.0909 128.663 29.0312 128.373 28.9062C128.083 28.7812 127.849 28.5881 127.67 28.3267C127.491 28.0653 127.402 27.7372 127.402 27.3423V20.8864ZM131.56 29V22.4545H132.834V29H131.56ZM132.203 21.4446C131.981 21.4446 131.791 21.3707 131.632 21.223C131.476 21.0724 131.398 20.8935 131.398 20.6861C131.398 20.4759 131.476 20.2969 131.632 20.1491C131.791 19.9986 131.981 19.9233 132.203 19.9233C132.425 19.9233 132.613 19.9986 132.77 20.1491C132.929 20.2969 133.008 20.4759 133.008 20.6861C133.008 20.8935 132.929 21.0724 132.77 21.223C132.613 21.3707 132.425 21.4446 132.203 21.4446ZM137.437 29.1321C136.823 29.1321 136.288 28.9915 135.83 28.7102C135.373 28.429 135.018 28.0355 134.765 27.5298C134.512 27.0241 134.386 26.4332 134.386 25.7571C134.386 25.0781 134.512 24.4844 134.765 23.9759C135.018 23.4673 135.373 23.0724 135.83 22.7912C136.288 22.5099 136.823 22.3693 137.437 22.3693C138.051 22.3693 138.586 22.5099 139.043 22.7912C139.501 23.0724 139.856 23.4673 140.109 23.9759C140.362 24.4844 140.488 25.0781 140.488 25.7571C140.488 26.4332 140.362 27.0241 140.109 27.5298C139.856 28.0355 139.501 28.429 139.043 28.7102C138.586 28.9915 138.051 29.1321 137.437 29.1321ZM137.441 28.0625C137.839 28.0625 138.168 27.9574 138.43 27.7472C138.691 27.5369 138.884 27.2571 139.009 26.9077C139.137 26.5582 139.201 26.1733 139.201 25.7528C139.201 25.3352 139.137 24.9517 139.009 24.6023C138.884 24.25 138.691 23.9673 138.43 23.7543C138.168 23.5412 137.839 23.4347 137.441 23.4347C137.041 23.4347 136.708 23.5412 136.444 23.7543C136.183 23.9673 135.988 24.25 135.86 24.6023C135.735 24.9517 135.673 25.3352 135.673 25.7528C135.673 26.1733 135.735 26.5582 135.86 26.9077C135.988 27.2571 136.183 27.5369 136.444 27.7472C136.708 27.9574 137.041 28.0625 137.441 28.0625ZM143.316 25.1136V29H142.042V22.4545H143.265V23.5199H143.346C143.497 23.1733 143.733 22.8949 144.054 22.6847C144.377 22.4744 144.785 22.3693 145.277 22.3693C145.723 22.3693 146.113 22.4631 146.449 22.6506C146.784 22.8352 147.044 23.1108 147.228 23.4773C147.413 23.8437 147.505 24.2969 147.505 24.8366V29H146.231V24.9901C146.231 24.5156 146.108 24.1449 145.86 23.8778C145.613 23.608 145.274 23.473 144.842 23.473C144.547 23.473 144.284 23.5369 144.054 23.6648C143.826 23.7926 143.646 23.9801 143.512 24.2273C143.382 24.4716 143.316 24.767 143.316 25.1136ZM155.769 22.4545V23.4773H152.07V22.4545H155.769ZM153.084 29V21.696C153.084 21.2869 153.174 20.9474 153.353 20.6776C153.532 20.4048 153.769 20.2017 154.064 20.0682C154.36 19.9318 154.681 19.8636 155.027 19.8636C155.283 19.8636 155.502 19.8849 155.684 19.9276C155.866 19.9673 156 20.0043 156.089 20.0384L155.79 21.0696C155.731 21.0526 155.654 21.0327 155.56 21.0099C155.466 20.9844 155.353 20.9716 155.219 20.9716C154.91 20.9716 154.688 21.0483 154.554 21.2017C154.424 21.3551 154.358 21.5767 154.358 21.8665V29H153.084ZM159.715 29.1321C159.101 29.1321 158.566 28.9915 158.108 28.7102C157.651 28.429 157.296 28.0355 157.043 27.5298C156.79 27.0241 156.664 26.4332 156.664 25.7571C156.664 25.0781 156.79 24.4844 157.043 23.9759C157.296 23.4673 157.651 23.0724 158.108 22.7912C158.566 22.5099 159.101 22.3693 159.715 22.3693C160.329 22.3693 160.864 22.5099 161.321 22.7912C161.779 23.0724 162.134 23.4673 162.387 23.9759C162.64 24.4844 162.766 25.0781 162.766 25.7571C162.766 26.4332 162.64 27.0241 162.387 27.5298C162.134 28.0355 161.779 28.429 161.321 28.7102C160.864 28.9915 160.329 29.1321 159.715 29.1321ZM159.719 28.0625C160.117 28.0625 160.446 27.9574 160.708 27.7472C160.969 27.5369 161.162 27.2571 161.287 26.9077C161.415 26.5582 161.479 26.1733 161.479 25.7528C161.479 25.3352 161.415 24.9517 161.287 24.6023C161.162 24.25 160.969 23.9673 160.708 23.7543C160.446 23.5412 160.117 23.4347 159.719 23.4347C159.319 23.4347 158.986 23.5412 158.722 23.7543C158.461 23.9673 158.266 24.25 158.138 24.6023C158.013 24.9517 157.951 25.3352 157.951 25.7528C157.951 26.1733 158.013 26.5582 158.138 26.9077C158.266 27.2571 158.461 27.5369 158.722 27.7472C158.986 27.9574 159.319 28.0625 159.719 28.0625ZM164.32 29V22.4545H165.552V23.4943H165.62C165.739 23.142 165.95 22.8651 166.251 22.6634C166.555 22.4588 166.898 22.3565 167.282 22.3565C167.361 22.3565 167.455 22.3594 167.563 22.3651C167.674 22.3707 167.761 22.3778 167.823 22.3864V23.6051C167.772 23.5909 167.681 23.5753 167.55 23.5582C167.42 23.5384 167.289 23.5284 167.158 23.5284C166.857 23.5284 166.589 23.5923 166.353 23.7202C166.12 23.8452 165.935 24.0199 165.799 24.2443C165.663 24.4659 165.594 24.7187 165.594 25.0028V29H164.32ZM173.64 25.1136V29H172.366V20.2727H173.623V23.5199H173.704C173.857 23.1676 174.091 22.8878 174.407 22.6804C174.722 22.473 175.134 22.3693 175.642 22.3693C176.091 22.3693 176.483 22.4616 176.819 22.6463C177.157 22.831 177.418 23.1065 177.603 23.473C177.79 23.8366 177.884 24.2912 177.884 24.8366V29H176.61V24.9901C176.61 24.5099 176.486 24.1378 176.239 23.8736C175.992 23.6065 175.648 23.473 175.208 23.473C174.907 23.473 174.637 23.5369 174.398 23.6648C174.162 23.7926 173.976 23.9801 173.84 24.2273C173.706 24.4716 173.64 24.767 173.64 25.1136ZM179.716 29V22.4545H180.99V29H179.716ZM180.36 21.4446C180.138 21.4446 179.948 21.3707 179.789 21.223C179.632 21.0724 179.554 20.8935 179.554 20.6861C179.554 20.4759 179.632 20.2969 179.789 20.1491C179.948 19.9986 180.138 19.9233 180.36 19.9233C180.581 19.9233 180.77 19.9986 180.926 20.1491C181.086 20.2969 181.165 20.4759 181.165 20.6861C181.165 20.8935 181.086 21.0724 180.926 21.223C180.77 21.3707 180.581 21.4446 180.36 21.4446ZM185.581 31.5909C185.061 31.5909 184.614 31.5227 184.239 31.3864C183.866 31.25 183.562 31.0696 183.327 30.8452C183.091 30.6207 182.915 30.375 182.798 30.108L183.893 29.6562C183.97 29.7812 184.072 29.9134 184.2 30.0526C184.331 30.1946 184.507 30.3153 184.729 30.4148C184.953 30.5142 185.241 30.5639 185.594 30.5639C186.077 30.5639 186.476 30.446 186.791 30.2102C187.106 29.9773 187.264 29.6051 187.264 29.0938V27.8068H187.183C187.106 27.946 186.996 28.1009 186.851 28.2713C186.709 28.4418 186.513 28.5895 186.263 28.7145C186.013 28.8395 185.687 28.902 185.287 28.902C184.77 28.902 184.304 28.7812 183.889 28.5398C183.477 28.2955 183.15 27.9361 182.909 27.4616C182.67 26.9844 182.551 26.3977 182.551 25.7017C182.551 25.0057 182.669 24.4091 182.905 23.9119C183.143 23.4148 183.47 23.0341 183.885 22.7699C184.3 22.5028 184.77 22.3693 185.295 22.3693C185.702 22.3693 186.03 22.4375 186.28 22.5739C186.53 22.7074 186.724 22.8636 186.864 23.0426C187.006 23.2216 187.115 23.3793 187.192 23.5156H187.285V22.4545H188.534V29.1449C188.534 29.7074 188.403 30.169 188.142 30.5298C187.881 30.8906 187.527 31.1577 187.081 31.331C186.638 31.5043 186.138 31.5909 185.581 31.5909ZM185.568 27.8452C185.935 27.8452 186.244 27.7599 186.497 27.5895C186.753 27.4162 186.946 27.169 187.077 26.848C187.21 26.5241 187.277 26.1364 187.277 25.6847C187.277 25.2443 187.212 24.8565 187.081 24.5213C186.95 24.1861 186.758 23.9247 186.506 23.7372C186.253 23.5469 185.94 23.4517 185.568 23.4517C185.185 23.4517 184.865 23.5511 184.609 23.75C184.354 23.946 184.16 24.2131 184.03 24.5511C183.902 24.8892 183.838 25.267 183.838 25.6847C183.838 26.1136 183.903 26.4901 184.034 26.8139C184.165 27.1378 184.358 27.3906 184.614 27.5724C184.872 27.7543 185.19 27.8452 185.568 27.8452ZM191.649 25.1136V29H190.375V20.2727H191.632V23.5199H191.713C191.866 23.1676 192.101 22.8878 192.416 22.6804C192.731 22.473 193.143 22.3693 193.652 22.3693C194.101 22.3693 194.493 22.4616 194.828 22.6463C195.166 22.831 195.427 23.1065 195.612 23.473C195.799 23.8366 195.893 24.2912 195.893 24.8366V29H194.619V24.9901C194.619 24.5099 194.496 24.1378 194.248 23.8736C194.001 23.6065 193.657 23.473 193.217 23.473C192.916 23.473 192.646 23.5369 192.407 23.6648C192.172 23.7926 191.986 23.9801 191.849 24.2273C191.716 24.4716 191.649 24.767 191.649 25.1136ZM101.357 49.4545V40.4545H102.601V41.5156H102.707C102.781 41.3793 102.888 41.2216 103.027 41.0426C103.166 40.8636 103.359 40.7074 103.607 40.5739C103.854 40.4375 104.18 40.3693 104.587 40.3693C105.115 40.3693 105.587 40.5028 106.001 40.7699C106.416 41.0369 106.741 41.4219 106.977 41.9247C107.216 42.4276 107.335 43.0327 107.335 43.7401C107.335 44.4474 107.217 45.054 106.982 45.5597C106.746 46.0625 106.422 46.4503 106.01 46.723C105.598 46.9929 105.128 47.1278 104.599 47.1278C104.202 47.1278 103.876 47.0611 103.624 46.9276C103.374 46.794 103.178 46.6378 103.036 46.4588C102.893 46.2798 102.784 46.1207 102.707 45.9815H102.631V49.4545H101.357ZM102.605 43.7273C102.605 44.1875 102.672 44.5909 102.805 44.9375C102.939 45.2841 103.132 45.5554 103.385 45.7514C103.638 45.9446 103.947 46.0412 104.314 46.0412C104.695 46.0412 105.013 45.9403 105.268 45.7386C105.524 45.5341 105.717 45.2571 105.848 44.9077C105.982 44.5582 106.048 44.1648 106.048 43.7273C106.048 43.2955 105.983 42.9077 105.852 42.5639C105.724 42.2202 105.531 41.9489 105.273 41.75C105.017 41.5511 104.697 41.4517 104.314 41.4517C103.945 41.4517 103.632 41.5469 103.376 41.7372C103.124 41.9276 102.932 42.1932 102.801 42.5341C102.67 42.875 102.605 43.2727 102.605 43.7273ZM111.716 47.1321C111.071 47.1321 110.516 46.9943 110.05 46.7188C109.587 46.4403 109.229 46.0497 108.976 45.5469C108.726 45.0412 108.601 44.4489 108.601 43.7699C108.601 43.0994 108.726 42.5085 108.976 41.9972C109.229 41.4858 109.581 41.0866 110.033 40.7997C110.487 40.5128 111.018 40.3693 111.626 40.3693C111.996 40.3693 112.354 40.4304 112.7 40.5526C113.047 40.6747 113.358 40.8665 113.633 41.1278C113.909 41.3892 114.126 41.7287 114.285 42.1463C114.445 42.5611 114.524 43.0653 114.524 43.6591V44.1108H109.321V43.1562H113.275C113.275 42.821 113.207 42.5241 113.071 42.2656C112.935 42.0043 112.743 41.7983 112.496 41.6477C112.251 41.4972 111.964 41.4219 111.635 41.4219C111.277 41.4219 110.964 41.5099 110.697 41.6861C110.433 41.8594 110.229 42.0866 110.084 42.3679C109.942 42.6463 109.871 42.9489 109.871 43.2756V44.0213C109.871 44.4588 109.947 44.831 110.101 45.1378C110.257 45.4446 110.474 45.679 110.753 45.8409C111.031 46 111.356 46.0795 111.729 46.0795C111.97 46.0795 112.19 46.0455 112.389 45.9773C112.588 45.9062 112.76 45.8011 112.905 45.6619C113.05 45.5227 113.16 45.3509 113.237 45.1463L114.443 45.3636C114.346 45.7187 114.173 46.0298 113.923 46.2969C113.676 46.5611 113.365 46.767 112.99 46.9148C112.618 47.0597 112.193 47.1321 111.716 47.1321ZM116.07 47V40.4545H117.301V41.4943H117.369C117.489 41.142 117.699 40.8651 118 40.6634C118.304 40.4588 118.648 40.3565 119.031 40.3565C119.111 40.3565 119.205 40.3594 119.313 40.3651C119.423 40.3707 119.51 40.3778 119.573 40.3864V41.6051C119.521 41.5909 119.431 41.5753 119.3 41.5582C119.169 41.5384 119.039 41.5284 118.908 41.5284C118.607 41.5284 118.338 41.5923 118.102 41.7202C117.869 41.8452 117.685 42.0199 117.548 42.2443C117.412 42.4659 117.344 42.7187 117.344 43.0028V47H116.07ZM124.309 40.4545V41.4773H120.61V40.4545H124.309ZM121.624 47V39.696C121.624 39.2869 121.714 38.9474 121.893 38.6776C122.072 38.4048 122.309 38.2017 122.604 38.0682C122.9 37.9318 123.221 37.8636 123.568 37.8636C123.823 37.8636 124.042 37.8849 124.224 37.9276C124.406 37.9673 124.541 38.0043 124.629 38.0384L124.33 39.0696C124.271 39.0526 124.194 39.0327 124.1 39.0099C124.006 38.9844 123.893 38.9716 123.759 38.9716C123.45 38.9716 123.228 39.0483 123.095 39.2017C122.964 39.3551 122.898 39.5767 122.898 39.8665V47H121.624ZM128.255 47.1321C127.641 47.1321 127.106 46.9915 126.648 46.7102C126.191 46.429 125.836 46.0355 125.583 45.5298C125.33 45.0241 125.204 44.4332 125.204 43.7571C125.204 43.0781 125.33 42.4844 125.583 41.9759C125.836 41.4673 126.191 41.0724 126.648 40.7912C127.106 40.5099 127.641 40.3693 128.255 40.3693C128.869 40.3693 129.404 40.5099 129.861 40.7912C130.319 41.0724 130.674 41.4673 130.927 41.9759C131.18 42.4844 131.306 43.0781 131.306 43.7571C131.306 44.4332 131.18 45.0241 130.927 45.5298C130.674 46.0355 130.319 46.429 129.861 46.7102C129.404 46.9915 128.869 47.1321 128.255 47.1321ZM128.259 46.0625C128.657 46.0625 128.986 45.9574 129.248 45.7472C129.509 45.5369 129.702 45.2571 129.827 44.9077C129.955 44.5582 130.019 44.1733 130.019 43.7528C130.019 43.3352 129.955 42.9517 129.827 42.6023C129.702 42.25 129.509 41.9673 129.248 41.7543C128.986 41.5412 128.657 41.4347 128.259 41.4347C127.859 41.4347 127.526 41.5412 127.262 41.7543C127.001 41.9673 126.806 42.25 126.678 42.6023C126.553 42.9517 126.491 43.3352 126.491 43.7528C126.491 44.1733 126.553 44.5582 126.678 44.9077C126.806 45.2571 127.001 45.5369 127.262 45.7472C127.526 45.9574 127.859 46.0625 128.259 46.0625ZM132.86 47V40.4545H134.092V41.4943H134.16C134.279 41.142 134.49 40.8651 134.791 40.6634C135.095 40.4588 135.438 40.3565 135.822 40.3565C135.901 40.3565 135.995 40.3594 136.103 40.3651C136.214 40.3707 136.301 40.3778 136.363 40.3864V41.6051C136.312 41.5909 136.221 41.5753 136.09 41.5582C135.96 41.5384 135.829 41.5284 135.698 41.5284C135.397 41.5284 135.129 41.5923 134.893 41.7202C134.66 41.8452 134.475 42.0199 134.339 42.2443C134.203 42.4659 134.134 42.7187 134.134 43.0028V47H132.86ZM137.598 47V40.4545H138.821V41.5199H138.902C139.038 41.1591 139.261 40.8778 139.571 40.6761C139.88 40.4716 140.251 40.3693 140.683 40.3693C141.12 40.3693 141.487 40.4716 141.782 40.6761C142.081 40.8807 142.301 41.1619 142.443 41.5199H142.511C142.667 41.1705 142.916 40.892 143.257 40.6847C143.598 40.4744 144.004 40.3693 144.476 40.3693C145.069 40.3693 145.554 40.5554 145.929 40.9276C146.307 41.2997 146.495 41.8608 146.495 42.6108V47H145.221V42.7301C145.221 42.2869 145.101 41.9659 144.859 41.767C144.618 41.5682 144.329 41.4688 143.994 41.4688C143.579 41.4688 143.257 41.5966 143.027 41.8523C142.797 42.1051 142.682 42.4304 142.682 42.8281V47H141.412V42.6491C141.412 42.294 141.301 42.0085 141.079 41.7926C140.858 41.5767 140.569 41.4688 140.214 41.4688C139.973 41.4688 139.75 41.5327 139.545 41.6605C139.343 41.7855 139.18 41.9602 139.055 42.1847C138.933 42.4091 138.872 42.669 138.872 42.9645V47H137.598ZM150.24 47.1449C149.825 47.1449 149.45 47.0682 149.115 46.9148C148.78 46.7585 148.514 46.5327 148.318 46.2372C148.125 45.9418 148.028 45.5795 148.028 45.1506C148.028 44.7812 148.099 44.4773 148.241 44.2386C148.384 44 148.575 43.8111 148.817 43.6719C149.058 43.5327 149.328 43.4276 149.626 43.3565C149.925 43.2855 150.229 43.2315 150.538 43.1946C150.93 43.1491 151.249 43.1122 151.493 43.0838C151.737 43.0526 151.915 43.0028 152.026 42.9347C152.136 42.8665 152.192 42.7557 152.192 42.6023V42.5724C152.192 42.2003 152.087 41.9119 151.876 41.7074C151.669 41.5028 151.359 41.4006 150.947 41.4006C150.518 41.4006 150.18 41.4957 149.933 41.6861C149.689 41.8736 149.52 42.0824 149.426 42.3125L148.229 42.0398C148.371 41.642 148.578 41.321 148.851 41.0767C149.126 40.8295 149.443 40.6506 149.801 40.5398C150.159 40.4261 150.536 40.3693 150.93 40.3693C151.192 40.3693 151.469 40.4006 151.761 40.4631C152.057 40.5227 152.332 40.6335 152.588 40.7955C152.847 40.9574 153.058 41.1889 153.223 41.4901C153.388 41.7884 153.47 42.1761 153.47 42.6534V47H152.226V46.1051H152.175C152.092 46.2699 151.969 46.4318 151.804 46.5909C151.639 46.75 151.428 46.8821 151.169 46.9872C150.911 47.0923 150.601 47.1449 150.24 47.1449ZM150.517 46.1222C150.869 46.1222 151.17 46.0526 151.42 45.9134C151.673 45.7741 151.865 45.5923 151.996 45.3679C152.129 45.1406 152.196 44.8977 152.196 44.6392V43.7955C152.151 43.8409 152.062 43.8835 151.932 43.9233C151.804 43.9602 151.658 43.9929 151.493 44.0213C151.328 44.0469 151.168 44.071 151.011 44.0938C150.855 44.1136 150.724 44.1307 150.619 44.1449C150.372 44.1761 150.146 44.2287 149.942 44.3026C149.74 44.3764 149.578 44.483 149.456 44.6222C149.337 44.7585 149.277 44.9403 149.277 45.1676C149.277 45.483 149.393 45.7216 149.626 45.8835C149.859 46.0426 150.156 46.1222 150.517 46.1222ZM156.573 43.1136V47H155.299V40.4545H156.522V41.5199H156.603C156.754 41.1733 156.99 40.8949 157.311 40.6847C157.634 40.4744 158.042 40.3693 158.534 40.3693C158.98 40.3693 159.37 40.4631 159.706 40.6506C160.041 40.8352 160.301 41.1108 160.485 41.4773C160.67 41.8437 160.762 42.2969 160.762 42.8366V47H159.488V42.9901C159.488 42.5156 159.365 42.1449 159.117 41.8778C158.87 41.608 158.531 41.473 158.099 41.473C157.804 41.473 157.541 41.5369 157.311 41.6648C157.083 41.7926 156.903 41.9801 156.769 42.2273C156.639 42.4716 156.573 42.767 156.573 43.1136ZM165.36 47.1321C164.727 47.1321 164.181 46.9886 163.724 46.7017C163.269 46.4119 162.92 46.0128 162.676 45.5043C162.431 44.9957 162.309 44.4134 162.309 43.7571C162.309 43.0923 162.434 42.5057 162.684 41.9972C162.934 41.4858 163.286 41.0866 163.741 40.7997C164.195 40.5128 164.731 40.3693 165.347 40.3693C165.845 40.3693 166.288 40.4616 166.677 40.6463C167.066 40.8281 167.38 41.0838 167.619 41.4134C167.86 41.7429 168.004 42.1278 168.049 42.5682H166.809C166.741 42.2614 166.585 41.9972 166.34 41.7756C166.099 41.554 165.775 41.4432 165.369 41.4432C165.014 41.4432 164.703 41.5369 164.436 41.7244C164.171 41.9091 163.965 42.1733 163.818 42.517C163.67 42.858 163.596 43.2614 163.596 43.7273C163.596 44.2045 163.668 44.6165 163.813 44.9631C163.958 45.3097 164.163 45.5781 164.427 45.7685C164.694 45.9588 165.008 46.054 165.369 46.054C165.61 46.054 165.829 46.0099 166.025 45.9219C166.224 45.831 166.39 45.7017 166.524 45.5341C166.66 45.3665 166.755 45.1648 166.809 44.929H168.049C168.004 45.3523 167.866 45.7301 167.636 46.0625C167.406 46.3949 167.097 46.6562 166.711 46.8466C166.328 47.0369 165.877 47.1321 165.36 47.1321ZM172.365 47.1321C171.72 47.1321 171.164 46.9943 170.699 46.7188C170.235 46.4403 169.878 46.0497 169.625 45.5469C169.375 45.0412 169.25 44.4489 169.25 43.7699C169.25 43.0994 169.375 42.5085 169.625 41.9972C169.878 41.4858 170.23 41.0866 170.682 40.7997C171.136 40.5128 171.667 40.3693 172.275 40.3693C172.645 40.3693 173.003 40.4304 173.349 40.5526C173.696 40.6747 174.007 40.8665 174.282 41.1278C174.558 41.3892 174.775 41.7287 174.934 42.1463C175.093 42.5611 175.173 43.0653 175.173 43.6591V44.1108H169.97V43.1562H173.924C173.924 42.821 173.856 42.5241 173.72 42.2656C173.583 42.0043 173.392 41.7983 173.145 41.6477C172.9 41.4972 172.613 41.4219 172.284 41.4219C171.926 41.4219 171.613 41.5099 171.346 41.6861C171.082 41.8594 170.878 42.0866 170.733 42.3679C170.591 42.6463 170.52 42.9489 170.52 43.2756V44.0213C170.52 44.4588 170.596 44.831 170.75 45.1378C170.906 45.4446 171.123 45.679 171.402 45.8409C171.68 46 172.005 46.0795 172.378 46.0795C172.619 46.0795 172.839 46.0455 173.038 45.9773C173.237 45.9062 173.409 45.8011 173.554 45.6619C173.699 45.5227 173.809 45.3509 173.886 45.1463L175.092 45.3636C174.995 45.7187 174.822 46.0298 174.572 46.2969C174.325 46.5611 174.014 46.767 173.639 46.9148C173.267 47.0597 172.842 47.1321 172.365 47.1321ZM180.026 47V40.4545H181.258V41.4943H181.326C181.446 41.142 181.656 40.8651 181.957 40.6634C182.261 40.4588 182.605 40.3565 182.988 40.3565C183.068 40.3565 183.161 40.3594 183.269 40.3651C183.38 40.3707 183.467 40.3778 183.529 40.3864V41.6051C183.478 41.5909 183.387 41.5753 183.257 41.5582C183.126 41.5384 182.995 41.5284 182.865 41.5284C182.563 41.5284 182.295 41.5923 182.059 41.7202C181.826 41.8452 181.642 42.0199 181.505 42.2443C181.369 42.4659 181.301 42.7187 181.301 43.0028V47H180.026ZM187.351 47.1321C186.706 47.1321 186.15 46.9943 185.684 46.7188C185.221 46.4403 184.863 46.0497 184.611 45.5469C184.361 45.0412 184.236 44.4489 184.236 43.7699C184.236 43.0994 184.361 42.5085 184.611 41.9972C184.863 41.4858 185.216 41.0866 185.667 40.7997C186.122 40.5128 186.653 40.3693 187.261 40.3693C187.63 40.3693 187.988 40.4304 188.335 40.5526C188.682 40.6747 188.993 40.8665 189.268 41.1278C189.544 41.3892 189.761 41.7287 189.92 42.1463C190.079 42.5611 190.159 43.0653 190.159 43.6591V44.1108H184.956V43.1562H188.91C188.91 42.821 188.842 42.5241 188.706 42.2656C188.569 42.0043 188.378 41.7983 188.13 41.6477C187.886 41.4972 187.599 41.4219 187.27 41.4219C186.912 41.4219 186.599 41.5099 186.332 41.6861C186.068 41.8594 185.863 42.0866 185.718 42.3679C185.576 42.6463 185.505 42.9489 185.505 43.2756V44.0213C185.505 44.4588 185.582 44.831 185.736 45.1378C185.892 45.4446 186.109 45.679 186.388 45.8409C186.666 46 186.991 46.0795 187.363 46.0795C187.605 46.0795 187.825 46.0455 188.024 45.9773C188.223 45.9062 188.395 45.8011 188.54 45.6619C188.684 45.5227 188.795 45.3509 188.872 45.1463L190.078 45.3636C189.981 45.7187 189.808 46.0298 189.558 46.2969C189.311 46.5611 189 46.767 188.625 46.9148C188.253 47.0597 187.828 47.1321 187.351 47.1321ZM194.462 47.1321C193.828 47.1321 193.283 46.9886 192.825 46.7017C192.371 46.4119 192.021 46.0128 191.777 45.5043C191.533 44.9957 191.41 44.4134 191.41 43.7571C191.41 43.0923 191.535 42.5057 191.785 41.9972C192.035 41.4858 192.388 41.0866 192.842 40.7997C193.297 40.5128 193.832 40.3693 194.449 40.3693C194.946 40.3693 195.389 40.4616 195.778 40.6463C196.168 40.8281 196.482 41.0838 196.72 41.4134C196.962 41.7429 197.105 42.1278 197.151 42.5682H195.91C195.842 42.2614 195.686 41.9972 195.442 41.7756C195.2 41.554 194.876 41.4432 194.47 41.4432C194.115 41.4432 193.804 41.5369 193.537 41.7244C193.273 41.9091 193.067 42.1733 192.919 42.517C192.771 42.858 192.697 43.2614 192.697 43.7273C192.697 44.2045 192.77 44.6165 192.915 44.9631C193.06 45.3097 193.264 45.5781 193.528 45.7685C193.795 45.9588 194.109 46.054 194.47 46.054C194.712 46.054 194.93 46.0099 195.126 45.9219C195.325 45.831 195.491 45.7017 195.625 45.5341C195.761 45.3665 195.857 45.1648 195.91 44.929H197.151C197.105 45.3523 196.967 45.7301 196.737 46.0625C196.507 46.3949 196.199 46.6562 195.812 46.8466C195.429 47.0369 194.979 47.1321 194.462 47.1321ZM198.645 47V40.4545H199.877V41.4943H199.945C200.064 41.142 200.274 40.8651 200.576 40.6634C200.88 40.4588 201.223 40.3565 201.607 40.3565C201.686 40.3565 201.78 40.3594 201.888 40.3651C201.999 40.3707 202.085 40.3778 202.148 40.3864V41.6051C202.097 41.5909 202.006 41.5753 201.875 41.5582C201.745 41.5384 201.614 41.5284 201.483 41.5284C201.182 41.5284 200.914 41.5923 200.678 41.7202C200.445 41.8452 200.26 42.0199 200.124 42.2443C199.987 42.4659 199.919 42.7187 199.919 43.0028V47H198.645ZM207.529 44.2855V40.4545H208.807V47H207.554V45.8665H207.486C207.336 46.2159 207.094 46.5071 206.762 46.7401C206.432 46.9702 206.022 47.0852 205.53 47.0852C205.11 47.0852 204.738 46.9929 204.414 46.8082C204.093 46.6207 203.84 46.3438 203.655 45.9773C203.474 45.6108 203.383 45.1577 203.383 44.6179V40.4545H204.657V44.4645C204.657 44.9105 204.78 45.2656 205.027 45.5298C205.275 45.794 205.596 45.9261 205.991 45.9261C206.229 45.9261 206.466 45.8665 206.702 45.7472C206.941 45.6278 207.138 45.4474 207.295 45.206C207.454 44.9645 207.532 44.6577 207.529 44.2855ZM210.651 47V40.4545H211.925V47H210.651ZM211.295 39.4446C211.073 39.4446 210.883 39.3707 210.724 39.223C210.568 39.0724 210.489 38.8935 210.489 38.6861C210.489 38.4759 210.568 38.2969 210.724 38.1491C210.883 37.9986 211.073 37.9233 211.295 37.9233C211.516 37.9233 211.705 37.9986 211.862 38.1491C212.021 38.2969 212.1 38.4759 212.1 38.6861C212.1 38.8935 212.021 39.0724 211.862 39.223C211.705 39.3707 211.516 39.4446 211.295 39.4446ZM216.827 40.4545V41.4773H213.252V40.4545H216.827ZM214.211 38.8864H215.485V45.0781C215.485 45.3253 215.522 45.5114 215.595 45.6364C215.669 45.7585 215.764 45.8423 215.881 45.8878C216 45.9304 216.13 45.9517 216.269 45.9517C216.371 45.9517 216.461 45.9446 216.537 45.9304C216.614 45.9162 216.674 45.9048 216.716 45.8963L216.946 46.9489C216.872 46.9773 216.767 47.0057 216.631 47.0341C216.495 47.0653 216.324 47.0824 216.12 47.0852C215.784 47.0909 215.472 47.0312 215.182 46.9062C214.892 46.7812 214.658 46.5881 214.479 46.3267C214.3 46.0653 214.211 45.7372 214.211 45.3423V38.8864ZM218.368 47V40.4545H219.591V41.5199H219.672C219.809 41.1591 220.032 40.8778 220.341 40.6761C220.651 40.4716 221.022 40.3693 221.454 40.3693C221.891 40.3693 222.258 40.4716 222.553 40.6761C222.851 40.8807 223.072 41.1619 223.214 41.5199H223.282C223.438 41.1705 223.687 40.892 224.028 40.6847C224.368 40.4744 224.775 40.3693 225.246 40.3693C225.84 40.3693 226.324 40.5554 226.699 40.9276C227.077 41.2997 227.266 41.8608 227.266 42.6108V47H225.992V42.7301C225.992 42.2869 225.871 41.9659 225.63 41.767C225.388 41.5682 225.1 41.4688 224.765 41.4688C224.35 41.4688 224.028 41.5966 223.797 41.8523C223.567 42.1051 223.452 42.4304 223.452 42.8281V47H222.182V42.6491C222.182 42.294 222.072 42.0085 221.85 41.7926C221.628 41.5767 221.34 41.4688 220.985 41.4688C220.743 41.4688 220.52 41.5327 220.316 41.6605C220.114 41.7855 219.951 41.9602 219.826 42.1847C219.704 42.4091 219.643 42.669 219.643 42.9645V47H218.368ZM231.927 47.1321C231.282 47.1321 230.727 46.9943 230.261 46.7188C229.798 46.4403 229.44 46.0497 229.187 45.5469C228.937 45.0412 228.812 44.4489 228.812 43.7699C228.812 43.0994 228.937 42.5085 229.187 41.9972C229.44 41.4858 229.792 41.0866 230.244 40.7997C230.698 40.5128 231.229 40.3693 231.837 40.3693C232.207 40.3693 232.565 40.4304 232.911 40.5526C233.258 40.6747 233.569 40.8665 233.845 41.1278C234.12 41.3892 234.337 41.7287 234.497 42.1463C234.656 42.5611 234.735 43.0653 234.735 43.6591V44.1108H229.532V43.1562H233.487C233.487 42.821 233.418 42.5241 233.282 42.2656C233.146 42.0043 232.954 41.7983 232.707 41.6477C232.462 41.4972 232.176 41.4219 231.846 41.4219C231.488 41.4219 231.176 41.5099 230.908 41.6861C230.644 41.8594 230.44 42.0866 230.295 42.3679C230.153 42.6463 230.082 42.9489 230.082 43.2756V44.0213C230.082 44.4588 230.158 44.831 230.312 45.1378C230.468 45.4446 230.685 45.679 230.964 45.8409C231.242 46 231.568 46.0795 231.94 46.0795C232.181 46.0795 232.401 46.0455 232.6 45.9773C232.799 45.9062 232.971 45.8011 233.116 45.6619C233.261 45.5227 233.372 45.3509 233.448 45.1463L234.654 45.3636C234.558 45.7187 234.384 46.0298 234.134 46.2969C233.887 46.5611 233.576 46.767 233.201 46.9148C232.829 47.0597 232.404 47.1321 231.927 47.1321ZM237.555 43.1136V47H236.281V40.4545H237.504V41.5199H237.585C237.735 41.1733 237.971 40.8949 238.292 40.6847C238.616 40.4744 239.024 40.3693 239.515 40.3693C239.961 40.3693 240.352 40.4631 240.687 40.6506C241.022 40.8352 241.282 41.1108 241.467 41.4773C241.652 41.8437 241.744 42.2969 241.744 42.8366V47H240.47V42.9901C240.47 42.5156 240.346 42.1449 240.099 41.8778C239.852 41.608 239.512 41.473 239.081 41.473C238.785 41.473 238.522 41.5369 238.292 41.6648C238.065 41.7926 237.885 41.9801 237.751 42.2273C237.62 42.4716 237.555 42.767 237.555 43.1136ZM246.64 40.4545V41.4773H243.065V40.4545H246.64ZM244.024 38.8864H245.298V45.0781C245.298 45.3253 245.335 45.5114 245.409 45.6364C245.482 45.7585 245.578 45.8423 245.694 45.8878C245.813 45.9304 245.943 45.9517 246.082 45.9517C246.184 45.9517 246.274 45.9446 246.35 45.9304C246.427 45.9162 246.487 45.9048 246.529 45.8963L246.759 46.9489C246.686 46.9773 246.58 47.0057 246.444 47.0341C246.308 47.0653 246.137 47.0824 245.933 47.0852C245.598 47.0909 245.285 47.0312 244.995 46.9062C244.705 46.7812 244.471 46.5881 244.292 46.3267C244.113 46.0653 244.024 45.7372 244.024 45.3423V38.8864ZM101.357 65V58.4545H102.58V59.5199H102.661C102.797 59.1591 103.02 58.8778 103.33 58.6761C103.639 58.4716 104.01 58.3693 104.442 58.3693C104.879 58.3693 105.246 58.4716 105.541 58.6761C105.839 58.8807 106.06 59.1619 106.202 59.5199H106.27C106.426 59.1705 106.675 58.892 107.016 58.6847C107.357 58.4744 107.763 58.3693 108.234 58.3693C108.828 58.3693 109.312 58.5554 109.688 58.9276C110.065 59.2997 110.254 59.8608 110.254 60.6108V65H108.98V60.7301C108.98 60.2869 108.859 59.9659 108.618 59.767C108.376 59.5682 108.088 59.4688 107.753 59.4688C107.338 59.4688 107.016 59.5966 106.786 59.8523C106.555 60.1051 106.44 60.4304 106.44 60.8281V65H105.17V60.6491C105.17 60.294 105.06 60.0085 104.838 59.7926C104.616 59.5767 104.328 59.4688 103.973 59.4688C103.732 59.4688 103.509 59.5327 103.304 59.6605C103.102 59.7855 102.939 59.9602 102.814 60.1847C102.692 60.4091 102.631 60.669 102.631 60.9645V65H101.357ZM113.999 65.1449C113.584 65.1449 113.209 65.0682 112.874 64.9148C112.539 64.7585 112.273 64.5327 112.077 64.2372C111.884 63.9418 111.787 63.5795 111.787 63.1506C111.787 62.7812 111.858 62.4773 112 62.2386C112.142 62 112.334 61.8111 112.576 61.6719C112.817 61.5327 113.087 61.4276 113.385 61.3565C113.683 61.2855 113.987 61.2315 114.297 61.1946C114.689 61.1491 115.007 61.1122 115.252 61.0838C115.496 61.0526 115.674 61.0028 115.784 60.9347C115.895 60.8665 115.951 60.7557 115.951 60.6023V60.5724C115.951 60.2003 115.845 59.9119 115.635 59.7074C115.428 59.5028 115.118 59.4006 114.706 59.4006C114.277 59.4006 113.939 59.4957 113.692 59.6861C113.448 59.8736 113.279 60.0824 113.185 60.3125L111.987 60.0398C112.13 59.642 112.337 59.321 112.61 59.0767C112.885 58.8295 113.202 58.6506 113.56 58.5398C113.918 58.4261 114.294 58.3693 114.689 58.3693C114.951 58.3693 115.228 58.4006 115.52 58.4631C115.816 58.5227 116.091 58.6335 116.347 58.7955C116.605 58.9574 116.817 59.1889 116.982 59.4901C117.147 59.7884 117.229 60.1761 117.229 60.6534V65H115.985V64.1051H115.933C115.851 64.2699 115.728 64.4318 115.563 64.5909C115.398 64.75 115.186 64.8821 114.928 64.9872C114.669 65.0923 114.36 65.1449 113.999 65.1449ZM114.276 64.1222C114.628 64.1222 114.929 64.0526 115.179 63.9134C115.432 63.7741 115.624 63.5923 115.755 63.3679C115.888 63.1406 115.955 62.8977 115.955 62.6392V61.7955C115.909 61.8409 115.821 61.8835 115.691 61.9233C115.563 61.9602 115.416 61.9929 115.252 62.0213C115.087 62.0469 114.926 62.071 114.77 62.0938C114.614 62.1136 114.483 62.1307 114.378 62.1449C114.131 62.1761 113.905 62.2287 113.701 62.3026C113.499 62.3764 113.337 62.483 113.215 62.6222C113.095 62.7585 113.036 62.9403 113.036 63.1676C113.036 63.483 113.152 63.7216 113.385 63.8835C113.618 64.0426 113.915 64.1222 114.276 64.1222ZM120.332 61.1136V65H119.058V58.4545H120.281V59.5199H120.362C120.513 59.1733 120.748 58.8949 121.069 58.6847C121.393 58.4744 121.801 58.3693 122.292 58.3693C122.738 58.3693 123.129 58.4631 123.464 58.6506C123.8 58.8352 124.059 59.1108 124.244 59.4773C124.429 59.8437 124.521 60.2969 124.521 60.8366V65H123.247V60.9901C123.247 60.5156 123.123 60.1449 122.876 59.8778C122.629 59.608 122.29 59.473 121.858 59.473C121.562 59.473 121.3 59.5369 121.069 59.6648C120.842 59.7926 120.662 59.9801 120.528 60.2273C120.398 60.4716 120.332 60.767 120.332 61.1136ZM128.267 65.1449C127.852 65.1449 127.477 65.0682 127.142 64.9148C126.807 64.7585 126.541 64.5327 126.345 64.2372C126.152 63.9418 126.055 63.5795 126.055 63.1506C126.055 62.7812 126.126 62.4773 126.268 62.2386C126.41 62 126.602 61.8111 126.843 61.6719C127.085 61.5327 127.355 61.4276 127.653 61.3565C127.951 61.2855 128.255 61.2315 128.565 61.1946C128.957 61.1491 129.275 61.1122 129.52 61.0838C129.764 61.0526 129.941 61.0028 130.052 60.9347C130.163 60.8665 130.218 60.7557 130.218 60.6023V60.5724C130.218 60.2003 130.113 59.9119 129.903 59.7074C129.696 59.5028 129.386 59.4006 128.974 59.4006C128.545 59.4006 128.207 59.4957 127.96 59.6861C127.716 59.8736 127.547 60.0824 127.453 60.3125L126.255 60.0398C126.397 59.642 126.605 59.321 126.878 59.0767C127.153 58.8295 127.47 58.6506 127.828 58.5398C128.186 58.4261 128.562 58.3693 128.957 58.3693C129.218 58.3693 129.495 58.4006 129.788 58.4631C130.084 58.5227 130.359 58.6335 130.615 58.7955C130.873 58.9574 131.085 59.1889 131.25 59.4901C131.414 59.7884 131.497 60.1761 131.497 60.6534V65H130.253V64.1051H130.201C130.119 64.2699 129.995 64.4318 129.831 64.5909C129.666 64.75 129.454 64.8821 129.196 64.9872C128.937 65.0923 128.628 65.1449 128.267 65.1449ZM128.544 64.1222C128.896 64.1222 129.197 64.0526 129.447 63.9134C129.7 63.7741 129.892 63.5923 130.022 63.3679C130.156 63.1406 130.223 62.8977 130.223 62.6392V61.7955C130.177 61.8409 130.089 61.8835 129.958 61.9233C129.831 61.9602 129.684 61.9929 129.52 62.0213C129.355 62.0469 129.194 62.071 129.038 62.0938C128.882 62.1136 128.751 62.1307 128.646 62.1449C128.399 62.1761 128.173 62.2287 127.968 62.3026C127.767 62.3764 127.605 62.483 127.483 62.6222C127.363 62.7585 127.304 62.9403 127.304 63.1676C127.304 63.483 127.42 63.7216 127.653 63.8835C127.886 64.0426 128.183 64.1222 128.544 64.1222ZM136.07 67.5909C135.55 67.5909 135.103 67.5227 134.728 67.3864C134.356 67.25 134.052 67.0696 133.816 66.8452C133.58 66.6207 133.404 66.375 133.288 66.108L134.383 65.6562C134.459 65.7812 134.562 65.9134 134.69 66.0526C134.82 66.1946 134.996 66.3153 135.218 66.4148C135.442 66.5142 135.731 66.5639 136.083 66.5639C136.566 66.5639 136.965 66.446 137.28 66.2102C137.596 65.9773 137.753 65.6051 137.753 65.0938V63.8068H137.673C137.596 63.946 137.485 64.1009 137.34 64.2713C137.198 64.4418 137.002 64.5895 136.752 64.7145C136.502 64.8395 136.177 64.902 135.776 64.902C135.259 64.902 134.793 64.7812 134.378 64.5398C133.967 64.2955 133.64 63.9361 133.398 63.4616C133.16 62.9844 133.04 62.3977 133.04 61.7017C133.04 61.0057 133.158 60.4091 133.394 59.9119C133.633 59.4148 133.959 59.0341 134.374 58.7699C134.789 58.5028 135.259 58.3693 135.785 58.3693C136.191 58.3693 136.519 58.4375 136.769 58.5739C137.019 58.7074 137.214 58.8636 137.353 59.0426C137.495 59.2216 137.604 59.3793 137.681 59.5156H137.775V58.4545H139.023V65.1449C139.023 65.7074 138.893 66.169 138.631 66.5298C138.37 66.8906 138.016 67.1577 137.57 67.331C137.127 67.5043 136.627 67.5909 136.07 67.5909ZM136.057 63.8452C136.424 63.8452 136.734 63.7599 136.986 63.5895C137.242 63.4162 137.435 63.169 137.566 62.848C137.7 62.5241 137.766 62.1364 137.766 61.6847C137.766 61.2443 137.701 60.8565 137.57 60.5213C137.44 60.1861 137.248 59.9247 136.995 59.7372C136.742 59.5469 136.43 59.4517 136.057 59.4517C135.674 59.4517 135.354 59.5511 135.099 59.75C134.843 59.946 134.65 60.2131 134.519 60.5511C134.391 60.8892 134.327 61.267 134.327 61.6847C134.327 62.1136 134.393 62.4901 134.523 62.8139C134.654 63.1378 134.847 63.3906 135.103 63.5724C135.361 63.7543 135.68 63.8452 136.057 63.8452ZM143.685 65.1321C143.04 65.1321 142.485 64.9943 142.019 64.7188C141.556 64.4403 141.198 64.0497 140.945 63.5469C140.695 63.0412 140.57 62.4489 140.57 61.7699C140.57 61.0994 140.695 60.5085 140.945 59.9972C141.198 59.4858 141.55 59.0866 142.002 58.7997C142.457 58.5128 142.988 58.3693 143.596 58.3693C143.965 58.3693 144.323 58.4304 144.67 58.5526C145.016 58.6747 145.327 58.8665 145.603 59.1278C145.878 59.3892 146.096 59.7287 146.255 60.1463C146.414 60.5611 146.493 61.0653 146.493 61.6591V62.1108H141.29V61.1562H145.245C145.245 60.821 145.177 60.5241 145.04 60.2656C144.904 60.0043 144.712 59.7983 144.465 59.6477C144.221 59.4972 143.934 59.4219 143.604 59.4219C143.246 59.4219 142.934 59.5099 142.667 59.6861C142.403 59.8594 142.198 60.0866 142.053 60.3679C141.911 60.6463 141.84 60.9489 141.84 61.2756V62.0213C141.84 62.4588 141.917 62.831 142.07 63.1378C142.226 63.4446 142.444 63.679 142.722 63.8409C143.001 64 143.326 64.0795 143.698 64.0795C143.939 64.0795 144.16 64.0455 144.359 63.9773C144.557 63.9062 144.729 63.8011 144.874 63.6619C145.019 63.5227 145.13 63.3509 145.207 63.1463L146.412 63.3636C146.316 63.7187 146.143 64.0298 145.893 64.2969C145.645 64.5611 145.334 64.767 144.959 64.9148C144.587 65.0597 144.162 65.1321 143.685 65.1321ZM148.039 65V58.4545H149.262V59.5199H149.343C149.479 59.1591 149.703 58.8778 150.012 58.6761C150.322 58.4716 150.693 58.3693 151.124 58.3693C151.562 58.3693 151.928 58.4716 152.224 58.6761C152.522 58.8807 152.742 59.1619 152.884 59.5199H152.953C153.109 59.1705 153.357 58.892 153.698 58.6847C154.039 58.4744 154.445 58.3693 154.917 58.3693C155.511 58.3693 155.995 58.5554 156.37 58.9276C156.748 59.2997 156.937 59.8608 156.937 60.6108V65H155.663V60.7301C155.663 60.2869 155.542 59.9659 155.301 59.767C155.059 59.5682 154.771 59.4688 154.435 59.4688C154.021 59.4688 153.698 59.5966 153.468 59.8523C153.238 60.1051 153.123 60.4304 153.123 60.8281V65H151.853V60.6491C151.853 60.294 151.742 60.0085 151.521 59.7926C151.299 59.5767 151.011 59.4688 150.656 59.4688C150.414 59.4688 150.191 59.5327 149.987 59.6605C149.785 59.7855 149.622 59.9602 149.497 60.1847C149.374 60.4091 149.313 60.669 149.313 60.9645V65H148.039ZM161.598 65.1321C160.953 65.1321 160.397 64.9943 159.931 64.7188C159.468 64.4403 159.11 64.0497 158.858 63.5469C158.608 63.0412 158.483 62.4489 158.483 61.7699C158.483 61.0994 158.608 60.5085 158.858 59.9972C159.11 59.4858 159.463 59.0866 159.914 58.7997C160.369 58.5128 160.9 58.3693 161.508 58.3693C161.877 58.3693 162.235 58.4304 162.582 58.5526C162.929 58.6747 163.24 58.8665 163.515 59.1278C163.791 59.3892 164.008 59.7287 164.167 60.1463C164.326 60.5611 164.406 61.0653 164.406 61.6591V62.1108H159.203V61.1562H163.157C163.157 60.821 163.089 60.5241 162.953 60.2656C162.816 60.0043 162.625 59.7983 162.377 59.6477C162.133 59.4972 161.846 59.4219 161.517 59.4219C161.159 59.4219 160.846 59.5099 160.579 59.6861C160.315 59.8594 160.11 60.0866 159.966 60.3679C159.824 60.6463 159.752 60.9489 159.752 61.2756V62.0213C159.752 62.4588 159.829 62.831 159.983 63.1378C160.139 63.4446 160.356 63.679 160.635 63.8409C160.913 64 161.238 64.0795 161.61 64.0795C161.852 64.0795 162.072 64.0455 162.271 63.9773C162.47 63.9062 162.642 63.8011 162.787 63.6619C162.931 63.5227 163.042 63.3509 163.119 63.1463L164.325 63.3636C164.228 63.7187 164.055 64.0298 163.805 64.2969C163.558 64.5611 163.247 64.767 162.872 64.9148C162.5 65.0597 162.075 65.1321 161.598 65.1321ZM167.226 61.1136V65H165.952V58.4545H167.175V59.5199H167.256C167.406 59.1733 167.642 58.8949 167.963 58.6847C168.287 58.4744 168.694 58.3693 169.186 58.3693C169.632 58.3693 170.023 58.4631 170.358 58.6506C170.693 58.8352 170.953 59.1108 171.138 59.4773C171.322 59.8437 171.415 60.2969 171.415 60.8366V65H170.141V60.9901C170.141 60.5156 170.017 60.1449 169.77 59.8778C169.523 59.608 169.183 59.473 168.751 59.473C168.456 59.473 168.193 59.5369 167.963 59.6648C167.736 59.7926 167.555 59.9801 167.422 60.2273C167.291 60.4716 167.226 60.767 167.226 61.1136ZM176.311 58.4545V59.4773H172.736V58.4545H176.311ZM173.694 56.8864H174.969V63.0781C174.969 63.3253 175.005 63.5114 175.079 63.6364C175.153 63.7585 175.248 63.8423 175.365 63.8878C175.484 63.9304 175.613 63.9517 175.753 63.9517C175.855 63.9517 175.944 63.9446 176.021 63.9304C176.098 63.9162 176.157 63.9048 176.2 63.8963L176.43 64.9489C176.356 64.9773 176.251 65.0057 176.115 65.0341C175.978 65.0653 175.808 65.0824 175.603 65.0852C175.268 65.0909 174.956 65.0312 174.666 64.9062C174.376 64.7812 174.142 64.5881 173.963 64.3267C173.784 64.0653 173.694 63.7372 173.694 63.3423V56.8864ZM186.022 58.5653C185.977 58.1619 185.789 57.8494 185.46 57.6278C185.13 57.4034 184.715 57.2912 184.215 57.2912C183.858 57.2912 183.548 57.348 183.287 57.4616C183.025 57.5724 182.822 57.7259 182.677 57.9219C182.535 58.1151 182.464 58.3352 182.464 58.5824C182.464 58.7898 182.512 58.9687 182.609 59.1193C182.708 59.2699 182.838 59.3963 182.997 59.4986C183.159 59.598 183.332 59.6818 183.517 59.75C183.701 59.8153 183.879 59.8693 184.049 59.9119L184.902 60.1335C185.18 60.2017 185.465 60.294 185.758 60.4105C186.051 60.527 186.322 60.6804 186.572 60.8707C186.822 61.0611 187.024 61.2969 187.177 61.5781C187.333 61.8594 187.412 62.196 187.412 62.5881C187.412 63.0824 187.284 63.5213 187.028 63.9048C186.775 64.2884 186.407 64.5909 185.924 64.8125C185.444 65.0341 184.863 65.1449 184.181 65.1449C183.528 65.1449 182.963 65.0412 182.485 64.8338C182.008 64.6264 181.635 64.3324 181.365 63.9517C181.095 63.5682 180.946 63.1136 180.917 62.5881H182.238C182.264 62.9034 182.366 63.1662 182.545 63.3764C182.727 63.5838 182.958 63.7386 183.24 63.8409C183.524 63.9403 183.835 63.9901 184.173 63.9901C184.545 63.9901 184.876 63.9318 185.166 63.8153C185.458 63.696 185.689 63.5312 185.856 63.321C186.024 63.108 186.108 62.8594 186.108 62.5753C186.108 62.3168 186.034 62.1051 185.886 61.9403C185.741 61.7756 185.544 61.6392 185.294 61.5312C185.046 61.4233 184.767 61.3281 184.454 61.2457L183.423 60.9645C182.724 60.7741 182.17 60.4943 181.761 60.125C181.355 59.7557 181.152 59.267 181.152 58.6591C181.152 58.1562 181.288 57.7173 181.561 57.3423C181.833 56.9673 182.203 56.6761 182.669 56.4688C183.135 56.2585 183.66 56.1534 184.245 56.1534C184.836 56.1534 185.358 56.2571 185.809 56.4645C186.264 56.6719 186.622 56.9574 186.883 57.321C187.144 57.6818 187.281 58.0966 187.292 58.5653H186.022ZM189.117 65V56.2727H190.434V60.0653H194.785V56.2727H196.106V65H194.785V61.1946H190.434V65H189.117ZM198.053 65V58.4545H199.327V65H198.053ZM198.696 57.4446C198.475 57.4446 198.285 57.3707 198.125 57.223C197.969 57.0724 197.891 56.8935 197.891 56.6861C197.891 56.4759 197.969 56.2969 198.125 56.1491C198.285 55.9986 198.475 55.9233 198.696 55.9233C198.918 55.9233 199.107 55.9986 199.263 56.1491C199.422 56.2969 199.502 56.4759 199.502 56.6861C199.502 56.8935 199.422 57.0724 199.263 57.223C199.107 57.3707 198.918 57.4446 198.696 57.4446ZM201.173 65V58.4545H202.405V59.4943H202.473C202.592 59.142 202.803 58.8651 203.104 58.6634C203.408 58.4588 203.751 58.3565 204.135 58.3565C204.214 58.3565 204.308 58.3594 204.416 58.3651C204.527 58.3707 204.614 58.3778 204.676 58.3864V59.6051C204.625 59.5909 204.534 59.5753 204.403 59.5582C204.273 59.5384 204.142 59.5284 204.011 59.5284C203.71 59.5284 203.442 59.5923 203.206 59.7202C202.973 59.8452 202.788 60.0199 202.652 60.2443C202.516 60.4659 202.447 60.7187 202.447 61.0028V65H201.173ZM205.911 65V58.4545H207.185V65H205.911ZM206.554 57.4446C206.333 57.4446 206.142 57.3707 205.983 57.223C205.827 57.0724 205.749 56.8935 205.749 56.6861C205.749 56.4759 205.827 56.2969 205.983 56.1491C206.142 55.9986 206.333 55.9233 206.554 55.9233C206.776 55.9233 206.965 55.9986 207.121 56.1491C207.28 56.2969 207.36 56.4759 207.36 56.6861C207.36 56.8935 207.28 57.0724 207.121 57.223C206.965 57.3707 206.776 57.4446 206.554 57.4446ZM210.305 61.1136V65H209.031V58.4545H210.254V59.5199H210.335C210.486 59.1733 210.721 58.8949 211.042 58.6847C211.366 58.4744 211.774 58.3693 212.265 58.3693C212.711 58.3693 213.102 58.4631 213.437 58.6506C213.773 58.8352 214.032 59.1108 214.217 59.4773C214.402 59.8437 214.494 60.2969 214.494 60.8366V65H213.22V60.9901C213.22 60.5156 213.096 60.1449 212.849 59.8778C212.602 59.608 212.263 59.473 211.831 59.473C211.535 59.473 211.273 59.5369 211.042 59.6648C210.815 59.7926 210.635 59.9801 210.501 60.2273C210.371 60.4716 210.305 60.767 210.305 61.1136ZM219.079 67.5909C218.559 67.5909 218.112 67.5227 217.737 67.3864C217.365 67.25 217.061 67.0696 216.825 66.8452C216.589 66.6207 216.413 66.375 216.297 66.108L217.392 65.6562C217.468 65.7812 217.571 65.9134 217.699 66.0526C217.829 66.1946 218.005 66.3153 218.227 66.4148C218.451 66.5142 218.74 66.5639 219.092 66.5639C219.575 66.5639 219.974 66.446 220.289 66.2102C220.605 65.9773 220.762 65.6051 220.762 65.0938V63.8068H220.682C220.605 63.946 220.494 64.1009 220.349 64.2713C220.207 64.4418 220.011 64.5895 219.761 64.7145C219.511 64.8395 219.186 64.902 218.785 64.902C218.268 64.902 217.802 64.7812 217.387 64.5398C216.976 64.2955 216.649 63.9361 216.407 63.4616C216.169 62.9844 216.049 62.3977 216.049 61.7017C216.049 61.0057 216.167 60.4091 216.403 59.9119C216.642 59.4148 216.968 59.0341 217.383 58.7699C217.798 58.5028 218.268 58.3693 218.794 58.3693C219.2 58.3693 219.528 58.4375 219.778 58.5739C220.028 58.7074 220.223 58.8636 220.362 59.0426C220.504 59.2216 220.613 59.3793 220.69 59.5156H220.784V58.4545H222.032V65.1449C222.032 65.7074 221.902 66.169 221.64 66.5298C221.379 66.8906 221.025 67.1577 220.579 67.331C220.136 67.5043 219.636 67.5909 219.079 67.5909ZM219.066 63.8452C219.433 63.8452 219.743 63.7599 219.995 63.5895C220.251 63.4162 220.444 63.169 220.575 62.848C220.708 62.5241 220.775 62.1364 220.775 61.6847C220.775 61.2443 220.71 60.8565 220.579 60.5213C220.449 60.1861 220.257 59.9247 220.004 59.7372C219.751 59.5469 219.439 59.4517 219.066 59.4517C218.683 59.4517 218.363 59.5511 218.108 59.75C217.852 59.946 217.659 60.2131 217.528 60.5511C217.4 60.8892 217.336 61.267 217.336 61.6847C217.336 62.1136 217.402 62.4901 217.532 62.8139C217.663 63.1378 217.856 63.3906 218.112 63.5724C218.37 63.7543 218.689 63.8452 219.066 63.8452ZM224.713 65.081C224.48 65.081 224.279 64.9986 224.112 64.8338C223.944 64.6662 223.86 64.4645 223.86 64.2287C223.86 63.9957 223.944 63.7969 224.112 63.6321C224.279 63.4645 224.48 63.3807 224.713 63.3807C224.946 63.3807 225.146 63.4645 225.313 63.6321C225.481 63.7969 225.565 63.9957 225.565 64.2287C225.565 64.3849 225.525 64.5284 225.446 64.6591C225.369 64.7869 225.267 64.8892 225.139 64.9659C225.011 65.0426 224.869 65.081 224.713 65.081ZM229.308 65.1449C228.894 65.1449 228.519 65.0682 228.183 64.9148C227.848 64.7585 227.583 64.5327 227.387 64.2372C227.193 63.9418 227.097 63.5795 227.097 63.1506C227.097 62.7812 227.168 62.4773 227.31 62.2386C227.452 62 227.644 61.8111 227.885 61.6719C228.127 61.5327 228.396 61.4276 228.695 61.3565C228.993 61.2855 229.297 61.2315 229.607 61.1946C229.999 61.1491 230.317 61.1122 230.561 61.0838C230.806 61.0526 230.983 61.0028 231.094 60.9347C231.205 60.8665 231.26 60.7557 231.26 60.6023V60.5724C231.26 60.2003 231.155 59.9119 230.945 59.7074C230.737 59.5028 230.428 59.4006 230.016 59.4006C229.587 59.4006 229.249 59.4957 229.002 59.6861C228.757 59.8736 228.588 60.0824 228.495 60.3125L227.297 60.0398C227.439 59.642 227.646 59.321 227.919 59.0767C228.195 58.8295 228.512 58.6506 228.87 58.5398C229.227 58.4261 229.604 58.3693 229.999 58.3693C230.26 58.3693 230.537 58.4006 230.83 58.4631C231.125 58.5227 231.401 58.6335 231.656 58.7955C231.915 58.9574 232.127 59.1889 232.291 59.4901C232.456 59.7884 232.539 60.1761 232.539 60.6534V65H231.294V64.1051H231.243C231.161 64.2699 231.037 64.4318 230.872 64.5909C230.708 64.75 230.496 64.8821 230.237 64.9872C229.979 65.0923 229.669 65.1449 229.308 65.1449ZM229.585 64.1222C229.938 64.1222 230.239 64.0526 230.489 63.9134C230.742 63.7741 230.933 63.5923 231.064 63.3679C231.198 63.1406 231.264 62.8977 231.264 62.6392V61.7955C231.219 61.8409 231.131 61.8835 231 61.9233C230.872 61.9602 230.726 61.9929 230.561 62.0213C230.396 62.0469 230.236 62.071 230.08 62.0938C229.923 62.1136 229.793 62.1307 229.688 62.1449C229.441 62.1761 229.215 62.2287 229.01 62.3026C228.808 62.3764 228.646 62.483 228.524 62.6222C228.405 62.7585 228.345 62.9403 228.345 63.1676C228.345 63.483 228.462 63.7216 228.695 63.8835C228.928 64.0426 229.225 64.1222 229.585 64.1222ZM234.368 65V58.4545H235.642V65H234.368ZM235.011 57.4446C234.79 57.4446 234.599 57.3707 234.44 57.223C234.284 57.0724 234.206 56.8935 234.206 56.6861C234.206 56.4759 234.284 56.2969 234.44 56.1491C234.599 55.9986 234.79 55.9233 235.011 55.9233C235.233 55.9233 235.422 55.9986 235.578 56.1491C235.737 56.2969 235.816 56.4759 235.816 56.6861C235.816 56.8935 235.737 57.0724 235.578 57.223C235.422 57.3707 235.233 57.4446 235.011 57.4446Z" fill="white"/>
<defs>
<linearGradient id="paint0_linear_12630_18078" x1="1" y1="86" x2="279" y2="86" gradientUnits="userSpaceOnUse">
<stop stop-color="#009941"/>
<stop offset="1" stop-color="#0BCA5D"/>
</linearGradient>
<clipPath id="clip0_12630_18078">
<rect width="36" height="36" fill="white" transform="translate(34.5 25)"/>
</clipPath>
</defs>
</svg>
