<svg width="279" height="86" viewBox="0 0 279 86" fill="none" xmlns="http://www.w3.org/2000/svg">
<rect x="0.5" width="278.5" height="86" rx="8" fill="url(#paint0_linear_12630_18071)"/>
<g clip-path="url(#clip0_12630_18071)">
<path d="M61.0551 25.0581H43.9696C38.7764 25.0581 34.5664 29.2681 34.5664 34.4613V51.5435C34.5664 56.7367 38.7764 60.9467 43.9696 60.9467H61.0551C66.2484 60.9467 70.4583 56.7367 70.4583 51.5435V34.4613C70.4583 29.2681 66.2484 25.0581 61.0551 25.0581Z" fill="white"/>
<path d="M64.456 45.6356V49.0028L61.0389 51.1728V47.1322L62.0366 46.492L62.5687 46.1594L64.1401 45.1534L64.456 45.6356Z" fill="#04B14E"/>
<path d="M50.8043 29.3816V39.3252L47.3955 37.147V31.5599L50.8043 29.3816Z" fill="#04B14E"/>
<path d="M64.0985 43.7566L62.5687 46.1594L62.2611 46.6333L62.0366 46.492L61.0389 45.8518L50.8043 39.3252L47.3955 37.147V33.098L50.8043 35.2763L54.2214 37.4546L61.0389 41.8112L64.0985 43.7566Z" fill="#04B14E"/>
<path d="M64.456 35.9165V49.0028L61.0389 51.1728V33.7382L64.456 35.9165Z" fill="#04B14E"/>
<path d="M57.6301 39.6329V43.6818L54.2214 41.5035V37.4546L57.6301 39.6329Z" fill="#04B14E"/>
<path d="M57.6293 47.7223V51.7713L55.7005 50.5408L54.2206 49.593L53.6303 49.2189L53.4557 49.1108L52.8903 48.745L50.2132 47.0406L43.9859 43.0664L40.8765 41.0794L42.7139 38.211L43.9859 39.0175L53.6303 45.1699L54.2206 45.544L57.6293 47.7223Z" fill="#04B14E"/>
<path d="M55.5342 54.4983L55.3263 54.8226L54.2206 55.5293L52.5162 56.6184L49.3402 54.5898L40.5771 48.9944V44.9454L52.5162 52.5694L54.2206 53.6503L55.5342 54.4983Z" fill="#04B14E"/>
<path d="M57.6293 49.3103V53.351L55.3263 54.8226L54.2206 55.5293L52.5162 56.6184L49.3402 54.5898L52.5162 52.5694L54.2206 51.4803L55.7005 50.5408L57.6293 49.3103Z" fill="#04B14E"/>
<path d="M53.6303 45.1699V49.2189L53.4557 49.1108L52.8903 48.745L43.9859 43.0664L40.5771 40.8882V36.8392L42.7139 38.211L43.9859 39.0175L53.6303 45.1699Z" fill="#04B14E"/>
<path d="M57.6293 47.7223L57.6293 53.351L55.3263 54.8226L54.2206 55.5293V45.544L57.6293 47.7223Z" fill="#04B14E"/>
<path d="M43.9859 33.738L43.9859 43.0664L40.5771 40.8882V35.908L43.9859 33.738Z" fill="#04B14E"/>
<path d="M40.5771 44.9454L43.9859 47.1237V51.1727L40.5771 48.9944V44.9454Z" fill="#04B14E"/>
</g>
<path d="M103.248 25.208C103.764 23.96 104.268 22.136 104.424 20.756L105.492 20.972C105.42 21.236 105.336 21.584 105.276 21.848C105.12 22.592 104.688 24.368 104.184 25.604C103.752 26.696 103.092 27.932 102.42 28.892L101.4 28.46C102.156 27.464 102.828 26.204 103.248 25.208ZM109.152 24.74C108.672 23.504 107.94 21.836 107.412 20.948L108.384 20.624C108.864 21.488 109.632 23.144 110.136 24.416C110.628 25.604 111.264 27.44 111.576 28.532L110.52 28.868C110.208 27.644 109.656 26.024 109.152 24.74ZM113.43 24.668C115.506 24.116 117.33 23.264 118.662 22.436C119.922 21.644 121.122 20.612 121.95 19.604L122.754 20.36C121.722 21.428 120.462 22.436 119.058 23.312C117.738 24.128 115.83 25.004 113.898 25.604L113.43 24.668ZM118.47 22.928L119.502 22.616V28.1C119.502 28.544 119.526 29.144 119.586 29.372H118.398C118.434 29.144 118.47 28.544 118.47 28.1V22.928ZM133.679 20.636C133.679 21.08 134.039 21.428 134.471 21.428C134.903 21.428 135.263 21.08 135.263 20.636C135.263 20.204 134.903 19.844 134.471 19.844C134.039 19.844 133.679 20.204 133.679 20.636ZM133.127 20.636C133.127 19.892 133.727 19.292 134.471 19.292C135.215 19.292 135.815 19.892 135.815 20.636C135.815 21.38 135.215 21.98 134.471 21.98C133.727 21.98 133.127 21.38 133.127 20.636ZM126.899 25.4C127.427 24.152 127.919 22.328 128.087 20.948L129.155 21.164C129.071 21.428 128.987 21.788 128.927 22.04C128.771 22.784 128.351 24.56 127.847 25.796C127.403 26.888 126.743 28.124 126.071 29.096L125.051 28.664C125.807 27.656 126.491 26.396 126.899 25.4ZM132.815 24.944C132.335 23.708 131.591 22.04 131.075 21.14L132.047 20.816C132.515 21.692 133.283 23.348 133.799 24.608C134.279 25.796 134.915 27.632 135.239 28.724L134.171 29.06C133.871 27.848 133.307 26.216 132.815 24.944ZM146.759 21.032C146.675 21.2 146.627 21.392 146.579 21.632C146.315 22.892 145.739 24.824 144.779 26.06C143.687 27.464 142.259 28.58 140.063 29.264L139.247 28.364C141.575 27.788 142.919 26.768 143.927 25.484C144.779 24.392 145.331 22.724 145.499 21.572C144.803 21.572 140.051 21.572 139.355 21.572C138.875 21.572 138.467 21.596 138.167 21.608V20.54C138.491 20.588 138.971 20.624 139.367 20.624C140.051 20.624 144.839 20.624 145.379 20.624C145.559 20.624 145.799 20.612 146.027 20.564L146.759 21.032ZM156.371 21.668C156.323 21.92 156.323 22.208 156.323 22.484C156.347 23.54 156.407 27.188 156.431 28.928C156.431 29.444 156.047 29.744 155.519 29.744C155.051 29.744 154.259 29.708 153.791 29.684L153.731 28.796C154.223 28.868 154.847 28.916 155.195 28.916C155.423 28.916 155.531 28.784 155.531 28.556C155.531 27.14 155.471 23.54 155.423 22.484C155.423 22.244 155.399 21.932 155.351 21.668H156.371ZM150.959 23.396C151.247 23.444 151.571 23.456 151.859 23.456C152.363 23.456 157.571 23.456 158.063 23.456C158.315 23.456 158.699 23.432 158.867 23.396V24.344C158.663 24.332 158.327 24.32 158.099 24.32C157.667 24.32 152.303 24.32 151.871 24.32C151.559 24.32 151.247 24.332 150.959 24.356V23.396ZM150.647 27.992C152.579 27.068 154.547 25.304 155.243 24.044L155.735 24.056L155.747 24.776C155.111 25.952 153.143 27.764 151.307 28.724L150.647 27.992ZM161.903 23.804C162.275 23.84 162.899 23.876 163.583 23.876C164.459 23.876 169.271 23.876 170.159 23.876C170.759 23.876 171.179 23.828 171.455 23.804V24.98C171.203 24.968 170.699 24.932 170.171 24.932C169.259 24.932 164.471 24.932 163.583 24.932C162.923 24.932 162.287 24.956 161.903 24.98V23.804ZM183.959 21.392C183.839 21.524 183.731 21.656 183.659 21.764C182.759 23.24 181.103 25.352 178.979 26.888L178.235 26.216C180.155 24.884 181.703 22.94 182.339 21.8C181.259 21.8 175.967 21.8 175.283 21.8C174.803 21.8 174.287 21.836 174.059 21.86V20.792C174.383 20.84 174.863 20.876 175.283 20.876C175.895 20.876 181.235 20.876 182.435 20.876C182.759 20.876 183.035 20.852 183.203 20.792L183.959 21.392ZM178.307 27.092C177.587 26.372 176.207 25.184 175.571 24.728L176.339 24.104C176.891 24.5 178.283 25.64 179.147 26.48C179.903 27.236 180.839 28.22 181.355 28.844L180.479 29.54C180.035 28.928 179.075 27.872 178.307 27.092ZM187.679 20.216C188.519 20.78 190.067 22.028 190.727 22.688L189.983 23.456C189.371 22.832 187.883 21.536 186.983 20.948L187.679 20.216ZM186.647 28.256C188.735 27.944 190.295 27.212 191.435 26.504C193.295 25.34 194.747 23.564 195.443 22.076L196.019 23.108C195.203 24.596 193.811 26.228 191.999 27.368C190.787 28.124 189.275 28.868 187.271 29.24L186.647 28.256ZM206.441 20.984C206.369 21.08 206.213 21.344 206.153 21.5C205.673 22.688 204.761 24.368 203.765 25.472C202.421 26.972 200.705 28.4 198.809 29.264L198.041 28.46C199.985 27.716 201.749 26.276 202.985 24.908C203.801 23.984 204.677 22.556 204.989 21.56C204.557 21.56 200.717 21.56 200.309 21.56C199.877 21.56 199.229 21.608 199.097 21.62V20.54C199.253 20.564 199.937 20.612 200.309 20.612C200.777 20.612 204.485 20.612 204.941 20.612C205.325 20.612 205.649 20.576 205.841 20.516L206.441 20.984ZM203.921 24.848C205.217 25.928 206.813 27.608 207.629 28.604L206.801 29.336C205.937 28.196 204.533 26.66 203.237 25.52L203.921 24.848ZM219.389 19.1L220.013 19.808C218.345 20.3 215.705 20.576 213.545 20.696C213.509 20.492 213.389 20.168 213.293 19.964C215.417 19.832 217.997 19.532 219.389 19.1ZM213.461 21.368L214.193 21.164C214.601 21.86 214.985 22.796 215.105 23.396L214.325 23.648C214.217 23.036 213.869 22.088 213.461 21.368ZM215.897 21.008L216.665 20.852C216.977 21.572 217.229 22.484 217.277 23.072L216.461 23.252C216.425 22.676 216.197 21.728 215.897 21.008ZM219.533 20.696L220.373 21.02C219.881 22.028 219.221 23.228 218.693 23.984L217.997 23.684C218.513 22.904 219.173 21.608 219.533 20.696ZM213.341 24.848H220.349V25.652H213.341V24.848ZM216.401 23.516H217.265V29.9H216.401V23.516ZM216.029 25.292L216.749 25.544C216.005 27.08 214.637 28.496 213.257 29.228C213.125 29 212.849 28.688 212.645 28.532C213.989 27.908 215.345 26.624 216.029 25.292ZM217.637 25.328C218.285 26.588 219.533 27.884 220.721 28.52C220.517 28.676 220.253 28.988 220.109 29.192C218.909 28.448 217.625 27.008 216.929 25.58L217.637 25.328ZM209.309 25.148C210.245 24.884 211.649 24.452 213.017 24.008L213.137 24.836C211.889 25.268 210.569 25.7 209.549 26.024L209.309 25.148ZM209.477 21.344H213.125V22.184H209.477V21.344ZM210.989 18.932H211.829V28.916C211.829 29.42 211.709 29.66 211.409 29.804C211.133 29.948 210.665 29.972 209.909 29.972C209.873 29.756 209.765 29.384 209.645 29.132C210.173 29.144 210.629 29.144 210.773 29.132C210.917 29.132 210.989 29.096 210.989 28.916V18.932ZM223.457 19.772H231.221V20.636H223.457V19.772ZM223.457 22.568H231.209V23.42H223.457V22.568ZM223.397 25.436H231.233V26.288H223.397V25.436ZM222.953 19.772H223.841V24.128C223.841 25.952 223.625 28.436 222.197 30.032C222.053 29.852 221.693 29.552 221.501 29.432C222.821 27.944 222.953 25.808 222.953 24.116V19.772ZM230.861 19.772H231.749V28.736C231.749 29.324 231.605 29.6 231.209 29.756C230.801 29.9 230.105 29.912 228.965 29.9C228.929 29.66 228.785 29.264 228.653 29.024C229.505 29.06 230.321 29.048 230.549 29.048C230.777 29.036 230.861 28.964 230.861 28.736V19.772ZM226.721 20.096H227.633V29.852H226.721V20.096ZM236.489 28.868H242.837V29.564H236.489V28.868ZM238.781 21.356H239.657V22.688H238.781V21.356ZM234.221 22.292H244.361V24.548H243.473V23.012H235.085V24.548H234.221V22.292ZM236.441 23.756H242.597V26.168H236.441V25.472H241.709V24.44H236.441V23.756ZM236.477 26.996H243.365V29.948H242.477V27.704H236.477V26.996ZM235.961 23.756H236.825V29.972H235.961V23.756ZM235.205 19.844H239.081V20.588H235.205V19.844ZM239.885 19.844H244.733V20.588H239.885V19.844ZM235.433 18.872L236.285 19.088C235.841 20.144 235.133 21.188 234.437 21.872C234.269 21.74 233.909 21.488 233.693 21.38C234.413 20.756 235.061 19.808 235.433 18.872ZM240.161 18.872L241.013 19.076C240.581 20.12 239.825 21.092 239.069 21.716C238.889 21.584 238.517 21.368 238.289 21.26C239.081 20.684 239.777 19.796 240.161 18.872ZM235.877 20.408L236.657 20.204C236.933 20.624 237.245 21.212 237.365 21.584L236.549 21.824C236.441 21.452 236.153 20.852 235.877 20.408ZM240.965 20.42L241.757 20.18C242.129 20.6 242.561 21.188 242.741 21.584L241.925 21.848C241.757 21.464 241.349 20.852 240.965 20.42ZM251.081 22.532V24.08H255.545V22.532H251.081ZM251.081 20.264V21.788H255.545V20.264H251.081ZM250.265 19.484H256.409V24.86H250.265V19.484ZM250.109 26.264H256.577V27.092H250.109V26.264ZM249.185 28.748H256.973V29.564H249.185V28.748ZM245.921 19.736H249.665V20.588H245.921V19.736ZM246.053 23.204H249.497V24.056H246.053V23.204ZM245.801 27.8C246.773 27.536 248.213 27.068 249.605 26.6L249.761 27.464C248.453 27.908 247.085 28.364 246.017 28.724L245.801 27.8ZM247.421 20.072H248.285V27.512L247.421 27.68V20.072ZM252.917 19.856H253.709V24.476H253.769V29.12H252.857V24.476H252.917V19.856ZM103.668 46.568C105.66 45.764 107.004 44.468 107.904 43.124C108.828 41.756 109.2 40.328 109.404 39.212C109.464 38.9 109.5 38.456 109.5 38.24L110.688 38.396C110.592 38.72 110.496 39.128 110.46 39.344C110.172 40.772 109.692 42.284 108.816 43.628C107.868 45.08 106.524 46.424 104.556 47.336L103.668 46.568ZM102.924 38.384C103.464 39.164 104.52 41.012 104.94 41.792L103.992 42.332C103.476 41.252 102.48 39.548 101.988 38.864L102.924 38.384ZM121.932 37.904C121.908 38.192 121.896 38.54 121.896 38.948C121.896 39.416 121.896 40.436 121.896 40.88C121.896 43.772 121.512 44.72 120.636 45.74C119.868 46.676 118.668 47.204 117.792 47.504L117 46.676C118.104 46.388 119.124 45.92 119.868 45.068C120.72 44.084 120.876 43.1 120.876 40.844C120.876 40.376 120.876 39.368 120.876 38.948C120.876 38.54 120.84 38.192 120.804 37.904H121.932ZM116.364 38C116.34 38.228 116.328 38.576 116.328 38.852C116.328 39.212 116.328 42.356 116.328 42.86C116.328 43.172 116.34 43.568 116.364 43.784H115.272C115.296 43.592 115.32 43.208 115.32 42.86C115.32 42.344 115.32 39.212 115.32 38.852C115.32 38.648 115.308 38.228 115.272 38H116.364ZM133.596 41.3C133.56 41.408 133.524 41.564 133.524 41.672C133.416 42.572 132.984 45.452 132.84 46.292H131.832C131.964 45.644 132.408 42.704 132.444 41.936C131.7 41.936 128.964 41.936 128.64 41.936C128.292 41.936 127.968 41.948 127.668 41.972V40.964C127.956 41 128.328 41.024 128.628 41.024C129.084 41.024 131.604 41.024 132.276 41.024C132.468 41.024 132.768 41 132.864 40.94L133.596 41.3ZM126.54 45.908C126.828 45.944 127.176 45.968 127.536 45.968C128.184 45.968 133.452 45.968 134.088 45.968C134.352 45.968 134.784 45.944 135.036 45.92V46.892C134.808 46.88 134.376 46.88 134.112 46.88C133.44 46.88 128.136 46.88 127.536 46.88C127.176 46.88 126.9 46.892 126.54 46.904V45.908ZM138.108 41.804C138.48 41.84 139.104 41.876 139.788 41.876C140.664 41.876 145.476 41.876 146.364 41.876C146.964 41.876 147.384 41.828 147.66 41.804V42.98C147.408 42.968 146.904 42.932 146.376 42.932C145.464 42.932 140.676 42.932 139.788 42.932C139.128 42.932 138.492 42.956 138.108 42.98V41.804ZM152.394 37.784C153.102 38.18 154.482 39.104 155.01 39.488L154.446 40.304C153.87 39.86 152.562 38.996 151.866 38.6L152.394 37.784ZM150.594 46.364C151.914 46.136 153.402 45.656 154.626 44.972C156.618 43.832 158.202 42.26 159.162 40.568L159.75 41.564C158.706 43.172 157.05 44.72 155.13 45.848C153.918 46.556 152.262 47.108 151.158 47.336L150.594 46.364ZM150.594 40.484C151.302 40.868 152.706 41.732 153.222 42.104L152.67 42.944C152.082 42.512 150.786 41.684 150.054 41.3L150.594 40.484ZM163.59 40.424C163.818 40.448 164.502 40.46 164.826 40.46C165.498 40.46 168.486 40.46 169.458 40.46C169.734 40.46 170.034 40.448 170.202 40.448C170.19 40.58 170.19 40.832 170.19 41.06C170.19 41.48 170.19 46.016 170.19 47.036C170.19 47.228 170.202 47.504 170.202 47.684H169.254C169.266 47.54 169.266 47.252 169.266 47C169.266 45.74 169.266 41.684 169.266 41.324C168.87 41.324 165.486 41.324 164.826 41.324C164.502 41.324 163.818 41.348 163.59 41.348V40.424ZM163.854 43.268C164.094 43.292 164.526 43.316 164.934 43.316C165.546 43.316 169.386 43.316 169.734 43.316V44.18C169.386 44.18 165.546 44.18 164.934 44.18C164.526 44.18 164.094 44.18 163.854 44.204V43.268ZM163.458 46.256C163.65 46.28 164.022 46.304 164.442 46.304C165.126 46.304 169.218 46.304 169.746 46.304V47.192C169.146 47.192 165.126 47.192 164.442 47.192C164.07 47.192 163.65 47.216 163.458 47.216V46.256ZM175.782 38.216C176.622 38.78 178.17 40.028 178.83 40.688L178.086 41.456C177.474 40.832 175.986 39.536 175.086 38.948L175.782 38.216ZM174.75 46.256C176.838 45.944 178.398 45.212 179.538 44.504C181.398 43.34 182.85 41.564 183.546 40.076L184.122 41.108C183.306 42.596 181.914 44.228 180.102 45.368C178.89 46.124 177.378 46.868 175.374 47.24L174.75 46.256ZM106.219 58.5653C106.173 58.1619 105.986 57.8494 105.656 57.6278C105.327 57.4034 104.912 57.2912 104.412 57.2912C104.054 57.2912 103.744 57.348 103.483 57.4616C103.222 57.5724 103.018 57.7259 102.874 57.9219C102.732 58.1151 102.661 58.3352 102.661 58.5824C102.661 58.7898 102.709 58.9687 102.805 59.1193C102.905 59.2699 103.034 59.3963 103.193 59.4986C103.355 59.598 103.528 59.6818 103.713 59.75C103.898 59.8153 104.075 59.8693 104.246 59.9119L105.098 60.1335C105.376 60.2017 105.662 60.294 105.955 60.4105C106.247 60.527 106.518 60.6804 106.768 60.8707C107.018 61.0611 107.22 61.2969 107.374 61.5781C107.53 61.8594 107.608 62.196 107.608 62.5881C107.608 63.0824 107.48 63.5213 107.224 63.9048C106.972 64.2884 106.604 64.5909 106.121 64.8125C105.641 65.0341 105.06 65.1449 104.378 65.1449C103.724 65.1449 103.159 65.0412 102.682 64.8338C102.205 64.6264 101.831 64.3324 101.561 63.9517C101.291 63.5682 101.142 63.1136 101.114 62.5881H102.435C102.46 62.9034 102.563 63.1662 102.741 63.3764C102.923 63.5838 103.155 63.7386 103.436 63.8409C103.72 63.9403 104.031 63.9901 104.369 63.9901C104.741 63.9901 105.072 63.9318 105.362 63.8153C105.655 63.696 105.885 63.5312 106.053 63.321C106.22 63.108 106.304 62.8594 106.304 62.5753C106.304 62.3168 106.23 62.1051 106.082 61.9403C105.938 61.7756 105.74 61.6392 105.49 61.5312C105.243 61.4233 104.963 61.3281 104.651 61.2457L103.619 60.9645C102.92 60.7741 102.366 60.4943 101.957 60.125C101.551 59.7557 101.348 59.267 101.348 58.6591C101.348 58.1562 101.484 57.7173 101.757 57.3423C102.03 56.9673 102.399 56.6761 102.865 56.4688C103.331 56.2585 103.857 56.1534 104.442 56.1534C105.033 56.1534 105.554 56.2571 106.006 56.4645C106.46 56.6719 106.818 56.9574 107.08 57.321C107.341 57.6818 107.477 58.0966 107.489 58.5653H106.219ZM109.313 65V56.2727H110.63V60.0653H114.981V56.2727H116.302V65H114.981V61.1946H110.63V65H109.313ZM118.249 65V58.4545H119.524V65H118.249ZM118.893 57.4446C118.671 57.4446 118.481 57.3707 118.322 57.223C118.166 57.0724 118.088 56.8935 118.088 56.6861C118.088 56.4759 118.166 56.2969 118.322 56.1491C118.481 55.9986 118.671 55.9233 118.893 55.9233C119.114 55.9233 119.303 55.9986 119.46 56.1491C119.619 56.2969 119.698 56.4759 119.698 56.6861C119.698 56.8935 119.619 57.0724 119.46 57.223C119.303 57.3707 119.114 57.4446 118.893 57.4446ZM121.37 65V58.4545H122.601V59.4943H122.669C122.789 59.142 122.999 58.8651 123.3 58.6634C123.604 58.4588 123.948 58.3565 124.331 58.3565C124.411 58.3565 124.505 58.3594 124.613 58.3651C124.723 58.3707 124.81 58.3778 124.873 58.3864V59.6051C124.821 59.5909 124.731 59.5753 124.6 59.5582C124.469 59.5384 124.338 59.5284 124.208 59.5284C123.907 59.5284 123.638 59.5923 123.402 59.7202C123.169 59.8452 122.985 60.0199 122.848 60.2443C122.712 60.4659 122.644 60.7187 122.644 61.0028V65H121.37ZM126.107 65V58.4545H127.381V65H126.107ZM126.751 57.4446C126.529 57.4446 126.339 57.3707 126.18 57.223C126.023 57.0724 125.945 56.8935 125.945 56.6861C125.945 56.4759 126.023 56.2969 126.18 56.1491C126.339 55.9986 126.529 55.9233 126.751 55.9233C126.972 55.9233 127.161 55.9986 127.317 56.1491C127.477 56.2969 127.556 56.4759 127.556 56.6861C127.556 56.8935 127.477 57.0724 127.317 57.223C127.161 57.3707 126.972 57.4446 126.751 57.4446ZM130.502 61.1136V65H129.227V58.4545H130.45V59.5199H130.531C130.682 59.1733 130.918 58.8949 131.239 58.6847C131.563 58.4744 131.97 58.3693 132.462 58.3693C132.908 58.3693 133.298 58.4631 133.634 58.6506C133.969 58.8352 134.229 59.1108 134.414 59.4773C134.598 59.8437 134.691 60.2969 134.691 60.8366V65H133.416V60.9901C133.416 60.5156 133.293 60.1449 133.046 59.8778C132.798 59.608 132.459 59.473 132.027 59.473C131.732 59.473 131.469 59.5369 131.239 59.6648C131.012 59.7926 130.831 59.9801 130.698 60.2273C130.567 60.4716 130.502 60.767 130.502 61.1136ZM139.276 67.5909C138.756 67.5909 138.308 67.5227 137.933 67.3864C137.561 67.25 137.257 67.0696 137.021 66.8452C136.786 66.6207 136.609 66.375 136.493 66.108L137.588 65.6562C137.665 65.7812 137.767 65.9134 137.895 66.0526C138.026 66.1946 138.202 66.3153 138.423 66.4148C138.648 66.5142 138.936 66.5639 139.288 66.5639C139.771 66.5639 140.171 66.446 140.486 66.2102C140.801 65.9773 140.959 65.6051 140.959 65.0938V63.8068H140.878C140.801 63.946 140.69 64.1009 140.546 64.2713C140.404 64.4418 140.207 64.5895 139.957 64.7145C139.707 64.8395 139.382 64.902 138.982 64.902C138.465 64.902 137.999 64.7812 137.584 64.5398C137.172 64.2955 136.845 63.9361 136.604 63.4616C136.365 62.9844 136.246 62.3977 136.246 61.7017C136.246 61.0057 136.364 60.4091 136.6 59.9119C136.838 59.4148 137.165 59.0341 137.58 58.7699C137.994 58.5028 138.465 58.3693 138.99 58.3693C139.396 58.3693 139.725 58.4375 139.975 58.5739C140.225 58.7074 140.419 58.8636 140.558 59.0426C140.7 59.2216 140.81 59.3793 140.886 59.5156H140.98V58.4545H142.229V65.1449C142.229 65.7074 142.098 66.169 141.837 66.5298C141.575 66.8906 141.222 67.1577 140.776 67.331C140.332 67.5043 139.832 67.5909 139.276 67.5909ZM139.263 63.8452C139.629 63.8452 139.939 63.7599 140.192 63.5895C140.448 63.4162 140.641 63.169 140.771 62.848C140.905 62.5241 140.972 62.1364 140.972 61.6847C140.972 61.2443 140.906 60.8565 140.776 60.5213C140.645 60.1861 140.453 59.9247 140.2 59.7372C139.948 59.5469 139.635 59.4517 139.263 59.4517C138.879 59.4517 138.56 59.5511 138.304 59.75C138.048 59.946 137.855 60.2131 137.725 60.5511C137.597 60.8892 137.533 61.267 137.533 61.6847C137.533 62.1136 137.598 62.4901 137.729 62.8139C137.859 63.1378 138.053 63.3906 138.308 63.5724C138.567 63.7543 138.885 63.8452 139.263 63.8452ZM144.909 65.081C144.676 65.081 144.476 64.9986 144.308 64.8338C144.141 64.6662 144.057 64.4645 144.057 64.2287C144.057 63.9957 144.141 63.7969 144.308 63.6321C144.476 63.4645 144.676 63.3807 144.909 63.3807C145.142 63.3807 145.342 63.4645 145.51 63.6321C145.678 63.7969 145.761 63.9957 145.761 64.2287C145.761 64.3849 145.722 64.5284 145.642 64.6591C145.565 64.7869 145.463 64.8892 145.335 64.9659C145.207 65.0426 145.065 65.081 144.909 65.081ZM149.505 65.1449C149.09 65.1449 148.715 65.0682 148.38 64.9148C148.045 64.7585 147.779 64.5327 147.583 64.2372C147.39 63.9418 147.293 63.5795 147.293 63.1506C147.293 62.7812 147.364 62.4773 147.506 62.2386C147.648 62 147.84 61.8111 148.082 61.6719C148.323 61.5327 148.593 61.4276 148.891 61.3565C149.19 61.2855 149.493 61.2315 149.803 61.1946C150.195 61.1491 150.513 61.1122 150.758 61.0838C151.002 61.0526 151.18 61.0028 151.29 60.9347C151.401 60.8665 151.457 60.7557 151.457 60.6023V60.5724C151.457 60.2003 151.351 59.9119 151.141 59.7074C150.934 59.5028 150.624 59.4006 150.212 59.4006C149.783 59.4006 149.445 59.4957 149.198 59.6861C148.954 59.8736 148.785 60.0824 148.691 60.3125L147.493 60.0398C147.636 59.642 147.843 59.321 148.116 59.0767C148.391 58.8295 148.708 58.6506 149.066 58.5398C149.424 58.4261 149.8 58.3693 150.195 58.3693C150.457 58.3693 150.734 58.4006 151.026 58.4631C151.322 58.5227 151.597 58.6335 151.853 58.7955C152.111 58.9574 152.323 59.1889 152.488 59.4901C152.653 59.7884 152.735 60.1761 152.735 60.6534V65H151.491V64.1051H151.44C151.357 64.2699 151.234 64.4318 151.069 64.5909C150.904 64.75 150.692 64.8821 150.434 64.9872C150.175 65.0923 149.866 65.1449 149.505 65.1449ZM149.782 64.1222C150.134 64.1222 150.435 64.0526 150.685 63.9134C150.938 63.7741 151.13 63.5923 151.261 63.3679C151.394 63.1406 151.461 62.8977 151.461 62.6392V61.7955C151.415 61.8409 151.327 61.8835 151.197 61.9233C151.069 61.9602 150.922 61.9929 150.758 62.0213C150.593 62.0469 150.432 62.071 150.276 62.0938C150.12 62.1136 149.989 62.1307 149.884 62.1449C149.637 62.1761 149.411 62.2287 149.207 62.3026C149.005 62.3764 148.843 62.483 148.721 62.6222C148.601 62.7585 148.542 62.9403 148.542 63.1676C148.542 63.483 148.658 63.7216 148.891 63.8835C149.124 64.0426 149.421 64.1222 149.782 64.1222ZM154.564 65V58.4545H155.838V65H154.564ZM155.208 57.4446C154.986 57.4446 154.796 57.3707 154.637 57.223C154.48 57.0724 154.402 56.8935 154.402 56.6861C154.402 56.4759 154.48 56.2969 154.637 56.1491C154.796 55.9986 154.986 55.9233 155.208 55.9233C155.429 55.9233 155.618 55.9986 155.774 56.1491C155.933 56.2969 156.013 56.4759 156.013 56.6861C156.013 56.8935 155.933 57.0724 155.774 57.223C155.618 57.3707 155.429 57.4446 155.208 57.4446Z" fill="white"/>
<defs>
<linearGradient id="paint0_linear_12630_18071" x1="1" y1="86" x2="279" y2="86" gradientUnits="userSpaceOnUse">
<stop stop-color="#009941"/>
<stop offset="1" stop-color="#0BCA5D"/>
</linearGradient>
<clipPath id="clip0_12630_18071">
<rect width="36" height="36" fill="white" transform="translate(34.5 25)"/>
</clipPath>
</defs>
</svg>
