<svg width="279" height="86" viewBox="0 0 279 86" fill="none" xmlns="http://www.w3.org/2000/svg">
<rect x="0.5" width="278.5" height="86" rx="8" fill="url(#paint0_linear_12630_17994)"/>
<g clip-path="url(#clip0_12630_17994)">
<path d="M61.0551 25.0581H43.9696C38.7764 25.0581 34.5664 29.2681 34.5664 34.4613V51.5435C34.5664 56.7367 38.7764 60.9467 43.9696 60.9467H61.0551C66.2484 60.9467 70.4583 56.7367 70.4583 51.5435V34.4613C70.4583 29.2681 66.2484 25.0581 61.0551 25.0581Z" fill="white"/>
<path d="M64.456 45.6356V49.0028L61.0389 51.1728V47.1322L62.0366 46.492L62.5687 46.1594L64.1401 45.1534L64.456 45.6356Z" fill="#04B14E"/>
<path d="M50.8043 29.3816V39.3252L47.3955 37.147V31.5599L50.8043 29.3816Z" fill="#04B14E"/>
<path d="M64.0985 43.7566L62.5687 46.1594L62.2611 46.6333L62.0366 46.492L61.0389 45.8518L50.8043 39.3252L47.3955 37.147V33.098L50.8043 35.2763L54.2214 37.4546L61.0389 41.8112L64.0985 43.7566Z" fill="#04B14E"/>
<path d="M64.456 35.9165V49.0028L61.0389 51.1728V33.7382L64.456 35.9165Z" fill="#04B14E"/>
<path d="M57.6301 39.6329V43.6818L54.2214 41.5035V37.4546L57.6301 39.6329Z" fill="#04B14E"/>
<path d="M57.6293 47.7223V51.7713L55.7005 50.5408L54.2206 49.593L53.6303 49.2189L53.4557 49.1108L52.8903 48.745L50.2132 47.0406L43.9859 43.0664L40.8765 41.0794L42.7139 38.211L43.9859 39.0175L53.6303 45.1699L54.2206 45.544L57.6293 47.7223Z" fill="#04B14E"/>
<path d="M55.5342 54.4983L55.3263 54.8226L54.2206 55.5293L52.5162 56.6184L49.3402 54.5898L40.5771 48.9944V44.9454L52.5162 52.5694L54.2206 53.6503L55.5342 54.4983Z" fill="#04B14E"/>
<path d="M57.6293 49.3103V53.351L55.3263 54.8226L54.2206 55.5293L52.5162 56.6184L49.3402 54.5898L52.5162 52.5694L54.2206 51.4803L55.7005 50.5408L57.6293 49.3103Z" fill="#04B14E"/>
<path d="M53.6303 45.1699V49.2189L53.4557 49.1108L52.8903 48.745L43.9859 43.0664L40.5771 40.8882V36.8392L42.7139 38.211L43.9859 39.0175L53.6303 45.1699Z" fill="#04B14E"/>
<path d="M57.6293 47.7223L57.6293 53.351L55.3263 54.8226L54.2206 55.5293V45.544L57.6293 47.7223Z" fill="#04B14E"/>
<path d="M43.9859 33.738L43.9859 43.0664L40.5771 40.8882V35.908L43.9859 33.738Z" fill="#04B14E"/>
<path d="M40.5771 44.9454L43.9859 47.1237V51.1727L40.5771 48.9944V44.9454Z" fill="#04B14E"/>
</g>
<path d="M107.365 23.0298C107.283 22.7713 107.172 22.5398 107.033 22.3352C106.896 22.1278 106.733 21.9517 106.543 21.8068C106.352 21.6591 106.135 21.5469 105.891 21.4702C105.649 21.3935 105.384 21.3551 105.094 21.3551C104.602 21.3551 104.159 21.4815 103.764 21.7344C103.369 21.9872 103.057 22.358 102.827 22.8466C102.599 23.3324 102.486 23.9276 102.486 24.6321C102.486 25.3395 102.601 25.9375 102.831 26.4261C103.061 26.9148 103.376 27.2855 103.777 27.5384C104.178 27.7912 104.634 27.9176 105.145 27.9176C105.619 27.9176 106.033 27.821 106.385 27.6278C106.74 27.4347 107.014 27.1619 107.207 26.8097C107.403 26.4545 107.501 26.0369 107.501 25.5568L107.842 25.6207H105.345V24.5341H108.776V25.527C108.776 26.2599 108.619 26.8963 108.307 27.4361C107.997 27.973 107.568 28.3878 107.02 28.6804C106.474 28.973 105.849 29.1193 105.145 29.1193C104.355 29.1193 103.662 28.9375 103.065 28.5739C102.472 28.2102 102.009 27.6946 101.676 27.027C101.344 26.3565 101.178 25.5611 101.178 24.6406C101.178 23.9446 101.274 23.3196 101.467 22.7656C101.661 22.2116 101.932 21.7415 102.281 21.3551C102.634 20.9659 103.047 20.669 103.521 20.4645C103.999 20.2571 104.52 20.1534 105.085 20.1534C105.557 20.1534 105.996 20.223 106.402 20.3622C106.811 20.5014 107.175 20.6989 107.493 20.9545C107.814 21.2102 108.08 21.5142 108.29 21.8665C108.5 22.2159 108.642 22.6037 108.716 23.0298H107.365ZM110.887 29V22.4545H112.161V29H110.887ZM111.53 21.4446C111.309 21.4446 111.119 21.3707 110.959 21.223C110.803 21.0724 110.725 20.8935 110.725 20.6861C110.725 20.4759 110.803 20.2969 110.959 20.1491C111.119 19.9986 111.309 19.9233 111.53 19.9233C111.752 19.9233 111.941 19.9986 112.097 20.1491C112.256 20.2969 112.336 20.4759 112.336 20.6861C112.336 20.8935 112.256 21.0724 112.097 21.223C111.941 21.3707 111.752 21.4446 111.53 21.4446ZM115.912 29.1449C115.497 29.1449 115.122 29.0682 114.787 28.9148C114.452 28.7585 114.186 28.5327 113.99 28.2372C113.797 27.9418 113.7 27.5795 113.7 27.1506C113.7 26.7812 113.771 26.4773 113.914 26.2386C114.056 26 114.247 25.8111 114.489 25.6719C114.73 25.5327 115 25.4276 115.298 25.3565C115.597 25.2855 115.901 25.2315 116.21 25.1946C116.602 25.1491 116.921 25.1122 117.165 25.0838C117.409 25.0526 117.587 25.0028 117.698 24.9347C117.808 24.8665 117.864 24.7557 117.864 24.6023V24.5724C117.864 24.2003 117.759 23.9119 117.548 23.7074C117.341 23.5028 117.031 23.4006 116.619 23.4006C116.19 23.4006 115.852 23.4957 115.605 23.6861C115.361 23.8736 115.192 24.0824 115.098 24.3125L113.901 24.0398C114.043 23.642 114.25 23.321 114.523 23.0767C114.798 22.8295 115.115 22.6506 115.473 22.5398C115.831 22.4261 116.208 22.3693 116.602 22.3693C116.864 22.3693 117.141 22.4006 117.433 22.4631C117.729 22.5227 118.004 22.6335 118.26 22.7955C118.519 22.9574 118.73 23.1889 118.895 23.4901C119.06 23.7884 119.142 24.1761 119.142 24.6534V29H117.898V28.1051H117.847C117.764 28.2699 117.641 28.4318 117.476 28.5909C117.311 28.75 117.1 28.8821 116.841 28.9872C116.583 29.0923 116.273 29.1449 115.912 29.1449ZM116.189 28.1222C116.541 28.1222 116.842 28.0526 117.092 27.9134C117.345 27.7741 117.537 27.5923 117.668 27.3679C117.801 27.1406 117.868 26.8977 117.868 26.6392V25.7955C117.823 25.8409 117.735 25.8835 117.604 25.9233C117.476 25.9602 117.33 25.9929 117.165 26.0213C117 26.0469 116.84 26.071 116.683 26.0938C116.527 26.1136 116.396 26.1307 116.291 26.1449C116.044 26.1761 115.818 26.2287 115.614 26.3026C115.412 26.3764 115.25 26.483 115.128 26.6222C115.009 26.7585 114.949 26.9403 114.949 27.1676C114.949 27.483 115.065 27.7216 115.298 27.8835C115.531 28.0426 115.828 28.1222 116.189 28.1222ZM117.19 21.5511H116.185L116.151 20.6818C116.452 20.6676 116.665 20.6278 116.79 20.5625C116.915 20.4943 116.976 20.3963 116.973 20.2685C116.976 20.1151 116.889 20.0057 116.713 19.9403C116.54 19.875 116.328 19.8423 116.078 19.8423L116.117 19.1392C116.762 19.1392 117.25 19.2415 117.583 19.446C117.918 19.6506 118.084 19.9261 118.081 20.2727C118.084 20.554 117.992 20.7614 117.804 20.8949C117.619 21.0256 117.415 21.108 117.19 21.142V21.5511ZM120.971 29V22.4545H122.245V29H120.971ZM121.615 21.4446C121.393 21.4446 121.203 21.3707 121.044 21.223C120.887 21.0724 120.809 20.8935 120.809 20.6861C120.809 20.4759 120.887 20.2969 121.044 20.1491C121.203 19.9986 121.393 19.9233 121.615 19.9233C121.836 19.9233 122.025 19.9986 122.182 20.1491C122.341 20.2969 122.42 20.4759 122.42 20.6861C122.42 20.8935 122.341 21.0724 122.182 21.223C122.025 21.3707 121.836 21.4446 121.615 21.4446ZM127.399 31.4545V22.4545H128.644V23.5156H128.75C128.824 23.3793 128.931 23.2216 129.07 23.0426C129.209 22.8636 129.402 22.7074 129.649 22.5739C129.897 22.4375 130.223 22.3693 130.629 22.3693C131.158 22.3693 131.629 22.5028 132.044 22.7699C132.459 23.0369 132.784 23.4219 133.02 23.9247C133.259 24.4276 133.378 25.0327 133.378 25.7401C133.378 26.4474 133.26 27.054 133.024 27.5597C132.789 28.0625 132.465 28.4503 132.053 28.723C131.641 28.9929 131.171 29.1278 130.642 29.1278C130.245 29.1278 129.919 29.0611 129.666 28.9276C129.416 28.794 129.22 28.6378 129.078 28.4588C128.936 28.2798 128.827 28.1207 128.75 27.9815H128.673V31.4545H127.399ZM128.648 25.7273C128.648 26.1875 128.715 26.5909 128.848 26.9375C128.982 27.2841 129.175 27.5554 129.428 27.7514C129.681 27.9446 129.99 28.0412 130.357 28.0412C130.737 28.0412 131.056 27.9403 131.311 27.7386C131.567 27.5341 131.76 27.2571 131.891 26.9077C132.024 26.5582 132.091 26.1648 132.091 25.7273C132.091 25.2955 132.026 24.9077 131.895 24.5639C131.767 24.2202 131.574 23.9489 131.316 23.75C131.06 23.5511 130.74 23.4517 130.357 23.4517C129.987 23.4517 129.675 23.5469 129.419 23.7372C129.166 23.9276 128.975 24.1932 128.844 24.5341C128.713 24.875 128.648 25.2727 128.648 25.7273ZM136.212 25.1136V29H134.938V20.2727H136.195V23.5199H136.276C136.429 23.1676 136.663 22.8878 136.979 22.6804C137.294 22.473 137.706 22.3693 138.215 22.3693C138.663 22.3693 139.055 22.4616 139.391 22.6463C139.729 22.831 139.99 23.1065 140.175 23.473C140.362 23.8366 140.456 24.2912 140.456 24.8366V29H139.182V24.9901C139.182 24.5099 139.058 24.1378 138.811 23.8736C138.564 23.6065 138.22 23.473 137.78 23.473C137.479 23.473 137.209 23.5369 136.97 23.6648C136.734 23.7926 136.548 23.9801 136.412 24.2273C136.279 24.4716 136.212 24.767 136.212 25.1136ZM144.193 29.1449C143.778 29.1449 143.403 29.0682 143.068 28.9148C142.733 28.7585 142.467 28.5327 142.271 28.2372C142.078 27.9418 141.982 27.5795 141.982 27.1506C141.982 26.7812 142.053 26.4773 142.195 26.2386C142.337 26 142.528 25.8111 142.77 25.6719C143.011 25.5327 143.281 25.4276 143.58 25.3565C143.878 25.2855 144.182 25.2315 144.491 25.1946C144.884 25.1491 145.202 25.1122 145.446 25.0838C145.69 25.0526 145.868 25.0028 145.979 24.9347C146.089 24.8665 146.145 24.7557 146.145 24.6023V24.5724C146.145 24.2003 146.04 23.9119 145.83 23.7074C145.622 23.5028 145.312 23.4006 144.901 23.4006C144.472 23.4006 144.134 23.4957 143.886 23.6861C143.642 23.8736 143.473 24.0824 143.379 24.3125L142.182 24.0398C142.324 23.642 142.531 23.321 142.804 23.0767C143.08 22.8295 143.396 22.6506 143.754 22.5398C144.112 22.4261 144.489 22.3693 144.884 22.3693C145.145 22.3693 145.422 22.4006 145.714 22.4631C146.01 22.5227 146.286 22.6335 146.541 22.7955C146.8 22.9574 147.011 23.1889 147.176 23.4901C147.341 23.7884 147.423 24.1761 147.423 24.6534V29H146.179V28.1051H146.128C146.045 28.2699 145.922 28.4318 145.757 28.5909C145.592 28.75 145.381 28.8821 145.122 28.9872C144.864 29.0923 144.554 29.1449 144.193 29.1449ZM144.47 28.1222C144.822 28.1222 145.124 28.0526 145.374 27.9134C145.626 27.7741 145.818 27.5923 145.949 27.3679C146.082 27.1406 146.149 26.8977 146.149 26.6392V25.7955C146.104 25.8409 146.016 25.8835 145.885 25.9233C145.757 25.9602 145.611 25.9929 145.446 26.0213C145.281 26.0469 145.121 26.071 144.964 26.0938C144.808 26.1136 144.678 26.1307 144.572 26.1449C144.325 26.1761 144.099 26.2287 143.895 26.3026C143.693 26.3764 143.531 26.483 143.409 26.6222C143.29 26.7585 143.23 26.9403 143.23 27.1676C143.23 27.483 143.347 27.7216 143.58 27.8835C143.812 28.0426 144.109 28.1222 144.47 28.1222ZM144.423 21.581L145.42 19.6165H146.763L145.442 21.581H144.423ZM149.252 31.4545V22.4545H150.497V23.5156H150.603C150.677 23.3793 150.784 23.2216 150.923 23.0426C151.062 22.8636 151.255 22.7074 151.502 22.5739C151.75 22.4375 152.076 22.3693 152.482 22.3693C153.011 22.3693 153.482 22.5028 153.897 22.7699C154.312 23.0369 154.637 23.4219 154.873 23.9247C155.112 24.4276 155.231 25.0327 155.231 25.7401C155.231 26.4474 155.113 27.054 154.877 27.5597C154.642 28.0625 154.318 28.4503 153.906 28.723C153.494 28.9929 153.024 29.1278 152.495 29.1278C152.098 29.1278 151.772 29.0611 151.519 28.9276C151.269 28.794 151.073 28.6378 150.931 28.4588C150.789 28.2798 150.68 28.1207 150.603 27.9815H150.527V31.4545H149.252ZM150.501 25.7273C150.501 26.1875 150.568 26.5909 150.701 26.9375C150.835 27.2841 151.028 27.5554 151.281 27.7514C151.534 27.9446 151.843 28.0412 152.21 28.0412C152.59 28.0412 152.909 27.9403 153.164 27.7386C153.42 27.5341 153.613 27.2571 153.744 26.9077C153.877 26.5582 153.944 26.1648 153.944 25.7273C153.944 25.2955 153.879 24.9077 153.748 24.5639C153.62 24.2202 153.427 23.9489 153.169 23.75C152.913 23.5511 152.593 23.4517 152.21 23.4517C151.84 23.4517 151.528 23.5469 151.272 23.7372C151.019 23.9276 150.828 24.1932 150.697 24.5341C150.566 24.875 150.501 25.2727 150.501 25.7273ZM164.517 31.4545V27.9815H164.441C164.364 28.1207 164.253 28.2798 164.108 28.4588C163.966 28.6378 163.77 28.794 163.52 28.9276C163.27 29.0611 162.946 29.1278 162.549 29.1278C162.02 29.1278 161.549 28.9929 161.134 28.723C160.722 28.4503 160.398 28.0625 160.162 27.5597C159.929 27.054 159.813 26.4474 159.813 25.7401C159.813 25.0327 159.931 24.4276 160.167 23.9247C160.405 23.4219 160.732 23.0369 161.147 22.7699C161.561 22.5028 162.032 22.3693 162.557 22.3693C162.963 22.3693 163.29 22.4375 163.537 22.5739C163.787 22.7074 163.981 22.8636 164.117 23.0426C164.256 23.2216 164.364 23.3793 164.441 23.5156H164.547V22.4545H165.792V31.4545H164.517ZM162.83 28.0412C163.196 28.0412 163.506 27.9446 163.759 27.7514C164.015 27.5554 164.208 27.2841 164.338 26.9375C164.472 26.5909 164.539 26.1875 164.539 25.7273C164.539 25.2727 164.473 24.875 164.343 24.5341C164.212 24.1932 164.02 23.9276 163.767 23.7372C163.515 23.5469 163.202 23.4517 162.83 23.4517C162.446 23.4517 162.127 23.5511 161.871 23.75C161.615 23.9489 161.422 24.2202 161.292 24.5639C161.164 24.9077 161.1 25.2955 161.1 25.7273C161.1 26.1648 161.165 26.5582 161.296 26.9077C161.427 27.2571 161.62 27.5341 161.875 27.7386C162.134 27.9403 162.452 28.0412 162.83 28.0412ZM171.783 26.2855V22.4545H173.061V29H171.809V27.8665H171.74C171.59 28.2159 171.348 28.5071 171.016 28.7401C170.686 28.9702 170.276 29.0852 169.784 29.0852C169.364 29.0852 168.992 28.9929 168.668 28.8082C168.347 28.6207 168.094 28.3438 167.909 27.9773C167.728 27.6108 167.637 27.1577 167.637 26.6179V22.4545H168.911V26.4645C168.911 26.9105 169.034 27.2656 169.282 27.5298C169.529 27.794 169.85 27.9261 170.245 27.9261C170.483 27.9261 170.72 27.8665 170.956 27.7472C171.195 27.6278 171.392 27.4474 171.549 27.206C171.708 26.9645 171.786 26.6577 171.783 26.2855ZM176.81 29.1449C176.395 29.1449 176.02 29.0682 175.685 28.9148C175.35 28.7585 175.084 28.5327 174.888 28.2372C174.695 27.9418 174.599 27.5795 174.599 27.1506C174.599 26.7812 174.67 26.4773 174.812 26.2386C174.954 26 175.145 25.8111 175.387 25.6719C175.628 25.5327 175.898 25.4276 176.197 25.3565C176.495 25.2855 176.799 25.2315 177.109 25.1946C177.501 25.1491 177.819 25.1122 178.063 25.0838C178.307 25.0526 178.485 25.0028 178.596 24.9347C178.707 24.8665 178.762 24.7557 178.762 24.6023V24.5724C178.762 24.2003 178.657 23.9119 178.447 23.7074C178.239 23.5028 177.93 23.4006 177.518 23.4006C177.089 23.4006 176.751 23.4957 176.503 23.6861C176.259 23.8736 176.09 24.0824 175.996 24.3125L174.799 24.0398C174.941 23.642 175.148 23.321 175.421 23.0767C175.697 22.8295 176.013 22.6506 176.371 22.5398C176.729 22.4261 177.106 22.3693 177.501 22.3693C177.762 22.3693 178.039 22.4006 178.332 22.4631C178.627 22.5227 178.903 22.6335 179.158 22.7955C179.417 22.9574 179.628 23.1889 179.793 23.4901C179.958 23.7884 180.04 24.1761 180.04 24.6534V29H178.796V28.1051H178.745C178.662 28.2699 178.539 28.4318 178.374 28.5909C178.209 28.75 177.998 28.8821 177.739 28.9872C177.481 29.0923 177.171 29.1449 176.81 29.1449ZM177.087 28.1222C177.439 28.1222 177.741 28.0526 177.991 27.9134C178.243 27.7741 178.435 27.5923 178.566 27.3679C178.699 27.1406 178.766 26.8977 178.766 26.6392V25.7955C178.721 25.8409 178.633 25.8835 178.502 25.9233C178.374 25.9602 178.228 25.9929 178.063 26.0213C177.898 26.0469 177.738 26.071 177.582 26.0938C177.425 26.1136 177.295 26.1307 177.189 26.1449C176.942 26.1761 176.716 26.2287 176.512 26.3026C176.31 26.3764 176.148 26.483 176.026 26.6222C175.907 26.7585 175.847 26.9403 175.847 27.1676C175.847 27.483 175.964 27.7216 176.197 27.8835C176.43 28.0426 176.726 28.1222 177.087 28.1222ZM178.089 21.5511H177.083L177.049 20.6818C177.35 20.6676 177.563 20.6278 177.688 20.5625C177.813 20.4943 177.874 20.3963 177.871 20.2685C177.874 20.1151 177.787 20.0057 177.611 19.9403C177.438 19.875 177.226 19.8423 176.976 19.8423L177.015 19.1392C177.66 19.1392 178.148 19.2415 178.481 19.446C178.816 19.6506 178.982 19.9261 178.979 20.2727C178.982 20.554 178.89 20.7614 178.702 20.8949C178.518 21.0256 178.313 21.108 178.089 21.142V21.5511ZM183.144 25.1136V29H181.869V22.4545H183.092V23.5199H183.173C183.324 23.1733 183.56 22.8949 183.881 22.6847C184.205 22.4744 184.612 22.3693 185.104 22.3693C185.55 22.3693 185.94 22.4631 186.276 22.6506C186.611 22.8352 186.871 23.1108 187.055 23.4773C187.24 23.8437 187.332 24.2969 187.332 24.8366V29H186.058V24.9901C186.058 24.5156 185.935 24.1449 185.688 23.8778C185.44 23.608 185.101 23.473 184.669 23.473C184.374 23.473 184.111 23.5369 183.881 23.6648C183.654 23.7926 183.473 23.9801 183.34 24.2273C183.209 24.4716 183.144 24.767 183.144 25.1136ZM195.536 22.4545V23.4773H191.961V22.4545H195.536ZM192.92 20.8864H194.194V27.0781C194.194 27.3253 194.231 27.5114 194.305 27.6364C194.379 27.7585 194.474 27.8423 194.59 27.8878C194.71 27.9304 194.839 27.9517 194.978 27.9517C195.081 27.9517 195.17 27.9446 195.247 27.9304C195.323 27.9162 195.383 27.9048 195.426 27.8963L195.656 28.9489C195.582 28.9773 195.477 29.0057 195.34 29.0341C195.204 29.0653 195.034 29.0824 194.829 29.0852C194.494 29.0909 194.181 29.0312 193.892 28.9062C193.602 28.7812 193.367 28.5881 193.188 28.3267C193.009 28.0653 192.92 27.7372 192.92 27.3423V20.8864ZM197.078 29V22.4545H198.309V23.4943H198.378C198.497 23.142 198.707 22.8651 199.008 22.6634C199.312 22.4588 199.656 22.3565 200.04 22.3565C200.119 22.3565 200.213 22.3594 200.321 22.3651C200.432 22.3707 200.518 22.3778 200.581 22.3864V23.6051C200.53 23.5909 200.439 23.5753 200.308 23.5582C200.177 23.5384 200.047 23.5284 199.916 23.5284C199.615 23.5284 199.346 23.5923 199.111 23.7202C198.878 23.8452 198.693 24.0199 198.557 24.2443C198.42 24.4659 198.352 24.7187 198.352 25.0028V29H197.078ZM201.815 29V22.4545H203.09V29H201.815ZM202.459 21.4446C202.237 21.4446 202.047 21.3707 201.888 21.223C201.732 21.0724 201.653 20.8935 201.653 20.6861C201.653 20.4759 201.732 20.2969 201.888 20.1491C202.047 19.9986 202.237 19.9233 202.459 19.9233C202.68 19.9233 202.869 19.9986 203.026 20.1491C203.185 20.2969 203.264 20.4759 203.264 20.6861C203.264 20.8935 203.185 21.0724 203.026 21.223C202.869 21.3707 202.68 21.4446 202.459 21.4446ZM202.463 31.2585C202.244 31.2585 202.055 31.1847 201.896 31.0369C201.737 30.8892 201.658 30.7102 201.658 30.5C201.658 30.2898 201.737 30.1108 201.896 29.9631C202.055 29.8153 202.244 29.7415 202.463 29.7415C202.685 29.7415 202.874 29.8153 203.03 29.9631C203.189 30.1108 203.269 30.2898 203.269 30.5C203.269 30.7102 203.189 30.8892 203.03 31.0369C202.874 31.1847 202.685 31.2585 202.463 31.2585ZM104.412 40.4545V41.4773H100.837V40.4545H104.412ZM101.795 38.8864H103.07V45.0781C103.07 45.3253 103.107 45.5114 103.18 45.6364C103.254 45.7585 103.349 45.8423 103.466 45.8878C103.585 45.9304 103.714 45.9517 103.854 45.9517C103.956 45.9517 104.045 45.9446 104.122 45.9304C104.199 45.9162 104.259 45.9048 104.301 45.8963L104.531 46.9489C104.457 46.9773 104.352 47.0057 104.216 47.0341C104.08 47.0653 103.909 47.0824 103.705 47.0852C103.369 47.0909 103.057 47.0312 102.767 46.9062C102.477 46.7812 102.243 46.5881 102.064 46.3267C101.885 46.0653 101.795 45.7372 101.795 45.3423V38.8864ZM110.1 44.2855V40.4545H111.378V47H110.125V45.8665H110.057C109.907 46.2159 109.665 46.5071 109.333 46.7401C109.003 46.9702 108.593 47.0852 108.101 47.0852C107.681 47.0852 107.308 46.9929 106.985 46.8082C106.664 46.6207 106.411 46.3438 106.226 45.9773C106.044 45.6108 105.953 45.1577 105.953 44.6179V40.4545H107.228V44.4645C107.228 44.9105 107.351 45.2656 107.598 45.5298C107.845 45.794 108.166 45.9261 108.561 45.9261C108.8 45.9261 109.037 45.8665 109.273 45.7472C109.512 45.6278 109.709 45.4474 109.865 45.206C110.024 44.9645 110.103 44.6577 110.1 44.2855ZM114.027 49.4545C113.837 49.4545 113.664 49.4389 113.508 49.4077C113.351 49.3793 113.235 49.348 113.158 49.3139L113.465 48.2699C113.698 48.3324 113.905 48.3594 114.087 48.3509C114.269 48.3423 114.429 48.2741 114.569 48.1463C114.711 48.0185 114.836 47.8097 114.944 47.5199L115.101 47.0852L112.706 40.4545H114.07L115.728 45.5341H115.796L117.454 40.4545H118.822L116.124 47.8736C115.999 48.2145 115.84 48.5028 115.647 48.7386C115.454 48.9773 115.224 49.1563 114.956 49.2756C114.689 49.3949 114.38 49.4545 114.027 49.4545ZM122.749 47.1321C122.104 47.1321 121.549 46.9943 121.083 46.7188C120.62 46.4403 120.262 46.0497 120.009 45.5469C119.759 45.0412 119.634 44.4489 119.634 43.7699C119.634 43.0994 119.759 42.5085 120.009 41.9972C120.262 41.4858 120.614 41.0866 121.066 40.7997C121.521 40.5128 122.052 40.3693 122.66 40.3693C123.029 40.3693 123.387 40.4304 123.734 40.5526C124.08 40.6747 124.391 40.8665 124.667 41.1278C124.943 41.3892 125.16 41.7287 125.319 42.1463C125.478 42.5611 125.558 43.0653 125.558 43.6591V44.1108H120.354V43.1562H124.309C124.309 42.821 124.241 42.5241 124.104 42.2656C123.968 42.0043 123.776 41.7983 123.529 41.6477C123.285 41.4972 122.998 41.4219 122.668 41.4219C122.31 41.4219 121.998 41.5099 121.731 41.6861C121.467 41.8594 121.262 42.0866 121.117 42.3679C120.975 42.6463 120.904 42.9489 120.904 43.2756V44.0213C120.904 44.4588 120.981 44.831 121.134 45.1378C121.291 45.4446 121.508 45.679 121.786 45.8409C122.065 46 122.39 46.0795 122.762 46.0795C123.004 46.0795 123.224 46.0455 123.423 45.9773C123.621 45.9062 123.793 45.8011 123.938 45.6619C124.083 45.5227 124.194 45.3509 124.271 45.1463L125.477 45.3636C125.38 45.7187 125.207 46.0298 124.957 46.2969C124.71 46.5611 124.398 46.767 124.023 46.9148C123.651 47.0597 123.227 47.1321 122.749 47.1321ZM123.167 38.2898L124.808 39.7685H123.687L122.596 38.8011L121.518 39.7685H120.397L122.033 38.2898H123.167ZM125.05 38.9716H124.258L124.232 38.2386C124.471 38.2216 124.647 38.1889 124.761 38.1406C124.874 38.0923 124.931 38.0099 124.931 37.8935C124.931 37.7571 124.857 37.6634 124.71 37.6122C124.562 37.5582 124.376 37.5312 124.151 37.5312L124.19 36.9261C124.724 36.9261 125.129 37.0128 125.404 37.1861C125.68 37.3565 125.818 37.5895 125.818 37.8849C125.818 38.1264 125.738 38.3054 125.579 38.4219C125.42 38.5355 125.244 38.6051 125.05 38.6307V38.9716ZM128.377 43.1136V47H127.103V40.4545H128.326V41.5199H128.407C128.558 41.1733 128.794 40.8949 129.115 40.6847C129.439 40.4744 129.846 40.3693 130.338 40.3693C130.784 40.3693 131.174 40.4631 131.51 40.6506C131.845 40.8352 132.105 41.1108 132.289 41.4773C132.474 41.8437 132.566 42.2969 132.566 42.8366V47H131.292V42.9901C131.292 42.5156 131.169 42.1449 130.921 41.8778C130.674 41.608 130.335 41.473 129.903 41.473C129.608 41.473 129.345 41.5369 129.115 41.6648C128.887 41.7926 128.707 41.9801 128.573 42.2273C128.443 42.4716 128.377 42.767 128.377 43.1136ZM140.165 47.1278C139.637 47.1278 139.165 46.9929 138.75 46.723C138.339 46.4503 138.015 46.0625 137.779 45.5597C137.546 45.054 137.429 44.4474 137.429 43.7401C137.429 43.0327 137.547 42.4276 137.783 41.9247C138.022 41.4219 138.348 41.0369 138.763 40.7699C139.178 40.5028 139.648 40.3693 140.174 40.3693C140.58 40.3693 140.907 40.4375 141.154 40.5739C141.404 40.7074 141.597 40.8636 141.733 41.0426C141.873 41.2216 141.981 41.3793 142.057 41.5156H142.134V38.2727H143.408V47H142.164V45.9815H142.057C141.981 46.1207 141.87 46.2798 141.725 46.4588C141.583 46.6378 141.387 46.794 141.137 46.9276C140.887 47.0611 140.563 47.1278 140.165 47.1278ZM140.446 46.0412C140.813 46.0412 141.123 45.9446 141.375 45.7514C141.631 45.5554 141.824 45.2841 141.955 44.9375C142.089 44.5909 142.155 44.1875 142.155 43.7273C142.155 43.2727 142.09 42.875 141.959 42.5341C141.829 42.1932 141.637 41.9276 141.384 41.7372C141.131 41.5469 140.819 41.4517 140.446 41.4517C140.063 41.4517 139.743 41.5511 139.488 41.75C139.232 41.9489 139.039 42.2202 138.908 42.5639C138.78 42.9077 138.716 43.2955 138.716 43.7273C138.716 44.1648 138.782 44.5582 138.912 44.9077C139.043 45.2571 139.236 45.5341 139.492 45.7386C139.75 45.9403 140.069 46.0412 140.446 46.0412ZM149.505 44.2855V40.4545H150.783V47H149.531V45.8665H149.462C149.312 46.2159 149.07 46.5071 148.738 46.7401C148.408 46.9702 147.998 47.0852 147.506 47.0852C147.086 47.0852 146.714 46.9929 146.39 46.8082C146.069 46.6207 145.816 46.3438 145.631 45.9773C145.45 45.6108 145.359 45.1577 145.359 44.6179V40.4545H146.633V44.4645C146.633 44.9105 146.756 45.2656 147.004 45.5298C147.251 45.794 147.572 45.9261 147.967 45.9261C148.205 45.9261 148.442 45.8665 148.678 45.7472C148.917 45.6278 149.114 45.4474 149.271 45.206C149.43 44.9645 149.508 44.6577 149.505 44.2855ZM148.167 49.2585C147.948 49.2585 147.759 49.1847 147.6 49.0369C147.441 48.8892 147.361 48.7102 147.361 48.5C147.361 48.2898 147.441 48.1108 147.6 47.9631C147.759 47.8153 147.948 47.7415 148.167 47.7415C148.388 47.7415 148.577 47.8153 148.734 47.9631C148.893 48.1108 148.972 48.2898 148.972 48.5C148.972 48.7102 148.893 48.8892 148.734 49.0369C148.577 49.1847 148.388 49.2585 148.167 49.2585ZM153.902 43.1136V47H152.627V40.4545H153.85V41.5199H153.931C154.082 41.1733 154.318 40.8949 154.639 40.6847C154.963 40.4744 155.37 40.3693 155.862 40.3693C156.308 40.3693 156.698 40.4631 157.034 40.6506C157.369 40.8352 157.629 41.1108 157.813 41.4773C157.998 41.8437 158.09 42.2969 158.09 42.8366V47H156.816V42.9901C156.816 42.5156 156.693 42.1449 156.446 41.8778C156.198 41.608 155.859 41.473 155.427 41.473C155.132 41.473 154.869 41.5369 154.639 41.6648C154.411 41.7926 154.231 41.9801 154.098 42.2273C153.967 42.4716 153.902 42.767 153.902 43.1136ZM162.676 49.5909C162.156 49.5909 161.708 49.5227 161.333 49.3864C160.961 49.25 160.657 49.0696 160.421 48.8452C160.186 48.6207 160.009 48.375 159.893 48.108L160.988 47.6562C161.065 47.7812 161.167 47.9134 161.295 48.0526C161.426 48.1946 161.602 48.3153 161.823 48.4148C162.048 48.5142 162.336 48.5639 162.688 48.5639C163.171 48.5639 163.57 48.446 163.886 48.2102C164.201 47.9773 164.359 47.6051 164.359 47.0938V45.8068H164.278C164.201 45.946 164.09 46.1009 163.945 46.2713C163.803 46.4418 163.607 46.5895 163.357 46.7145C163.107 46.8395 162.782 46.902 162.382 46.902C161.864 46.902 161.399 46.7812 160.984 46.5398C160.572 46.2955 160.245 45.9361 160.004 45.4616C159.765 44.9844 159.646 44.3977 159.646 43.7017C159.646 43.0057 159.764 42.4091 159.999 41.9119C160.238 41.4148 160.565 41.0341 160.98 40.7699C161.394 40.5028 161.864 40.3693 162.39 40.3693C162.796 40.3693 163.124 40.4375 163.374 40.5739C163.624 40.7074 163.819 40.8636 163.958 41.0426C164.1 41.2216 164.21 41.3793 164.286 41.5156H164.38V40.4545H165.629V47.1449C165.629 47.7074 165.498 48.169 165.237 48.5298C164.975 48.8906 164.622 49.1577 164.176 49.331C163.732 49.5043 163.232 49.5909 162.676 49.5909ZM162.663 45.8452C163.029 45.8452 163.339 45.7599 163.592 45.5895C163.847 45.4162 164.041 45.169 164.171 44.848C164.305 44.5241 164.372 44.1364 164.372 43.6847C164.372 43.2443 164.306 42.8565 164.176 42.5213C164.045 42.1861 163.853 41.9247 163.6 41.7372C163.347 41.5469 163.035 41.4517 162.663 41.4517C162.279 41.4517 161.96 41.5511 161.704 41.75C161.448 41.946 161.255 42.2131 161.124 42.5511C160.997 42.8892 160.933 43.267 160.933 43.6847C160.933 44.1136 160.998 44.4901 161.129 44.8139C161.259 45.1378 161.453 45.3906 161.708 45.5724C161.967 45.7543 162.285 45.8452 162.663 45.8452ZM172.051 43.1136V47H170.777V38.2727H172.034V41.5199H172.115C172.269 41.1676 172.503 40.8878 172.818 40.6804C173.134 40.473 173.546 40.3693 174.054 40.3693C174.503 40.3693 174.895 40.4616 175.23 40.6463C175.568 40.831 175.83 41.1065 176.015 41.473C176.202 41.8366 176.296 42.2912 176.296 42.8366V47H175.022V42.9901C175.022 42.5099 174.898 42.1378 174.651 41.8736C174.404 41.6065 174.06 41.473 173.62 41.473C173.318 41.473 173.049 41.5369 172.81 41.6648C172.574 41.7926 172.388 41.9801 172.252 42.2273C172.118 42.4716 172.051 42.767 172.051 43.1136ZM178.128 47V40.4545H179.402V47H178.128ZM178.771 39.4446C178.55 39.4446 178.36 39.3707 178.2 39.223C178.044 39.0724 177.966 38.8935 177.966 38.6861C177.966 38.4759 178.044 38.2969 178.2 38.1491C178.36 37.9986 178.55 37.9233 178.771 37.9233C178.993 37.9233 179.182 37.9986 179.338 38.1491C179.497 38.2969 179.577 38.4759 179.577 38.6861C179.577 38.8935 179.497 39.0724 179.338 39.223C179.182 39.3707 178.993 39.4446 178.771 39.4446ZM184.069 47.1321C183.424 47.1321 182.869 46.9943 182.403 46.7188C181.94 46.4403 181.582 46.0497 181.329 45.5469C181.079 45.0412 180.954 44.4489 180.954 43.7699C180.954 43.0994 181.079 42.5085 181.329 41.9972C181.582 41.4858 181.934 41.0866 182.386 40.7997C182.841 40.5128 183.372 40.3693 183.98 40.3693C184.349 40.3693 184.707 40.4304 185.054 40.5526C185.4 40.6747 185.711 40.8665 185.987 41.1278C186.263 41.3892 186.48 41.7287 186.639 42.1463C186.798 42.5611 186.878 43.0653 186.878 43.6591V44.1108H181.674V43.1562H185.629C185.629 42.821 185.561 42.5241 185.424 42.2656C185.288 42.0043 185.096 41.7983 184.849 41.6477C184.605 41.4972 184.318 41.4219 183.988 41.4219C183.63 41.4219 183.318 41.5099 183.051 41.6861C182.787 41.8594 182.582 42.0866 182.437 42.3679C182.295 42.6463 182.224 42.9489 182.224 43.2756V44.0213C182.224 44.4588 182.301 44.831 182.454 45.1378C182.611 45.4446 182.828 45.679 183.106 45.8409C183.385 46 183.71 46.0795 184.082 46.0795C184.324 46.0795 184.544 46.0455 184.743 45.9773C184.942 45.9062 185.113 45.8011 185.258 45.6619C185.403 45.5227 185.514 45.3509 185.591 45.1463L186.797 45.3636C186.7 45.7187 186.527 46.0298 186.277 46.2969C186.03 46.5611 185.718 46.767 185.343 46.9148C184.971 47.0597 184.547 47.1321 184.069 47.1321ZM184.807 39.6705L183.933 38.5284L183.055 39.6705H181.905V39.6065L183.4 37.7997H184.461L185.961 39.6065V39.6705H184.807ZM183.929 49.2585C183.71 49.2585 183.521 49.1847 183.362 49.0369C183.203 48.8892 183.123 48.7102 183.123 48.5C183.123 48.2898 183.203 48.1108 183.362 47.9631C183.521 47.8153 183.71 47.7415 183.929 47.7415C184.15 47.7415 184.339 47.8153 184.495 47.9631C184.655 48.1108 184.734 48.2898 184.734 48.5C184.734 48.7102 184.655 48.8892 184.495 49.0369C184.339 49.1847 184.15 49.2585 183.929 49.2585ZM192.57 44.2855V40.4545H193.848V47H192.595V45.8665H192.527C192.376 46.2159 192.135 46.5071 191.803 46.7401C191.473 46.9702 191.062 47.0852 190.571 47.0852C190.151 47.0852 189.778 46.9929 189.455 46.8082C189.134 46.6207 188.881 46.3438 188.696 45.9773C188.514 45.6108 188.423 45.1577 188.423 44.6179V40.4545H189.697V44.4645C189.697 44.9105 189.821 45.2656 190.068 45.5298C190.315 45.794 190.636 45.9261 191.031 45.9261C191.27 45.9261 191.507 45.8665 191.743 45.7472C191.982 45.6278 192.179 45.4474 192.335 45.206C192.494 44.9645 192.572 44.6577 192.57 44.2855ZM203.905 42.0526L202.75 42.2571C202.701 42.1094 202.625 41.9687 202.52 41.8352C202.417 41.7017 202.278 41.5923 202.102 41.5071C201.926 41.4219 201.706 41.3793 201.442 41.3793C201.081 41.3793 200.78 41.4602 200.538 41.6222C200.297 41.7812 200.176 41.9872 200.176 42.2401C200.176 42.4588 200.257 42.6349 200.419 42.7685C200.581 42.902 200.842 43.0114 201.203 43.0966L202.243 43.3352C202.845 43.4744 203.294 43.6889 203.589 43.9787C203.885 44.2685 204.032 44.6449 204.032 45.108C204.032 45.5 203.919 45.8494 203.692 46.1562C203.467 46.4602 203.153 46.6989 202.75 46.8722C202.349 47.0455 201.885 47.1321 201.356 47.1321C200.623 47.1321 200.025 46.9759 199.562 46.6634C199.099 46.348 198.815 45.9006 198.71 45.321L199.942 45.1335C200.018 45.4545 200.176 45.6974 200.415 45.8622C200.653 46.0241 200.964 46.1051 201.348 46.1051C201.765 46.1051 202.099 46.0185 202.349 45.8452C202.599 45.669 202.724 45.4545 202.724 45.2017C202.724 44.9972 202.648 44.8253 202.494 44.6861C202.344 44.5469 202.112 44.4418 201.799 44.3707L200.692 44.1278C200.081 43.9886 199.629 43.767 199.336 43.4631C199.047 43.1591 198.902 42.7741 198.902 42.3082C198.902 41.9219 199.01 41.5838 199.226 41.294C199.442 41.0043 199.74 40.7784 200.121 40.6165C200.501 40.4517 200.937 40.3693 201.429 40.3693C202.136 40.3693 202.693 40.5227 203.099 40.8295C203.505 41.1335 203.774 41.5412 203.905 42.0526ZM209.712 44.2855V40.4545H210.99V47H209.737V45.8665H209.669C209.519 46.2159 209.277 46.5071 208.945 46.7401C208.615 46.9702 208.205 47.0852 207.713 47.0852C207.293 47.0852 206.92 46.9929 206.597 46.8082C206.276 46.6207 206.023 46.3438 205.838 45.9773C205.656 45.6108 205.565 45.1577 205.565 44.6179V40.4545H206.84V44.4645C206.84 44.9105 206.963 45.2656 207.21 45.5298C207.457 45.794 207.778 45.9261 208.173 45.9261C208.412 45.9261 208.649 45.8665 208.885 45.7472C209.124 45.6278 209.321 45.4474 209.477 45.206C209.636 44.9645 209.715 44.6577 209.712 44.2855ZM214.739 47.1449C214.324 47.1449 213.949 47.0682 213.614 46.9148C213.279 46.7585 213.013 46.5327 212.817 46.2372C212.624 45.9418 212.527 45.5795 212.527 45.1506C212.527 44.7812 212.598 44.4773 212.74 44.2386C212.882 44 213.074 43.8111 213.316 43.6719C213.557 43.5327 213.827 43.4276 214.125 43.3565C214.424 43.2855 214.728 43.2315 215.037 43.1946C215.429 43.1491 215.747 43.1122 215.992 43.0838C216.236 43.0526 216.414 43.0028 216.524 42.9347C216.635 42.8665 216.691 42.7557 216.691 42.6023V42.5724C216.691 42.2003 216.586 41.9119 216.375 41.7074C216.168 41.5028 215.858 41.4006 215.446 41.4006C215.017 41.4006 214.679 41.4957 214.432 41.6861C214.188 41.8736 214.019 42.0824 213.925 42.3125L212.728 42.0398C212.87 41.642 213.077 41.321 213.35 41.0767C213.625 40.8295 213.942 40.6506 214.3 40.5398C214.658 40.4261 215.034 40.3693 215.429 40.3693C215.691 40.3693 215.968 40.4006 216.26 40.4631C216.556 40.5227 216.831 40.6335 217.087 40.7955C217.345 40.9574 217.557 41.1889 217.722 41.4901C217.887 41.7884 217.969 42.1761 217.969 42.6534V47H216.725V46.1051H216.674C216.591 46.2699 216.468 46.4318 216.303 46.5909C216.138 46.75 215.926 46.8821 215.668 46.9872C215.409 47.0923 215.1 47.1449 214.739 47.1449ZM215.016 46.1222C215.368 46.1222 215.669 46.0526 215.919 45.9134C216.172 45.7741 216.364 45.5923 216.495 45.3679C216.628 45.1406 216.695 44.8977 216.695 44.6392V43.7955C216.649 43.8409 216.561 43.8835 216.431 43.9233C216.303 43.9602 216.157 43.9929 215.992 44.0213C215.827 44.0469 215.666 44.071 215.51 44.0938C215.354 44.1136 215.223 44.1307 215.118 44.1449C214.871 44.1761 214.645 44.2287 214.441 44.3026C214.239 44.3764 214.077 44.483 213.955 44.6222C213.836 44.7585 213.776 44.9403 213.776 45.1676C213.776 45.483 213.892 45.7216 214.125 45.8835C214.358 46.0426 214.655 46.1222 215.016 46.1222ZM213.29 39.6705L215.02 38.1918H215.97L217.705 39.6705H216.452L215.506 38.8267L214.551 39.6705H213.29ZM217.249 38.7244L218.139 37.169H219.439L218.182 38.7244H217.249ZM222.854 40.4545V41.4773H219.278V40.4545H222.854ZM220.237 38.8864H221.511V45.0781C221.511 45.3253 221.548 45.5114 221.622 45.6364C221.696 45.7585 221.791 45.8423 221.908 45.8878C222.027 45.9304 222.156 45.9517 222.295 45.9517C222.398 45.9517 222.487 45.9446 222.564 45.9304C222.64 45.9162 222.7 45.9048 222.743 45.8963L222.973 46.9489C222.899 46.9773 222.794 47.0057 222.658 47.0341C222.521 47.0653 222.351 47.0824 222.146 47.0852C221.811 47.0909 221.498 47.0312 221.209 46.9062C220.919 46.7812 220.684 46.5881 220.506 46.3267C220.327 46.0653 220.237 45.7372 220.237 45.3423V38.8864ZM230.46 47.1321C229.826 47.1321 229.281 46.9886 228.823 46.7017C228.369 46.4119 228.02 46.0128 227.775 45.5043C227.531 44.9957 227.409 44.4134 227.409 43.7571C227.409 43.0923 227.534 42.5057 227.784 41.9972C228.034 41.4858 228.386 41.0866 228.841 40.7997C229.295 40.5128 229.831 40.3693 230.447 40.3693C230.944 40.3693 231.387 40.4616 231.777 40.6463C232.166 40.8281 232.48 41.0838 232.718 41.4134C232.96 41.7429 233.103 42.1278 233.149 42.5682H231.909C231.841 42.2614 231.684 41.9972 231.44 41.7756C231.198 41.554 230.875 41.4432 230.468 41.4432C230.113 41.4432 229.802 41.5369 229.535 41.7244C229.271 41.9091 229.065 42.1733 228.917 42.517C228.77 42.858 228.696 43.2614 228.696 43.7273C228.696 44.2045 228.768 44.6165 228.913 44.9631C229.058 45.3097 229.262 45.5781 229.527 45.7685C229.794 45.9588 230.108 46.054 230.468 46.054C230.71 46.054 230.929 46.0099 231.125 45.9219C231.323 45.831 231.49 45.7017 231.623 45.5341C231.76 45.3665 231.855 45.1648 231.909 44.929H233.149C233.103 45.3523 232.966 45.7301 232.735 46.0625C232.505 46.3949 232.197 46.6562 231.811 46.8466C231.427 47.0369 230.977 47.1321 230.46 47.1321ZM236.548 47.1449C236.133 47.1449 235.758 47.0682 235.423 46.9148C235.088 46.7585 234.822 46.5327 234.626 46.2372C234.433 45.9418 234.337 45.5795 234.337 45.1506C234.337 44.7812 234.408 44.4773 234.55 44.2386C234.692 44 234.883 43.8111 235.125 43.6719C235.366 43.5327 235.636 43.4276 235.935 43.3565C236.233 43.2855 236.537 43.2315 236.846 43.1946C237.239 43.1491 237.557 43.1122 237.801 43.0838C238.045 43.0526 238.223 43.0028 238.334 42.9347C238.444 42.8665 238.5 42.7557 238.5 42.6023V42.5724C238.5 42.2003 238.395 41.9119 238.185 41.7074C237.977 41.5028 237.668 41.4006 237.256 41.4006C236.827 41.4006 236.489 41.4957 236.241 41.6861C235.997 41.8736 235.828 42.0824 235.734 42.3125L234.537 42.0398C234.679 41.642 234.886 41.321 235.159 41.0767C235.435 40.8295 235.751 40.6506 236.109 40.5398C236.467 40.4261 236.844 40.3693 237.239 40.3693C237.5 40.3693 237.777 40.4006 238.069 40.4631C238.365 40.5227 238.641 40.6335 238.896 40.7955C239.155 40.9574 239.366 41.1889 239.531 41.4901C239.696 41.7884 239.778 42.1761 239.778 42.6534V47H238.534V46.1051H238.483C238.4 46.2699 238.277 46.4318 238.112 46.5909C237.947 46.75 237.736 46.8821 237.477 46.9872C237.219 47.0923 236.909 47.1449 236.548 47.1449ZM236.825 46.1222C237.177 46.1222 237.479 46.0526 237.729 45.9134C237.981 45.7741 238.173 45.5923 238.304 45.3679C238.437 45.1406 238.504 44.8977 238.504 44.6392V43.7955C238.459 43.8409 238.371 43.8835 238.24 43.9233C238.112 43.9602 237.966 43.9929 237.801 44.0213C237.636 44.0469 237.476 44.071 237.319 44.0938C237.163 44.1136 237.033 44.1307 236.927 44.1449C236.68 44.1761 236.454 44.2287 236.25 44.3026C236.048 44.3764 235.886 44.483 235.764 44.6222C235.645 44.7585 235.585 44.9403 235.585 45.1676C235.585 45.483 235.702 45.7216 235.935 45.8835C236.168 46.0426 236.464 46.1222 236.825 46.1222ZM244.364 47.1321C243.751 47.1321 243.215 46.9915 242.758 46.7102C242.301 46.429 241.945 46.0355 241.693 45.5298C241.44 45.0241 241.313 44.4332 241.313 43.7571C241.313 43.0781 241.44 42.4844 241.693 41.9759C241.945 41.4673 242.301 41.0724 242.758 40.7912C243.215 40.5099 243.751 40.3693 244.364 40.3693C244.978 40.3693 245.514 40.5099 245.971 40.7912C246.428 41.0724 246.784 41.4673 247.036 41.9759C247.289 42.4844 247.416 43.0781 247.416 43.7571C247.416 44.4332 247.289 45.0241 247.036 45.5298C246.784 46.0355 246.428 46.429 245.971 46.7102C245.514 46.9915 244.978 47.1321 244.364 47.1321ZM244.369 46.0625C244.766 46.0625 245.096 45.9574 245.357 45.7472C245.619 45.5369 245.812 45.2571 245.937 44.9077C246.065 44.5582 246.129 44.1733 246.129 43.7528C246.129 43.3352 246.065 42.9517 245.937 42.6023C245.812 42.25 245.619 41.9673 245.357 41.7543C245.096 41.5412 244.766 41.4347 244.369 41.4347C243.968 41.4347 243.636 41.5412 243.372 41.7543C243.11 41.9673 242.916 42.25 242.788 42.6023C242.663 42.9517 242.6 43.3352 242.6 43.7528C242.6 44.1733 242.663 44.5582 242.788 44.9077C242.916 45.2571 243.11 45.5369 243.372 45.7472C243.636 45.9574 243.968 46.0625 244.369 46.0625ZM106.219 58.5653C106.173 58.1619 105.986 57.8494 105.656 57.6278C105.327 57.4034 104.912 57.2912 104.412 57.2912C104.054 57.2912 103.744 57.348 103.483 57.4616C103.222 57.5724 103.018 57.7259 102.874 57.9219C102.732 58.1151 102.661 58.3352 102.661 58.5824C102.661 58.7898 102.709 58.9687 102.805 59.1193C102.905 59.2699 103.034 59.3963 103.193 59.4986C103.355 59.598 103.528 59.6818 103.713 59.75C103.898 59.8153 104.075 59.8693 104.246 59.9119L105.098 60.1335C105.376 60.2017 105.662 60.294 105.955 60.4105C106.247 60.527 106.518 60.6804 106.768 60.8707C107.018 61.0611 107.22 61.2969 107.374 61.5781C107.53 61.8594 107.608 62.196 107.608 62.5881C107.608 63.0824 107.48 63.5213 107.224 63.9048C106.972 64.2884 106.604 64.5909 106.121 64.8125C105.641 65.0341 105.06 65.1449 104.378 65.1449C103.724 65.1449 103.159 65.0412 102.682 64.8338C102.205 64.6264 101.831 64.3324 101.561 63.9517C101.291 63.5682 101.142 63.1136 101.114 62.5881H102.435C102.46 62.9034 102.563 63.1662 102.741 63.3764C102.923 63.5838 103.155 63.7386 103.436 63.8409C103.72 63.9403 104.031 63.9901 104.369 63.9901C104.741 63.9901 105.072 63.9318 105.362 63.8153C105.655 63.696 105.885 63.5312 106.053 63.321C106.22 63.108 106.304 62.8594 106.304 62.5753C106.304 62.3168 106.23 62.1051 106.082 61.9403C105.938 61.7756 105.74 61.6392 105.49 61.5312C105.243 61.4233 104.963 61.3281 104.651 61.2457L103.619 60.9645C102.92 60.7741 102.366 60.4943 101.957 60.125C101.551 59.7557 101.348 59.267 101.348 58.6591C101.348 58.1562 101.484 57.7173 101.757 57.3423C102.03 56.9673 102.399 56.6761 102.865 56.4688C103.331 56.2585 103.857 56.1534 104.442 56.1534C105.033 56.1534 105.554 56.2571 106.006 56.4645C106.46 56.6719 106.818 56.9574 107.08 57.321C107.341 57.6818 107.477 58.0966 107.489 58.5653H106.219ZM109.313 65V56.2727H110.63V60.0653H114.981V56.2727H116.302V65H114.981V61.1946H110.63V65H109.313ZM118.249 65V58.4545H119.524V65H118.249ZM118.893 57.4446C118.671 57.4446 118.481 57.3707 118.322 57.223C118.166 57.0724 118.088 56.8935 118.088 56.6861C118.088 56.4759 118.166 56.2969 118.322 56.1491C118.481 55.9986 118.671 55.9233 118.893 55.9233C119.114 55.9233 119.303 55.9986 119.46 56.1491C119.619 56.2969 119.698 56.4759 119.698 56.6861C119.698 56.8935 119.619 57.0724 119.46 57.223C119.303 57.3707 119.114 57.4446 118.893 57.4446ZM121.37 65V58.4545H122.601V59.4943H122.669C122.789 59.142 122.999 58.8651 123.3 58.6634C123.604 58.4588 123.948 58.3565 124.331 58.3565C124.411 58.3565 124.505 58.3594 124.613 58.3651C124.723 58.3707 124.81 58.3778 124.873 58.3864V59.6051C124.821 59.5909 124.731 59.5753 124.6 59.5582C124.469 59.5384 124.338 59.5284 124.208 59.5284C123.907 59.5284 123.638 59.5923 123.402 59.7202C123.169 59.8452 122.985 60.0199 122.848 60.2443C122.712 60.4659 122.644 60.7187 122.644 61.0028V65H121.37ZM126.107 65V58.4545H127.381V65H126.107ZM126.751 57.4446C126.529 57.4446 126.339 57.3707 126.18 57.223C126.023 57.0724 125.945 56.8935 125.945 56.6861C125.945 56.4759 126.023 56.2969 126.18 56.1491C126.339 55.9986 126.529 55.9233 126.751 55.9233C126.972 55.9233 127.161 55.9986 127.317 56.1491C127.477 56.2969 127.556 56.4759 127.556 56.6861C127.556 56.8935 127.477 57.0724 127.317 57.223C127.161 57.3707 126.972 57.4446 126.751 57.4446ZM130.502 61.1136V65H129.227V58.4545H130.45V59.5199H130.531C130.682 59.1733 130.918 58.8949 131.239 58.6847C131.563 58.4744 131.97 58.3693 132.462 58.3693C132.908 58.3693 133.298 58.4631 133.634 58.6506C133.969 58.8352 134.229 59.1108 134.414 59.4773C134.598 59.8437 134.691 60.2969 134.691 60.8366V65H133.416V60.9901C133.416 60.5156 133.293 60.1449 133.046 59.8778C132.798 59.608 132.459 59.473 132.027 59.473C131.732 59.473 131.469 59.5369 131.239 59.6648C131.012 59.7926 130.831 59.9801 130.698 60.2273C130.567 60.4716 130.502 60.767 130.502 61.1136ZM139.276 67.5909C138.756 67.5909 138.308 67.5227 137.933 67.3864C137.561 67.25 137.257 67.0696 137.021 66.8452C136.786 66.6207 136.609 66.375 136.493 66.108L137.588 65.6562C137.665 65.7812 137.767 65.9134 137.895 66.0526C138.026 66.1946 138.202 66.3153 138.423 66.4148C138.648 66.5142 138.936 66.5639 139.288 66.5639C139.771 66.5639 140.171 66.446 140.486 66.2102C140.801 65.9773 140.959 65.6051 140.959 65.0938V63.8068H140.878C140.801 63.946 140.69 64.1009 140.546 64.2713C140.404 64.4418 140.207 64.5895 139.957 64.7145C139.707 64.8395 139.382 64.902 138.982 64.902C138.465 64.902 137.999 64.7812 137.584 64.5398C137.172 64.2955 136.845 63.9361 136.604 63.4616C136.365 62.9844 136.246 62.3977 136.246 61.7017C136.246 61.0057 136.364 60.4091 136.6 59.9119C136.838 59.4148 137.165 59.0341 137.58 58.7699C137.994 58.5028 138.465 58.3693 138.99 58.3693C139.396 58.3693 139.725 58.4375 139.975 58.5739C140.225 58.7074 140.419 58.8636 140.558 59.0426C140.7 59.2216 140.81 59.3793 140.886 59.5156H140.98V58.4545H142.229V65.1449C142.229 65.7074 142.098 66.169 141.837 66.5298C141.575 66.8906 141.222 67.1577 140.776 67.331C140.332 67.5043 139.832 67.5909 139.276 67.5909ZM139.263 63.8452C139.629 63.8452 139.939 63.7599 140.192 63.5895C140.448 63.4162 140.641 63.169 140.771 62.848C140.905 62.5241 140.972 62.1364 140.972 61.6847C140.972 61.2443 140.906 60.8565 140.776 60.5213C140.645 60.1861 140.453 59.9247 140.2 59.7372C139.948 59.5469 139.635 59.4517 139.263 59.4517C138.879 59.4517 138.56 59.5511 138.304 59.75C138.048 59.946 137.855 60.2131 137.725 60.5511C137.597 60.8892 137.533 61.267 137.533 61.6847C137.533 62.1136 137.598 62.4901 137.729 62.8139C137.859 63.1378 138.053 63.3906 138.308 63.5724C138.567 63.7543 138.885 63.8452 139.263 63.8452ZM144.909 65.081C144.676 65.081 144.476 64.9986 144.308 64.8338C144.141 64.6662 144.057 64.4645 144.057 64.2287C144.057 63.9957 144.141 63.7969 144.308 63.6321C144.476 63.4645 144.676 63.3807 144.909 63.3807C145.142 63.3807 145.342 63.4645 145.51 63.6321C145.678 63.7969 145.761 63.9957 145.761 64.2287C145.761 64.3849 145.722 64.5284 145.642 64.6591C145.565 64.7869 145.463 64.8892 145.335 64.9659C145.207 65.0426 145.065 65.081 144.909 65.081ZM149.505 65.1449C149.09 65.1449 148.715 65.0682 148.38 64.9148C148.045 64.7585 147.779 64.5327 147.583 64.2372C147.39 63.9418 147.293 63.5795 147.293 63.1506C147.293 62.7812 147.364 62.4773 147.506 62.2386C147.648 62 147.84 61.8111 148.082 61.6719C148.323 61.5327 148.593 61.4276 148.891 61.3565C149.19 61.2855 149.493 61.2315 149.803 61.1946C150.195 61.1491 150.513 61.1122 150.758 61.0838C151.002 61.0526 151.18 61.0028 151.29 60.9347C151.401 60.8665 151.457 60.7557 151.457 60.6023V60.5724C151.457 60.2003 151.351 59.9119 151.141 59.7074C150.934 59.5028 150.624 59.4006 150.212 59.4006C149.783 59.4006 149.445 59.4957 149.198 59.6861C148.954 59.8736 148.785 60.0824 148.691 60.3125L147.493 60.0398C147.636 59.642 147.843 59.321 148.116 59.0767C148.391 58.8295 148.708 58.6506 149.066 58.5398C149.424 58.4261 149.8 58.3693 150.195 58.3693C150.457 58.3693 150.734 58.4006 151.026 58.4631C151.322 58.5227 151.597 58.6335 151.853 58.7955C152.111 58.9574 152.323 59.1889 152.488 59.4901C152.653 59.7884 152.735 60.1761 152.735 60.6534V65H151.491V64.1051H151.44C151.357 64.2699 151.234 64.4318 151.069 64.5909C150.904 64.75 150.692 64.8821 150.434 64.9872C150.175 65.0923 149.866 65.1449 149.505 65.1449ZM149.782 64.1222C150.134 64.1222 150.435 64.0526 150.685 63.9134C150.938 63.7741 151.13 63.5923 151.261 63.3679C151.394 63.1406 151.461 62.8977 151.461 62.6392V61.7955C151.415 61.8409 151.327 61.8835 151.197 61.9233C151.069 61.9602 150.922 61.9929 150.758 62.0213C150.593 62.0469 150.432 62.071 150.276 62.0938C150.12 62.1136 149.989 62.1307 149.884 62.1449C149.637 62.1761 149.411 62.2287 149.207 62.3026C149.005 62.3764 148.843 62.483 148.721 62.6222C148.601 62.7585 148.542 62.9403 148.542 63.1676C148.542 63.483 148.658 63.7216 148.891 63.8835C149.124 64.0426 149.421 64.1222 149.782 64.1222ZM154.564 65V58.4545H155.838V65H154.564ZM155.208 57.4446C154.986 57.4446 154.796 57.3707 154.637 57.223C154.48 57.0724 154.402 56.8935 154.402 56.6861C154.402 56.4759 154.48 56.2969 154.637 56.1491C154.796 55.9986 154.986 55.9233 155.208 55.9233C155.429 55.9233 155.618 55.9986 155.774 56.1491C155.933 56.2969 156.013 56.4759 156.013 56.6861C156.013 56.8935 155.933 57.0724 155.774 57.223C155.618 57.3707 155.429 57.4446 155.208 57.4446Z" fill="white"/>
<defs>
<linearGradient id="paint0_linear_12630_17994" x1="1" y1="86" x2="279" y2="86" gradientUnits="userSpaceOnUse">
<stop stop-color="#009941"/>
<stop offset="1" stop-color="#0BCA5D"/>
</linearGradient>
<clipPath id="clip0_12630_17994">
<rect width="36" height="36" fill="white" transform="translate(34.5 25)"/>
</clipPath>
</defs>
</svg>
