<svg width="279" height="86" viewBox="0 0 279 86" fill="none" xmlns="http://www.w3.org/2000/svg">
<rect width="278.5" height="86" rx="8" fill="url(#paint0_linear_12630_18016)"/>
<path d="M38.0024 42.6113C37.941 46.9351 34.5869 50.0341 30.0738 50.0169C25.8824 50.0006 22.1643 46.8491 22.3526 42.2338C22.4918 38.8297 25.3754 35.1686 30.3734 35.2537C34.7002 35.327 38.0024 38.6505 38.0024 42.6113ZM34.2767 42.7679C34.2719 41.2587 33.6026 40.2719 32.5224 39.4743C31.0513 38.3879 28.2493 38.6903 27.001 40.194C25.4483 41.9975 25.9813 44.412 27.6204 45.6767C28.9743 46.5522 30.4204 46.7957 31.8925 46.1629C33.4058 45.4531 34.1692 44.2879 34.2767 42.7679Z" fill="white"/>
<path d="M76.5298 44.3839C77.1261 42.9218 77.683 41.5611 78.2361 40.1995C78.8305 38.7365 79.6688 36.7167 80.2478 35.2482C81.3962 35.2482 83.5193 35.2482 84.6562 35.2482C82.777 39.6373 80.2075 45.6315 78.3379 50.0241C78.3379 50.0241 78.0345 50.0241 77.4324 50.0241C76.7017 50.0241 75.4716 50.0241 74.7178 50.0241C72.8867 45.6985 70.8615 40.7988 69.0256 36.4749C68.8873 36.1499 68.4619 35.2473 68.4619 35.2473C68.4619 35.2473 69.4711 35.2473 69.8533 35.2473C70.7655 35.2473 72.0032 35.2473 72.8771 35.2473C72.8771 35.2473 72.8905 35.2826 72.8771 35.2473C73.9823 38.0593 75.3689 41.4706 76.5298 44.3839Z" fill="white"/>
<path d="M54.3805 43.1382C54.1942 38.7274 57.5406 35.4546 61.8434 35.26C64.2209 35.1523 66.5725 36.168 68.1425 37.9099L67.7306 38.2132C66.9432 38.7491 66.2307 39.2652 65.4615 39.8636C65.2196 40.0519 65.1917 40.0881 65.1917 40.0881C64.2699 39.1692 62.6279 38.6278 61.2548 38.8967C59.511 39.3168 58.1801 41.2533 58.376 43.054C58.5997 45.1091 60.0756 46.4236 62.021 46.5123C63.1109 46.5621 64.3918 46.0443 65.1917 45.3309C65.1917 45.3309 65.1802 45.3309 65.4423 45.5319C66.223 46.1294 67.2793 46.9261 68.0686 47.4937C66.6148 49.0038 64.485 49.9354 62.4378 50.0169C59.0213 50.178 54.6282 47.6006 54.3805 43.1382Z" fill="white"/>
<path d="M14.501 38.7208C14.501 36.5326 14.5173 34.1797 14.5029 31.9924V31.6855C15.6379 31.5868 17.7494 31.3885 18.8825 31.25C18.8921 32.388 18.8825 34.4585 18.8825 35.5965H18.8595C19.3924 35.5965 20.6503 35.6001 21.14 35.5883C21.1285 36.4665 21.1199 37.9422 21.1362 38.8195C20.6138 38.8077 19.4039 38.8331 18.8816 38.8195C18.8902 40.6374 18.8816 42.8491 18.8816 44.6598C18.9027 46.2894 19.981 46.7293 21.3215 46.417C21.6384 46.3428 22.1531 46.0422 22.4162 45.882C22.6562 46.5963 23.6069 47.9253 24.1868 48.4277C22.0542 50.0664 19.5547 50.5598 17.0398 49.3331C15.3037 48.4866 14.501 47.0073 14.501 45.1921C14.501 43.0329 14.501 40.8773 14.501 38.7208Z" fill="white"/>
<path d="M40.7958 61.2501C39.7597 59.9627 38.6477 58.4816 37.6299 57.2223C38.3577 52.4584 39.1499 47.155 39.8807 42.3912C39.4562 41.7004 38.6026 40.365 38.1695 39.6788C38.8743 38.8703 40.1361 37.4942 40.8159 36.6667C41.5563 37.5232 42.7422 38.8386 43.4835 39.6788C43.0494 40.3415 42.1891 41.7212 41.7589 42.3912C42.4109 46.6525 43.253 52.9763 44.002 57.2223L43.9751 57.2576C43.3212 58.0968 41.5015 60.3737 40.7958 61.2501Z" fill="white"/>
<path d="M42.7352 45.1952C43.3834 45.8416 44.0661 46.2825 44.9005 46.4392C46.6299 46.7633 48.2229 46.1123 49.0679 44.767C50.0042 43.2768 49.84 41.2896 48.6752 40.0158C47.617 38.8588 45.5333 38.3953 43.8337 39.3287C43.2729 38.6289 41.7855 36.9549 41.1758 36.2922C45.902 33.6867 52.9415 36.1446 53.5407 41.7912C53.9238 45.3944 51.8632 48.7459 48.3612 49.7798C46.9151 50.2071 44.8938 49.9953 43.4035 49.7364C43.2249 48.4381 42.9464 46.613 42.7352 45.1952Z" fill="white"/>
<path d="M87.8641 38.3002C86.9768 38.2903 86.249 37.5805 86.272 36.7476C86.2951 35.9228 87.0162 35.2538 87.8823 35.2556C88.7725 35.2574 89.5061 35.9509 89.5013 36.7883C89.4965 37.6185 88.7485 38.3102 87.8641 38.3002ZM89.1181 36.7684C89.1143 36.1003 88.5881 35.6015 87.8871 35.6024C87.1737 35.6024 86.6292 36.1302 86.6407 36.8083C86.6513 37.4547 87.215 37.9662 87.9034 37.9553C88.6054 37.9435 89.121 37.4402 89.1181 36.7684Z" fill="white"/>
<path d="M88.3412 36.9629L88.5285 37.0072C88.4891 37.153 88.4181 37.2634 88.3163 37.3395C88.2145 37.4155 88.0897 37.4536 87.9418 37.4536C87.7891 37.4536 87.6652 37.4246 87.5692 37.3657C87.4732 37.3069 87.4002 37.2218 87.3503 37.1113C87.3004 37 87.2754 36.8805 87.2754 36.7528C87.2754 36.6134 87.3032 36.4921 87.3599 36.3889C87.4165 36.2857 87.4962 36.2069 87.6009 36.1526C87.7046 36.0992 87.8198 36.072 87.9447 36.072C88.0868 36.072 88.2059 36.1064 88.3019 36.1743C88.3989 36.2422 88.4661 36.3382 88.5035 36.4613L88.3192 36.5021C88.2865 36.4052 88.2385 36.3337 88.1761 36.2893C88.1137 36.2449 88.0349 36.2232 87.9399 36.2232C87.8314 36.2232 87.7401 36.2477 87.6672 36.2974C87.5942 36.3463 87.5423 36.4124 87.5126 36.4957C87.4828 36.579 87.4684 36.6641 87.4684 36.7519C87.4684 36.866 87.4857 36.9647 87.5212 37.0498C87.5567 37.1349 87.6115 37.1983 87.6854 37.2399C87.7593 37.2815 87.84 37.3024 87.9264 37.3024C88.0311 37.3024 88.1204 37.2734 88.1934 37.2164C88.2654 37.1602 88.3153 37.0751 88.3412 36.9629Z" fill="white"/>
<path d="M100.959 38V29.2727H104.07C104.749 29.2727 105.311 29.3963 105.757 29.6435C106.203 29.8906 106.537 30.2287 106.759 30.6577C106.98 31.0838 107.091 31.5639 107.091 32.098C107.091 32.6349 106.979 33.1179 106.754 33.5469C106.533 33.973 106.197 34.3111 105.749 34.5611C105.303 34.8082 104.741 34.9318 104.065 34.9318H101.926V33.8153H103.946C104.375 33.8153 104.723 33.7415 104.99 33.5938C105.257 33.4432 105.453 33.2386 105.578 32.9801C105.703 32.7216 105.766 32.4276 105.766 32.098C105.766 31.7685 105.703 31.4759 105.578 31.2202C105.453 30.9645 105.256 30.7642 104.986 30.6193C104.719 30.4744 104.366 30.402 103.929 30.402H102.276V38H100.959ZM109.938 29.2727V38H108.664V29.2727H109.938ZM113.689 38.1449C113.275 38.1449 112.9 38.0682 112.564 37.9148C112.229 37.7585 111.964 37.5327 111.768 37.2372C111.574 36.9418 111.478 36.5795 111.478 36.1506C111.478 35.7812 111.549 35.4773 111.691 35.2386C111.833 35 112.025 34.8111 112.266 34.6719C112.508 34.5327 112.777 34.4276 113.076 34.3565C113.374 34.2855 113.678 34.2315 113.988 34.1946C114.38 34.1491 114.698 34.1122 114.942 34.0838C115.187 34.0526 115.364 34.0028 115.475 33.9347C115.586 33.8665 115.641 33.7557 115.641 33.6023V33.5724C115.641 33.2003 115.536 32.9119 115.326 32.7074C115.118 32.5028 114.809 32.4006 114.397 32.4006C113.968 32.4006 113.63 32.4957 113.383 32.6861C113.138 32.8736 112.969 33.0824 112.876 33.3125L111.678 33.0398C111.82 32.642 112.027 32.321 112.3 32.0767C112.576 31.8295 112.893 31.6506 113.251 31.5398C113.608 31.4261 113.985 31.3693 114.38 31.3693C114.641 31.3693 114.918 31.4006 115.211 31.4631C115.506 31.5227 115.782 31.6335 116.037 31.7955C116.296 31.9574 116.508 32.1889 116.672 32.4901C116.837 32.7884 116.92 33.1761 116.92 33.6534V38H115.675V37.1051H115.624C115.542 37.2699 115.418 37.4318 115.253 37.5909C115.089 37.75 114.877 37.8821 114.618 37.9872C114.36 38.0923 114.05 38.1449 113.689 38.1449ZM113.966 37.1222C114.319 37.1222 114.62 37.0526 114.87 36.9134C115.123 36.7741 115.314 36.5923 115.445 36.3679C115.579 36.1406 115.645 35.8977 115.645 35.6392V34.7955C115.6 34.8409 115.512 34.8835 115.381 34.9233C115.253 34.9602 115.107 34.9929 114.942 35.0213C114.777 35.0469 114.617 35.071 114.461 35.0938C114.304 35.1136 114.174 35.1307 114.069 35.1449C113.822 35.1761 113.596 35.2287 113.391 35.3026C113.189 35.3764 113.027 35.483 112.905 35.6222C112.786 35.7585 112.726 35.9403 112.726 36.1676C112.726 36.483 112.843 36.7216 113.076 36.8835C113.309 37.0426 113.606 37.1222 113.966 37.1222ZM121.804 31.4545V32.4773H118.229V31.4545H121.804ZM119.188 29.8864H120.462V36.0781C120.462 36.3253 120.499 36.5114 120.572 36.6364C120.646 36.7585 120.742 36.8423 120.858 36.8878C120.977 36.9304 121.107 36.9517 121.246 36.9517C121.348 36.9517 121.438 36.9446 121.514 36.9304C121.591 36.9162 121.651 36.9048 121.693 36.8963L121.923 37.9489C121.849 37.9773 121.744 38.0057 121.608 38.0341C121.472 38.0653 121.301 38.0824 121.097 38.0852C120.761 38.0909 120.449 38.0312 120.159 37.9062C119.869 37.7812 119.635 37.5881 119.456 37.3267C119.277 37.0653 119.188 36.7372 119.188 36.3423V29.8864ZM126.461 31.4545V32.4773H122.762V31.4545H126.461ZM123.776 38V30.696C123.776 30.2869 123.865 29.9474 124.044 29.6776C124.223 29.4048 124.461 29.2017 124.756 29.0682C125.051 28.9318 125.372 28.8636 125.719 28.8636C125.975 28.8636 126.193 28.8849 126.375 28.9276C126.557 28.9673 126.692 29.0043 126.78 29.0384L126.482 30.0696C126.422 30.0526 126.345 30.0327 126.252 30.0099C126.158 29.9844 126.044 29.9716 125.911 29.9716C125.601 29.9716 125.38 30.0483 125.246 30.2017C125.115 30.3551 125.05 30.5767 125.05 30.8665V38H123.776ZM130.406 38.1321C129.793 38.1321 129.257 37.9915 128.8 37.7102C128.343 37.429 127.987 37.0355 127.735 36.5298C127.482 36.0241 127.355 35.4332 127.355 34.7571C127.355 34.0781 127.482 33.4844 127.735 32.9759C127.987 32.4673 128.343 32.0724 128.8 31.7912C129.257 31.5099 129.793 31.3693 130.406 31.3693C131.02 31.3693 131.556 31.5099 132.013 31.7912C132.47 32.0724 132.825 32.4673 133.078 32.9759C133.331 33.4844 133.458 34.0781 133.458 34.7571C133.458 35.4332 133.331 36.0241 133.078 36.5298C132.825 37.0355 132.47 37.429 132.013 37.7102C131.556 37.9915 131.02 38.1321 130.406 38.1321ZM130.411 37.0625C130.808 37.0625 131.138 36.9574 131.399 36.7472C131.661 36.5369 131.854 36.2571 131.979 35.9077C132.107 35.5582 132.171 35.1733 132.171 34.7528C132.171 34.3352 132.107 33.9517 131.979 33.6023C131.854 33.25 131.661 32.9673 131.399 32.7543C131.138 32.5412 130.808 32.4347 130.411 32.4347C130.01 32.4347 129.678 32.5412 129.414 32.7543C129.152 32.9673 128.958 33.25 128.83 33.6023C128.705 33.9517 128.642 34.3352 128.642 34.7528C128.642 35.1733 128.705 35.5582 128.83 35.9077C128.958 36.2571 129.152 36.5369 129.414 36.7472C129.678 36.9574 130.01 37.0625 130.411 37.0625ZM135.012 38V31.4545H136.243V32.4943H136.312C136.431 32.142 136.641 31.8651 136.942 31.6634C137.246 31.4588 137.59 31.3565 137.973 31.3565C138.053 31.3565 138.147 31.3594 138.255 31.3651C138.366 31.3707 138.452 31.3778 138.515 31.3864V32.6051C138.464 32.5909 138.373 32.5753 138.242 32.5582C138.111 32.5384 137.981 32.5284 137.85 32.5284C137.549 32.5284 137.28 32.5923 137.044 32.7202C136.812 32.8452 136.627 33.0199 136.491 33.2443C136.354 33.4659 136.286 33.7187 136.286 34.0028V38H135.012ZM139.749 38V31.4545H140.972V32.5199H141.053C141.19 32.1591 141.413 31.8778 141.722 31.6761C142.032 31.4716 142.403 31.3693 142.835 31.3693C143.272 31.3693 143.638 31.4716 143.934 31.6761C144.232 31.8807 144.452 32.1619 144.594 32.5199H144.663C144.819 32.1705 145.067 31.892 145.408 31.6847C145.749 31.4744 146.156 31.3693 146.627 31.3693C147.221 31.3693 147.705 31.5554 148.08 31.9276C148.458 32.2997 148.647 32.8608 148.647 33.6108V38H147.373V33.7301C147.373 33.2869 147.252 32.9659 147.011 32.767C146.769 32.5682 146.481 32.4688 146.146 32.4688C145.731 32.4688 145.408 32.5966 145.178 32.8523C144.948 33.1051 144.833 33.4304 144.833 33.8281V38H143.563V33.6491C143.563 33.294 143.452 33.0085 143.231 32.7926C143.009 32.5767 142.721 32.4688 142.366 32.4688C142.124 32.4688 141.901 32.5327 141.697 32.6605C141.495 32.7855 141.332 32.9602 141.207 33.1847C141.085 33.4091 141.023 33.669 141.023 33.9645V38H139.749ZM156.91 31.4545V32.4773H153.211V31.4545H156.91ZM154.225 38V30.696C154.225 30.2869 154.314 29.9474 154.493 29.6776C154.672 29.4048 154.91 29.2017 155.205 29.0682C155.5 28.9318 155.822 28.8636 156.168 28.8636C156.424 28.8636 156.643 28.8849 156.824 28.9276C157.006 28.9673 157.141 29.0043 157.229 29.0384L156.931 30.0696C156.871 30.0526 156.795 30.0327 156.701 30.0099C156.607 29.9844 156.493 29.9716 156.36 29.9716C156.05 29.9716 155.829 30.0483 155.695 30.2017C155.564 30.3551 155.499 30.5767 155.499 30.8665V38H154.225ZM160.856 38.1321C160.242 38.1321 159.706 37.9915 159.249 37.7102C158.792 37.429 158.436 37.0355 158.184 36.5298C157.931 36.0241 157.804 35.4332 157.804 34.7571C157.804 34.0781 157.931 33.4844 158.184 32.9759C158.436 32.4673 158.792 32.0724 159.249 31.7912C159.706 31.5099 160.242 31.3693 160.856 31.3693C161.469 31.3693 162.005 31.5099 162.462 31.7912C162.919 32.0724 163.275 32.4673 163.527 32.9759C163.78 33.4844 163.907 34.0781 163.907 34.7571C163.907 35.4332 163.78 36.0241 163.527 36.5298C163.275 37.0355 162.919 37.429 162.462 37.7102C162.005 37.9915 161.469 38.1321 160.856 38.1321ZM160.86 37.0625C161.257 37.0625 161.587 36.9574 161.848 36.7472C162.11 36.5369 162.303 36.2571 162.428 35.9077C162.556 35.5582 162.62 35.1733 162.62 34.7528C162.62 34.3352 162.556 33.9517 162.428 33.6023C162.303 33.25 162.11 32.9673 161.848 32.7543C161.587 32.5412 161.257 32.4347 160.86 32.4347C160.459 32.4347 160.127 32.5412 159.863 32.7543C159.601 32.9673 159.407 33.25 159.279 33.6023C159.154 33.9517 159.091 34.3352 159.091 34.7528C159.091 35.1733 159.154 35.5582 159.279 35.9077C159.407 36.2571 159.601 36.5369 159.863 36.7472C160.127 36.9574 160.459 37.0625 160.86 37.0625ZM165.461 38V31.4545H166.692V32.4943H166.761C166.88 32.142 167.09 31.8651 167.391 31.6634C167.695 31.4588 168.039 31.3565 168.423 31.3565C168.502 31.3565 168.596 31.3594 168.704 31.3651C168.815 31.3707 168.901 31.3778 168.964 31.3864V32.6051C168.913 32.5909 168.822 32.5753 168.691 32.5582C168.56 32.5384 168.43 32.5284 168.299 32.5284C167.998 32.5284 167.729 32.5923 167.494 32.7202C167.261 32.8452 167.076 33.0199 166.94 33.2443C166.803 33.4659 166.735 33.7187 166.735 34.0028V38H165.461ZM176.562 31.4545V32.4773H172.986V31.4545H176.562ZM173.945 29.8864H175.219V36.0781C175.219 36.3253 175.256 36.5114 175.33 36.6364C175.404 36.7585 175.499 36.8423 175.616 36.8878C175.735 36.9304 175.864 36.9517 176.003 36.9517C176.106 36.9517 176.195 36.9446 176.272 36.9304C176.348 36.9162 176.408 36.9048 176.451 36.8963L176.681 37.9489C176.607 37.9773 176.502 38.0057 176.366 38.0341C176.229 38.0653 176.059 38.0824 175.854 38.0852C175.519 38.0909 175.206 38.0312 174.917 37.9062C174.627 37.7812 174.392 37.5881 174.214 37.3267C174.035 37.0653 173.945 36.7372 173.945 36.3423V29.8864ZM180.854 38.1321C180.209 38.1321 179.653 37.9943 179.187 37.7188C178.724 37.4403 178.366 37.0497 178.114 36.5469C177.864 36.0412 177.739 35.4489 177.739 34.7699C177.739 34.0994 177.864 33.5085 178.114 32.9972C178.366 32.4858 178.719 32.0866 179.17 31.7997C179.625 31.5128 180.156 31.3693 180.764 31.3693C181.134 31.3693 181.491 31.4304 181.838 31.5526C182.185 31.6747 182.496 31.8665 182.771 32.1278C183.047 32.3892 183.264 32.7287 183.423 33.1463C183.582 33.5611 183.662 34.0653 183.662 34.6591V35.1108H178.459V34.1562H182.413C182.413 33.821 182.345 33.5241 182.209 33.2656C182.072 33.0043 181.881 32.7983 181.634 32.6477C181.389 32.4972 181.102 32.4219 180.773 32.4219C180.415 32.4219 180.102 32.5099 179.835 32.6861C179.571 32.8594 179.366 33.0866 179.222 33.3679C179.08 33.6463 179.009 33.9489 179.009 34.2756V35.0213C179.009 35.4588 179.085 35.831 179.239 36.1378C179.395 36.4446 179.612 36.679 179.891 36.8409C180.169 37 180.494 37.0795 180.866 37.0795C181.108 37.0795 181.328 37.0455 181.527 36.9773C181.726 36.9062 181.898 36.8011 182.043 36.6619C182.187 36.5227 182.298 36.3509 182.375 36.1463L183.581 36.3636C183.484 36.7187 183.311 37.0298 183.061 37.2969C182.814 37.5611 182.503 37.767 182.128 37.9148C181.756 38.0597 181.331 38.1321 180.854 38.1321ZM187.965 38.1321C187.331 38.1321 186.786 37.9886 186.328 37.7017C185.874 37.4119 185.524 37.0128 185.28 36.5043C185.036 35.9957 184.914 35.4134 184.914 34.7571C184.914 34.0923 185.039 33.5057 185.289 32.9972C185.539 32.4858 185.891 32.0866 186.345 31.7997C186.8 31.5128 187.335 31.3693 187.952 31.3693C188.449 31.3693 188.892 31.4616 189.281 31.6463C189.671 31.8281 189.985 32.0838 190.223 32.4134C190.465 32.7429 190.608 33.1278 190.654 33.5682H189.414C189.345 33.2614 189.189 32.9972 188.945 32.7756C188.703 32.554 188.38 32.4432 187.973 32.4432C187.618 32.4432 187.307 32.5369 187.04 32.7244C186.776 32.9091 186.57 33.1733 186.422 33.517C186.274 33.858 186.201 34.2614 186.201 34.7273C186.201 35.2045 186.273 35.6165 186.418 35.9631C186.563 36.3097 186.767 36.5781 187.031 36.7685C187.299 36.9588 187.612 37.054 187.973 37.054C188.215 37.054 188.433 37.0099 188.63 36.9219C188.828 36.831 188.995 36.7017 189.128 36.5341C189.264 36.3665 189.36 36.1648 189.414 35.929H190.654C190.608 36.3523 190.47 36.7301 190.24 37.0625C190.01 37.3949 189.702 37.6562 189.316 37.8466C188.932 38.0369 188.482 38.1321 187.965 38.1321ZM193.422 34.1136V38H192.148V29.2727H193.405V32.5199H193.486C193.64 32.1676 193.874 31.8878 194.189 31.6804C194.505 31.473 194.917 31.3693 195.425 31.3693C195.874 31.3693 196.266 31.4616 196.601 31.6463C196.939 31.831 197.201 32.1065 197.385 32.473C197.573 32.8366 197.667 33.2912 197.667 33.8366V38H196.393V33.9901C196.393 33.5099 196.269 33.1378 196.022 32.8736C195.775 32.6065 195.431 32.473 194.991 32.473C194.689 32.473 194.42 32.5369 194.181 32.6648C193.945 32.7926 193.759 32.9801 193.623 33.2273C193.489 33.4716 193.422 33.767 193.422 34.1136ZM200.773 34.1136V38H199.499V31.4545H200.722V32.5199H200.803C200.954 32.1733 201.189 31.8949 201.51 31.6847C201.834 31.4744 202.242 31.3693 202.733 31.3693C203.179 31.3693 203.57 31.4631 203.905 31.6506C204.24 31.8352 204.5 32.1108 204.685 32.4773C204.87 32.8437 204.962 33.2969 204.962 33.8366V38H203.688V33.9901C203.688 33.5156 203.564 33.1449 203.317 32.8778C203.07 32.608 202.731 32.473 202.299 32.473C202.003 32.473 201.74 32.5369 201.51 32.6648C201.283 32.7926 201.103 32.9801 200.969 33.2273C200.838 33.4716 200.773 33.767 200.773 34.1136ZM209.56 38.1321C208.946 38.1321 208.411 37.9915 207.953 37.7102C207.496 37.429 207.141 37.0355 206.888 36.5298C206.635 36.0241 206.509 35.4332 206.509 34.7571C206.509 34.0781 206.635 33.4844 206.888 32.9759C207.141 32.4673 207.496 32.0724 207.953 31.7912C208.411 31.5099 208.946 31.3693 209.56 31.3693C210.174 31.3693 210.709 31.5099 211.166 31.7912C211.624 32.0724 211.979 32.4673 212.232 32.9759C212.485 33.4844 212.611 34.0781 212.611 34.7571C212.611 35.4332 212.485 36.0241 212.232 36.5298C211.979 37.0355 211.624 37.429 211.166 37.7102C210.709 37.9915 210.174 38.1321 209.56 38.1321ZM209.564 37.0625C209.962 37.0625 210.291 36.9574 210.553 36.7472C210.814 36.5369 211.007 36.2571 211.132 35.9077C211.26 35.5582 211.324 35.1733 211.324 34.7528C211.324 34.3352 211.26 33.9517 211.132 33.6023C211.007 33.25 210.814 32.9673 210.553 32.7543C210.291 32.5412 209.962 32.4347 209.564 32.4347C209.164 32.4347 208.831 32.5412 208.567 32.7543C208.306 32.9673 208.111 33.25 207.983 33.6023C207.858 33.9517 207.796 34.3352 207.796 34.7528C207.796 35.1733 207.858 35.5582 207.983 35.9077C208.111 36.2571 208.306 36.5369 208.567 36.7472C208.831 36.9574 209.164 37.0625 209.564 37.0625ZM215.439 29.2727V38H214.165V29.2727H215.439ZM220.043 38.1321C219.429 38.1321 218.894 37.9915 218.436 37.7102C217.979 37.429 217.624 37.0355 217.371 36.5298C217.118 36.0241 216.992 35.4332 216.992 34.7571C216.992 34.0781 217.118 33.4844 217.371 32.9759C217.624 32.4673 217.979 32.0724 218.436 31.7912C218.894 31.5099 219.429 31.3693 220.043 31.3693C220.656 31.3693 221.192 31.5099 221.649 31.7912C222.107 32.0724 222.462 32.4673 222.715 32.9759C222.967 33.4844 223.094 34.0781 223.094 34.7571C223.094 35.4332 222.967 36.0241 222.715 36.5298C222.462 37.0355 222.107 37.429 221.649 37.7102C221.192 37.9915 220.656 38.1321 220.043 38.1321ZM220.047 37.0625C220.445 37.0625 220.774 36.9574 221.036 36.7472C221.297 36.5369 221.49 36.2571 221.615 35.9077C221.743 35.5582 221.807 35.1733 221.807 34.7528C221.807 34.3352 221.743 33.9517 221.615 33.6023C221.49 33.25 221.297 32.9673 221.036 32.7543C220.774 32.5412 220.445 32.4347 220.047 32.4347C219.646 32.4347 219.314 32.5412 219.05 32.7543C218.788 32.9673 218.594 33.25 218.466 33.6023C218.341 33.9517 218.278 34.3352 218.278 34.7528C218.278 35.1733 218.341 35.5582 218.466 35.9077C218.594 36.2571 218.788 36.5369 219.05 36.7472C219.314 36.9574 219.646 37.0625 220.047 37.0625ZM227.392 40.5909C226.873 40.5909 226.425 40.5227 226.05 40.3864C225.678 40.25 225.374 40.0696 225.138 39.8452C224.902 39.6207 224.726 39.375 224.61 39.108L225.705 38.6562C225.782 38.7812 225.884 38.9134 226.012 39.0526C226.142 39.1946 226.319 39.3153 226.54 39.4148C226.765 39.5142 227.053 39.5639 227.405 39.5639C227.888 39.5639 228.287 39.446 228.603 39.2102C228.918 38.9773 229.076 38.6051 229.076 38.0938V36.8068H228.995C228.918 36.946 228.807 37.1009 228.662 37.2713C228.52 37.4418 228.324 37.5895 228.074 37.7145C227.824 37.8395 227.499 37.902 227.098 37.902C226.581 37.902 226.115 37.7812 225.701 37.5398C225.289 37.2955 224.962 36.9361 224.721 36.4616C224.482 35.9844 224.363 35.3977 224.363 34.7017C224.363 34.0057 224.48 33.4091 224.716 32.9119C224.955 32.4148 225.282 32.0341 225.696 31.7699C226.111 31.5028 226.581 31.3693 227.107 31.3693C227.513 31.3693 227.841 31.4375 228.091 31.5739C228.341 31.7074 228.536 31.8636 228.675 32.0426C228.817 32.2216 228.926 32.3793 229.003 32.5156H229.097V31.4545H230.346V38.1449C230.346 38.7074 230.215 39.169 229.953 39.5298C229.692 39.8906 229.338 40.1577 228.892 40.331C228.449 40.5043 227.949 40.5909 227.392 40.5909ZM227.38 36.8452C227.746 36.8452 228.056 36.7599 228.309 36.5895C228.564 36.4162 228.757 36.169 228.888 35.848C229.022 35.5241 229.088 35.1364 229.088 34.6847C229.088 34.2443 229.023 33.8565 228.892 33.5213C228.762 33.1861 228.57 32.9247 228.317 32.7372C228.064 32.5469 227.752 32.4517 227.38 32.4517C226.996 32.4517 226.676 32.5511 226.421 32.75C226.165 32.946 225.972 33.2131 225.841 33.5511C225.713 33.8892 225.649 34.267 225.649 34.6847C225.649 35.1136 225.715 35.4901 225.846 35.8139C225.976 36.1378 226.169 36.3906 226.425 36.5724C226.684 36.7543 227.002 36.8452 227.38 36.8452ZM232.992 40.4545C232.801 40.4545 232.628 40.4389 232.472 40.4077C232.316 40.3793 232.199 40.348 232.122 40.3139L232.429 39.2699C232.662 39.3324 232.87 39.3594 233.051 39.3509C233.233 39.3423 233.394 39.2741 233.533 39.1463C233.675 39.0185 233.8 38.8097 233.908 38.5199L234.066 38.0852L231.671 31.4545H233.034L234.692 36.5341H234.76L236.418 31.4545H237.786L235.088 38.8736C234.963 39.2145 234.804 39.5028 234.611 39.7386C234.418 39.9773 234.188 40.1563 233.921 40.2756C233.654 40.3949 233.344 40.4545 232.992 40.4545ZM245.18 38.1321C244.566 38.1321 244.031 37.9915 243.574 37.7102C243.116 37.429 242.761 37.0355 242.508 36.5298C242.255 36.0241 242.129 35.4332 242.129 34.7571C242.129 34.0781 242.255 33.4844 242.508 32.9759C242.761 32.4673 243.116 32.0724 243.574 31.7912C244.031 31.5099 244.566 31.3693 245.18 31.3693C245.794 31.3693 246.329 31.5099 246.787 31.7912C247.244 32.0724 247.599 32.4673 247.852 32.9759C248.105 33.4844 248.231 34.0781 248.231 34.7571C248.231 35.4332 248.105 36.0241 247.852 36.5298C247.599 37.0355 247.244 37.429 246.787 37.7102C246.329 37.9915 245.794 38.1321 245.18 38.1321ZM245.184 37.0625C245.582 37.0625 245.912 36.9574 246.173 36.7472C246.434 36.5369 246.628 36.2571 246.753 35.9077C246.88 35.5582 246.944 35.1733 246.944 34.7528C246.944 34.3352 246.88 33.9517 246.753 33.6023C246.628 33.25 246.434 32.9673 246.173 32.7543C245.912 32.5412 245.582 32.4347 245.184 32.4347C244.784 32.4347 244.451 32.5412 244.187 32.7543C243.926 32.9673 243.731 33.25 243.603 33.6023C243.478 33.9517 243.416 34.3352 243.416 34.7528C243.416 35.1733 243.478 35.5582 243.603 35.9077C243.731 36.2571 243.926 36.5369 244.187 36.7472C244.451 36.9574 244.784 37.0625 245.184 37.0625ZM252.901 31.4545V32.4773H249.202V31.4545H252.901ZM250.216 38V30.696C250.216 30.2869 250.305 29.9474 250.484 29.6776C250.663 29.4048 250.901 29.2017 251.196 29.0682C251.491 28.9318 251.812 28.8636 252.159 28.8636C252.415 28.8636 252.633 28.8849 252.815 28.9276C252.997 28.9673 253.132 29.0043 253.22 29.0384L252.922 30.0696C252.862 30.0526 252.785 30.0327 252.692 30.0099C252.598 29.9844 252.484 29.9716 252.351 29.9716C252.041 29.9716 251.82 30.0483 251.686 30.2017C251.555 30.3551 251.49 30.5767 251.49 30.8665V38H250.216ZM105.761 51.0526L104.607 51.2571C104.558 51.1094 104.482 50.9687 104.376 50.8352C104.274 50.7017 104.135 50.5923 103.959 50.5071C103.783 50.4219 103.563 50.3793 103.298 50.3793C102.938 50.3793 102.636 50.4602 102.395 50.6222C102.153 50.7812 102.033 50.9872 102.033 51.2401C102.033 51.4588 102.114 51.6349 102.276 51.7685C102.438 51.902 102.699 52.0114 103.06 52.0966L104.099 52.3352C104.702 52.4744 105.151 52.6889 105.446 52.9787C105.741 53.2685 105.889 53.6449 105.889 54.108C105.889 54.5 105.776 54.8494 105.548 55.1562C105.324 55.4602 105.01 55.6989 104.607 55.8722C104.206 56.0455 103.741 56.1321 103.213 56.1321C102.48 56.1321 101.882 55.9759 101.419 55.6634C100.956 55.348 100.672 54.9006 100.567 54.321L101.798 54.1335C101.875 54.4545 102.033 54.6974 102.271 54.8622C102.51 55.0241 102.821 55.1051 103.205 55.1051C103.622 55.1051 103.956 55.0185 104.206 54.8452C104.456 54.669 104.581 54.4545 104.581 54.2017C104.581 53.9972 104.504 53.8253 104.351 53.6861C104.2 53.5469 103.969 53.4418 103.656 53.3707L102.548 53.1278C101.938 52.9886 101.486 52.767 101.193 52.4631C100.903 52.1591 100.759 51.7741 100.759 51.3082C100.759 50.9219 100.866 50.5838 101.082 50.294C101.298 50.0043 101.597 49.7784 101.977 49.6165C102.358 49.4517 102.794 49.3693 103.286 49.3693C103.993 49.3693 104.55 49.5227 104.956 49.8295C105.362 50.1335 105.631 50.5412 105.761 51.0526ZM107.422 56V49.4545H108.645V50.5199H108.726C108.862 50.1591 109.085 49.8778 109.395 49.6761C109.705 49.4716 110.076 49.3693 110.507 49.3693C110.945 49.3693 111.311 49.4716 111.607 49.6761C111.905 49.8807 112.125 50.1619 112.267 50.5199H112.335C112.492 50.1705 112.74 49.892 113.081 49.6847C113.422 49.4744 113.828 49.3693 114.3 49.3693C114.894 49.3693 115.378 49.5554 115.753 49.9276C116.131 50.2997 116.32 50.8608 116.32 51.6108V56H115.046V51.7301C115.046 51.2869 114.925 50.9659 114.683 50.767C114.442 50.5682 114.154 50.4688 113.818 50.4688C113.404 50.4688 113.081 50.5966 112.851 50.8523C112.621 51.1051 112.506 51.4304 112.506 51.8281V56H111.236V51.6491C111.236 51.294 111.125 51.0085 110.904 50.7926C110.682 50.5767 110.394 50.4688 110.039 50.4688C109.797 50.4688 109.574 50.5327 109.37 50.6605C109.168 50.7855 109.005 50.9602 108.88 51.1847C108.757 51.4091 108.696 51.669 108.696 51.9645V56H107.422ZM120.064 56.1449C119.65 56.1449 119.275 56.0682 118.939 55.9148C118.604 55.7585 118.339 55.5327 118.143 55.2372C117.949 54.9418 117.853 54.5795 117.853 54.1506C117.853 53.7812 117.924 53.4773 118.066 53.2386C118.208 53 118.4 52.8111 118.641 52.6719C118.883 52.5327 119.152 52.4276 119.451 52.3565C119.749 52.2855 120.053 52.2315 120.363 52.1946C120.755 52.1491 121.073 52.1122 121.317 52.0838C121.562 52.0526 121.739 52.0028 121.85 51.9347C121.961 51.8665 122.016 51.7557 122.016 51.6023V51.5724C122.016 51.2003 121.911 50.9119 121.701 50.7074C121.493 50.5028 121.184 50.4006 120.772 50.4006C120.343 50.4006 120.005 50.4957 119.758 50.6861C119.513 50.8736 119.344 51.0824 119.251 51.3125L118.053 51.0398C118.195 50.642 118.402 50.321 118.675 50.0767C118.951 49.8295 119.268 49.6506 119.626 49.5398C119.983 49.4261 120.36 49.3693 120.755 49.3693C121.016 49.3693 121.293 49.4006 121.586 49.4631C121.881 49.5227 122.157 49.6335 122.412 49.7955C122.671 49.9574 122.883 50.1889 123.047 50.4901C123.212 50.7884 123.295 51.1761 123.295 51.6534V56H122.05V55.1051H121.999C121.917 55.2699 121.793 55.4318 121.628 55.5909C121.464 55.75 121.252 55.8821 120.993 55.9872C120.735 56.0923 120.425 56.1449 120.064 56.1449ZM120.341 55.1222C120.694 55.1222 120.995 55.0526 121.245 54.9134C121.498 54.7741 121.689 54.5923 121.82 54.3679C121.954 54.1406 122.02 53.8977 122.02 53.6392V52.7955C121.975 52.8409 121.887 52.8835 121.756 52.9233C121.628 52.9602 121.482 52.9929 121.317 53.0213C121.152 53.0469 120.992 53.071 120.836 53.0938C120.679 53.1136 120.549 53.1307 120.444 53.1449C120.197 53.1761 119.971 53.2287 119.766 53.3026C119.564 53.3764 119.402 53.483 119.28 53.6222C119.161 53.7585 119.101 53.9403 119.101 54.1676C119.101 54.483 119.218 54.7216 119.451 54.8835C119.684 55.0426 119.981 55.1222 120.341 55.1222ZM125.124 56V49.4545H126.355V50.4943H126.423C126.543 50.142 126.753 49.8651 127.054 49.6634C127.358 49.4588 127.702 49.3565 128.085 49.3565C128.165 49.3565 128.259 49.3594 128.367 49.3651C128.477 49.3707 128.564 49.3778 128.626 49.3864V50.6051C128.575 50.5909 128.484 50.5753 128.354 50.5582C128.223 50.5384 128.092 50.5284 127.962 50.5284C127.661 50.5284 127.392 50.5923 127.156 50.7202C126.923 50.8452 126.739 51.0199 126.602 51.2443C126.466 51.4659 126.398 51.7187 126.398 52.0028V56H125.124ZM133.303 49.4545V50.4773H129.728V49.4545H133.303ZM130.687 47.8864H131.961V54.0781C131.961 54.3253 131.998 54.5114 132.072 54.6364C132.146 54.7585 132.241 54.8423 132.357 54.8878C132.477 54.9304 132.606 54.9517 132.745 54.9517C132.847 54.9517 132.937 54.9446 133.013 54.9304C133.09 54.9162 133.15 54.9048 133.192 54.8963L133.423 55.9489C133.349 55.9773 133.244 56.0057 133.107 56.0341C132.971 56.0653 132.8 56.0824 132.596 56.0852C132.261 56.0909 131.948 56.0312 131.658 55.9062C131.369 55.7812 131.134 55.5881 130.955 55.3267C130.776 55.0653 130.687 54.7372 130.687 54.3423V47.8864ZM138.152 56V49.4545H139.384V50.4943H139.452C139.571 50.142 139.782 49.8651 140.083 49.6634C140.387 49.4588 140.731 49.3565 141.114 49.3565C141.194 49.3565 141.287 49.3594 141.395 49.3651C141.506 49.3707 141.593 49.3778 141.655 49.3864V50.6051C141.604 50.5909 141.513 50.5753 141.383 50.5582C141.252 50.5384 141.121 50.5284 140.991 50.5284C140.689 50.5284 140.421 50.5923 140.185 50.7202C139.952 50.8452 139.767 51.0199 139.631 51.2443C139.495 51.4659 139.427 51.7187 139.427 52.0028V56H138.152ZM145.477 56.1321C144.832 56.1321 144.276 55.9943 143.81 55.7188C143.347 55.4403 142.989 55.0497 142.736 54.5469C142.486 54.0412 142.361 53.4489 142.361 52.7699C142.361 52.0994 142.486 51.5085 142.736 50.9972C142.989 50.4858 143.342 50.0866 143.793 49.7997C144.248 49.5128 144.779 49.3693 145.387 49.3693C145.756 49.3693 146.114 49.4304 146.461 49.5526C146.808 49.6747 147.119 49.8665 147.394 50.1278C147.67 50.3892 147.887 50.7287 148.046 51.1463C148.205 51.5611 148.285 52.0653 148.285 52.6591V53.1108H143.082V52.1562H147.036C147.036 51.821 146.968 51.5241 146.832 51.2656C146.695 51.0043 146.504 50.7983 146.256 50.6477C146.012 50.4972 145.725 50.4219 145.396 50.4219C145.038 50.4219 144.725 50.5099 144.458 50.6861C144.194 50.8594 143.989 51.0866 143.844 51.3679C143.702 51.6463 143.631 51.9489 143.631 52.2756V53.0213C143.631 53.4588 143.708 53.831 143.861 54.1378C144.018 54.4446 144.235 54.679 144.513 54.8409C144.792 55 145.117 55.0795 145.489 55.0795C145.731 55.0795 145.951 55.0455 146.15 54.9773C146.349 54.9062 146.521 54.8011 146.665 54.6619C146.81 54.5227 146.921 54.3509 146.998 54.1463L148.204 54.3636C148.107 54.7187 147.934 55.0298 147.684 55.2969C147.437 55.5611 147.126 55.767 146.751 55.9148C146.379 56.0597 145.954 56.1321 145.477 56.1321ZM152.588 56.1321C151.954 56.1321 151.409 55.9886 150.951 55.7017C150.497 55.4119 150.147 55.0128 149.903 54.5043C149.659 53.9957 149.536 53.4134 149.536 52.7571C149.536 52.0923 149.661 51.5057 149.911 50.9972C150.161 50.4858 150.514 50.0866 150.968 49.7997C151.423 49.5128 151.958 49.3693 152.575 49.3693C153.072 49.3693 153.515 49.4616 153.904 49.6463C154.294 49.8281 154.607 50.0838 154.846 50.4134C155.088 50.7429 155.231 51.1278 155.277 51.5682H154.036C153.968 51.2614 153.812 50.9972 153.568 50.7756C153.326 50.554 153.002 50.4432 152.596 50.4432C152.241 50.4432 151.93 50.5369 151.663 50.7244C151.399 50.9091 151.193 51.1733 151.045 51.517C150.897 51.858 150.823 52.2614 150.823 52.7273C150.823 53.2045 150.896 53.6165 151.041 53.9631C151.186 54.3097 151.39 54.5781 151.654 54.7685C151.921 54.9588 152.235 55.054 152.596 55.054C152.838 55.054 153.056 55.0099 153.252 54.9219C153.451 54.831 153.617 54.7017 153.751 54.5341C153.887 54.3665 153.982 54.1648 154.036 53.929H155.277C155.231 54.3523 155.093 54.7301 154.863 55.0625C154.633 55.3949 154.325 55.6562 153.938 55.8466C153.555 56.0369 153.105 56.1321 152.588 56.1321ZM156.771 56V49.4545H158.003V50.4943H158.071C158.19 50.142 158.4 49.8651 158.701 49.6634C159.005 49.4588 159.349 49.3565 159.733 49.3565C159.812 49.3565 159.906 49.3594 160.014 49.3651C160.125 49.3707 160.211 49.3778 160.274 49.3864V50.6051C160.223 50.5909 160.132 50.5753 160.001 50.5582C159.871 50.5384 159.74 50.5284 159.609 50.5284C159.308 50.5284 159.04 50.5923 158.804 50.7202C158.571 50.8452 158.386 51.0199 158.25 51.2443C158.113 51.4659 158.045 51.7187 158.045 52.0028V56H156.771ZM165.655 53.2855V49.4545H166.933V56H165.68V54.8665H165.612C165.462 55.2159 165.22 55.5071 164.888 55.7401C164.558 55.9702 164.148 56.0852 163.656 56.0852C163.236 56.0852 162.864 55.9929 162.54 55.8082C162.219 55.6207 161.966 55.3438 161.781 54.9773C161.599 54.6108 161.509 54.1577 161.509 53.6179V49.4545H162.783V53.4645C162.783 53.9105 162.906 54.2656 163.153 54.5298C163.401 54.794 163.722 54.9261 164.117 54.9261C164.355 54.9261 164.592 54.8665 164.828 54.7472C165.067 54.6278 165.264 54.4474 165.42 54.206C165.58 53.9645 165.658 53.6577 165.655 53.2855ZM168.777 56V49.4545H170.051V56H168.777ZM169.421 48.4446C169.199 48.4446 169.009 48.3707 168.85 48.223C168.693 48.0724 168.615 47.8935 168.615 47.6861C168.615 47.4759 168.693 47.2969 168.85 47.1491C169.009 46.9986 169.199 46.9233 169.421 46.9233C169.642 46.9233 169.831 46.9986 169.988 47.1491C170.147 47.2969 170.226 47.4759 170.226 47.6861C170.226 47.8935 170.147 48.0724 169.988 48.223C169.831 48.3707 169.642 48.4446 169.421 48.4446ZM174.953 49.4545V50.4773H171.378V49.4545H174.953ZM172.336 47.8864H173.611V54.0781C173.611 54.3253 173.648 54.5114 173.721 54.6364C173.795 54.7585 173.89 54.8423 174.007 54.8878C174.126 54.9304 174.256 54.9517 174.395 54.9517C174.497 54.9517 174.586 54.9446 174.663 54.9304C174.74 54.9162 174.8 54.9048 174.842 54.8963L175.072 55.9489C174.998 55.9773 174.893 56.0057 174.757 56.0341C174.621 56.0653 174.45 56.0824 174.246 56.0852C173.91 56.0909 173.598 56.0312 173.308 55.9062C173.018 55.7812 172.784 55.5881 172.605 55.3267C172.426 55.0653 172.336 54.7372 172.336 54.3423V47.8864ZM176.494 56V49.4545H177.717V50.5199H177.798C177.935 50.1591 178.158 49.8778 178.467 49.6761C178.777 49.4716 179.148 49.3693 179.58 49.3693C180.017 49.3693 180.384 49.4716 180.679 49.6761C180.977 49.8807 181.198 50.1619 181.34 50.5199H181.408C181.564 50.1705 181.813 49.892 182.154 49.6847C182.494 49.4744 182.901 49.3693 183.372 49.3693C183.966 49.3693 184.45 49.5554 184.825 49.9276C185.203 50.2997 185.392 50.8608 185.392 51.6108V56H184.118V51.7301C184.118 51.2869 183.997 50.9659 183.756 50.767C183.514 50.5682 183.226 50.4688 182.891 50.4688C182.476 50.4688 182.154 50.5966 181.923 50.8523C181.693 51.1051 181.578 51.4304 181.578 51.8281V56H180.308V51.6491C180.308 51.294 180.198 51.0085 179.976 50.7926C179.754 50.5767 179.466 50.4688 179.111 50.4688C178.869 50.4688 178.646 50.5327 178.442 50.6605C178.24 50.7855 178.077 50.9602 177.952 51.1847C177.83 51.4091 177.769 51.669 177.769 51.9645V56H176.494ZM190.053 56.1321C189.408 56.1321 188.853 55.9943 188.387 55.7188C187.924 55.4403 187.566 55.0497 187.313 54.5469C187.063 54.0412 186.938 53.4489 186.938 52.7699C186.938 52.0994 187.063 51.5085 187.313 50.9972C187.566 50.4858 187.918 50.0866 188.37 49.7997C188.824 49.5128 189.355 49.3693 189.963 49.3693C190.333 49.3693 190.691 49.4304 191.037 49.5526C191.384 49.6747 191.695 49.8665 191.971 50.1278C192.246 50.3892 192.463 50.7287 192.623 51.1463C192.782 51.5611 192.861 52.0653 192.861 52.6591V53.1108H187.658V52.1562H191.613C191.613 51.821 191.544 51.5241 191.408 51.2656C191.272 51.0043 191.08 50.7983 190.833 50.6477C190.588 50.4972 190.301 50.4219 189.972 50.4219C189.614 50.4219 189.301 50.5099 189.034 50.6861C188.77 50.8594 188.566 51.0866 188.421 51.3679C188.279 51.6463 188.208 51.9489 188.208 52.2756V53.0213C188.208 53.4588 188.284 53.831 188.438 54.1378C188.594 54.4446 188.811 54.679 189.09 54.8409C189.368 55 189.694 55.0795 190.066 55.0795C190.307 55.0795 190.527 55.0455 190.726 54.9773C190.925 54.9062 191.097 54.8011 191.242 54.6619C191.387 54.5227 191.498 54.3509 191.574 54.1463L192.78 54.3636C192.684 54.7187 192.51 55.0298 192.26 55.2969C192.013 55.5611 191.702 55.767 191.327 55.9148C190.955 56.0597 190.53 56.1321 190.053 56.1321ZM195.681 52.1136V56H194.407V49.4545H195.63V50.5199H195.711C195.861 50.1733 196.097 49.8949 196.418 49.6847C196.742 49.4744 197.15 49.3693 197.641 49.3693C198.087 49.3693 198.478 49.4631 198.813 49.6506C199.148 49.8352 199.408 50.1108 199.593 50.4773C199.778 50.8437 199.87 51.2969 199.87 51.8366V56H198.596V51.9901C198.596 51.5156 198.472 51.1449 198.225 50.8778C197.978 50.608 197.638 50.473 197.207 50.473C196.911 50.473 196.648 50.5369 196.418 50.6648C196.191 50.7926 196.011 50.9801 195.877 51.2273C195.746 51.4716 195.681 51.767 195.681 52.1136ZM204.766 49.4545V50.4773H201.191V49.4545H204.766ZM202.15 47.8864H203.424V54.0781C203.424 54.3253 203.461 54.5114 203.535 54.6364C203.608 54.7585 203.704 54.8423 203.82 54.8878C203.939 54.9304 204.069 54.9517 204.208 54.9517C204.31 54.9517 204.4 54.9446 204.476 54.9304C204.553 54.9162 204.613 54.9048 204.655 54.8963L204.885 55.9489C204.812 55.9773 204.706 56.0057 204.57 56.0341C204.434 56.0653 204.263 56.0824 204.059 56.0852C203.724 56.0909 203.411 56.0312 203.121 55.9062C202.831 55.7812 202.597 55.5881 202.418 55.3267C202.239 55.0653 202.15 54.7372 202.15 54.3423V47.8864ZM209.287 48.4062V47.2727H216.041V48.4062H213.318V56H212.006V48.4062H209.287ZM219.372 56.1321C218.758 56.1321 218.222 55.9915 217.765 55.7102C217.308 55.429 216.953 55.0355 216.7 54.5298C216.447 54.0241 216.321 53.4332 216.321 52.7571C216.321 52.0781 216.447 51.4844 216.7 50.9759C216.953 50.4673 217.308 50.0724 217.765 49.7912C218.222 49.5099 218.758 49.3693 219.372 49.3693C219.985 49.3693 220.521 49.5099 220.978 49.7912C221.436 50.0724 221.791 50.4673 222.044 50.9759C222.296 51.4844 222.423 52.0781 222.423 52.7571C222.423 53.4332 222.296 54.0241 222.044 54.5298C221.791 55.0355 221.436 55.429 220.978 55.7102C220.521 55.9915 219.985 56.1321 219.372 56.1321ZM219.376 55.0625C219.774 55.0625 220.103 54.9574 220.365 54.7472C220.626 54.5369 220.819 54.2571 220.944 53.9077C221.072 53.5582 221.136 53.1733 221.136 52.7528C221.136 52.3352 221.072 51.9517 220.944 51.6023C220.819 51.25 220.626 50.9673 220.365 50.7543C220.103 50.5412 219.774 50.4347 219.376 50.4347C218.975 50.4347 218.643 50.5412 218.379 50.7543C218.117 50.9673 217.923 51.25 217.795 51.6023C217.67 51.9517 217.607 52.3352 217.607 52.7528C217.607 53.1733 217.67 53.5582 217.795 53.9077C217.923 54.2571 218.117 54.5369 218.379 54.7472C218.643 54.9574 218.975 55.0625 219.376 55.0625ZM223.977 58.4545V49.4545H225.221V50.5156H225.328C225.402 50.3793 225.508 50.2216 225.647 50.0426C225.787 49.8636 225.98 49.7074 226.227 49.5739C226.474 49.4375 226.801 49.3693 227.207 49.3693C227.736 49.3693 228.207 49.5028 228.622 49.7699C229.037 50.0369 229.362 50.4219 229.598 50.9247C229.836 51.4276 229.956 52.0327 229.956 52.7401C229.956 53.4474 229.838 54.054 229.602 54.5597C229.366 55.0625 229.042 55.4503 228.63 55.723C228.218 55.9929 227.748 56.1278 227.22 56.1278C226.822 56.1278 226.497 56.0611 226.244 55.9276C225.994 55.794 225.798 55.6378 225.656 55.4588C225.514 55.2798 225.405 55.1207 225.328 54.9815H225.251V58.4545H223.977ZM225.226 52.7273C225.226 53.1875 225.292 53.5909 225.426 53.9375C225.559 54.2841 225.753 54.5554 226.005 54.7514C226.258 54.9446 226.568 55.0412 226.934 55.0412C227.315 55.0412 227.633 54.9403 227.889 54.7386C228.145 54.5341 228.338 54.2571 228.468 53.9077C228.602 53.5582 228.669 53.1648 228.669 52.7273C228.669 52.2955 228.603 51.9077 228.473 51.5639C228.345 51.2202 228.152 50.9489 227.893 50.75C227.638 50.5511 227.318 50.4517 226.934 50.4517C226.565 50.4517 226.253 50.5469 225.997 50.7372C225.744 50.9276 225.552 51.1932 225.422 51.5341C225.291 51.875 225.226 52.2727 225.226 52.7273ZM238.866 50.1108H237.537C237.485 49.8267 237.39 49.5767 237.251 49.3608C237.112 49.1449 236.941 48.9616 236.74 48.8111C236.538 48.6605 236.312 48.5469 236.062 48.4702C235.815 48.3935 235.552 48.3551 235.274 48.3551C234.771 48.3551 234.321 48.4815 233.923 48.7344C233.528 48.9872 233.216 49.358 232.985 49.8466C232.758 50.3352 232.645 50.9318 232.645 51.6364C232.645 52.3466 232.758 52.946 232.985 53.4347C233.216 53.9233 233.529 54.2926 233.927 54.5426C234.325 54.7926 234.772 54.9176 235.27 54.9176C235.545 54.9176 235.806 54.8807 236.054 54.8068C236.304 54.7301 236.529 54.6179 236.731 54.4702C236.933 54.3224 237.103 54.142 237.243 53.929C237.385 53.7131 237.483 53.4659 237.537 53.1875L238.866 53.1918C238.795 53.6207 238.657 54.0156 238.453 54.3764C238.251 54.7344 237.991 55.044 237.673 55.3054C237.358 55.5639 236.997 55.7642 236.591 55.9062C236.184 56.0483 235.741 56.1193 235.261 56.1193C234.505 56.1193 233.832 55.9403 233.241 55.5824C232.65 55.2216 232.184 54.706 231.843 54.0355C231.505 53.3651 231.336 52.5653 231.336 51.6364C231.336 50.7045 231.507 49.9048 231.848 49.2372C232.189 48.5668 232.654 48.0526 233.245 47.6946C233.836 47.3338 234.508 47.1534 235.261 47.1534C235.724 47.1534 236.156 47.2202 236.556 47.3537C236.96 47.4844 237.322 47.6776 237.643 47.9332C237.964 48.1861 238.23 48.4957 238.44 48.8622C238.65 49.2259 238.792 49.642 238.866 50.1108ZM241.337 47.2727L243.766 54.3807H243.864L246.293 47.2727H247.716L244.575 56H243.054L239.913 47.2727H241.337ZM248.685 56.081C248.452 56.081 248.252 55.9986 248.084 55.8338C247.917 55.6662 247.833 55.4645 247.833 55.2287C247.833 54.9957 247.917 54.7969 248.084 54.6321C248.252 54.4645 248.452 54.3807 248.685 54.3807C248.918 54.3807 249.118 54.4645 249.286 54.6321C249.454 54.7969 249.537 54.9957 249.537 55.2287C249.537 55.3849 249.498 55.5284 249.418 55.6591C249.341 55.7869 249.239 55.8892 249.111 55.9659C248.983 56.0426 248.841 56.081 248.685 56.081ZM256.976 49.4545L254.602 56H253.238L250.86 49.4545H252.228L253.886 54.4915H253.954L255.608 49.4545H256.976ZM259.579 52.1136V56H258.305V49.4545H259.528V50.5199H259.609C259.76 50.1733 259.995 49.8949 260.316 49.6847C260.64 49.4744 261.048 49.3693 261.539 49.3693C261.985 49.3693 262.376 49.4631 262.711 49.6506C263.046 49.8352 263.306 50.1108 263.491 50.4773C263.676 50.8437 263.768 51.2969 263.768 51.8366V56H262.494V51.9901C262.494 51.5156 262.37 51.1449 262.123 50.8778C261.876 50.608 261.537 50.473 261.105 50.473C260.809 50.473 260.546 50.5369 260.316 50.6648C260.089 50.7926 259.909 50.9801 259.775 51.2273C259.644 51.4716 259.579 51.767 259.579 52.1136Z" fill="white"/>
<defs>
<linearGradient id="paint0_linear_12630_18016" x1="1.73506" y1="42.3248" x2="276.765" y2="42.3248" gradientUnits="userSpaceOnUse">
<stop stop-color="#213142"/>
<stop offset="1" stop-color="#0A9C4B"/>
</linearGradient>
</defs>
</svg>
