<svg width="279" height="86" viewBox="0 0 279 86" fill="none" xmlns="http://www.w3.org/2000/svg">
<rect width="278.5" height="86" rx="8" fill="url(#paint0_linear_12630_17959)"/>
<path d="M38.0024 42.6113C37.941 46.9351 34.5869 50.0341 30.0738 50.0169C25.8824 50.0006 22.1643 46.8491 22.3526 42.2338C22.4918 38.8297 25.3754 35.1686 30.3734 35.2537C34.7002 35.327 38.0024 38.6505 38.0024 42.6113ZM34.2767 42.7679C34.2719 41.2587 33.6026 40.2719 32.5224 39.4743C31.0513 38.3879 28.2493 38.6903 27.001 40.194C25.4483 41.9975 25.9813 44.412 27.6204 45.6767C28.9743 46.5522 30.4204 46.7957 31.8925 46.1629C33.4058 45.4531 34.1692 44.2879 34.2767 42.7679Z" fill="white"/>
<path d="M76.5298 44.3839C77.1261 42.9218 77.683 41.5611 78.2361 40.1995C78.8305 38.7365 79.6688 36.7167 80.2478 35.2482C81.3962 35.2482 83.5193 35.2482 84.6562 35.2482C82.777 39.6373 80.2075 45.6315 78.3379 50.0241C78.3379 50.0241 78.0345 50.0241 77.4324 50.0241C76.7017 50.0241 75.4716 50.0241 74.7178 50.0241C72.8867 45.6985 70.8615 40.7988 69.0256 36.4749C68.8873 36.1499 68.4619 35.2473 68.4619 35.2473C68.4619 35.2473 69.4711 35.2473 69.8533 35.2473C70.7655 35.2473 72.0032 35.2473 72.8771 35.2473C72.8771 35.2473 72.8905 35.2826 72.8771 35.2473C73.9823 38.0593 75.3689 41.4706 76.5298 44.3839Z" fill="white"/>
<path d="M54.3805 43.1382C54.1942 38.7274 57.5406 35.4546 61.8434 35.26C64.2209 35.1523 66.5725 36.168 68.1425 37.9099L67.7306 38.2132C66.9432 38.7491 66.2307 39.2652 65.4615 39.8636C65.2196 40.0519 65.1917 40.0881 65.1917 40.0881C64.2699 39.1692 62.6279 38.6278 61.2548 38.8967C59.511 39.3168 58.1801 41.2533 58.376 43.054C58.5997 45.1091 60.0756 46.4236 62.021 46.5123C63.1109 46.5621 64.3918 46.0443 65.1917 45.3309C65.1917 45.3309 65.1802 45.3309 65.4423 45.5319C66.223 46.1294 67.2793 46.9261 68.0686 47.4937C66.6148 49.0038 64.485 49.9354 62.4378 50.0169C59.0213 50.178 54.6282 47.6006 54.3805 43.1382Z" fill="white"/>
<path d="M14.501 38.7208C14.501 36.5326 14.5173 34.1797 14.5029 31.9924V31.6855C15.6379 31.5868 17.7494 31.3885 18.8825 31.25C18.8921 32.388 18.8825 34.4585 18.8825 35.5965H18.8595C19.3924 35.5965 20.6503 35.6001 21.14 35.5883C21.1285 36.4665 21.1199 37.9422 21.1362 38.8195C20.6138 38.8077 19.4039 38.8331 18.8816 38.8195C18.8902 40.6374 18.8816 42.8491 18.8816 44.6598C18.9027 46.2894 19.981 46.7293 21.3215 46.417C21.6384 46.3428 22.1531 46.0422 22.4162 45.882C22.6562 46.5963 23.6069 47.9253 24.1868 48.4277C22.0542 50.0664 19.5547 50.5598 17.0398 49.3331C15.3037 48.4866 14.501 47.0073 14.501 45.1921C14.501 43.0329 14.501 40.8773 14.501 38.7208Z" fill="white"/>
<path d="M40.7958 61.2501C39.7597 59.9627 38.6477 58.4816 37.6299 57.2223C38.3577 52.4584 39.1499 47.155 39.8807 42.3912C39.4562 41.7004 38.6026 40.365 38.1695 39.6788C38.8743 38.8703 40.1361 37.4942 40.8159 36.6667C41.5563 37.5232 42.7422 38.8386 43.4835 39.6788C43.0494 40.3415 42.1891 41.7212 41.7589 42.3912C42.4109 46.6525 43.253 52.9763 44.002 57.2223L43.9751 57.2576C43.3212 58.0968 41.5015 60.3737 40.7958 61.2501Z" fill="white"/>
<path d="M42.7352 45.1952C43.3834 45.8416 44.0661 46.2825 44.9005 46.4392C46.6299 46.7633 48.2229 46.1123 49.0679 44.767C50.0042 43.2768 49.84 41.2896 48.6752 40.0158C47.617 38.8588 45.5333 38.3953 43.8337 39.3287C43.2729 38.6289 41.7855 36.9549 41.1758 36.2922C45.902 33.6867 52.9415 36.1446 53.5407 41.7912C53.9238 45.3944 51.8632 48.7459 48.3612 49.7798C46.9151 50.2071 44.8938 49.9953 43.4035 49.7364C43.2249 48.4381 42.9464 46.613 42.7352 45.1952Z" fill="white"/>
<path d="M87.8641 38.3002C86.9768 38.2903 86.249 37.5805 86.272 36.7476C86.2951 35.9228 87.0162 35.2538 87.8823 35.2556C88.7725 35.2574 89.5061 35.9509 89.5013 36.7883C89.4965 37.6185 88.7485 38.3102 87.8641 38.3002ZM89.1181 36.7684C89.1143 36.1003 88.5881 35.6015 87.8871 35.6024C87.1737 35.6024 86.6292 36.1302 86.6407 36.8083C86.6513 37.4547 87.215 37.9662 87.9034 37.9553C88.6054 37.9435 89.121 37.4402 89.1181 36.7684Z" fill="white"/>
<path d="M88.3412 36.9629L88.5285 37.0072C88.4891 37.153 88.4181 37.2634 88.3163 37.3395C88.2145 37.4155 88.0897 37.4536 87.9418 37.4536C87.7891 37.4536 87.6652 37.4246 87.5692 37.3657C87.4732 37.3069 87.4002 37.2218 87.3503 37.1113C87.3004 37 87.2754 36.8805 87.2754 36.7528C87.2754 36.6134 87.3032 36.4921 87.3599 36.3889C87.4165 36.2857 87.4962 36.2069 87.6009 36.1526C87.7046 36.0992 87.8198 36.072 87.9447 36.072C88.0868 36.072 88.2059 36.1064 88.3019 36.1743C88.3989 36.2422 88.4661 36.3382 88.5035 36.4613L88.3192 36.5021C88.2865 36.4052 88.2385 36.3337 88.1761 36.2893C88.1137 36.2449 88.0349 36.2232 87.9399 36.2232C87.8314 36.2232 87.7401 36.2477 87.6672 36.2974C87.5942 36.3463 87.5423 36.4124 87.5126 36.4957C87.4828 36.579 87.4684 36.6641 87.4684 36.7519C87.4684 36.866 87.4857 36.9647 87.5212 37.0498C87.5567 37.1349 87.6115 37.1983 87.6854 37.2399C87.7593 37.2815 87.84 37.3024 87.9264 37.3024C88.0311 37.3024 88.1204 37.2734 88.1934 37.2164C88.2654 37.1602 88.3153 37.0751 88.3412 36.9629Z" fill="white"/>
<path d="M108.003 20.2727V29H106.793L102.357 22.5994H102.276V29H100.959V20.2727H102.178L106.618 26.6818H106.699V20.2727H108.003ZM112.774 29.1321C112.13 29.1321 111.574 28.9943 111.108 28.7188C110.645 28.4403 110.287 28.0497 110.034 27.5469C109.784 27.0412 109.659 26.4489 109.659 25.7699C109.659 25.0994 109.784 24.5085 110.034 23.9972C110.287 23.4858 110.639 23.0866 111.091 22.7997C111.546 22.5128 112.077 22.3693 112.685 22.3693C113.054 22.3693 113.412 22.4304 113.759 22.5526C114.105 22.6747 114.416 22.8665 114.692 23.1278C114.968 23.3892 115.185 23.7287 115.344 24.1463C115.503 24.5611 115.583 25.0653 115.583 25.6591V26.1108H110.38V25.1562H114.334C114.334 24.821 114.266 24.5241 114.13 24.2656C113.993 24.0043 113.801 23.7983 113.554 23.6477C113.31 23.4972 113.023 23.4219 112.693 23.4219C112.335 23.4219 112.023 23.5099 111.756 23.6861C111.492 23.8594 111.287 24.0866 111.142 24.3679C111 24.6463 110.929 24.9489 110.929 25.2756V26.0213C110.929 26.4588 111.006 26.831 111.159 27.1378C111.316 27.4446 111.533 27.679 111.811 27.8409C112.09 28 112.415 28.0795 112.787 28.0795C113.029 28.0795 113.249 28.0455 113.448 27.9773C113.647 27.9062 113.818 27.8011 113.963 27.6619C114.108 27.5227 114.219 27.3509 114.296 27.1463L115.502 27.3636C115.405 27.7187 115.232 28.0298 114.982 28.2969C114.735 28.5611 114.424 28.767 114.049 28.9148C113.676 29.0597 113.252 29.1321 112.774 29.1321ZM113.103 20.2131L114.841 21.6918H113.584L112.638 20.848L111.688 21.6918H110.435L112.152 20.2131H113.103ZM110 19.1818L110.878 20.7457H109.962L108.692 19.1818H110ZM118.402 25.1136V29H117.128V22.4545H118.351V23.5199H118.432C118.583 23.1733 118.819 22.8949 119.14 22.6847C119.464 22.4744 119.871 22.3693 120.363 22.3693C120.809 22.3693 121.199 22.4631 121.535 22.6506C121.87 22.8352 122.13 23.1108 122.314 23.4773C122.499 23.8437 122.591 24.2969 122.591 24.8366V29H121.317V24.9901C121.317 24.5156 121.194 24.1449 120.947 23.8778C120.699 23.608 120.36 23.473 119.928 23.473C119.633 23.473 119.37 23.5369 119.14 23.6648C118.912 23.7926 118.732 23.9801 118.599 24.2273C118.468 24.4716 118.402 24.767 118.402 25.1136ZM130.795 22.4545V23.4773H127.22V22.4545H130.795ZM128.179 20.8864H129.453V27.0781C129.453 27.3253 129.49 27.5114 129.564 27.6364C129.638 27.7585 129.733 27.8423 129.849 27.8878C129.969 27.9304 130.098 27.9517 130.237 27.9517C130.339 27.9517 130.429 27.9446 130.506 27.9304C130.582 27.9162 130.642 27.9048 130.685 27.8963L130.915 28.9489C130.841 28.9773 130.736 29.0057 130.599 29.0341C130.463 29.0653 130.293 29.0824 130.088 29.0852C129.753 29.0909 129.44 29.0312 129.151 28.9062C128.861 28.7812 128.626 28.5881 128.447 28.3267C128.268 28.0653 128.179 27.7372 128.179 27.3423V20.8864ZM134.242 29.1449C133.827 29.1449 133.452 29.0682 133.117 28.9148C132.781 28.7585 132.516 28.5327 132.32 28.2372C132.127 27.9418 132.03 27.5795 132.03 27.1506C132.03 26.7812 132.101 26.4773 132.243 26.2386C132.385 26 132.577 25.8111 132.818 25.6719C133.06 25.5327 133.33 25.4276 133.628 25.3565C133.926 25.2855 134.23 25.2315 134.54 25.1946C134.932 25.1491 135.25 25.1122 135.495 25.0838C135.739 25.0526 135.916 25.0028 136.027 24.9347C136.138 24.8665 136.193 24.7557 136.193 24.6023V24.5724C136.193 24.2003 136.088 23.9119 135.878 23.7074C135.671 23.5028 135.361 23.4006 134.949 23.4006C134.52 23.4006 134.182 23.4957 133.935 23.6861C133.691 23.8736 133.522 24.0824 133.428 24.3125L132.23 24.0398C132.372 23.642 132.58 23.321 132.852 23.0767C133.128 22.8295 133.445 22.6506 133.803 22.5398C134.161 22.4261 134.537 22.3693 134.932 22.3693C135.193 22.3693 135.47 22.4006 135.763 22.4631C136.058 22.5227 136.334 22.6335 136.59 22.7955C136.848 22.9574 137.06 23.1889 137.225 23.4901C137.389 23.7884 137.472 24.1761 137.472 24.6534V29H136.227V28.1051H136.176C136.094 28.2699 135.97 28.4318 135.806 28.5909C135.641 28.75 135.429 28.8821 135.171 28.9872C134.912 29.0923 134.602 29.1449 134.242 29.1449ZM134.519 28.1222C134.871 28.1222 135.172 28.0526 135.422 27.9134C135.675 27.7741 135.867 27.5923 135.997 27.3679C136.131 27.1406 136.198 26.8977 136.198 26.6392V25.7955C136.152 25.8409 136.064 25.8835 135.933 25.9233C135.806 25.9602 135.659 25.9929 135.495 26.0213C135.33 26.0469 135.169 26.071 135.013 26.0938C134.857 26.1136 134.726 26.1307 134.621 26.1449C134.374 26.1761 134.148 26.2287 133.943 26.3026C133.742 26.3764 133.58 26.483 133.458 26.6222C133.338 26.7585 133.279 26.9403 133.279 27.1676C133.279 27.483 133.395 27.7216 133.628 27.8835C133.861 28.0426 134.158 28.1222 134.519 28.1222ZM135.52 21.5511H134.514L134.48 20.6818C134.781 20.6676 134.995 20.6278 135.12 20.5625C135.245 20.4943 135.306 20.3963 135.303 20.2685C135.306 20.1151 135.219 20.0057 135.043 19.9403C134.87 19.875 134.658 19.8423 134.408 19.8423L134.446 19.1392C135.091 19.1392 135.58 19.2415 135.912 19.446C136.247 19.6506 136.414 19.9261 136.411 20.2727C136.414 20.554 136.321 20.7614 136.134 20.8949C135.949 21.0256 135.745 21.108 135.52 21.142V21.5511ZM140.575 25.1136V29H139.301V22.4545H140.524V23.5199H140.605C140.755 23.1733 140.991 22.8949 141.312 22.6847C141.636 22.4744 142.044 22.3693 142.535 22.3693C142.981 22.3693 143.372 22.4631 143.707 22.6506C144.042 22.8352 144.302 23.1108 144.487 23.4773C144.672 23.8437 144.764 24.2969 144.764 24.8366V29H143.49V24.9901C143.49 24.5156 143.366 24.1449 143.119 23.8778C142.872 23.608 142.532 23.473 142.101 23.473C141.805 23.473 141.542 23.5369 141.312 23.6648C141.085 23.7926 140.905 23.9801 140.771 24.2273C140.64 24.4716 140.575 24.767 140.575 25.1136ZM149.349 31.5909C148.829 31.5909 148.382 31.5227 148.007 31.3864C147.635 31.25 147.331 31.0696 147.095 30.8452C146.859 30.6207 146.683 30.375 146.566 30.108L147.662 29.6562C147.738 29.7812 147.841 29.9134 147.968 30.0526C148.099 30.1946 148.275 30.3153 148.497 30.4148C148.721 30.5142 149.01 30.5639 149.362 30.5639C149.845 30.5639 150.244 30.446 150.559 30.2102C150.875 29.9773 151.032 29.6051 151.032 29.0938V27.8068H150.951C150.875 27.946 150.764 28.1009 150.619 28.2713C150.477 28.4418 150.281 28.5895 150.031 28.7145C149.781 28.8395 149.456 28.902 149.055 28.902C148.538 28.902 148.072 28.7812 147.657 28.5398C147.245 28.2955 146.919 27.9361 146.677 27.4616C146.439 26.9844 146.319 26.3977 146.319 25.7017C146.319 25.0057 146.437 24.4091 146.673 23.9119C146.912 23.4148 147.238 23.0341 147.653 22.7699C148.068 22.5028 148.538 22.3693 149.064 22.3693C149.47 22.3693 149.798 22.4375 150.048 22.5739C150.298 22.7074 150.493 22.8636 150.632 23.0426C150.774 23.2216 150.883 23.3793 150.96 23.5156H151.054V22.4545H152.302V29.1449C152.302 29.7074 152.172 30.169 151.91 30.5298C151.649 30.8906 151.295 31.1577 150.849 31.331C150.406 31.5043 149.906 31.5909 149.349 31.5909ZM149.336 27.8452C149.703 27.8452 150.012 27.7599 150.265 27.5895C150.521 27.4162 150.714 27.169 150.845 26.848C150.978 26.5241 151.045 26.1364 151.045 25.6847C151.045 25.2443 150.98 24.8565 150.849 24.5213C150.718 24.1861 150.527 23.9247 150.274 23.7372C150.021 23.5469 149.708 23.4517 149.336 23.4517C148.953 23.4517 148.633 23.5511 148.377 23.75C148.122 23.946 147.929 24.2131 147.798 24.5511C147.67 24.8892 147.606 25.267 147.606 25.6847C147.606 26.1136 147.672 26.4901 147.802 26.8139C147.933 27.1378 148.126 27.3906 148.382 27.5724C148.64 27.7543 148.958 27.8452 149.336 27.8452ZM160.208 29.1321C159.574 29.1321 159.029 28.9886 158.572 28.7017C158.117 28.4119 157.768 28.0128 157.523 27.5043C157.279 26.9957 157.157 26.4134 157.157 25.7571C157.157 25.0923 157.282 24.5057 157.532 23.9972C157.782 23.4858 158.134 23.0866 158.589 22.7997C159.043 22.5128 159.579 22.3693 160.195 22.3693C160.692 22.3693 161.135 22.4616 161.525 22.6463C161.914 22.8281 162.228 23.0838 162.466 23.4134C162.708 23.7429 162.851 24.1278 162.897 24.5682H161.657C161.589 24.2614 161.432 23.9972 161.188 23.7756C160.947 23.554 160.623 23.4432 160.216 23.4432C159.861 23.4432 159.55 23.5369 159.283 23.7244C159.019 23.9091 158.813 24.1733 158.665 24.517C158.518 24.858 158.444 25.2614 158.444 25.7273C158.444 26.2045 158.516 26.6165 158.661 26.9631C158.806 27.3097 159.01 27.5781 159.275 27.7685C159.542 27.9588 159.856 28.054 160.216 28.054C160.458 28.054 160.677 28.0099 160.873 27.9219C161.072 27.831 161.238 27.7017 161.371 27.5341C161.508 27.3665 161.603 27.1648 161.657 26.929H162.897C162.851 27.3523 162.714 27.7301 162.483 28.0625C162.253 28.3949 161.945 28.6562 161.559 28.8466C161.175 29.0369 160.725 29.1321 160.208 29.1321ZM167.148 29.1321C166.535 29.1321 165.999 28.9915 165.542 28.7102C165.085 28.429 164.729 28.0355 164.477 27.5298C164.224 27.0241 164.097 26.4332 164.097 25.7571C164.097 25.0781 164.224 24.4844 164.477 23.9759C164.729 23.4673 165.085 23.0724 165.542 22.7912C165.999 22.5099 166.535 22.3693 167.148 22.3693C167.762 22.3693 168.298 22.5099 168.755 22.7912C169.212 23.0724 169.568 23.4673 169.82 23.9759C170.073 24.4844 170.2 25.0781 170.2 25.7571C170.2 26.4332 170.073 27.0241 169.82 27.5298C169.568 28.0355 169.212 28.429 168.755 28.7102C168.298 28.9915 167.762 29.1321 167.148 29.1321ZM167.153 28.0625C167.55 28.0625 167.88 27.9574 168.141 27.7472C168.403 27.5369 168.596 27.2571 168.721 26.9077C168.849 26.5582 168.913 26.1733 168.913 25.7528C168.913 25.3352 168.849 24.9517 168.721 24.6023C168.596 24.25 168.403 23.9673 168.141 23.7543C167.88 23.5412 167.55 23.4347 167.153 23.4347C166.752 23.4347 166.42 23.5412 166.156 23.7543C165.894 23.9673 165.7 24.25 165.572 24.6023C165.447 24.9517 165.384 25.3352 165.384 25.7528C165.384 26.1733 165.447 26.5582 165.572 26.9077C165.7 27.2571 165.894 27.5369 166.156 27.7472C166.42 27.9574 166.752 28.0625 167.153 28.0625ZM168.022 21.6705L167.148 20.5284L166.271 21.6705H165.12V21.6065L166.616 19.7997H167.677L169.177 21.6065V21.6705H168.022ZM173.028 25.1136V29H171.754V22.4545H172.977V23.5199H173.058C173.208 23.1733 173.444 22.8949 173.765 22.6847C174.089 22.4744 174.497 22.3693 174.988 22.3693C175.434 22.3693 175.825 22.4631 176.16 22.6506C176.495 22.8352 176.755 23.1108 176.94 23.4773C177.125 23.8437 177.217 24.2969 177.217 24.8366V29H175.943V24.9901C175.943 24.5156 175.819 24.1449 175.572 23.8778C175.325 23.608 174.985 23.473 174.554 23.473C174.258 23.473 173.995 23.5369 173.765 23.6648C173.538 23.7926 173.358 23.9801 173.224 24.2273C173.093 24.4716 173.028 24.767 173.028 25.1136ZM181.802 31.5909C181.282 31.5909 180.835 31.5227 180.46 31.3864C180.088 31.25 179.784 31.0696 179.548 30.8452C179.312 30.6207 179.136 30.375 179.019 30.108L180.115 29.6562C180.191 29.7812 180.294 29.9134 180.421 30.0526C180.552 30.1946 180.728 30.3153 180.95 30.4148C181.174 30.5142 181.463 30.5639 181.815 30.5639C182.298 30.5639 182.697 30.446 183.012 30.2102C183.328 29.9773 183.485 29.6051 183.485 29.0938V27.8068H183.404C183.328 27.946 183.217 28.1009 183.072 28.2713C182.93 28.4418 182.734 28.5895 182.484 28.7145C182.234 28.8395 181.909 28.902 181.508 28.902C180.991 28.902 180.525 28.7812 180.11 28.5398C179.698 28.2955 179.372 27.9361 179.13 27.4616C178.892 26.9844 178.772 26.3977 178.772 25.7017C178.772 25.0057 178.89 24.4091 179.126 23.9119C179.365 23.4148 179.691 23.0341 180.106 22.7699C180.521 22.5028 180.991 22.3693 181.517 22.3693C181.923 22.3693 182.251 22.4375 182.501 22.5739C182.751 22.7074 182.946 22.8636 183.085 23.0426C183.227 23.2216 183.336 23.3793 183.413 23.5156H183.507V22.4545H184.755V29.1449C184.755 29.7074 184.624 30.169 184.363 30.5298C184.102 30.8906 183.748 31.1577 183.302 31.331C182.859 31.5043 182.359 31.5909 181.802 31.5909ZM181.789 27.8452C182.156 27.8452 182.465 27.7599 182.718 27.5895C182.974 27.4162 183.167 27.169 183.298 26.848C183.431 26.5241 183.498 26.1364 183.498 25.6847C183.498 25.2443 183.433 24.8565 183.302 24.5213C183.171 24.1861 182.98 23.9247 182.727 23.7372C182.474 23.5469 182.161 23.4517 181.789 23.4517C181.406 23.4517 181.086 23.5511 180.83 23.75C180.575 23.946 180.382 24.2131 180.251 24.5511C180.123 24.8892 180.059 25.267 180.059 25.6847C180.059 26.1136 180.124 26.4901 180.255 26.8139C180.386 27.1378 180.579 27.3906 180.835 27.5724C181.093 27.7543 181.411 27.8452 181.789 27.8452ZM191.178 25.1136V29H189.904V22.4545H191.127V23.5199H191.208C191.358 23.1733 191.594 22.8949 191.915 22.6847C192.239 22.4744 192.647 22.3693 193.138 22.3693C193.584 22.3693 193.975 22.4631 194.31 22.6506C194.645 22.8352 194.905 23.1108 195.09 23.4773C195.274 23.8437 195.367 24.2969 195.367 24.8366V29H194.093V24.9901C194.093 24.5156 193.969 24.1449 193.722 23.8778C193.475 23.608 193.135 23.473 192.703 23.473C192.408 23.473 192.145 23.5369 191.915 23.6648C191.688 23.7926 191.507 23.9801 191.374 24.2273C191.243 24.4716 191.178 24.767 191.178 25.1136ZM199.952 31.5909C199.432 31.5909 198.985 31.5227 198.61 31.3864C198.237 31.25 197.933 31.0696 197.698 30.8452C197.462 30.6207 197.286 30.375 197.169 30.108L198.264 29.6562C198.341 29.7812 198.443 29.9134 198.571 30.0526C198.702 30.1946 198.878 30.3153 199.1 30.4148C199.324 30.5142 199.612 30.5639 199.965 30.5639C200.448 30.5639 200.847 30.446 201.162 30.2102C201.478 29.9773 201.635 29.6051 201.635 29.0938V27.8068H201.554C201.478 27.946 201.367 28.1009 201.222 28.2713C201.08 28.4418 200.884 28.5895 200.634 28.7145C200.384 28.8395 200.058 28.902 199.658 28.902C199.141 28.902 198.675 28.7812 198.26 28.5398C197.848 28.2955 197.522 27.9361 197.28 27.4616C197.041 26.9844 196.922 26.3977 196.922 25.7017C196.922 25.0057 197.04 24.4091 197.276 23.9119C197.514 23.4148 197.841 23.0341 198.256 22.7699C198.671 22.5028 199.141 22.3693 199.666 22.3693C200.073 22.3693 200.401 22.4375 200.651 22.5739C200.901 22.7074 201.095 22.8636 201.235 23.0426C201.377 23.2216 201.486 23.3793 201.563 23.5156H201.656V22.4545H202.905V29.1449C202.905 29.7074 202.774 30.169 202.513 30.5298C202.252 30.8906 201.898 31.1577 201.452 31.331C201.009 31.5043 200.509 31.5909 199.952 31.5909ZM199.939 27.8452C200.306 27.8452 200.615 27.7599 200.868 27.5895C201.124 27.4162 201.317 27.169 201.448 26.848C201.581 26.5241 201.648 26.1364 201.648 25.6847C201.648 25.2443 201.583 24.8565 201.452 24.5213C201.321 24.1861 201.13 23.9247 200.877 23.7372C200.624 23.5469 200.311 23.4517 199.939 23.4517C199.556 23.4517 199.236 23.5511 198.98 23.75C198.725 23.946 198.531 24.2131 198.401 24.5511C198.273 24.8892 198.209 25.267 198.209 25.6847C198.209 26.1136 198.274 26.4901 198.405 26.8139C198.536 27.1378 198.729 27.3906 198.985 27.5724C199.243 27.7543 199.561 27.8452 199.939 27.8452ZM206.02 25.1136V29H204.746V20.2727H206.003V23.5199H206.084C206.237 23.1676 206.472 22.8878 206.787 22.6804C207.102 22.473 207.514 22.3693 208.023 22.3693C208.472 22.3693 208.864 22.4616 209.199 22.6463C209.537 22.831 209.798 23.1065 209.983 23.473C210.171 23.8366 210.264 24.2912 210.264 24.8366V29H208.99V24.9901C208.99 24.5099 208.867 24.1378 208.619 23.8736C208.372 23.6065 208.029 23.473 207.588 23.473C207.287 23.473 207.017 23.5369 206.779 23.6648C206.543 23.7926 206.357 23.9801 206.22 24.2273C206.087 24.4716 206.02 24.767 206.02 25.1136ZM214.918 29.1321C214.273 29.1321 213.717 28.9943 213.251 28.7188C212.788 28.4403 212.43 28.0497 212.178 27.5469C211.928 27.0412 211.803 26.4489 211.803 25.7699C211.803 25.0994 211.928 24.5085 212.178 23.9972C212.43 23.4858 212.783 23.0866 213.234 22.7997C213.689 22.5128 214.22 22.3693 214.828 22.3693C215.197 22.3693 215.555 22.4304 215.902 22.5526C216.249 22.6747 216.56 22.8665 216.835 23.1278C217.111 23.3892 217.328 23.7287 217.487 24.1463C217.646 24.5611 217.726 25.0653 217.726 25.6591V26.1108H212.523V25.1562H216.477C216.477 24.821 216.409 24.5241 216.273 24.2656C216.136 24.0043 215.945 23.7983 215.697 23.6477C215.453 23.4972 215.166 23.4219 214.837 23.4219C214.479 23.4219 214.166 23.5099 213.899 23.6861C213.635 23.8594 213.43 24.0866 213.286 24.3679C213.144 24.6463 213.072 24.9489 213.072 25.2756V26.0213C213.072 26.4588 213.149 26.831 213.303 27.1378C213.459 27.4446 213.676 27.679 213.955 27.8409C214.233 28 214.558 28.0795 214.93 28.0795C215.172 28.0795 215.392 28.0455 215.591 27.9773C215.79 27.9062 215.962 27.8011 216.107 27.6619C216.251 27.5227 216.362 27.3509 216.439 27.1463L217.645 27.3636C217.548 27.7187 217.375 28.0298 217.125 28.2969C216.878 28.5611 216.567 28.767 216.192 28.9148C215.82 29.0597 215.395 29.1321 214.918 29.1321ZM215.655 21.6705L214.781 20.5284L213.903 21.6705H212.753V21.6065L214.249 19.7997H215.31L216.81 21.6065V21.6705H215.655ZM214.777 31.2585C214.558 31.2585 214.369 31.1847 214.21 31.0369C214.051 30.8892 213.972 30.7102 213.972 30.5C213.972 30.2898 214.051 30.1108 214.21 29.9631C214.369 29.8153 214.558 29.7415 214.777 29.7415C214.999 29.7415 215.188 29.8153 215.344 29.9631C215.503 30.1108 215.582 30.2898 215.582 30.5C215.582 30.7102 215.503 30.8892 215.344 31.0369C215.188 31.1847 214.999 31.2585 214.777 31.2585ZM103.912 40.4545V41.4773H100.337V40.4545H103.912ZM101.295 38.8864H102.57V45.0781C102.57 45.3253 102.607 45.5114 102.68 45.6364C102.754 45.7585 102.849 45.8423 102.966 45.8878C103.085 45.9304 103.214 45.9517 103.354 45.9517C103.456 45.9517 103.545 45.9446 103.622 45.9304C103.699 45.9162 103.759 45.9048 103.801 45.8963L104.031 46.9489C103.957 46.9773 103.852 47.0057 103.716 47.0341C103.58 47.0653 103.409 47.0824 103.205 47.0852C102.869 47.0909 102.557 47.0312 102.267 46.9062C101.977 46.7812 101.743 46.5881 101.564 46.3267C101.385 46.0653 101.295 45.7372 101.295 45.3423V38.8864ZM109.6 44.2855V40.4545H110.878V47H109.625V45.8665H109.557C109.407 46.2159 109.165 46.5071 108.833 46.7401C108.503 46.9702 108.093 47.0852 107.601 47.0852C107.181 47.0852 106.808 46.9929 106.485 46.8082C106.164 46.6207 105.911 46.3438 105.726 45.9773C105.544 45.6108 105.453 45.1577 105.453 44.6179V40.4545H106.728V44.4645C106.728 44.9105 106.851 45.2656 107.098 45.5298C107.345 45.794 107.666 45.9261 108.061 45.9261C108.3 45.9261 108.537 45.8665 108.773 45.7472C109.012 45.6278 109.209 45.4474 109.365 45.206C109.524 44.9645 109.603 44.6577 109.6 44.2855ZM113.527 49.4545C113.337 49.4545 113.164 49.4389 113.008 49.4077C112.851 49.3793 112.735 49.348 112.658 49.3139L112.965 48.2699C113.198 48.3324 113.405 48.3594 113.587 48.3509C113.769 48.3423 113.929 48.2741 114.069 48.1463C114.211 48.0185 114.336 47.8097 114.444 47.5199L114.601 47.0852L112.206 40.4545H113.57L115.228 45.5341H115.296L116.954 40.4545H118.322L115.624 47.8736C115.499 48.2145 115.34 48.5028 115.147 48.7386C114.954 48.9773 114.724 49.1563 114.456 49.2756C114.189 49.3949 113.88 49.4545 113.527 49.4545ZM122.249 47.1321C121.604 47.1321 121.049 46.9943 120.583 46.7188C120.12 46.4403 119.762 46.0497 119.509 45.5469C119.259 45.0412 119.134 44.4489 119.134 43.7699C119.134 43.0994 119.259 42.5085 119.509 41.9972C119.762 41.4858 120.114 41.0866 120.566 40.7997C121.021 40.5128 121.552 40.3693 122.16 40.3693C122.529 40.3693 122.887 40.4304 123.234 40.5526C123.58 40.6747 123.891 40.8665 124.167 41.1278C124.443 41.3892 124.66 41.7287 124.819 42.1463C124.978 42.5611 125.058 43.0653 125.058 43.6591V44.1108H119.854V43.1562H123.809C123.809 42.821 123.741 42.5241 123.604 42.2656C123.468 42.0043 123.276 41.7983 123.029 41.6477C122.785 41.4972 122.498 41.4219 122.168 41.4219C121.81 41.4219 121.498 41.5099 121.231 41.6861C120.967 41.8594 120.762 42.0866 120.617 42.3679C120.475 42.6463 120.404 42.9489 120.404 43.2756V44.0213C120.404 44.4588 120.481 44.831 120.634 45.1378C120.791 45.4446 121.008 45.679 121.286 45.8409C121.565 46 121.89 46.0795 122.262 46.0795C122.504 46.0795 122.724 46.0455 122.923 45.9773C123.121 45.9062 123.293 45.8011 123.438 45.6619C123.583 45.5227 123.694 45.3509 123.771 45.1463L124.977 45.3636C124.88 45.7187 124.707 46.0298 124.457 46.2969C124.21 46.5611 123.898 46.767 123.523 46.9148C123.151 47.0597 122.727 47.1321 122.249 47.1321ZM122.667 38.2898L124.308 39.7685H123.187L122.096 38.8011L121.018 39.7685H119.897L121.533 38.2898H122.667ZM124.55 38.9716H123.758L123.732 38.2386C123.971 38.2216 124.147 38.1889 124.261 38.1406C124.374 38.0923 124.431 38.0099 124.431 37.8935C124.431 37.7571 124.357 37.6634 124.21 37.6122C124.062 37.5582 123.876 37.5312 123.651 37.5312L123.69 36.9261C124.224 36.9261 124.629 37.0128 124.904 37.1861C125.18 37.3565 125.318 37.5895 125.318 37.8849C125.318 38.1264 125.238 38.3054 125.079 38.4219C124.92 38.5355 124.744 38.6051 124.55 38.6307V38.9716ZM127.877 43.1136V47H126.603V40.4545H127.826V41.5199H127.907C128.058 41.1733 128.294 40.8949 128.615 40.6847C128.939 40.4744 129.346 40.3693 129.838 40.3693C130.284 40.3693 130.674 40.4631 131.01 40.6506C131.345 40.8352 131.605 41.1108 131.789 41.4773C131.974 41.8437 132.066 42.2969 132.066 42.8366V47H130.792V42.9901C130.792 42.5156 130.669 42.1449 130.421 41.8778C130.174 41.608 129.835 41.473 129.403 41.473C129.108 41.473 128.845 41.5369 128.615 41.6648C128.387 41.7926 128.207 41.9801 128.073 42.2273C127.943 42.4716 127.877 42.767 127.877 43.1136ZM139.665 47.1278C139.137 47.1278 138.665 46.9929 138.25 46.723C137.839 46.4503 137.515 46.0625 137.279 45.5597C137.046 45.054 136.929 44.4474 136.929 43.7401C136.929 43.0327 137.047 42.4276 137.283 41.9247C137.522 41.4219 137.848 41.0369 138.263 40.7699C138.678 40.5028 139.148 40.3693 139.674 40.3693C140.08 40.3693 140.407 40.4375 140.654 40.5739C140.904 40.7074 141.097 40.8636 141.233 41.0426C141.373 41.2216 141.481 41.3793 141.557 41.5156H141.634V38.2727H142.908V47H141.664V45.9815H141.557C141.481 46.1207 141.37 46.2798 141.225 46.4588C141.083 46.6378 140.887 46.794 140.637 46.9276C140.387 47.0611 140.063 47.1278 139.665 47.1278ZM139.946 46.0412C140.313 46.0412 140.623 45.9446 140.875 45.7514C141.131 45.5554 141.324 45.2841 141.455 44.9375C141.589 44.5909 141.655 44.1875 141.655 43.7273C141.655 43.2727 141.59 42.875 141.459 42.5341C141.329 42.1932 141.137 41.9276 140.884 41.7372C140.631 41.5469 140.319 41.4517 139.946 41.4517C139.563 41.4517 139.243 41.5511 138.988 41.75C138.732 41.9489 138.539 42.2202 138.408 42.5639C138.28 42.9077 138.216 43.2955 138.216 43.7273C138.216 44.1648 138.282 44.5582 138.412 44.9077C138.543 45.2571 138.736 45.5341 138.992 45.7386C139.25 45.9403 139.569 46.0412 139.946 46.0412ZM149.005 44.2855V40.4545H150.283V47H149.031V45.8665H148.962C148.812 46.2159 148.57 46.5071 148.238 46.7401C147.908 46.9702 147.498 47.0852 147.006 47.0852C146.586 47.0852 146.214 46.9929 145.89 46.8082C145.569 46.6207 145.316 46.3438 145.131 45.9773C144.95 45.6108 144.859 45.1577 144.859 44.6179V40.4545H146.133V44.4645C146.133 44.9105 146.256 45.2656 146.504 45.5298C146.751 45.794 147.072 45.9261 147.467 45.9261C147.705 45.9261 147.942 45.8665 148.178 45.7472C148.417 45.6278 148.614 45.4474 148.771 45.206C148.93 44.9645 149.008 44.6577 149.005 44.2855ZM147.667 49.2585C147.448 49.2585 147.259 49.1847 147.1 49.0369C146.941 48.8892 146.861 48.7102 146.861 48.5C146.861 48.2898 146.941 48.1108 147.1 47.9631C147.259 47.8153 147.448 47.7415 147.667 47.7415C147.888 47.7415 148.077 47.8153 148.234 47.9631C148.393 48.1108 148.472 48.2898 148.472 48.5C148.472 48.7102 148.393 48.8892 148.234 49.0369C148.077 49.1847 147.888 49.2585 147.667 49.2585ZM153.402 43.1136V47H152.127V40.4545H153.35V41.5199H153.431C153.582 41.1733 153.818 40.8949 154.139 40.6847C154.463 40.4744 154.87 40.3693 155.362 40.3693C155.808 40.3693 156.198 40.4631 156.534 40.6506C156.869 40.8352 157.129 41.1108 157.313 41.4773C157.498 41.8437 157.59 42.2969 157.59 42.8366V47H156.316V42.9901C156.316 42.5156 156.193 42.1449 155.946 41.8778C155.698 41.608 155.359 41.473 154.927 41.473C154.632 41.473 154.369 41.5369 154.139 41.6648C153.911 41.7926 153.731 41.9801 153.598 42.2273C153.467 42.4716 153.402 42.767 153.402 43.1136ZM162.176 49.5909C161.656 49.5909 161.208 49.5227 160.833 49.3864C160.461 49.25 160.157 49.0696 159.921 48.8452C159.686 48.6207 159.509 48.375 159.393 48.108L160.488 47.6562C160.565 47.7812 160.667 47.9134 160.795 48.0526C160.926 48.1946 161.102 48.3153 161.323 48.4148C161.548 48.5142 161.836 48.5639 162.188 48.5639C162.671 48.5639 163.07 48.446 163.386 48.2102C163.701 47.9773 163.859 47.6051 163.859 47.0938V45.8068H163.778C163.701 45.946 163.59 46.1009 163.445 46.2713C163.303 46.4418 163.107 46.5895 162.857 46.7145C162.607 46.8395 162.282 46.902 161.882 46.902C161.364 46.902 160.899 46.7812 160.484 46.5398C160.072 46.2955 159.745 45.9361 159.504 45.4616C159.265 44.9844 159.146 44.3977 159.146 43.7017C159.146 43.0057 159.264 42.4091 159.499 41.9119C159.738 41.4148 160.065 41.0341 160.48 40.7699C160.894 40.5028 161.364 40.3693 161.89 40.3693C162.296 40.3693 162.624 40.4375 162.874 40.5739C163.124 40.7074 163.319 40.8636 163.458 41.0426C163.6 41.2216 163.71 41.3793 163.786 41.5156H163.88V40.4545H165.129V47.1449C165.129 47.7074 164.998 48.169 164.737 48.5298C164.475 48.8906 164.122 49.1577 163.676 49.331C163.232 49.5043 162.732 49.5909 162.176 49.5909ZM162.163 45.8452C162.529 45.8452 162.839 45.7599 163.092 45.5895C163.347 45.4162 163.541 45.169 163.671 44.848C163.805 44.5241 163.872 44.1364 163.872 43.6847C163.872 43.2443 163.806 42.8565 163.676 42.5213C163.545 42.1861 163.353 41.9247 163.1 41.7372C162.847 41.5469 162.535 41.4517 162.163 41.4517C161.779 41.4517 161.46 41.5511 161.204 41.75C160.948 41.946 160.755 42.2131 160.624 42.5511C160.497 42.8892 160.433 43.267 160.433 43.6847C160.433 44.1136 160.498 44.4901 160.629 44.8139C160.759 45.1378 160.953 45.3906 161.208 45.5724C161.467 45.7543 161.785 45.8452 162.163 45.8452ZM173.333 40.4545V41.4773H169.757V40.4545H173.333ZM170.716 38.8864H171.99V45.0781C171.99 45.3253 172.027 45.5114 172.101 45.6364C172.175 45.7585 172.27 45.8423 172.387 45.8878C172.506 45.9304 172.635 45.9517 172.774 45.9517C172.877 45.9517 172.966 45.9446 173.043 45.9304C173.12 45.9162 173.179 45.9048 173.222 45.8963L173.452 46.9489C173.378 46.9773 173.273 47.0057 173.137 47.0341C173 47.0653 172.83 47.0824 172.625 47.0852C172.29 47.0909 171.978 47.0312 171.688 46.9062C171.398 46.7812 171.164 46.5881 170.985 46.3267C170.806 46.0653 170.716 45.7372 170.716 45.3423V38.8864ZM176.289 43.1136V47H175.015V38.2727H176.272V41.5199H176.353C176.506 41.1676 176.741 40.8878 177.056 40.6804C177.371 40.473 177.783 40.3693 178.292 40.3693C178.741 40.3693 179.133 40.4616 179.468 40.6463C179.806 40.831 180.067 41.1065 180.252 41.473C180.439 41.8366 180.533 42.2912 180.533 42.8366V47H179.259V42.9901C179.259 42.5099 179.135 42.1378 178.888 41.8736C178.641 41.6065 178.297 41.473 177.857 41.473C177.556 41.473 177.286 41.5369 177.047 41.6648C176.812 41.7926 176.626 41.9801 176.489 42.2273C176.356 42.4716 176.289 42.767 176.289 43.1136ZM185.123 47.1321C184.509 47.1321 183.973 46.9915 183.516 46.7102C183.059 46.429 182.704 46.0355 182.451 45.5298C182.198 45.0241 182.071 44.4332 182.071 43.7571C182.071 43.0781 182.198 42.4844 182.451 41.9759C182.704 41.4673 183.059 41.0724 183.516 40.7912C183.973 40.5099 184.509 40.3693 185.123 40.3693C185.736 40.3693 186.272 40.5099 186.729 40.7912C187.187 41.0724 187.542 41.4673 187.794 41.9759C188.047 42.4844 188.174 43.0781 188.174 43.7571C188.174 44.4332 188.047 45.0241 187.794 45.5298C187.542 46.0355 187.187 46.429 186.729 46.7102C186.272 46.9915 185.736 47.1321 185.123 47.1321ZM185.127 46.0625C185.525 46.0625 185.854 45.9574 186.116 45.7472C186.377 45.5369 186.57 45.2571 186.695 44.9077C186.823 44.5582 186.887 44.1733 186.887 43.7528C186.887 43.3352 186.823 42.9517 186.695 42.6023C186.57 42.25 186.377 41.9673 186.116 41.7543C185.854 41.5412 185.525 41.4347 185.127 41.4347C184.726 41.4347 184.394 41.5412 184.13 41.7543C183.868 41.9673 183.674 42.25 183.546 42.6023C183.421 42.9517 183.358 43.3352 183.358 43.7528C183.358 44.1733 183.421 44.5582 183.546 44.9077C183.674 45.2571 183.868 45.5369 184.13 45.7472C184.394 45.9574 184.726 46.0625 185.127 46.0625ZM185.996 39.6705L185.123 38.5284L184.245 39.6705H183.094V39.6065L184.59 37.7997H185.651L187.151 39.6065V39.6705H185.996ZM191.002 43.1136V47H189.728V40.4545H190.951V41.5199H191.032C191.183 41.1733 191.418 40.8949 191.739 40.6847C192.063 40.4744 192.471 40.3693 192.962 40.3693C193.408 40.3693 193.799 40.4631 194.134 40.6506C194.469 40.8352 194.729 41.1108 194.914 41.4773C195.099 41.8437 195.191 42.2969 195.191 42.8366V47H193.917V42.9901C193.917 42.5156 193.793 42.1449 193.546 41.8778C193.299 41.608 192.96 41.473 192.528 41.473C192.232 41.473 191.969 41.5369 191.739 41.6648C191.512 41.7926 191.332 41.9801 191.198 42.2273C191.067 42.4716 191.002 42.767 191.002 43.1136ZM199.776 49.5909C199.256 49.5909 198.809 49.5227 198.434 49.3864C198.062 49.25 197.758 49.0696 197.522 48.8452C197.286 48.6207 197.11 48.375 196.993 48.108L198.089 47.6562C198.165 47.7812 198.268 47.9134 198.395 48.0526C198.526 48.1946 198.702 48.3153 198.924 48.4148C199.148 48.5142 199.437 48.5639 199.789 48.5639C200.272 48.5639 200.671 48.446 200.986 48.2102C201.302 47.9773 201.459 47.6051 201.459 47.0938V45.8068H201.378C201.302 45.946 201.191 46.1009 201.046 46.2713C200.904 46.4418 200.708 46.5895 200.458 46.7145C200.208 46.8395 199.883 46.902 199.482 46.902C198.965 46.902 198.499 46.7812 198.084 46.5398C197.672 46.2955 197.346 45.9361 197.104 45.4616C196.866 44.9844 196.746 44.3977 196.746 43.7017C196.746 43.0057 196.864 42.4091 197.1 41.9119C197.339 41.4148 197.665 41.0341 198.08 40.7699C198.495 40.5028 198.965 40.3693 199.491 40.3693C199.897 40.3693 200.225 40.4375 200.475 40.5739C200.725 40.7074 200.92 40.8636 201.059 41.0426C201.201 41.2216 201.31 41.3793 201.387 41.5156H201.481V40.4545H202.729V47.1449C202.729 47.7074 202.599 48.169 202.337 48.5298C202.076 48.8906 201.722 49.1577 201.276 49.331C200.833 49.5043 200.333 49.5909 199.776 49.5909ZM199.763 45.8452C200.13 45.8452 200.44 45.7599 200.692 45.5895C200.948 45.4162 201.141 45.169 201.272 44.848C201.405 44.5241 201.472 44.1364 201.472 43.6847C201.472 43.2443 201.407 42.8565 201.276 42.5213C201.145 42.1861 200.954 41.9247 200.701 41.7372C200.448 41.5469 200.136 41.4517 199.763 41.4517C199.38 41.4517 199.06 41.5511 198.805 41.75C198.549 41.946 198.356 42.2131 198.225 42.5511C198.097 42.8892 198.033 43.267 198.033 43.6847C198.033 44.1136 198.099 44.4901 198.229 44.8139C198.36 45.1378 198.553 45.3906 198.809 45.5724C199.067 45.7543 199.386 45.8452 199.763 45.8452ZM207.878 47V40.4545H209.101V41.5199H209.182C209.318 41.1591 209.541 40.8778 209.851 40.6761C210.161 40.4716 210.531 40.3693 210.963 40.3693C211.401 40.3693 211.767 40.4716 212.063 40.6761C212.361 40.8807 212.581 41.1619 212.723 41.5199H212.791C212.947 41.1705 213.196 40.892 213.537 40.6847C213.878 40.4744 214.284 40.3693 214.756 40.3693C215.349 40.3693 215.834 40.5554 216.209 40.9276C216.587 41.2997 216.776 41.8608 216.776 42.6108V47H215.501V42.7301C215.501 42.2869 215.381 41.9659 215.139 41.767C214.898 41.5682 214.609 41.4688 214.274 41.4688C213.859 41.4688 213.537 41.5966 213.307 41.8523C213.077 42.1051 212.962 42.4304 212.962 42.8281V47H211.692V42.6491C211.692 42.294 211.581 42.0085 211.359 41.7926C211.138 41.5767 210.849 41.4688 210.494 41.4688C210.253 41.4688 210.03 41.5327 209.825 41.6605C209.624 41.7855 209.46 41.9602 209.335 42.1847C209.213 42.4091 209.152 42.669 209.152 42.9645V47H207.878ZM218.615 47V40.4545H219.889V47H218.615ZM219.259 39.4446C219.037 39.4446 218.847 39.3707 218.688 39.223C218.532 39.0724 218.453 38.8935 218.453 38.6861C218.453 38.4759 218.532 38.2969 218.688 38.1491C218.847 37.9986 219.037 37.9233 219.259 37.9233C219.48 37.9233 219.669 37.9986 219.826 38.1491C219.985 38.2969 220.064 38.4759 220.064 38.6861C220.064 38.8935 219.985 39.0724 219.826 39.223C219.669 39.3707 219.48 39.4446 219.259 39.4446ZM223.01 43.1136V47H221.736V40.4545H222.959V41.5199H223.04C223.19 41.1733 223.426 40.8949 223.747 40.6847C224.071 40.4744 224.479 40.3693 224.97 40.3693C225.416 40.3693 225.807 40.4631 226.142 40.6506C226.477 40.8352 226.737 41.1108 226.922 41.4773C227.106 41.8437 227.199 42.2969 227.199 42.8366V47H225.925V42.9901C225.925 42.5156 225.801 42.1449 225.554 41.8778C225.307 41.608 224.967 41.473 224.535 41.473C224.24 41.473 223.977 41.5369 223.747 41.6648C223.52 41.7926 223.339 41.9801 223.206 42.2273C223.075 42.4716 223.01 42.767 223.01 43.1136ZM230.314 43.1136V47H229.04V38.2727H230.297V41.5199H230.378C230.531 41.1676 230.765 40.8878 231.081 40.6804C231.396 40.473 231.808 40.3693 232.316 40.3693C232.765 40.3693 233.157 40.4616 233.493 40.6463C233.831 40.831 234.092 41.1065 234.277 41.473C234.464 41.8366 234.558 42.2912 234.558 42.8366V47H233.284V42.9901C233.284 42.5099 233.16 42.1378 232.913 41.8736C232.666 41.6065 232.322 41.473 231.882 41.473C231.581 41.473 231.311 41.5369 231.072 41.6648C230.836 41.7926 230.65 41.9801 230.514 42.2273C230.38 42.4716 230.314 42.767 230.314 43.1136ZM100.528 57.4062V56.2727H107.283V57.4062H104.56V65H103.247V57.4062H100.528ZM110.613 65.1321C109.999 65.1321 109.464 64.9915 109.006 64.7102C108.549 64.429 108.194 64.0355 107.941 63.5298C107.688 63.0241 107.562 62.4332 107.562 61.7571C107.562 61.0781 107.688 60.4844 107.941 59.9759C108.194 59.4673 108.549 59.0724 109.006 58.7912C109.464 58.5099 109.999 58.3693 110.613 58.3693C111.226 58.3693 111.762 58.5099 112.219 58.7912C112.677 59.0724 113.032 59.4673 113.285 59.9759C113.538 60.4844 113.664 61.0781 113.664 61.7571C113.664 62.4332 113.538 63.0241 113.285 63.5298C113.032 64.0355 112.677 64.429 112.219 64.7102C111.762 64.9915 111.226 65.1321 110.613 65.1321ZM110.617 64.0625C111.015 64.0625 111.344 63.9574 111.606 63.7472C111.867 63.5369 112.06 63.2571 112.185 62.9077C112.313 62.5582 112.377 62.1733 112.377 61.7528C112.377 61.3352 112.313 60.9517 112.185 60.6023C112.06 60.25 111.867 59.9673 111.606 59.7543C111.344 59.5412 111.015 59.4347 110.617 59.4347C110.217 59.4347 109.884 59.5412 109.62 59.7543C109.359 59.9673 109.164 60.25 109.036 60.6023C108.911 60.9517 108.849 61.3352 108.849 61.7528C108.849 62.1733 108.911 62.5582 109.036 62.9077C109.164 63.2571 109.359 63.5369 109.62 63.7472C109.884 63.9574 110.217 64.0625 110.617 64.0625ZM115.218 67.4545V58.4545H116.463V59.5156H116.569C116.643 59.3793 116.749 59.2216 116.889 59.0426C117.028 58.8636 117.221 58.7074 117.468 58.5739C117.715 58.4375 118.042 58.3693 118.448 58.3693C118.977 58.3693 119.448 58.5028 119.863 58.7699C120.278 59.0369 120.603 59.4219 120.839 59.9247C121.078 60.4276 121.197 61.0327 121.197 61.7401C121.197 62.4474 121.079 63.054 120.843 63.5597C120.607 64.0625 120.284 64.4503 119.872 64.723C119.46 64.9929 118.989 65.1278 118.461 65.1278C118.063 65.1278 117.738 65.0611 117.485 64.9276C117.235 64.794 117.039 64.6378 116.897 64.4588C116.755 64.2798 116.646 64.1207 116.569 63.9815H116.492V67.4545H115.218ZM116.467 61.7273C116.467 62.1875 116.534 62.5909 116.667 62.9375C116.801 63.2841 116.994 63.5554 117.247 63.7514C117.499 63.9446 117.809 64.0412 118.176 64.0412C118.556 64.0412 118.874 63.9403 119.13 63.7386C119.386 63.5341 119.579 63.2571 119.71 62.9077C119.843 62.5582 119.91 62.1648 119.91 61.7273C119.91 61.2955 119.845 60.9077 119.714 60.5639C119.586 60.2202 119.393 59.9489 119.134 59.75C118.879 59.5511 118.559 59.4517 118.176 59.4517C117.806 59.4517 117.494 59.5469 117.238 59.7372C116.985 59.9276 116.793 60.1932 116.663 60.5341C116.532 60.875 116.467 61.2727 116.467 61.7273ZM130.107 59.1108H128.778C128.727 58.8267 128.631 58.5767 128.492 58.3608C128.353 58.1449 128.183 57.9616 127.981 57.8111C127.779 57.6605 127.553 57.5469 127.303 57.4702C127.056 57.3935 126.793 57.3551 126.515 57.3551C126.012 57.3551 125.562 57.4815 125.164 57.7344C124.769 57.9872 124.457 58.358 124.227 58.8466C123.999 59.3352 123.886 59.9318 123.886 60.6364C123.886 61.3466 123.999 61.946 124.227 62.4347C124.457 62.9233 124.771 63.2926 125.168 63.5426C125.566 63.7926 126.014 63.9176 126.511 63.9176C126.786 63.9176 127.048 63.8807 127.295 63.8068C127.545 63.7301 127.771 63.6179 127.972 63.4702C128.174 63.3224 128.345 63.142 128.484 62.929C128.626 62.7131 128.724 62.4659 128.778 62.1875L130.107 62.1918C130.036 62.6207 129.898 63.0156 129.694 63.3764C129.492 63.7344 129.232 64.044 128.914 64.3054C128.599 64.5639 128.238 64.7642 127.832 64.9062C127.425 65.0483 126.982 65.1193 126.502 65.1193C125.746 65.1193 125.073 64.9403 124.482 64.5824C123.891 64.2216 123.425 63.706 123.085 63.0355C122.746 62.3651 122.577 61.5653 122.577 60.6364C122.577 59.7045 122.748 58.9048 123.089 58.2372C123.43 57.5668 123.896 57.0526 124.487 56.6946C125.077 56.3338 125.749 56.1534 126.502 56.1534C126.965 56.1534 127.397 56.2202 127.798 56.3537C128.201 56.4844 128.563 56.6776 128.884 56.9332C129.205 57.1861 129.471 57.4957 129.681 57.8622C129.891 58.2259 130.033 58.642 130.107 59.1108ZM132.578 56.2727L135.007 63.3807H135.105L137.534 56.2727H138.957L135.816 65H134.295L131.154 56.2727H132.578ZM139.926 65.081C139.693 65.081 139.493 64.9986 139.325 64.8338C139.158 64.6662 139.074 64.4645 139.074 64.2287C139.074 63.9957 139.158 63.7969 139.325 63.6321C139.493 63.4645 139.693 63.3807 139.926 63.3807C140.159 63.3807 140.36 63.4645 140.527 63.6321C140.695 63.7969 140.779 63.9957 140.779 64.2287C140.779 64.3849 140.739 64.5284 140.659 64.6591C140.583 64.7869 140.48 64.8892 140.352 64.9659C140.225 65.0426 140.083 65.081 139.926 65.081ZM148.217 58.4545L145.843 65H144.479L142.102 58.4545H143.47L145.127 63.4915H145.195L146.849 58.4545H148.217ZM150.82 61.1136V65H149.546V58.4545H150.769V59.5199H150.85C151.001 59.1733 151.236 58.8949 151.558 58.6847C151.881 58.4744 152.289 58.3693 152.781 58.3693C153.227 58.3693 153.617 58.4631 153.952 58.6506C154.288 58.8352 154.548 59.1108 154.732 59.4773C154.917 59.8437 155.009 60.2969 155.009 60.8366V65H153.735V60.9901C153.735 60.5156 153.611 60.1449 153.364 59.8778C153.117 59.608 152.778 59.473 152.346 59.473C152.05 59.473 151.788 59.5369 151.558 59.6648C151.33 59.7926 151.15 59.9801 151.016 60.2273C150.886 60.4716 150.82 60.767 150.82 61.1136Z" fill="white"/>
<defs>
<linearGradient id="paint0_linear_12630_17959" x1="1.73506" y1="42.3248" x2="276.765" y2="42.3248" gradientUnits="userSpaceOnUse">
<stop stop-color="#213142"/>
<stop offset="1" stop-color="#0A9C4B"/>
</linearGradient>
</defs>
</svg>
